<svg width="27" height="27" viewBox="0 0 27 27" fill="none" xmlns="http://www.w3.org/2000/svg">
<g clip-path="url(#clip0_69_1637)">
<path d="M26.4395 27.001H0.564453C0.253953 27.001 0.00195312 26.749 0.00195312 26.4385V0.563477C0.00195312 0.252977 0.253953 0.000976562 0.564453 0.000976562H26.4395C26.75 0.000976562 27.002 0.252977 27.002 0.563477V26.4385C27.002 26.749 26.75 27.001 26.4395 27.001ZM1.12695 25.876H25.877V1.12598H1.12695V25.876Z" fill="black"/>
<path d="M7.31296 23.6256H3.93796C3.62746 23.6256 3.37546 23.3736 3.37546 23.0631V19.6881C3.37546 19.3776 3.62746 19.1256 3.93796 19.1256C4.24846 19.1256 4.50046 19.3776 4.50046 19.6881V22.5006H7.31296C7.62346 22.5006 7.87546 22.7526 7.87546 23.0631C7.87546 23.3736 7.62346 23.6256 7.31296 23.6256Z" fill="black"/>
<path d="M23.0631 7.87545C22.7526 7.87545 22.5006 7.62345 22.5006 7.31295V4.50045H19.6881C19.3776 4.50045 19.1256 4.24845 19.1256 3.93795C19.1256 3.62745 19.3776 3.37545 19.6881 3.37545H23.0631C23.3736 3.37545 23.6256 3.62745 23.6256 3.93795V7.31295C23.6256 7.62345 23.3736 7.87545 23.0631 7.87545Z" fill="black"/>
<path d="M3.93824 23.6266C3.79424 23.6266 3.65024 23.5715 3.53999 23.4623C3.32061 23.243 3.32061 22.8863 3.53999 22.6669L22.665 3.54195C22.8844 3.32257 23.241 3.32257 23.4604 3.54195C23.6797 3.76132 23.6797 4.11795 23.4604 4.33732L4.33536 23.4623C4.22624 23.5715 4.08224 23.6266 3.93824 23.6266Z" fill="black"/>
</g>
<defs>
<clipPath id="clip0_69_1637">
<rect width="27" height="27" fill="white"/>
</clipPath>
</defs>
</svg>
