<svg width="84" height="85" viewBox="0 0 84 85" fill="none" xmlns="http://www.w3.org/2000/svg">
<path d="M58.2642 66.5066L60.4895 61.6708C60.5616 61.5142 60.6021 61.345 60.6088 61.1727C60.6155 61.0005 60.5882 60.8286 60.5284 60.6669C60.4686 60.5052 60.3776 60.3569 60.2605 60.2304C60.1434 60.1039 60.0025 60.0017 59.8459 59.9296L55.0766 57.735L56.9838 53.5906C57.1669 53.1957 57.2698 52.7685 57.2866 52.3336C57.3034 51.8987 57.2338 51.4648 57.0818 51.057C57.0285 50.9161 56.9657 50.7789 56.8939 50.6465L68.6987 24.9942L68.7374 25.0119C69.5889 25.4049 70.5155 25.6085 71.4533 25.6086C73.922 25.6086 76.2883 24.2003 77.386 21.8146L81.1038 13.7359C81.7865 12.2522 81.1348 10.4897 79.6512 9.80689L65.9556 3.50443C64.4721 2.82177 62.7095 3.47342 62.0266 4.95704L58.309 13.0358C56.8062 16.3016 58.2404 20.1812 61.5061 21.6842L61.5448 21.7021L49.739 47.3565C48.7632 47.5741 47.8948 48.2247 47.4453 49.2011L45.5382 53.3456L40.7691 51.151C40.6125 51.0789 40.4432 51.0384 40.271 51.0317C40.0988 51.025 39.9269 51.0524 39.7652 51.1121C39.6035 51.1719 39.4552 51.2629 39.3287 51.38C39.2022 51.4971 39.1001 51.638 39.028 51.7946L36.8027 56.6303C35.2255 60.056 34.634 63.8535 35.0948 67.5966C35.1043 67.6739 35.1156 67.7508 35.1261 67.8279C33.9088 67.9239 32.8453 68.5751 32.1904 69.5286C30.6708 69.2661 29.1237 69.127 27.5628 69.127V60.2276C27.5628 53.8669 29.9755 47.802 34.26 43.2012C35.2113 43.4902 36.7636 43.8522 38.5764 43.8522C40.5779 43.8522 42.8969 43.4105 45.0714 41.9421C50.2258 38.4612 52.3679 30.5634 52.4567 30.2289C52.5047 30.0478 52.5134 29.8585 52.4822 29.6738C52.451 29.4891 52.3806 29.3131 52.2757 29.1579C52.1709 29.0026 52.034 28.8716 51.8743 28.7737C51.7145 28.6757 51.5357 28.6131 51.3498 28.5901C51.0067 28.5476 42.8804 27.5842 37.7257 31.065C33.0716 34.2081 32.5354 39.7196 32.4783 41.267C30.4682 43.3925 28.809 45.8242 27.5628 48.471V39.6085C29.0612 38.4484 32.8128 35.0184 32.8128 29.752C32.8128 23.5322 27.4667 17.337 27.239 17.0763C27.1158 16.9353 26.9638 16.8222 26.7933 16.7447C26.6228 16.6672 26.4376 16.6271 26.2503 16.6271C26.063 16.6271 25.8779 16.6672 25.7074 16.7447C25.5369 16.8222 25.3849 16.9353 25.2617 17.0763C25.034 17.337 19.6878 23.5322 19.6878 29.752C19.6878 35.0184 23.4395 38.4484 24.9378 39.6085V51.7055C24.2933 50.3893 23.5278 49.1357 22.6513 47.9611C22.6195 46.6248 22.1978 40.8677 17.3998 37.6275C12.2453 34.1465 4.1193 35.1099 3.77575 35.1526C3.58983 35.1757 3.41101 35.2383 3.25131 35.3362C3.09161 35.4342 2.95472 35.5652 2.84986 35.7204C2.745 35.8757 2.67459 36.0516 2.64336 36.2363C2.61213 36.421 2.62082 36.6103 2.66882 36.7914C2.75758 37.1259 4.89974 45.0237 10.0541 48.5046C12.2289 49.9732 14.5474 50.4147 16.5492 50.4147C18.284 50.4147 19.7805 50.0831 20.7398 49.8012C21.8303 51.3119 22.7253 52.9653 23.3881 54.7325L24.9689 58.9479C24.9492 59.3731 24.9377 59.7997 24.9377 60.2276V69.127C24.4284 69.127 23.9208 69.1432 23.415 69.1729C22.8866 67.6215 21.4159 66.502 19.6878 66.502C18.9964 66.5023 18.3173 66.685 17.7191 67.0317C17.1209 66.6849 16.4418 66.5022 15.7503 66.502C13.9765 66.502 12.473 67.6808 11.982 69.2961C10.3668 69.7872 9.18785 71.2906 9.18785 73.0645C9.18785 73.3898 9.22821 73.7058 9.30302 74.0083C6.86833 75.6813 4.69155 77.747 2.88785 80.152C2.74166 80.347 2.65266 80.5788 2.6308 80.8216C2.60894 81.0643 2.6551 81.3083 2.76409 81.5263C2.87309 81.7443 3.04062 81.9277 3.24793 82.0558C3.45523 82.184 3.69412 82.2519 3.93785 82.252H48.5628C48.8066 82.2519 49.0455 82.1841 49.2528 82.0559C49.4601 81.9278 49.6276 81.7445 49.7366 81.5265C49.8456 81.3085 49.8918 81.0645 49.8699 80.8217C49.8481 80.579 49.759 80.3471 49.6128 80.1521C48.7829 79.0478 47.868 78.0101 46.8764 77.0482C48.3436 76.509 49.7429 75.8006 51.0459 74.9372C54.1887 72.8524 56.6883 69.9329 58.2642 66.5066ZM11.5234 46.3292C8.42135 44.2343 6.53282 39.9414 5.70316 37.646C8.14096 37.5558 12.8195 37.7019 15.9307 39.8029C19.058 41.9151 19.7994 45.5947 19.9746 47.285C18.3393 47.7545 14.6498 48.4407 11.5234 46.3292ZM39.1949 33.2404C42.296 31.146 46.9805 30.998 49.4216 31.0853C48.5914 33.3819 46.7034 37.6724 43.6021 39.7667C40.4747 41.8782 36.7841 41.1917 35.1509 40.7228C35.3266 39.0302 36.0685 35.3517 39.1949 33.2404ZM22.3128 29.752C22.3128 26.0097 24.812 22.0433 26.2503 20.0708C27.689 22.0438 30.1878 26.01 30.1878 29.752C30.1878 33.5254 27.5533 36.1993 26.2505 37.2908C24.9461 36.198 22.3128 33.5246 22.3128 29.752ZM60.6936 14.1331L64.4113 6.05429C64.4488 5.97322 64.5168 5.91031 64.6006 5.87934C64.6844 5.84838 64.777 5.85188 64.8582 5.88908L78.5536 12.1915C78.6347 12.229 78.6977 12.2971 78.7287 12.3809C78.7597 12.4647 78.7562 12.5574 78.719 12.6386L75.0012 20.7174C74.1034 22.6684 71.7852 23.5248 69.8349 22.6274L62.6036 19.2997C60.6526 18.4018 59.7959 16.0841 60.6936 14.1331ZM66.3141 23.8967L54.7918 48.9351L52.4073 47.8379L63.9296 22.7995L66.3141 23.8967ZM35.4378 70.4395C35.818 70.4395 36.1673 70.5984 36.4216 70.887C36.5447 71.0269 36.6962 71.139 36.866 71.2157C37.0359 71.2924 37.2201 71.3321 37.4064 71.3321H37.4066C37.5929 71.3321 37.7771 71.2924 37.9469 71.2157C38.1168 71.139 38.2683 71.027 38.3915 70.8872C38.6459 70.5984 38.9952 70.4395 39.3753 70.4395C40.099 70.4395 40.6878 71.0283 40.6878 71.752C40.6878 72.1001 40.8261 72.4339 41.0723 72.68C41.3184 72.9262 41.6522 73.0645 42.0003 73.0645C42.724 73.0645 43.3128 73.6533 43.3128 74.377C43.3128 75.1006 42.724 75.6895 42.0003 75.6895C41.2767 75.6895 40.6878 75.1006 40.6878 74.377C40.6878 74.0289 40.5496 73.695 40.3034 73.4489C40.0573 73.2028 39.7234 73.0645 39.3753 73.0645C38.9952 73.0645 38.6459 72.9055 38.3916 72.6169C38.2685 72.477 38.117 72.365 37.9472 72.2882C37.7773 72.2115 37.5931 72.1718 37.4068 72.1718H37.4066C37.2203 72.1718 37.0361 72.2115 36.8662 72.2882C36.6964 72.3649 36.5449 72.4769 36.4217 72.6167C36.1673 72.9055 35.818 73.0645 35.4378 73.0645C34.7142 73.0645 34.1253 72.4756 34.1253 71.752C34.1253 71.0283 34.7142 70.4395 35.4378 70.4395ZM13.1253 71.752C13.4734 71.752 13.8073 71.6137 14.0534 71.3675C14.2996 71.1214 14.4378 70.7876 14.4378 70.4395C14.4378 69.7158 15.0267 69.127 15.7503 69.127C16.1305 69.127 16.4798 69.2859 16.7341 69.5745C16.8572 69.7144 17.0088 69.8264 17.1786 69.9032C17.3485 69.9799 17.5327 70.0196 17.7191 70.0196C17.9055 70.0196 18.0897 69.9799 18.2596 69.9032C18.4294 69.8264 18.581 69.7144 18.7041 69.5745C18.9584 69.2859 19.3077 69.127 19.6878 69.127C20.4115 69.127 21.0003 69.7158 21.0003 70.4395C21.0003 71.1631 20.4115 71.752 19.6878 71.752C19.3077 71.752 18.9584 71.593 18.7041 71.3044C18.581 71.1645 18.4294 71.0525 18.2596 70.9757C18.0897 70.899 17.9055 70.8593 17.7191 70.8593C17.5327 70.8593 17.3485 70.899 17.1786 70.9757C17.0088 71.0525 16.8572 71.1645 16.7341 71.3044C16.4798 71.593 16.1305 71.752 15.7503 71.752C15.4023 71.752 15.0684 71.8903 14.8223 72.1364C14.5761 72.3825 14.4378 72.7164 14.4378 73.0645C14.4378 73.7881 13.849 74.377 13.1253 74.377C12.4017 74.377 11.8128 73.7881 11.8128 73.0645C11.8128 72.3408 12.4017 71.752 13.1253 71.752ZM6.75431 79.627C7.96047 78.3468 9.29893 77.1982 10.7473 76.2002C11.4306 76.721 12.2662 77.0028 13.1253 77.002C14.8995 77.002 16.4035 75.8225 16.8942 74.2062C17.182 74.1183 17.4587 73.9978 17.7191 73.847C18.3173 74.1938 18.9964 74.3766 19.6878 74.3768C21.3797 74.3768 22.8255 73.3042 23.3816 71.8033C23.8982 71.77 24.4171 71.752 24.9378 71.752H27.5628C28.8945 71.752 30.2154 71.8635 31.5146 72.075C31.6797 74.0954 33.3756 75.6895 35.4378 75.6895C36.1356 75.6895 36.8137 75.5029 37.4066 75.1597C37.667 75.3105 37.9437 75.431 38.2315 75.5188C38.7222 77.135 40.2262 78.3145 42.0003 78.3145C42.6748 78.3145 43.3101 78.1438 43.8657 77.8436C44.5215 78.4036 45.152 78.9952 45.7464 79.627H6.75431ZM45.9313 74.5981C45.9354 74.5249 45.9378 74.4513 45.9378 74.377C45.9378 72.6031 44.7589 71.0997 43.1437 70.6086C42.6527 68.9933 41.1492 67.8145 39.3753 67.8145C38.8375 67.8145 38.3119 67.9264 37.8274 68.1344C37.2163 64.6079 37.6905 60.9789 39.1872 57.7277L40.8639 54.0842L45.633 56.2789C45.7896 56.351 45.9588 56.3915 46.1311 56.3981C46.3033 56.4048 46.4752 56.3775 46.6368 56.3177C46.7985 56.2579 46.9468 56.1669 47.0733 56.0498C47.1998 55.9327 47.302 55.7919 47.374 55.6353L49.8299 50.2987C49.9062 50.133 50.0451 50.0045 50.2162 49.9412C50.3872 49.878 50.5764 49.8852 50.7421 49.9613L54.2621 51.5811C54.3442 51.6187 54.4181 51.6721 54.4795 51.7384C54.5408 51.8047 54.5885 51.8825 54.6195 51.9673C54.6512 52.052 54.6656 52.1421 54.6622 52.2324C54.6587 52.3227 54.6373 52.4114 54.5992 52.4933L52.1433 57.8301C52.0713 57.9867 52.0308 58.1559 52.0241 58.3282C52.0175 58.5004 52.0448 58.6723 52.1046 58.8339C52.1643 58.9956 52.2554 59.1439 52.3724 59.2704C52.4895 59.3969 52.6304 59.4991 52.787 59.5711L57.5561 61.7658L55.8794 65.4093C54.5072 68.3928 52.3308 70.9348 49.5943 72.7501C48.4446 73.5132 47.2138 74.1281 45.9313 74.5981Z" fill="#EF5000"/>
<path d="M63.0956 15.1917L72.6342 19.5812C72.9506 19.7265 73.3116 19.7404 73.6381 19.6197C73.7998 19.56 73.9481 19.469 74.0746 19.3519C74.2011 19.2348 74.3032 19.094 74.3753 18.9374L76.5699 14.1681C76.642 14.0115 76.6825 13.8423 76.6892 13.6701C76.6958 13.4978 76.6685 13.326 76.6087 13.1643C76.549 13.0026 76.4579 12.8543 76.3408 12.7278C76.2238 12.6013 76.0829 12.4991 75.9263 12.4271L66.3879 8.03775C66.2313 7.96567 66.0621 7.92514 65.8898 7.91847C65.7176 7.91181 65.5457 7.93914 65.384 7.99891C65.2224 8.05868 65.0741 8.14971 64.9476 8.26681C64.8211 8.3839 64.7189 8.52477 64.6469 8.68137L62.452 13.4507C62.3799 13.6072 62.3394 13.7765 62.3327 13.9487C62.326 14.121 62.3534 14.2928 62.4131 14.4545C62.4729 14.6162 62.5639 14.7645 62.681 14.891C62.7982 15.0175 62.939 15.1197 63.0956 15.1917ZM66.4829 10.9712L73.6367 14.2633L72.5394 16.6479L65.3855 13.3558L66.4829 10.9712ZM7.875 25.8144C10.7699 25.8144 13.125 23.4593 13.125 20.5644C13.125 18.0164 9.5655 13.9205 8.85183 13.1253C8.72873 12.9882 8.57814 12.8785 8.40983 12.8034C8.24153 12.7283 8.0593 12.6894 7.875 12.6894C7.6907 12.6894 7.50847 12.7283 7.34017 12.8034C7.17186 12.8785 7.02127 12.9882 6.89817 13.1253C6.85601 13.1723 5.8549 14.2913 4.84066 15.7014C3.34983 17.7745 2.625 19.3653 2.625 20.5644C2.625 23.4593 4.98012 25.8144 7.875 25.8144ZM7.875 16.0279C9.51907 18.0708 10.5 19.8877 10.5 20.5644C10.5 22.0118 9.32236 23.1894 7.875 23.1894C6.42764 23.1894 5.25 22.0118 5.25 20.5644C5.25 19.8877 6.23109 18.0707 7.875 16.0279ZM44.625 25.8144C47.5199 25.8144 49.875 23.4593 49.875 20.5644C49.875 18.0164 46.3155 13.9205 45.6018 13.1253C45.4787 12.9882 45.3281 12.8785 45.1598 12.8034C44.9915 12.7283 44.8093 12.6894 44.625 12.6894C44.4407 12.6894 44.2585 12.7283 44.0902 12.8034C43.9219 12.8785 43.7713 12.9882 43.6482 13.1253C43.606 13.1723 42.6049 14.2913 41.5907 15.7014C40.0998 17.7745 39.375 19.3653 39.375 20.5644C39.375 23.4593 41.7301 25.8144 44.625 25.8144ZM44.625 16.0279C46.2691 18.0708 47.25 19.8875 47.25 20.5644C47.25 22.0118 46.0724 23.1894 44.625 23.1894C43.1776 23.1894 42 22.0118 42 20.5644C42 19.8877 42.9811 18.0707 44.625 16.0279ZM26.25 14.0019C28.421 14.0019 30.1875 12.2356 30.1875 10.0644C30.1875 8.38655 28.1891 5.31235 27.3299 4.06842C27.2091 3.89367 27.0478 3.75083 26.8597 3.65217C26.6716 3.5535 26.4624 3.50195 26.25 3.50195C26.0376 3.50195 25.8284 3.5535 25.6403 3.65217C25.4522 3.75083 25.2909 3.89367 25.1701 4.06842C24.3109 5.31235 22.3125 8.38655 22.3125 10.0644C22.3125 12.2356 24.079 14.0019 26.25 14.0019ZM26.25 7.24746C27.0055 8.52059 27.5513 9.66378 27.5625 10.0654C27.5618 10.7886 26.9734 11.3769 26.25 11.3769C25.5263 11.3769 24.9375 10.7881 24.9375 10.0659C24.9482 9.66476 25.4942 8.52124 26.25 7.24746ZM81.342 80.6469L80.8894 78.6667C79.7997 73.8995 75.0359 70.4394 69.5625 70.4394C66.4301 70.4394 63.5316 71.5741 61.4196 73.437C60.6582 73.1902 59.8629 73.0644 59.0625 73.0644C55.3969 73.0644 52.2147 75.6732 51.4959 79.2675L51.2129 80.682C51.1749 80.8724 51.1795 81.0689 51.2266 81.2573C51.2736 81.4457 51.3619 81.6213 51.485 81.7715C51.6081 81.9217 51.763 82.0426 51.9385 82.1257C52.1141 82.2088 52.3058 82.2519 52.5 82.2519H80.0625C80.2597 82.2518 80.4543 82.2073 80.632 82.1217C80.8096 82.0361 80.9657 81.9116 81.0886 81.7574C81.2115 81.6032 81.2981 81.4233 81.342 81.2311C81.3859 81.0388 81.3859 80.8391 81.342 80.6469ZM58.2356 78.6667L58.0161 79.6269H54.1035C54.6366 77.336 56.697 75.6894 59.0625 75.6894C59.2008 75.6894 59.3376 75.6971 59.4735 75.7083C58.9016 76.6144 58.4776 77.6081 58.2356 78.6667ZM60.7089 79.6269L60.7945 79.2517C61.6142 75.6665 65.3015 73.0644 69.5625 73.0644C73.8235 73.0644 77.5108 75.6665 78.3303 79.2517L78.416 79.6269H60.7089Z" fill="#EF5000"/>
</svg>
