<svg width="70" height="71" viewBox="0 0 70 71" fill="none" xmlns="http://www.w3.org/2000/svg">
<g clip-path="url(#clip0_141_3023)">
<path d="M8.30348 13.0792C9.47565 13.8948 10.3352 14.9287 10.7319 16.3095C10.7319 16.3994 10.7319 16.4893 10.7319 16.5819C26.8241 16.5819 42.9164 16.5819 59.4963 16.5819C59.6985 15.9077 59.6985 15.9077 59.9049 15.2198C60.5946 13.9408 61.6231 12.9979 62.9952 12.5041C64.6772 12.0809 66.2333 12.3145 67.7201 13.1681C68.8497 14.0556 69.6296 15.0504 69.9847 16.4457C70.0382 16.8977 70.0406 17.3436 70.0375 17.7983C70.0386 17.9944 70.0386 17.9944 70.0397 18.1944C70.0417 18.6294 70.0407 19.0645 70.0397 19.4995C70.0405 19.8127 70.0415 20.1258 70.0426 20.4389C70.045 21.2874 70.0448 22.1359 70.0441 22.9845C70.0436 23.6936 70.0445 24.4028 70.0453 25.1119C70.0473 26.8809 70.0468 28.6499 70.0452 30.4189C70.0438 31.9527 70.0456 33.4864 70.0489 35.0202C70.0522 36.5978 70.0534 38.1753 70.0526 39.753C70.0521 40.6376 70.0524 41.5222 70.0548 42.4068C70.0569 43.2388 70.0564 44.0708 70.0538 44.9029C70.0533 45.2076 70.0537 45.5123 70.0551 45.8169C70.0641 47.8839 70.0243 49.6239 68.4863 51.1801C68.0989 51.5028 67.7088 51.767 67.2604 51.9974C67.1385 52.0643 67.1385 52.0643 67.0141 52.1326C65.8557 52.6874 64.661 52.6186 63.4081 52.6124C63.1541 52.6131 62.9002 52.614 62.6462 52.6152C61.9505 52.6178 61.2547 52.6169 60.559 52.6155C59.8078 52.6145 59.0566 52.6167 58.3054 52.6185C56.8346 52.6214 55.3638 52.6214 53.893 52.6203C52.6974 52.6194 51.5018 52.6196 50.3063 52.6205C50.136 52.6206 49.9658 52.6207 49.7904 52.6208C49.4446 52.6211 49.0988 52.6213 48.753 52.6216C46.4315 52.6232 44.11 52.6238 41.7885 52.6223C41.6978 52.6222 41.6071 52.6222 41.5136 52.6221C40.7769 52.6216 40.0401 52.6211 39.3034 52.6206C36.43 52.6185 33.5566 52.6197 30.6832 52.6236C27.4529 52.6278 24.2226 52.6299 20.9922 52.6285C20.6476 52.6283 20.303 52.6282 19.9584 52.6281C19.7888 52.628 19.6193 52.628 19.4446 52.6279C18.2508 52.6276 17.0571 52.6289 15.8633 52.6309C14.4079 52.6333 12.9526 52.6333 11.4972 52.6302C10.7549 52.6287 10.0126 52.6282 9.27028 52.6308C8.59018 52.6331 7.91017 52.6322 7.23007 52.6288C6.98461 52.6282 6.73914 52.6286 6.49368 52.6304C4.6768 52.6424 3.19577 52.3981 1.74715 51.1918C0.585078 50.003 0.201427 48.7472 0.207056 47.136C0.206438 47.0056 0.205822 46.8751 0.205186 46.7407C0.203465 46.3048 0.203684 45.8689 0.203909 45.433C0.203094 45.1199 0.202166 44.8068 0.201136 44.4937C0.198731 43.6441 0.198091 42.7944 0.197917 41.9447C0.197724 41.4136 0.197142 40.8825 0.19642 40.3514C0.19403 38.5932 0.192764 36.8351 0.192968 35.0769C0.192979 34.9823 0.19299 34.8876 0.193001 34.79C0.193012 34.6952 0.193024 34.6004 0.193035 34.5028C0.193146 32.9672 0.19054 31.4317 0.186698 29.8962C0.182779 28.3173 0.180953 26.7385 0.181138 25.1597C0.181208 24.2742 0.180436 23.3887 0.177548 22.5031C0.174906 21.67 0.174893 20.8369 0.176872 20.0037C0.177156 19.6986 0.176517 19.3934 0.174867 19.0883C0.1644 17.0182 0.203463 15.2811 1.74183 13.7215C3.61514 12.135 6.16816 11.8157 8.30348 13.0792ZM62.1524 15.7391C61.5629 16.5429 61.4988 17.5379 61.5067 18.5024C61.5065 18.6079 61.5062 18.7134 61.506 18.8221C61.5056 19.1727 61.507 19.5232 61.5085 19.8737C61.5086 20.1261 61.5086 20.3786 61.5084 20.631C61.5083 21.3143 61.5099 21.9975 61.5118 22.6807C61.5135 23.3955 61.5137 24.1103 61.514 24.8252C61.5149 26.1778 61.5171 27.5305 61.5198 28.8831C61.5229 30.4234 61.5244 31.9638 61.5258 33.5041C61.5286 36.6719 61.5334 39.8396 61.5395 43.0073C61.6306 42.9602 61.7217 42.9131 61.8156 42.8646C61.9364 42.803 62.0572 42.7414 62.1817 42.678C62.3009 42.6168 62.4201 42.5557 62.5429 42.4927C63.9716 41.8297 65.396 41.9642 66.8518 42.4625C67.1701 42.5976 67.488 42.7337 67.8053 42.8711C67.8212 39.48 67.8332 36.0889 67.8406 32.6978C67.8441 31.1232 67.8489 29.5487 67.8567 27.9741C67.8634 26.6016 67.8678 25.2292 67.8694 23.8567C67.8702 23.13 67.8723 22.4034 67.8773 21.6768C67.8819 20.9925 67.8833 20.3084 67.8823 19.6241C67.8825 19.3733 67.8839 19.1225 67.8865 18.8716C67.9008 17.4288 67.8886 16.4673 66.8731 15.3528C66.7986 15.2921 66.7242 15.2313 66.6475 15.1687C66.5358 15.0744 66.5358 15.0744 66.4219 14.9782C65.0131 14.041 63.1912 14.464 62.1524 15.7391ZM2.89219 15.9009C2.26673 16.7664 2.26599 17.7069 2.2703 18.7481C2.27019 18.8524 2.27007 18.9567 2.26995 19.0641C2.26973 19.4113 2.27047 19.7585 2.27122 20.1056C2.27126 20.3554 2.27124 20.6051 2.27116 20.8549C2.27112 21.5314 2.27192 22.2078 2.27287 22.8843C2.27372 23.5919 2.2738 24.2994 2.27396 25.0069C2.27439 26.3461 2.2755 27.6852 2.27687 29.0244C2.2784 30.5492 2.27914 32.0741 2.27983 33.599C2.28125 36.7351 2.28365 39.8712 2.28668 43.0073C2.40503 42.9499 2.52337 42.8925 2.64531 42.8333C2.80228 42.7587 2.95926 42.6841 3.12099 42.6072C3.27586 42.5329 3.43073 42.4586 3.59029 42.3821C4.78299 41.8917 6.10897 41.9369 7.32657 42.3263C7.70122 42.4891 8.05911 42.6732 8.41628 42.8711C8.50618 42.9161 8.59608 42.961 8.68871 43.0073C8.6892 42.8871 8.6897 42.7668 8.69021 42.6429C8.69537 41.5104 8.70311 40.378 8.71376 39.2456C8.71914 38.6634 8.72352 38.0812 8.72562 37.499C8.72768 36.9372 8.73236 36.3755 8.73888 35.8138C8.7409 35.5994 8.74197 35.3849 8.74209 35.1704C8.74241 34.8703 8.74609 34.5704 8.75056 34.2703C8.75238 34.014 8.75238 34.014 8.75423 33.7525C8.82492 33.3362 8.82492 33.3362 9.08191 33.0741C9.43691 32.8934 9.62679 32.907 10.0168 32.9701C10.1257 32.9864 10.2345 33.0028 10.3467 33.0196C10.4289 33.0342 10.511 33.0487 10.5957 33.0637C10.7693 33.7317 10.752 34.3914 10.7517 35.0764C10.7522 35.2098 10.7526 35.3432 10.7531 35.4807C10.7544 35.921 10.7546 36.3613 10.7548 36.8016C10.7552 37.1078 10.7557 37.414 10.7562 37.7201C10.757 38.3615 10.7572 39.0028 10.7571 39.6441C10.7571 40.4666 10.759 41.2891 10.7613 42.1116C10.7629 42.7437 10.7631 43.3757 10.7631 44.0078C10.7632 44.3111 10.7638 44.6144 10.7649 44.9177C10.7662 45.3413 10.7658 45.7648 10.765 46.1884C10.7658 46.314 10.7665 46.4396 10.7673 46.5691C10.7667 46.6846 10.7662 46.8001 10.7656 46.9191C10.7657 47.0192 10.7657 47.1193 10.7658 47.2224C10.7261 47.5501 10.6326 47.7672 10.4595 48.0472C10.0441 48.2549 9.69092 48.2155 9.23356 48.1834C8.89057 47.9479 8.8267 47.7812 8.71478 47.3763C8.68651 47.224 8.65824 47.0718 8.62911 46.9149C8.38967 45.8029 7.99035 45.1718 7.05415 44.5057C6.2403 44.0514 5.50255 44.0254 4.60231 44.2332C3.61615 44.5567 2.97693 45.1812 2.50803 46.0977C2.28344 47.288 2.29315 48.2293 2.98744 49.255C3.4755 49.8161 4.04018 50.1301 4.73852 50.3628C5.07182 50.3762 5.40122 50.3818 5.73453 50.3811C5.88861 50.3816 5.88861 50.3816 6.04579 50.3821C6.39276 50.383 6.73971 50.3829 7.08668 50.3829C7.33684 50.3833 7.587 50.3838 7.83716 50.3844C8.5268 50.3858 9.21643 50.3863 9.90606 50.3866C10.649 50.3872 11.3919 50.3885 12.1348 50.3897C13.9301 50.3924 15.7253 50.3937 17.5205 50.3949C18.3654 50.3955 19.2103 50.3963 20.0552 50.397C22.863 50.3993 25.6707 50.4013 28.4785 50.4023C29.2074 50.4025 29.9363 50.4028 30.6652 50.403C30.7557 50.4031 30.8463 50.4031 30.9396 50.4031C33.8758 50.4042 36.812 50.4074 39.7482 50.4118C42.852 50.4165 45.9558 50.4192 49.0597 50.4196C50.7518 50.4199 52.4439 50.4211 54.1361 50.4246C55.5769 50.4276 57.0178 50.4287 58.4586 50.4273C59.194 50.4267 59.9293 50.427 60.6646 50.4296C61.3377 50.432 62.0108 50.4319 62.6839 50.4298C62.9275 50.4294 63.171 50.43 63.4146 50.4317C64.8078 50.4403 65.8373 50.442 66.9539 49.503C67.7103 48.5996 67.899 48.0274 67.8569 46.8426C67.7553 45.9964 67.4343 45.4502 66.8177 44.8717C66.0527 44.2718 65.24 43.9792 64.2637 44.097C63.2272 44.3637 62.5244 44.8221 61.9481 45.7316C61.6777 46.3229 61.5433 46.9403 61.3947 47.5705C61.3526 47.7278 61.3105 47.8851 61.267 48.0472C60.8559 48.2528 60.4943 48.2073 60.0411 48.1834C59.6325 47.911 59.6325 47.911 59.4963 47.5024C59.4818 47.1212 59.4752 46.7433 59.4747 46.3621C59.474 46.2447 59.4734 46.1272 59.4727 46.0062C59.4706 45.61 59.4694 45.2138 59.4683 44.8176C59.467 44.5298 59.4656 44.242 59.4642 43.9542C59.4605 43.1818 59.4576 42.4094 59.4549 41.637C59.4522 40.9128 59.4488 40.1887 59.4455 39.4645C59.4361 37.3451 59.428 35.2257 59.4196 33.1063C59.4 28.3725 59.3803 23.6386 59.3601 18.7614C43.3577 18.7614 27.3554 18.7614 10.8681 18.7614C10.8232 22.3574 10.7782 25.9534 10.7319 29.6584C10.3233 30.3395 10.3233 30.3395 10.0594 30.4204C9.96664 30.4161 9.87393 30.4119 9.77841 30.4076C9.6857 30.4062 9.59299 30.4048 9.49747 30.4033C9.15931 30.3215 9.04448 30.1977 8.82492 29.9308C8.78481 29.5337 8.76955 29.1655 8.77251 28.7682C8.77178 28.6494 8.77105 28.5307 8.77029 28.4083C8.76896 28.1501 8.76856 27.8919 8.76898 27.6337C8.76959 27.2241 8.76768 26.8147 8.76511 26.4051C8.76009 25.5343 8.75823 24.6635 8.75681 23.7927C8.75517 22.7867 8.75221 21.7807 8.74592 20.7747C8.74408 20.3728 8.74464 19.971 8.74529 19.5692C8.75022 17.3674 8.75022 17.3674 7.80705 15.4199C7.07159 14.7126 6.08475 14.4862 5.09608 14.502C4.10101 14.6042 3.51479 15.1595 2.89219 15.9009Z" fill="#EF5000"/>
<path d="M10.3558 54.5675C10.5346 54.567 10.7134 54.5665 10.8976 54.566C11.0973 54.5661 11.2969 54.5662 11.4965 54.5663C11.7076 54.566 11.9188 54.5656 12.1299 54.5651C12.7116 54.564 13.2933 54.5637 13.875 54.5636C14.5018 54.5634 15.1285 54.5624 15.7553 54.5614C17.1264 54.5596 18.4975 54.5588 19.8686 54.5582C20.7243 54.5578 21.58 54.5572 22.4356 54.5566C24.8035 54.555 27.1713 54.5535 29.5392 54.5531C29.6908 54.5531 29.8424 54.553 29.9985 54.553C30.1505 54.553 30.3025 54.5529 30.4591 54.5529C30.767 54.5528 31.075 54.5528 31.3829 54.5527C31.5357 54.5527 31.6884 54.5527 31.8458 54.5526C34.3222 54.5521 36.7986 54.5497 39.275 54.5465C41.8158 54.5433 44.3567 54.5416 46.8975 54.5415C48.3247 54.5413 49.752 54.5405 51.1792 54.5381C52.3943 54.536 53.6094 54.5353 54.8245 54.5364C55.4448 54.5369 56.065 54.5368 56.6852 54.5349C57.2527 54.5332 57.8202 54.5333 58.3876 54.535C58.5932 54.5352 58.7989 54.5348 59.0044 54.5336C59.2834 54.5321 59.5623 54.5334 59.8413 54.5348C59.9964 54.5347 60.1515 54.5346 60.3113 54.5345C60.775 54.5918 61.0318 54.7172 61.4049 54.9941C61.5993 55.383 61.5616 55.7168 61.5652 56.1516C61.5661 56.2424 61.567 56.3332 61.5679 56.4268C61.5706 56.7279 61.5722 57.0289 61.5735 57.3299C61.5741 57.4327 61.5746 57.5355 61.5752 57.6413C61.578 58.1851 61.58 58.7289 61.5813 59.2727C61.5828 59.8346 61.5875 60.3964 61.5929 60.9583C61.5964 61.3902 61.5976 61.822 61.5981 62.254C61.5987 62.4611 61.6003 62.6682 61.6028 62.8753C61.6061 63.1653 61.606 63.455 61.6051 63.7449C61.6063 63.9923 61.6063 63.9923 61.6075 64.2447C61.5411 64.6652 61.5411 64.6652 61.3588 64.9909C60.7677 65.3482 60.1676 65.2846 59.4904 65.2784C59.2601 65.2795 59.2601 65.2795 59.0251 65.2807C58.517 65.2824 58.009 65.2801 57.501 65.2777C57.1485 65.2777 56.796 65.2779 56.4435 65.2783C55.7045 65.2784 54.9657 65.2768 54.2268 65.2736C53.3724 65.27 52.518 65.2698 51.6636 65.2714C50.8416 65.2728 50.0197 65.272 49.1977 65.2701C48.8479 65.2695 48.4981 65.2694 48.1483 65.2699C47.66 65.2703 47.1719 65.2681 46.6837 65.2651C46.5383 65.2657 46.3928 65.2663 46.243 65.267C46.0439 65.265 46.0439 65.265 45.8408 65.2629C45.7254 65.2626 45.6099 65.2622 45.491 65.2619C45.1274 65.1982 45.0099 65.0903 44.7868 64.8014C44.6449 64.3865 44.6336 64.1765 44.7613 63.7543C44.923 63.4393 44.923 63.4393 45.1955 63.1669C45.4502 63.1334 45.4502 63.1334 45.766 63.1341C45.9454 63.1336 45.9454 63.1336 46.1284 63.133C46.2599 63.134 46.3913 63.1349 46.5268 63.136C46.7341 63.1359 46.7341 63.1359 46.9456 63.1358C47.4041 63.136 47.8625 63.1381 48.3209 63.1403C48.6381 63.1408 48.9554 63.1412 49.2726 63.1414C50.1088 63.1425 50.9449 63.1452 51.7811 63.1482C52.7837 63.1515 53.7863 63.1527 54.7889 63.1543C56.3131 63.1569 57.8374 63.1622 59.3617 63.1669C59.3617 61.0542 59.3617 58.9415 59.3617 56.7649C58.6874 56.7649 58.0131 56.7649 57.3185 56.7649C57.3325 57.0233 57.3465 57.2818 57.361 57.5481C57.3591 58.3439 57.3591 58.3439 57.0375 58.7825C56.5182 58.9925 56.2202 58.957 55.6839 58.8081C55.4034 58.593 55.2963 58.4415 55.139 58.127C55.1204 57.6724 55.1332 57.22 55.139 56.7649C54.4648 56.7649 53.7905 56.7649 53.0958 56.7649C53.1022 57.024 53.1085 57.2832 53.115 57.5502C53.1201 57.89 53.1251 58.2299 53.1299 58.5697C53.1345 58.7405 53.139 58.9114 53.1437 59.0874C53.1455 59.2516 53.1472 59.4158 53.1491 59.5849C53.1519 59.7361 53.1548 59.8874 53.1577 60.0432C53.082 60.5322 52.9356 60.6869 52.551 60.9875C52.2786 61.0646 52.2786 61.0646 52.0061 61.0641C51.8713 61.0686 51.8713 61.0686 51.7337 61.0731C51.3058 60.9386 51.1611 60.6732 50.9164 60.3064C50.8546 59.904 50.8546 59.904 50.8632 59.4652C50.8659 59.2288 50.8659 59.2288 50.8685 58.9876C50.8754 58.7428 50.8754 58.7428 50.8824 58.4931C50.8848 58.3272 50.8873 58.1614 50.8898 57.9905C50.8962 57.5819 50.906 57.1734 50.9164 56.7649C50.2422 56.7649 49.5679 56.7649 48.8732 56.7649C48.8873 56.998 48.9013 57.2312 48.9158 57.4715C48.9151 58.0338 48.9042 58.2167 48.5838 58.6974C48.1238 58.9874 47.9085 59.0351 47.3749 58.9443C46.9477 58.7018 46.8517 58.6006 46.6938 58.127C46.6759 57.6723 46.6879 57.2202 46.6938 56.7649C46.0196 56.7649 45.3453 56.7649 44.6506 56.7649C44.6569 57.024 44.6633 57.2832 44.6698 57.5502C44.6749 57.89 44.6798 58.2299 44.6847 58.5697C44.6892 58.7405 44.6938 58.9114 44.6985 59.0874C44.7003 59.2516 44.702 59.4158 44.7038 59.5849C44.7067 59.7361 44.7095 59.8874 44.7125 60.0432C44.6367 60.5322 44.4903 60.6869 44.1058 60.9875C43.8333 61.0646 43.8333 61.0646 43.5609 61.0641C43.4261 61.0686 43.4261 61.0686 43.2885 61.0731C42.8606 60.9386 42.7159 60.6732 42.4712 60.3064C42.4093 59.904 42.4093 59.904 42.418 59.4652C42.4198 59.3076 42.4215 59.15 42.4233 58.9876C42.4302 58.7428 42.4302 58.7428 42.4371 58.4931C42.4396 58.3272 42.4421 58.1614 42.4446 57.9905C42.451 57.5819 42.4608 57.1734 42.4712 56.7649C41.7969 56.7649 41.1227 56.7649 40.428 56.7649C40.4421 56.998 40.4561 57.2312 40.4706 57.4715C40.4698 58.0338 40.459 58.2167 40.1386 58.6974C39.672 58.9915 39.4699 59.0568 38.9297 58.9443C38.538 58.6974 38.538 58.6974 38.2486 58.2632C38.1916 57.7495 38.2173 57.2846 38.2486 56.7649C37.5743 56.7649 36.9001 56.7649 36.2054 56.7649C36.2117 57.0126 36.218 57.2604 36.2245 57.5156C36.2297 57.8414 36.2346 58.1673 36.2394 58.4931C36.244 58.6563 36.2486 58.8195 36.2533 58.9876C36.255 59.1452 36.2568 59.3028 36.2586 59.4652C36.2615 59.61 36.2643 59.7548 36.2672 59.904C36.1903 60.4045 36.0103 60.6285 35.6605 60.9875C35.3881 61.0779 35.3881 61.0779 35.1157 61.0726C34.9808 61.0752 34.9808 61.0752 34.8433 61.0779C34.418 60.9367 34.2709 60.6733 34.026 60.3064C33.9641 59.904 33.9641 59.904 33.9728 59.4652C33.9745 59.3076 33.9763 59.15 33.9781 58.9876C33.9849 58.7428 33.9849 58.7428 33.9919 58.4931C33.9944 58.3272 33.9968 58.1614 33.9994 57.9905C34.0058 57.5819 34.0156 57.1734 34.026 56.7649C33.3517 56.7649 32.6775 56.7649 31.9828 56.7649C31.9968 56.998 32.0109 57.2312 32.0253 57.4715C32.0246 58.0338 32.0138 58.2167 31.6933 58.6974C31.2268 58.9915 31.0247 59.0568 30.4844 58.9443C30.0928 58.6974 30.0928 58.6974 29.8034 58.2632C29.7464 57.7495 29.7721 57.2846 29.8034 56.7649C29.1291 56.7649 28.4549 56.7649 27.7602 56.7649C27.7665 57.0126 27.7728 57.2604 27.7793 57.5156C27.7844 57.8414 27.7894 58.1673 27.7942 58.4931C27.7988 58.6563 27.8034 58.8195 27.8081 58.9876C27.8098 59.1452 27.8116 59.3028 27.8134 59.4652C27.8162 59.61 27.8191 59.7548 27.822 59.904C27.7451 60.4045 27.5653 60.6287 27.2153 60.9875C26.9429 61.0731 26.9429 61.0731 26.6705 61.0641C26.5806 61.0643 26.4907 61.0644 26.398 61.0646C25.9992 60.9517 25.8395 60.7638 25.5808 60.4426C25.5189 60.0432 25.5189 60.0432 25.5275 59.5849C25.5293 59.4207 25.5311 59.2566 25.5329 59.0874C25.5374 58.9166 25.542 58.7457 25.5467 58.5697C25.5492 58.3967 25.5516 58.2238 25.5541 58.0456C25.5606 57.6186 25.5703 57.1917 25.5808 56.7649C24.9065 56.7649 24.2322 56.7649 23.5376 56.7649C23.546 56.9756 23.5544 57.1863 23.5631 57.4034C23.5639 57.9857 23.5152 58.3475 23.1289 58.8081C22.7354 59.0048 22.4756 58.9956 22.0392 58.9443C21.6476 58.6974 21.6476 58.6974 21.3581 58.2632C21.3011 57.7495 21.3268 57.2846 21.3581 56.7649C20.6839 56.7649 20.0096 56.7649 19.3149 56.7649C19.3213 57.0126 19.3276 57.2604 19.3341 57.5156C19.3392 57.8414 19.3442 58.1673 19.349 58.4931C19.3536 58.6563 19.3581 58.8195 19.3628 58.9876C19.3655 59.224 19.3655 59.224 19.3682 59.4652C19.3724 59.6824 19.3724 59.6824 19.3768 59.904C19.2999 60.4045 19.1201 60.6287 18.7701 60.9875C18.4977 61.0731 18.4977 61.0731 18.2252 61.0641C18.1353 61.0643 18.0454 61.0644 17.9528 61.0646C17.554 60.9517 17.3942 60.7638 17.1355 60.4426C17.0737 60.0432 17.0737 60.0432 17.0823 59.5849C17.0841 59.4207 17.0858 59.2566 17.0876 59.0874C17.0922 58.9166 17.0968 58.7457 17.1015 58.5697C17.1039 58.3967 17.1064 58.2238 17.1089 58.0456C17.1153 57.6186 17.1251 57.1917 17.1355 56.7649C16.4613 56.7649 15.787 56.7649 15.0923 56.7649C15.0979 56.9784 15.1036 57.1919 15.1094 57.4119C15.1226 57.915 15.0894 58.2412 14.8199 58.6718C14.4527 58.9575 14.2624 58.9436 13.7898 58.9187C13.1775 58.774 13.1775 58.774 12.9129 58.3994C12.8578 57.8501 12.8951 57.3183 12.9129 56.7649C12.2387 56.7649 11.5644 56.7649 10.8697 56.7649C10.8697 58.8775 10.8697 60.9902 10.8697 63.1669C11.8077 63.1633 12.7456 63.1598 13.712 63.1561C16.7117 63.1452 19.7114 63.1376 22.7112 63.1321C23.177 63.1313 23.6428 63.1304 24.1086 63.1295C24.2013 63.1293 24.2941 63.1291 24.3896 63.1289C25.892 63.126 27.3943 63.1206 28.8966 63.1143C30.4377 63.108 31.9787 63.1042 33.5198 63.1028C34.3856 63.1019 35.2514 63.0998 36.1172 63.0949C36.9316 63.0903 37.7459 63.0888 38.5603 63.0899C38.8596 63.0897 39.159 63.0883 39.4584 63.0857C39.8663 63.0823 40.2739 63.0831 40.6818 63.085C40.8011 63.083 40.9203 63.081 41.0432 63.079C41.6126 63.086 41.8405 63.0898 42.2771 63.4817C42.542 63.9815 42.4843 64.2639 42.335 64.8014C42.1247 65.074 42.0074 65.1941 41.6666 65.2615C41.5678 65.2616 41.4689 65.2617 41.367 65.2619C41.2527 65.263 41.1383 65.2642 41.0205 65.2654C40.8949 65.2646 40.7692 65.2637 40.6398 65.2629C40.5063 65.2636 40.3729 65.2644 40.2354 65.2651C39.7861 65.2671 39.3369 65.2661 38.8877 65.2651C38.5664 65.2659 38.2451 65.2668 37.9239 65.268C37.0498 65.2704 36.1757 65.2702 35.3016 65.2695C34.7559 65.269 34.2103 65.2694 33.6647 65.2701C33.5741 65.2702 33.4836 65.2703 33.3904 65.2704C33.2065 65.2706 33.0226 65.2708 32.8388 65.271C31.1135 65.2729 29.3883 65.2721 27.6631 65.2706C26.0842 65.2692 24.5053 65.271 22.9264 65.2742C21.3058 65.2776 19.6853 65.2789 18.0648 65.278C17.1547 65.2775 16.2446 65.2778 15.3346 65.2802C14.4789 65.2823 13.6233 65.2818 12.7677 65.2792C12.4532 65.2787 12.1386 65.2791 11.8241 65.2805C11.3957 65.2823 10.9674 65.2808 10.539 65.2784C10.351 65.2803 10.351 65.2803 10.1592 65.2823C9.32236 65.2726 9.32236 65.2726 8.88551 64.9596C8.61105 64.5457 8.62203 64.2437 8.62197 63.7493C8.62086 63.6129 8.62086 63.6129 8.61973 63.4739C8.61803 63.1743 8.62028 62.8748 8.62273 62.5752C8.62271 62.3666 8.62251 62.1579 8.62213 61.9493C8.62194 61.5123 8.62365 61.0754 8.62675 60.6385C8.63062 60.0787 8.63025 59.5191 8.62851 58.9594C8.62756 58.5286 8.62863 58.0979 8.63032 57.6672C8.63093 57.4608 8.63098 57.2544 8.63045 57.0481C8.63005 56.7595 8.6323 56.4711 8.63527 56.1825C8.636 56.0184 8.63674 55.8543 8.6375 55.6852C8.69495 55.2297 8.77504 55.0417 9.09894 54.7217C9.54922 54.5716 9.88152 54.5681 10.3558 54.5675Z" fill="#EF5000"/>
<path d="M28.8745 23.422C29.0285 23.5444 29.1816 23.6681 29.3337 23.7928C29.416 23.8589 29.4983 23.925 29.5831 23.9931C30.2273 24.5131 30.86 25.0468 31.4898 25.5841C32.0191 26.0357 32.5573 26.4737 33.1024 26.9061C33.5769 27.2842 34.0476 27.6667 34.5183 28.0495C34.6107 28.1247 34.7032 28.1998 34.7984 28.2773C35.1817 28.589 35.565 28.9009 35.9483 29.2128C36.1389 29.3679 36.3295 29.5229 36.5202 29.678C36.7048 29.8281 36.8894 29.9783 37.074 30.1286C37.4718 30.4522 37.8703 30.7746 38.2732 31.092C38.3966 31.1892 38.5201 31.2865 38.6473 31.3867C38.7524 31.4687 38.8576 31.5507 38.966 31.6352C39.3216 31.9425 39.3352 32.0926 39.3794 32.5701C39.3368 33.0639 39.3368 33.0639 39.1325 33.3959C38.6258 33.7126 38.2959 33.6653 37.7023 33.6087C37.5674 33.5188 37.4326 33.4289 37.2936 33.3363C37.2936 36.8874 37.2936 40.4385 37.2936 44.0971C37.7881 44.0971 38.2825 44.0971 38.792 44.0971C39.1581 44.31 39.1581 44.31 39.3368 44.642C39.4007 45.1533 39.4092 45.4645 39.1581 45.919C38.7141 46.3465 38.2373 46.2942 37.6528 46.2957C37.5645 46.2961 37.4762 46.2965 37.3852 46.2969C37.0887 46.2981 36.7923 46.2983 36.4958 46.2985C36.2835 46.2991 36.0712 46.2998 35.8588 46.3006C35.2816 46.3023 34.7044 46.3032 34.1272 46.3038C33.7666 46.3042 33.4061 46.3048 33.0456 46.3054C31.9178 46.3073 30.7899 46.3086 29.6621 46.3091C28.3598 46.3097 27.0574 46.3121 25.7551 46.316C24.7486 46.319 23.7422 46.3204 22.7358 46.3205C22.1346 46.3207 21.5333 46.3215 20.9321 46.3239C20.3666 46.3262 19.8011 46.3265 19.2356 46.3253C19.0281 46.3252 18.8206 46.3258 18.6131 46.3271C18.3297 46.3288 18.0464 46.328 17.763 46.3266C17.6045 46.3268 17.4459 46.327 17.2825 46.3272C16.8136 46.2708 16.557 46.1486 16.1806 45.8679C15.9862 45.4793 16.0021 45.2094 16.0444 44.7782C16.2146 44.3866 16.2146 44.3866 16.5892 44.0971C17.1286 44.0971 17.668 44.0971 18.2238 44.0971C18.1788 40.5461 18.1339 36.995 18.0876 33.3363C17.8853 33.4711 17.8853 33.4711 17.6789 33.6087C16.7285 33.6992 16.7285 33.6992 16.2487 33.3874C15.9685 32.9438 15.9348 32.7647 16.0444 32.2466C16.538 31.4864 17.2449 30.9315 17.954 30.3822C18.4418 30.0037 18.9202 29.6145 19.3986 29.2244C19.5877 29.0706 19.7767 28.9168 19.9658 28.763C20.1084 28.6471 20.1084 28.6471 20.2538 28.5287C20.7121 28.1559 21.1706 27.7835 21.6291 27.411C21.8107 27.2635 21.9923 27.1159 22.174 26.9683C22.5372 26.6732 22.9004 26.3781 23.2637 26.0829C23.3987 25.9732 23.3987 25.9732 23.5365 25.8612C23.7167 25.7148 23.897 25.5686 24.0774 25.4225C24.5541 25.036 25.0287 24.6472 25.5005 24.2547C25.6486 24.1324 25.6486 24.1324 25.7996 24.0075C25.9889 23.851 26.1777 23.6937 26.3657 23.5356C26.451 23.4653 26.5364 23.3949 26.6243 23.3225C26.6989 23.2603 26.7735 23.1981 26.8503 23.134C27.5891 22.6468 28.1979 22.9524 28.8745 23.422ZM27.6225 25.4359C27.529 25.5129 27.529 25.5129 27.4337 25.5915C24.9946 27.6016 24.9946 27.6016 23.8085 28.5688C23.7244 28.6375 23.6403 28.7062 23.5536 28.7769C23.2698 29.0085 22.9858 29.2399 22.7018 29.4712C22.6139 29.543 22.526 29.6147 22.4354 29.6886C22.3055 29.7944 22.3055 29.7944 22.1729 29.9022C22.05 30.0071 22.05 30.0071 21.9246 30.1141C21.6291 30.3396 21.6291 30.3396 21.312 30.4891C20.8941 30.7143 20.677 30.901 20.4032 31.2931C20.1678 32.2255 20.2611 33.2345 20.2835 34.1871C20.2858 34.4728 20.2875 34.7585 20.2887 35.0442C20.2934 35.7943 20.3054 36.5441 20.319 37.294C20.3316 38.0601 20.3372 38.8262 20.3433 39.5923C20.3565 41.094 20.378 42.5955 20.4032 44.0971C21.3921 44.0971 22.381 44.0971 23.3999 44.0971C23.4186 43.2146 23.4349 42.3327 23.4448 41.45C23.4489 41.1498 23.4545 40.8496 23.4615 40.5495C23.4714 40.118 23.4761 39.6868 23.4797 39.2552C23.4839 39.1209 23.4881 38.9867 23.4925 38.8484C23.4926 38.4907 23.4866 38.1785 23.3999 37.8313C23.0139 37.4774 23.0139 37.4774 22.5826 37.2865C22.4449 36.8811 22.52 36.635 22.5826 36.1968C22.7345 35.9625 22.7345 35.9625 22.9912 35.7881C23.3996 35.7344 23.3996 35.7344 23.9064 35.7309C24.045 35.7292 24.045 35.7292 24.1864 35.7274C24.4918 35.7243 24.7971 35.7241 25.1025 35.7243C25.3148 35.7233 25.527 35.7223 25.7392 35.7211C26.1839 35.7193 26.6286 35.7191 27.0734 35.7199C27.6437 35.7207 28.2139 35.7165 28.7842 35.711C29.2224 35.7075 29.6606 35.7071 30.0988 35.7076C30.3091 35.7074 30.5193 35.7061 30.7296 35.7036C31.0235 35.7006 31.3171 35.7019 31.611 35.7043C31.8619 35.7039 31.8619 35.7039 32.1178 35.7035C32.5262 35.7881 32.5262 35.7881 32.7872 36.1078C32.9803 36.5806 32.9723 36.8062 32.7986 37.2865C32.6624 37.3553 32.5262 37.4241 32.3859 37.4949C31.9642 37.7781 31.9642 37.7781 31.9088 38.1217C31.8866 38.5019 31.8895 38.8745 31.9015 39.2552C31.9032 39.4626 31.9032 39.4626 31.905 39.6743C31.9096 40.1158 31.9198 40.5569 31.9302 40.9983C31.9343 41.2977 31.9381 41.5971 31.9414 41.8965C31.9497 42.6303 31.9657 43.3633 31.9813 44.0971C33.0152 44.0971 34.049 44.0971 35.1142 44.0971C35.1574 42.4737 35.1924 40.8507 35.213 39.2268C35.2229 38.4726 35.2364 37.7188 35.2581 36.9649C35.2789 36.2362 35.2902 35.5079 35.2952 34.779C35.2987 34.502 35.3055 34.225 35.3158 33.9482C35.4134 32.3099 35.4134 32.3099 34.7018 30.9045C34.3096 30.5408 33.8899 30.2351 33.44 29.9468C33.1074 29.7295 32.8059 29.4781 32.5006 29.2244C32.3923 29.1387 32.284 29.053 32.1723 28.9647C31.8278 28.6913 31.4871 28.4136 31.147 28.1346C31.0243 28.0342 30.9015 27.9338 30.7751 27.8303C30.542 27.6394 30.3092 27.4481 30.0767 27.2564C29.784 27.0152 29.4907 26.7747 29.1975 26.5341C29.1039 26.4568 29.0104 26.3794 28.9141 26.2997C28.8251 26.2269 28.7362 26.1542 28.6446 26.0792C28.5262 25.9818 28.5262 25.9818 28.4055 25.8824C28.1555 25.6997 27.9027 25.5665 27.6225 25.4359ZM25.5793 37.8313C25.5793 39.8991 25.5793 41.9668 25.5793 44.0971C26.9728 44.0971 28.3662 44.0971 29.8019 44.0971C29.8019 42.0294 29.8019 39.9617 29.8019 37.8313C28.4084 37.8313 27.015 37.8313 25.5793 37.8313Z" fill="#EF5000"/>
<path d="M14.5499 6.06833C14.662 6.06621 14.7741 6.06409 14.8896 6.06191C15.0743 6.05943 15.0743 6.05943 15.2628 6.05691C15.3938 6.05468 15.5248 6.05245 15.6597 6.05015C16.1008 6.04288 16.542 6.03663 16.9832 6.03044C17.299 6.02557 17.6148 6.02069 17.9306 6.01579C20.8441 5.9722 23.7578 5.94714 26.6716 5.92701C27.0639 5.92425 27.4561 5.92143 27.8484 5.91857C27.9946 5.91751 27.9946 5.91751 28.1437 5.91642C29.7024 5.90476 31.2606 5.88208 32.8191 5.85488C34.4311 5.82699 36.043 5.81129 37.6553 5.80597C38.5556 5.80268 39.4554 5.79428 40.3555 5.77246C44.9058 5.66659 48.5922 6.25116 52.7475 8.0273C53.0636 8.16224 53.3798 8.29707 53.696 8.43178C53.8454 8.4958 53.9949 8.55982 54.1488 8.62579C55.2542 9.07857 56.213 9.24059 57.4009 9.19568C57.8615 9.22637 57.8615 9.22637 58.1941 9.46957C58.5029 9.9084 58.4812 10.2012 58.4064 10.7247C58.1042 11.1207 57.927 11.2477 57.4529 11.4058C57.3121 11.4025 57.1712 11.3993 57.0262 11.3959C55.7186 11.3774 54.7594 11.6523 53.5793 12.2108C49.1898 14.243 45.414 14.8215 40.5795 14.7515C40.4426 14.7498 40.3058 14.7481 40.1648 14.7463C39.2474 14.734 38.3306 14.713 37.4136 14.6839C37.2936 14.6804 37.1737 14.6768 37.0501 14.6731C36.7134 14.662 36.3769 14.6479 36.0403 14.6326C35.8929 14.6278 35.8929 14.6278 35.7424 14.6228C35.1562 14.5914 34.7656 14.4876 34.2966 14.13C34.0861 13.7089 34.1204 13.368 34.1604 12.9041C34.3691 12.6047 34.3691 12.6047 34.7053 12.3593C35.0781 12.3083 35.3953 12.2901 35.7674 12.2974C35.8738 12.2973 35.9802 12.2973 36.0898 12.2972C36.4406 12.2976 36.7914 12.3018 37.1422 12.3061C37.3857 12.3071 37.6293 12.3079 37.8728 12.3084C38.5133 12.3105 39.1537 12.3158 39.7941 12.3219C40.4479 12.3274 41.1016 12.3299 41.7554 12.3327C43.0377 12.3385 44.32 12.3481 45.6023 12.3593C45.6023 10.9658 45.6023 9.57235 45.6023 8.13666C36.5673 8.13666 27.5323 8.13666 18.2235 8.13666C18.2235 9.53012 18.2235 10.9236 18.2235 12.3593C18.6167 12.3564 19.01 12.3536 19.4152 12.3506C20.7135 12.3416 22.0118 12.3356 23.3101 12.331C24.0974 12.3282 24.8847 12.3243 25.672 12.3182C26.4315 12.3123 27.191 12.309 27.9506 12.3076C28.2406 12.3066 28.5306 12.3046 28.8206 12.3017C29.2263 12.2977 29.6319 12.2972 30.0377 12.2974C30.2182 12.2945 30.2182 12.2945 30.4023 12.2915C31.2121 12.297 31.2121 12.297 31.6475 12.6058C31.9354 13.0412 31.9086 13.3473 31.8448 13.8576C31.605 14.2915 31.5044 14.3797 31.0275 14.5387C30.8042 14.552 30.5804 14.5576 30.3566 14.5587C30.149 14.5602 30.149 14.5602 29.9372 14.5617C29.7854 14.5621 29.6336 14.5624 29.4772 14.5628C29.2373 14.5641 29.2373 14.5641 28.9925 14.5655C28.4618 14.5682 27.931 14.5698 27.4003 14.5711C27.2172 14.5717 27.0341 14.5723 26.851 14.5728C25.9902 14.5754 25.1294 14.5774 24.2685 14.5785C23.2772 14.5798 22.2858 14.5834 21.2945 14.5889C20.5269 14.593 19.7594 14.595 18.9918 14.5955C18.534 14.5958 18.0764 14.5973 17.6186 14.6005C17.1067 14.6038 16.595 14.6036 16.0831 14.6027C15.9333 14.6044 15.7834 14.6062 15.629 14.608C14.5464 14.6007 13.5815 14.4167 12.7153 13.731C12.6451 13.6435 12.5749 13.5561 12.5025 13.466C12.3929 13.3359 12.3929 13.3359 12.2811 13.2032C11.7114 12.2934 11.7669 11.3179 11.7618 10.282C11.7574 10.1217 11.7529 9.9614 11.7483 9.79623C11.7418 8.74256 11.8757 7.91528 12.5025 7.04695C13.1231 6.46754 13.6812 6.08243 14.5499 6.06833ZM14.1371 8.5453C13.8821 9.05523 13.958 9.66115 13.9498 10.2224C13.9447 10.3519 13.9396 10.4814 13.9343 10.6148C13.9267 11.2222 13.9424 11.5807 14.2594 12.1097C14.7956 12.4747 14.7956 12.4747 16.044 12.3593C16.044 10.9658 16.044 9.57235 16.044 8.13666C14.9835 8.11428 14.9835 8.11428 14.1371 8.5453ZM47.7817 8.68151C47.7817 9.71537 47.7817 10.7492 47.7817 11.8144C48.8556 11.4971 48.8556 11.4971 49.9026 11.1275C50.0273 11.0797 50.152 11.0318 50.2804 10.9825C50.4679 10.9097 50.4679 10.9097 50.6592 10.8354C50.7895 10.7853 50.9198 10.7351 51.0541 10.6835C51.371 10.5615 51.6878 10.439 52.0044 10.3161C51.5907 10.0403 51.2216 9.89054 50.7561 9.71907C50.5921 9.6585 50.4281 9.59792 50.2591 9.53551C50.174 9.50436 50.0888 9.47322 50.0011 9.44113C49.7396 9.34547 49.4784 9.24901 49.2173 9.15241C48.5169 8.8383 48.5169 8.8383 47.7817 8.68151Z" fill="#EF5000"/>
<path d="M45.0327 39.8017C45.1249 39.8005 45.2171 39.7994 45.3121 39.7982C45.6161 39.7951 45.92 39.796 46.224 39.7972C46.4357 39.7965 46.6474 39.7957 46.8591 39.7947C47.3025 39.7933 47.7458 39.7939 48.1892 39.7959C48.7572 39.7982 49.325 39.795 49.893 39.7902C50.3301 39.7872 50.7671 39.7874 51.2041 39.7885C51.4135 39.7887 51.623 39.7877 51.8324 39.7857C52.1252 39.7833 52.4178 39.7853 52.7107 39.7884C52.8772 39.7885 53.0437 39.7887 53.2153 39.7888C53.6391 39.8744 53.6391 39.8744 53.9653 40.1871C54.2626 40.6879 54.2598 41.1394 54.2516 41.7053C54.2518 41.8149 54.252 41.9245 54.2522 42.0374C54.252 42.2683 54.2504 42.4993 54.2476 42.7302C54.2436 43.0833 54.2447 43.4361 54.2465 43.7892C54.2457 44.014 54.2445 44.2388 54.2431 44.4636C54.2435 44.5689 54.2439 44.6742 54.2443 44.7827C54.2366 45.2207 54.2132 45.5419 54.0015 45.93C53.5576 46.3426 53.0817 46.2949 52.5059 46.2984C52.3281 46.2997 52.1504 46.301 51.9672 46.3023C51.7729 46.303 51.5785 46.3036 51.3842 46.3041C51.1848 46.3049 50.9855 46.3056 50.7861 46.3064C50.3682 46.3079 49.9503 46.3087 49.5323 46.3091C48.9975 46.3099 48.4627 46.3132 47.9279 46.317C47.5161 46.3196 47.1043 46.3203 46.6925 46.3205C46.4954 46.3209 46.2982 46.322 46.1011 46.3238C45.825 46.3261 45.5489 46.3256 45.2727 46.325C45.1158 46.3255 44.9588 46.326 44.7971 46.3265C44.328 46.2706 44.0721 46.1483 43.6956 45.8678C43.4748 45.4262 43.5313 44.9411 43.5269 44.4556C43.5258 44.3424 43.5247 44.2292 43.5236 44.1126C43.5217 43.8728 43.5202 43.633 43.5192 43.3932C43.5168 43.0267 43.5108 42.6603 43.5048 42.2938C43.5034 42.0609 43.5023 41.828 43.5014 41.5951C43.499 41.4856 43.4966 41.376 43.4941 41.2632C43.4959 40.8047 43.5042 40.4954 43.7778 40.1181C44.214 39.7924 44.4909 39.8045 45.0327 39.8017ZM45.7388 42.0538C45.7388 42.728 45.7388 43.4023 45.7388 44.097C47.8065 44.097 49.8742 44.097 52.0046 44.097C52.0046 43.4227 52.0046 42.7485 52.0046 42.0538C49.9369 42.0538 47.8692 42.0538 45.7388 42.0538Z" fill="#EF5000"/>
<path d="M45.0327 35.5793C45.1249 35.5781 45.2171 35.577 45.3121 35.5758C45.6161 35.5727 45.92 35.5736 46.224 35.5748C46.4357 35.5741 46.6474 35.5732 46.8591 35.5723C47.3024 35.5708 47.7458 35.5715 48.1891 35.5735C48.7571 35.5758 49.325 35.5726 49.893 35.5678C50.33 35.5648 50.767 35.565 51.2041 35.5661C51.4135 35.5662 51.6229 35.5653 51.8323 35.5633C52.1252 35.5609 52.4178 35.5629 52.7106 35.566C52.8772 35.5661 53.0437 35.5663 53.2153 35.5664C53.6391 35.652 53.6391 35.652 53.9653 35.9718C54.2327 36.4136 54.2704 36.6424 54.184 37.1503C53.8799 37.5382 53.7004 37.6747 53.2305 37.8314C52.9528 37.8456 52.6748 37.8516 52.3968 37.8533C52.2249 37.8546 52.0531 37.8559 51.876 37.8573C51.6881 37.858 51.5002 37.8585 51.3123 37.8591C51.1194 37.8598 50.9265 37.8606 50.7336 37.8614C50.329 37.8628 49.9245 37.8636 49.52 37.8641C49.0028 37.8649 48.4858 37.8681 47.9687 37.872C47.5701 37.8745 47.1715 37.8752 46.7729 37.8755C46.5823 37.8759 46.3918 37.877 46.2012 37.8788C45.9339 37.8811 45.6667 37.8806 45.3994 37.8799C45.2476 37.8804 45.0957 37.8809 44.9393 37.8814C44.4469 37.8236 44.1183 37.6779 43.6955 37.4227C43.485 37.0016 43.5193 36.6607 43.5593 36.1968C43.9834 35.6131 44.3327 35.5829 45.0327 35.5793Z" fill="#EF5000"/>
<path d="M49.5238 31.357C49.6976 31.3562 49.6976 31.3562 49.8749 31.3554C50.1194 31.355 50.364 31.356 50.6086 31.3583C50.9826 31.3612 51.3563 31.3583 51.7304 31.3548C51.9682 31.3552 52.2061 31.3559 52.4439 31.357C52.5556 31.3559 52.6673 31.3548 52.7823 31.3536C53.295 31.362 53.5583 31.3704 53.983 31.6765C54.2799 32.1143 54.2586 32.4114 54.1849 32.9277C53.8827 33.3237 53.7055 33.4507 53.2314 33.6087C52.897 33.6235 52.5666 33.6311 52.2321 33.6316C52.0858 33.6323 52.0858 33.6323 51.9364 33.633C51.7301 33.6337 51.5238 33.634 51.3175 33.634C51.003 33.6343 50.6886 33.6368 50.3741 33.6393C50.1733 33.6397 49.9726 33.64 49.7718 33.6401C49.6783 33.6411 49.5847 33.6421 49.4884 33.6431C48.9521 33.6406 48.5292 33.5949 48.0553 33.3363C47.7174 32.8295 47.7197 32.5738 47.7829 31.9742C48.2395 31.2961 48.7763 31.3496 49.5238 31.357Z" fill="#EF5000"/>
</g>
<defs>
<clipPath id="clip0_141_3023">
<rect width="69.7412" height="69.7412" fill="white" transform="translate(0.244141 0.78125)"/>
</clipPath>
</defs>
</svg>
