<svg width="83" height="83" viewBox="0 0 83 83" fill="none" xmlns="http://www.w3.org/2000/svg">
<g clip-path="url(#clip0_208_643)">
<path d="M6.99219 40.9651C12.4513 35.506 21.2863 35.506 26.7452 40.9651M66.5981 49.3011C69.4731 49.3011 71.8037 46.9705 71.8037 44.0955C71.8037 40.0168 66.5981 34.488 66.5981 34.488C66.5981 34.488 61.3925 40.0168 61.3925 44.0955C61.3926 46.9705 63.7232 49.3011 66.5981 49.3011Z" stroke="#EF5000" stroke-width="2.38513" stroke-miterlimit="10"/>
<path d="M10.2852 44.2574C13.9249 40.6177 19.8145 40.6188 23.4531 44.2574M13.5776 47.55C15.397 45.7306 18.3423 45.7295 20.1615 47.5489" stroke="#EF5000" stroke-width="2.38513" stroke-miterlimit="10"/>
<path d="M31.6023 41.9711C31.6023 50.1077 25.0061 56.7038 16.8695 56.7038C8.73287 56.7038 2.13672 50.1077 2.13672 41.9711C2.13672 33.8344 8.73287 27.2383 16.8695 27.2383C25.0061 27.2383 31.6023 33.8343 31.6023 41.9711Z" stroke="#EF5000" stroke-width="2.38513" stroke-miterlimit="10"/>
<path d="M66.6 56.6274C74.7366 56.6274 81.3327 50.0313 81.3327 41.8946C81.3327 33.758 74.7366 27.1619 66.6 27.1619C58.4633 27.1619 51.8672 33.758 51.8672 41.8946C51.8672 50.0313 58.4633 56.6274 66.6 56.6274Z" stroke="#EF5000" stroke-width="2.38513" stroke-miterlimit="10"/>
<path d="M41.6976 31.5048C49.8343 31.5048 56.4304 24.9088 56.4304 16.7721C56.4304 8.63539 49.8343 2.03931 41.6976 2.03931C33.5609 2.03931 26.9648 8.63539 26.9648 16.7721C26.9648 24.9088 33.5609 31.5048 41.6976 31.5048Z" stroke="#EF5000" stroke-width="2.38513" stroke-miterlimit="10"/>
<path d="M41.6978 20.9488C45.5824 20.9488 48.7315 17.7997 48.7315 13.9151C48.7315 10.0305 45.5824 6.88135 41.6978 6.88135C37.8132 6.88135 34.6641 10.0305 34.6641 13.9151C34.6641 17.7997 37.8132 20.9488 41.6978 20.9488Z" stroke="#EF5000" stroke-width="2.38513" stroke-miterlimit="10"/>
<path d="M38.1885 20.6227V25.7538H45.3216V20.1096M17.0391 26.9134C19.4226 22.8765 22.7543 19.4816 26.7456 17.0226M56.4159 16.7939C60.6269 19.3 64.1297 22.8378 66.5939 27.0734M56.1596 72.4811V80.8848H27.4522L27.4543 62.734" stroke="#EF5000" stroke-width="2.38513" stroke-miterlimit="10"/>
<path d="M38.1122 80.6185V68.8587H45.3376V81.0984M56.1328 70.0391V63.0386M30.756 62.9347L41.7248 52.012L52.7186 62.9288L59.5285 62.9406L41.7621 45.1965L24.0039 62.9339L30.756 62.9347Z" stroke="#EF5000" stroke-width="2.38513" stroke-miterlimit="10"/>
</g>
<defs>
<clipPath id="clip0_208_643">
<rect width="81.5801" height="81.5801" fill="white" transform="translate(0.945312 0.671875)"/>
</clipPath>
</defs>
</svg>
