<svg width="64" height="62" viewBox="0 0 64 62" fill="none" xmlns="http://www.w3.org/2000/svg">
<g clip-path="url(#clip0_156_629)">
<path d="M57.6386 27.867V6.09138H26.7461V60.7329H57.6386V39.0421" stroke="#EF5000" stroke-width="3" stroke-linecap="round" stroke-linejoin="round"/>
<path d="M26.7465 60.7341H5.83398V27.1277H26.7465V60.7329V60.7341Z" stroke="#EF5000" stroke-width="3" stroke-linecap="round" stroke-linejoin="round"/>
<path d="M1.25 60.7341H62.75" stroke="#EF5000" stroke-width="3" stroke-linecap="round" stroke-linejoin="round"/>
<path d="M14.4477 27.1277H5.83398V21.8882H14.4477V27.1277Z" stroke="#EF5000" stroke-width="3" stroke-linecap="round" stroke-linejoin="round"/>
<path d="M53.313 6.09138H31.3867V1.26587H53.313V6.09138Z" stroke="#EF5000" stroke-width="3" stroke-linecap="round" stroke-linejoin="round"/>
<path d="M38.8066 18.5235H33.5078V13.1575H38.8066V18.5235ZM50.5216 18.5235H45.2228V13.1575H50.5216V18.5235ZM38.8066 29.5936H33.5078V24.2276H38.8066V29.5936ZM50.5216 29.5936H45.2228V24.2276H50.5216V29.5936ZM38.8066 40.6612H33.5078V35.2951H38.8066V40.6612ZM50.5216 40.6612H45.2228V35.2951H50.5216V40.6612Z" stroke="#EF5000" stroke-width="3" stroke-linecap="round" stroke-linejoin="round"/>
<path d="M46.162 60.7329H38.0107V48.9425H46.162V60.7329ZM18.982 60.7329H13.4395V53.6807H18.982V60.7329Z" stroke="#EF5000" stroke-width="3" stroke-linecap="round" stroke-linejoin="round"/>
<path d="M11.0801 32.576V48.4349" stroke="#EF5000" stroke-width="3" stroke-linecap="round" stroke-linejoin="round"/>
<path d="M16.1992 32.576V48.4349" stroke="#EF5000" stroke-width="3" stroke-linecap="round" stroke-linejoin="round"/>
<path d="M21.3184 32.576V48.4349" stroke="#EF5000" stroke-width="3" stroke-linecap="round" stroke-linejoin="round"/>
</g>
<defs>
<clipPath id="clip0_156_629">
<rect width="64" height="62" fill="white"/>
</clipPath>
</defs>
</svg>
