<svg width="31" height="30" viewBox="0 0 31 30" fill="none" xmlns="http://www.w3.org/2000/svg">
<path d="M24.8797 3.79874H22.123V2.87984C22.123 2.63613 22.0262 2.4024 21.8538 2.23008C21.6815 2.05775 21.4478 1.96094 21.2041 1.96094C20.9604 1.96094 20.7266 2.05775 20.5543 2.23008C20.382 2.4024 20.2852 2.63613 20.2852 2.87984V3.79874H11.0962V2.87984C11.0962 2.63613 10.9994 2.4024 10.827 2.23008C10.6547 2.05775 10.421 1.96094 10.1773 1.96094C9.93357 1.96094 9.69984 2.05775 9.52752 2.23008C9.35519 2.4024 9.25838 2.63613 9.25838 2.87984V3.79874H6.50168C6.01426 3.79874 5.54681 3.99236 5.20216 4.33702C4.8575 4.68167 4.66388 5.14912 4.66388 5.63654V24.0145C4.66388 24.5019 4.8575 24.9694 5.20216 25.314C5.54681 25.6587 6.01426 25.8523 6.50168 25.8523H24.8797C25.3671 25.8523 25.8345 25.6587 26.1792 25.314C26.5238 24.9694 26.7175 24.5019 26.7175 24.0145V5.63654C26.7175 5.14912 26.5238 4.68167 26.1792 4.33702C25.8345 3.99236 25.3671 3.79874 24.8797 3.79874ZM9.25838 5.63654V6.55544C9.25838 6.79914 9.35519 7.03287 9.52752 7.20519C9.69984 7.37752 9.93357 7.47433 10.1773 7.47433C10.421 7.47433 10.6547 7.37752 10.827 7.20519C10.9994 7.03287 11.0962 6.79914 11.0962 6.55544V5.63654H20.2852V6.55544C20.2852 6.79914 20.382 7.03287 20.5543 7.20519C20.7266 7.37752 20.9604 7.47433 21.2041 7.47433C21.4478 7.47433 21.6815 7.37752 21.8538 7.20519C22.0262 7.03287 22.123 6.79914 22.123 6.55544V5.63654H24.8797V9.31213H6.50168V5.63654H9.25838ZM24.8797 24.0145H6.50168V11.1499H24.8797V24.0145ZM17.069 15.285C17.069 15.5576 16.9882 15.8241 16.8367 16.0507C16.6853 16.2774 16.47 16.4541 16.2181 16.5584C15.9663 16.6627 15.6891 16.69 15.4218 16.6368C15.1544 16.5837 14.9088 16.4524 14.716 16.2596C14.5233 16.0669 14.392 15.8213 14.3388 15.5539C14.2856 15.2865 14.3129 15.0094 14.4172 14.7575C14.5216 14.5056 14.6982 14.2904 14.9249 14.1389C15.1516 13.9875 15.4181 13.9066 15.6907 13.9066C16.0562 13.9066 16.4068 14.0518 16.6653 14.3103C16.9238 14.5688 17.069 14.9194 17.069 15.285ZM22.123 15.285C22.123 15.5576 22.0421 15.8241 21.8907 16.0507C21.7392 16.2774 21.524 16.4541 21.2721 16.5584C21.0202 16.6627 20.7431 16.69 20.4757 16.6368C20.2083 16.5837 19.9627 16.4524 19.77 16.2596C19.5772 16.0669 19.4459 15.8213 19.3928 15.5539C19.3396 15.2865 19.3669 15.0094 19.4712 14.7575C19.5755 14.5056 19.7522 14.2904 19.9789 14.1389C20.2055 13.9875 20.472 13.9066 20.7446 13.9066C21.1102 13.9066 21.4608 14.0518 21.7193 14.3103C21.9778 14.5688 22.123 14.9194 22.123 15.285ZM12.0151 19.8795C12.0151 20.1521 11.9342 20.4186 11.7828 20.6452C11.6313 20.8719 11.4161 21.0486 11.1642 21.1529C10.9123 21.2572 10.6352 21.2845 10.3678 21.2313C10.1004 21.1782 9.85485 21.0469 9.66209 20.8541C9.46932 20.6614 9.33805 20.4158 9.28486 20.1484C9.23168 19.881 9.25897 19.6039 9.3633 19.352C9.46762 19.1001 9.64429 18.8849 9.87096 18.7334C10.0976 18.582 10.3641 18.5011 10.6367 18.5011C11.0023 18.5011 11.3529 18.6463 11.6114 18.9048C11.8699 19.1633 12.0151 19.5139 12.0151 19.8795ZM17.069 19.8795C17.069 20.1521 16.9882 20.4186 16.8367 20.6452C16.6853 20.8719 16.47 21.0486 16.2181 21.1529C15.9663 21.2572 15.6891 21.2845 15.4218 21.2313C15.1544 21.1782 14.9088 21.0469 14.716 20.8541C14.5233 20.6614 14.392 20.4158 14.3388 20.1484C14.2856 19.881 14.3129 19.6039 14.4172 19.352C14.5216 19.1001 14.6982 18.8849 14.9249 18.7334C15.1516 18.582 15.4181 18.5011 15.6907 18.5011C16.0562 18.5011 16.4068 18.6463 16.6653 18.9048C16.9238 19.1633 17.069 19.5139 17.069 19.8795ZM22.123 19.8795C22.123 20.1521 22.0421 20.4186 21.8907 20.6452C21.7392 20.8719 21.524 21.0486 21.2721 21.1529C21.0202 21.2572 20.7431 21.2845 20.4757 21.2313C20.2083 21.1782 19.9627 21.0469 19.77 20.8541C19.5772 20.6614 19.4459 20.4158 19.3928 20.1484C19.3396 19.881 19.3669 19.6039 19.4712 19.352C19.5755 19.1001 19.7522 18.8849 19.9789 18.7334C20.2055 18.582 20.472 18.5011 20.7446 18.5011C21.1102 18.5011 21.4608 18.6463 21.7193 18.9048C21.9778 19.1633 22.123 19.5139 22.123 19.8795Z" fill="#EF5000"/>
</svg>
