<svg width="496" height="489" viewBox="0 0 496 489" fill="none" xmlns="http://www.w3.org/2000/svg">
<path d="M250.99 244.421V0C385.992 0 495.411 109.419 495.411 244.421C495.411 379.423 385.992 488.842 250.99 488.842V244.421Z" fill="#032B3A"/>
<path d="M360.422 384.4L360.422 388.084L338.173 388.084L340.467 391.822L336.656 391.822L334.164 388.084L334.164 384.4L360.422 384.4ZM337.451 364.86L360.422 371.65L360.422 375.569L337.668 368.779L337.668 375.461L341.442 375.461L341.442 379.145L334.164 379.145L334.164 364.86L337.451 364.86ZM356.557 360.237L356.557 356.372L362.408 356.372L366.417 360.237L356.557 360.237ZM353.198 351.767L334.182 342.954L334.182 339.162L352.982 347.758L352.982 334.882L356.395 334.882L356.395 351.767L353.198 351.767ZM344.981 340.444L344.981 336.85L360.44 336.85L360.44 340.444L344.981 340.444ZM360.693 323.017C360.693 324.342 360.434 325.521 359.916 326.557C359.399 327.58 358.646 328.417 357.659 329.067C356.672 329.705 355.486 330.133 354.101 330.349L354.083 330.349L354.083 326.665L354.101 326.665C355.064 326.533 355.817 326.148 356.359 325.509C356.888 324.871 357.153 324.041 357.153 323.017C357.153 321.837 356.762 320.928 355.979 320.29C355.185 319.64 354.071 319.315 352.638 319.315L350.435 319.315C349.015 319.315 347.913 319.64 347.13 320.29C346.336 320.928 345.939 321.837 345.939 323.017C345.939 323.655 346.119 324.269 346.48 324.859C346.842 325.449 347.347 325.967 347.997 326.412L347.997 329.771L334.164 329.771L334.164 316.39L337.668 316.39L337.668 326.087L343.573 326.087C343.2 325.63 342.911 325.118 342.706 324.552C342.501 323.986 342.399 323.409 342.399 322.819C342.399 321.302 342.712 320.007 343.338 318.936C343.964 317.852 344.879 317.034 346.083 316.48C347.287 315.914 348.738 315.631 350.435 315.631L352.638 315.631C354.336 315.631 355.787 315.92 356.991 316.498C358.195 317.076 359.116 317.919 359.754 319.026C360.38 320.134 360.693 321.464 360.693 323.017ZM360.693 302.701C360.693 305.157 360.037 307.023 358.724 308.299C357.412 309.563 355.582 310.195 353.234 310.195L341.297 310.195C338.938 310.195 337.108 309.557 335.808 308.281C334.495 307.005 333.839 305.145 333.839 302.701C333.839 300.245 334.489 298.385 335.789 297.121C337.09 295.845 338.926 295.206 341.297 295.206L353.234 295.206C355.594 295.206 357.43 295.845 358.742 297.121C360.043 298.397 360.693 300.257 360.693 302.701ZM357.189 302.701C357.189 301.401 356.852 300.444 356.178 299.83C355.492 299.204 354.511 298.891 353.234 298.891L341.297 298.891C340.021 298.891 339.046 299.198 338.372 299.812C337.686 300.426 337.343 301.389 337.343 302.701C337.343 304.013 337.686 304.976 338.372 305.59C339.046 306.204 340.021 306.511 341.297 306.511L353.234 306.511C354.511 306.511 355.492 306.204 356.178 305.59C356.852 304.964 357.189 304.001 357.189 302.701ZM356.557 291.324L356.557 287.459L362.408 287.459L366.417 291.324L356.557 291.324ZM360.693 275.161C360.693 276.485 360.434 277.665 359.916 278.701C359.399 279.724 358.646 280.561 357.659 281.211C356.672 281.849 355.486 282.276 354.101 282.493L354.083 282.493L354.083 278.809L354.101 278.809C355.064 278.677 355.817 278.291 356.359 277.653C356.888 277.015 357.153 276.184 357.153 275.161C357.153 273.981 356.762 273.072 355.979 272.434C355.185 271.784 354.071 271.459 352.638 271.459L350.435 271.459C349.015 271.459 347.913 271.784 347.13 272.434C346.336 273.072 345.939 273.981 345.939 275.161C345.939 275.799 346.119 276.413 346.48 277.003C346.842 277.593 347.347 278.111 347.997 278.556L347.997 281.915L334.164 281.915L334.164 268.533L337.668 268.533L337.668 278.231L343.573 278.231C343.2 277.774 342.911 277.262 342.706 276.696C342.501 276.13 342.399 275.552 342.399 274.962C342.399 273.445 342.712 272.151 343.338 271.08C343.964 269.996 344.879 269.178 346.083 268.624C347.287 268.058 348.738 267.775 350.435 267.775L352.638 267.775C354.336 267.775 355.787 268.064 356.991 268.642C358.195 269.22 359.116 270.062 359.754 271.17C360.38 272.278 360.693 273.608 360.693 275.161ZM353.198 262.7L334.182 253.888L334.182 250.095L352.982 258.691L352.982 245.815L356.395 245.815L356.395 262.7L353.198 262.7ZM344.981 251.377L344.981 247.784L360.44 247.784L360.44 251.377L344.981 251.377ZM360.693 233.788C360.693 236.244 360.037 238.11 358.724 239.386C357.412 240.65 355.582 241.282 353.234 241.282L341.297 241.282C338.938 241.282 337.108 240.644 335.807 239.368C334.495 238.092 333.839 236.232 333.839 233.788C333.839 231.332 334.489 229.472 335.789 228.208C337.09 226.932 338.926 226.293 341.297 226.293L353.234 226.293C355.594 226.293 357.43 226.932 358.742 228.208C360.043 229.484 360.693 231.344 360.693 233.788ZM357.189 233.788C357.189 232.488 356.852 231.531 356.178 230.917C355.492 230.291 354.511 229.978 353.234 229.978L341.297 229.978C340.021 229.978 339.046 230.285 338.372 230.899C337.686 231.513 337.343 232.476 337.343 233.788C337.343 235.1 337.686 236.063 338.372 236.677C339.046 237.291 340.021 237.598 341.297 237.598L353.234 237.598C354.511 237.598 355.492 237.291 356.178 236.677C356.852 236.051 357.189 235.088 357.189 233.788ZM360.693 202.51C360.693 203.774 360.572 204.972 360.332 206.104C360.091 207.235 359.73 208.295 359.248 209.282C358.766 210.257 358.164 211.172 357.442 212.027L354.625 209.733C355.492 208.734 356.142 207.633 356.575 206.429C357.009 205.225 357.225 203.918 357.225 202.51C357.225 200.608 356.876 199.133 356.178 198.085C355.468 197.038 354.468 196.514 353.18 196.514L353.162 196.514C352.247 196.514 351.525 196.755 350.995 197.237C350.453 197.706 350.056 198.32 349.803 199.079C349.538 199.825 349.298 200.794 349.081 201.986C349.069 202.022 349.063 202.064 349.063 202.113C349.063 202.149 349.057 202.185 349.045 202.221L348.991 202.492C348.69 204.25 348.352 205.682 347.979 206.79C347.594 207.885 346.902 208.824 345.902 209.607C344.891 210.39 343.458 210.781 341.604 210.781L341.586 210.781C339.961 210.781 338.577 210.42 337.433 209.697C336.277 208.963 335.398 207.897 334.796 206.501C334.194 205.104 333.893 203.425 333.893 201.462C333.893 200.523 333.996 199.602 334.2 198.699C334.405 197.784 334.712 196.887 335.121 196.009C335.519 195.118 336.024 194.245 336.638 193.39L339.564 195.485C338.829 196.484 338.282 197.483 337.92 198.483C337.547 199.47 337.361 200.463 337.361 201.462C337.361 203.256 337.722 204.653 338.444 205.652C339.154 206.639 340.166 207.133 341.478 207.133L341.496 207.133C342.399 207.133 343.109 206.88 343.627 206.374C344.145 205.857 344.53 205.219 344.783 204.46C345.024 203.69 345.276 202.624 345.541 201.264C345.553 201.216 345.565 201.173 345.577 201.137C345.577 201.089 345.583 201.041 345.595 200.993C345.607 200.933 345.62 200.866 345.632 200.794C345.644 200.722 345.656 200.656 345.668 200.596C345.993 199.006 346.378 197.682 346.823 196.623C347.269 195.551 347.991 194.66 348.991 193.95C349.978 193.228 351.332 192.866 353.054 192.866L353.09 192.866C354.691 192.866 356.064 193.246 357.207 194.004C358.339 194.763 359.206 195.864 359.808 197.309C360.398 198.742 360.693 200.475 360.693 202.51ZM353.144 179.701L350.706 177.787L358.399 167.999L360.855 169.913L353.144 179.701ZM360.693 179.647C360.693 181.477 360.295 183.09 359.501 184.487C358.694 185.884 357.563 186.967 356.106 187.738C354.637 188.496 352.939 188.875 351.013 188.875L343.573 188.875C341.647 188.875 339.955 188.496 338.498 187.738C337.029 186.967 335.898 185.884 335.103 184.487C334.297 183.09 333.893 181.477 333.893 179.647C333.893 177.817 334.297 176.204 335.103 174.807C335.898 173.411 337.029 172.333 338.498 171.575C339.955 170.804 341.647 170.419 343.573 170.419L351.013 170.419C352.939 170.419 354.637 170.804 356.106 171.575C357.563 172.333 358.694 173.411 359.501 174.807C360.295 176.204 360.693 177.817 360.693 179.647ZM357.063 179.647C357.063 178.564 356.822 177.613 356.341 176.794C355.847 175.963 355.155 175.325 354.264 174.88C353.361 174.422 352.319 174.193 351.14 174.193L343.446 174.193C342.267 174.193 341.231 174.422 340.34 174.88C339.437 175.325 338.745 175.963 338.264 176.794C337.77 177.613 337.523 178.564 337.523 179.647C337.523 180.731 337.77 181.688 338.264 182.519C338.745 183.337 339.437 183.975 340.34 184.433C341.231 184.878 342.267 185.101 343.446 185.101L351.14 185.101C352.319 185.101 353.361 184.878 354.264 184.433C355.155 183.975 355.847 183.337 356.341 182.519C356.822 181.688 357.063 180.731 357.063 179.647ZM356.557 165.019L356.557 161.155L360.422 161.155L360.422 165.019L356.557 165.019ZM334.164 145.714L334.164 142.03L360.422 142.03L360.422 145.714L334.164 145.714ZM345.866 143.908L345.866 131.177L349.37 131.177L349.37 143.908L345.866 143.908ZM334.164 143.908L334.164 129.19L337.668 129.19L337.668 143.908L334.164 143.908ZM336.313 119.222L336.313 115.538L360.422 115.538L360.422 119.222L336.313 119.222ZM334.164 126.644L334.164 108.116L337.668 108.116L337.668 126.644L334.164 126.644ZM356.557 107.664L356.557 103.8L360.422 103.8L360.422 107.664L356.557 107.664Z" fill="#F6F6F6"/>
<path d="M240.742 234.192L67.3047 108.169C109.047 50.705 169.695 19.8087 240.742 19.8087V234.192Z" fill="#18669A"/>
<path d="M229.904 251.488H0C0 200.694 14.0322 157.424 43.9107 116.341L229.904 251.488Z" fill="#90C6EB"/>
<path d="M240.742 270.01V469.034C121.457 469.08 24.7754 379.937 24.7754 270.01H240.742Z" fill="#055145"/>
<path d="M151.379 113.614C150.076 113.614 148.928 113.379 147.935 112.91C146.942 112.429 146.141 111.74 145.532 110.843C144.934 109.936 144.555 108.846 144.395 107.575H147.727C147.823 108.238 148.031 108.782 148.351 109.209C148.672 109.637 149.083 109.957 149.585 110.17C150.097 110.373 150.695 110.475 151.379 110.475C152.457 110.475 153.296 110.186 153.894 109.61C154.492 109.033 154.791 108.222 154.791 107.175V106.47C154.791 105.306 154.508 104.409 153.942 103.779C153.376 103.138 152.575 102.818 151.539 102.818H149.889V99.7105H151.539C152.447 99.7105 153.152 99.4381 153.653 98.8935C154.155 98.3489 154.406 97.58 154.406 96.5869V95.866C154.406 94.9477 154.139 94.2375 153.605 93.7356C153.082 93.2337 152.335 92.9827 151.363 92.9827C150.807 92.9827 150.311 93.0895 149.873 93.3031C149.435 93.506 149.061 93.8264 148.752 94.2642C148.453 94.6914 148.234 95.2306 148.095 95.8821H144.779C144.993 94.6113 145.393 93.522 145.981 92.6143C146.579 91.7066 147.331 91.0178 148.239 90.5479C149.147 90.0781 150.188 89.8431 151.363 89.8431C153.37 89.8431 154.924 90.3717 156.024 91.429C157.124 92.4862 157.674 93.9759 157.674 95.8981V96.2825C157.674 97.4465 157.359 98.461 156.729 99.326C156.099 100.191 155.207 100.821 154.054 101.216C155.325 101.494 156.307 102.119 157.001 103.09C157.706 104.062 158.058 105.301 158.058 106.807V107.191C158.058 108.547 157.797 109.706 157.274 110.667C156.75 111.628 155.987 112.36 154.983 112.862C153.99 113.363 152.788 113.614 151.379 113.614ZM176.384 90.0834H179.251L166.596 113.374H163.729L176.384 90.0834ZM177.377 113.614C176.138 113.614 175.182 113.257 174.509 112.541C173.837 111.815 173.5 110.806 173.5 109.514V107.511C173.5 106.219 173.837 105.215 174.509 104.5C175.182 103.774 176.138 103.411 177.377 103.411C178.615 103.411 179.571 103.774 180.244 104.5C180.917 105.215 181.253 106.23 181.253 107.543V109.514C181.253 110.817 180.911 111.826 180.228 112.541C179.555 113.257 178.605 113.614 177.377 113.614ZM177.377 111.067C177.75 111.067 178.044 110.95 178.258 110.715C178.471 110.469 178.578 110.122 178.578 109.674V107.319C178.578 106.892 178.471 106.561 178.258 106.326C178.044 106.091 177.75 105.974 177.377 105.974C176.992 105.974 176.693 106.091 176.48 106.326C176.277 106.561 176.175 106.897 176.175 107.335V109.674C176.175 110.133 176.277 110.48 176.48 110.715C176.693 110.95 176.992 111.067 177.377 111.067ZM165.795 100.063C164.557 100.063 163.601 99.7051 162.928 98.9896C162.255 98.2635 161.919 97.2543 161.919 95.9622V93.9599C161.919 92.6677 162.255 91.6639 162.928 90.9484C163.601 90.2222 164.557 89.8591 165.795 89.8591C167.034 89.8591 167.99 90.2222 168.663 90.9484C169.335 91.6639 169.672 92.6784 169.672 93.9919V95.9622C169.672 97.265 169.33 98.2741 168.647 98.9896C167.974 99.7051 167.023 100.063 165.795 100.063ZM165.795 97.5159C166.169 97.5159 166.463 97.3985 166.676 97.1635C166.89 96.9179 166.997 96.5709 166.997 96.1223V93.7676C166.997 93.3405 166.89 93.0094 166.676 92.7745C166.463 92.5396 166.169 92.4221 165.795 92.4221C165.411 92.4221 165.112 92.5396 164.898 92.7745C164.695 93.0094 164.594 93.3458 164.594 93.7837V96.1223C164.594 96.5815 164.695 96.9286 164.898 97.1635C165.112 97.3985 165.411 97.5159 165.795 97.5159Z" fill="#F1EBE0"/>
<path d="M30.5674 184.319L30.4399 184.63C30.193 184.843 29.8969 184.957 29.5515 184.973C29.2141 184.985 28.8444 184.915 28.4426 184.763C27.837 184.534 27.3624 184.179 27.019 183.696C26.6756 183.214 26.4814 182.644 26.4365 181.989C26.3996 181.329 26.5209 180.629 26.8004 179.89L26.8037 179.881C27.114 179.06 27.5161 178.41 28.0099 177.931C28.5095 177.454 29.0816 177.165 29.7259 177.062C30.3762 176.962 31.074 177.053 31.8194 177.334C32.5648 177.616 33.1442 178.011 33.5575 178.52C33.9708 179.029 34.2031 179.629 34.2545 180.321C34.3118 181.015 34.1841 181.775 33.8716 182.602L33.8683 182.611C33.6966 183.065 33.4546 183.53 33.1422 184.004C32.8321 184.472 32.4735 184.919 32.0666 185.344C32.003 185.407 31.9384 185.472 31.8726 185.541C31.809 185.603 31.7426 185.664 31.6732 185.725L26.9084 190.143L24.9866 189.417L30.5674 184.319ZM29.5546 183.327C30.1137 183.538 30.6162 183.512 31.062 183.248C31.5138 182.986 31.8695 182.511 32.1292 181.824L32.1325 181.815C32.3856 181.146 32.4272 180.569 32.2572 180.085C32.093 179.604 31.7314 179.258 31.1723 179.046C30.6074 178.833 30.1013 178.851 29.654 179.102C29.2125 179.354 28.8641 179.818 28.6088 180.493L28.6055 180.502C28.3458 181.189 28.2958 181.779 28.4556 182.272C28.6234 182.762 28.9897 183.113 29.5546 183.327ZM33.3628 190.446L35.2322 191.153L34.1625 193.983L31.5602 195.216L33.3628 190.446ZM38.0738 190.37L45.8131 182.783L47.6475 183.476L40.0527 190.998L46.281 193.352L45.657 195.003L37.4894 191.916L38.0738 190.37ZM45.0531 188.465L46.7914 189.122L43.9653 196.6L42.227 195.943L45.0531 188.465ZM50.6104 199.251C49.9698 199.009 49.4465 198.668 49.0403 198.228C48.6399 197.791 48.3727 197.274 48.2387 196.678C48.1106 196.083 48.1206 195.432 48.2689 194.722L48.2722 194.714L50.0542 195.387L50.0509 195.396C49.9389 195.886 49.9877 196.32 50.1973 196.699C50.4091 197.072 50.7625 197.352 51.2575 197.539C51.8282 197.755 52.3395 197.732 52.7912 197.47C53.2509 197.204 53.6117 196.725 53.8737 196.032L54.2764 194.966C54.5361 194.279 54.5803 193.687 54.4089 193.189C54.2455 192.688 53.8785 192.33 53.3077 192.114C52.9991 191.998 52.6691 191.973 52.3177 192.04C51.9663 192.107 51.6234 192.256 51.2891 192.49L49.6643 191.875L52.1933 185.184L58.6662 187.631L58.0257 189.325L53.3348 187.552L52.2552 190.409C52.5447 190.312 52.8451 190.266 53.1562 190.27C53.4673 190.275 53.7656 190.331 54.0509 190.439C54.7847 190.716 55.3535 191.104 55.7574 191.603C56.167 192.104 56.3958 192.696 56.4435 193.379C56.4972 194.065 56.3688 194.819 56.0585 195.64L55.6557 196.705C55.3453 197.527 54.9404 198.176 54.4407 198.652C53.9411 199.129 53.3651 199.42 52.7126 199.527C52.0624 199.627 51.3617 199.535 50.6104 199.251ZM60.4378 202.965C59.2498 202.516 58.467 201.858 58.0897 200.99C57.7181 200.124 57.7469 199.123 58.1761 197.988L60.3583 192.213C60.7897 191.072 61.4329 190.303 62.2879 189.908C63.1452 189.506 64.1649 189.529 65.347 189.976C66.5351 190.425 67.316 191.079 67.6897 191.939C68.0693 192.802 68.0423 193.806 67.6087 194.954L65.4265 200.728C64.9951 201.869 64.3508 202.641 63.4936 203.042C62.6386 203.438 61.62 203.412 60.4378 202.965ZM61.0783 201.271C61.7072 201.508 62.2318 201.52 62.6521 201.306C63.0803 201.089 63.4111 200.672 63.6444 200.054L65.8267 194.28C66.06 193.663 66.0898 193.135 65.916 192.697C65.7445 192.252 65.3413 191.91 64.7066 191.67C64.0718 191.431 63.5432 191.42 63.1207 191.64C62.7005 191.854 62.3737 192.27 62.1404 192.887L59.9581 198.661C59.7248 199.278 59.6939 199.809 59.8655 200.253C60.045 200.694 60.4493 201.033 61.0783 201.271ZM66.6971 203.045L68.5665 203.751L67.4968 206.582L64.8945 207.814L66.6971 203.045ZM73.7593 208C73.1187 207.758 72.5953 207.417 72.1891 206.977C71.7887 206.54 71.5215 206.023 71.3875 205.427C71.2594 204.832 71.2694 204.181 71.4177 203.471L71.421 203.463L73.203 204.136L73.1997 204.145C73.0877 204.635 73.1365 205.069 73.3461 205.448C73.5579 205.821 73.9113 206.101 74.4063 206.288C74.9771 206.504 75.4883 206.481 75.94 206.219C76.3997 205.953 76.7605 205.474 77.0225 204.781L77.4252 203.715C77.685 203.028 77.7291 202.436 77.5577 201.938C77.3943 201.437 77.0273 201.079 76.4565 200.863C76.1479 200.747 75.8179 200.722 75.4665 200.789C75.1151 200.855 74.7723 201.005 74.4379 201.238L72.8131 200.624L75.3421 193.933L81.815 196.379L81.1745 198.074L76.4836 196.301L75.404 199.158C75.6935 199.061 75.9939 199.015 76.305 199.019C76.6161 199.023 76.9144 199.08 77.1997 199.187C77.9335 199.465 78.5023 199.853 78.9062 200.351C79.3158 200.852 79.5446 201.445 79.5924 202.128C79.646 202.814 79.5176 203.568 79.2073 204.389L78.8045 205.454C78.4941 206.276 78.0892 206.924 77.5895 207.401C77.0899 207.878 76.5139 208.169 75.8615 208.275C75.2112 208.376 74.5105 208.284 73.7593 208ZM81.1568 206.653L88.8961 199.066L90.7305 199.759L83.1357 207.281L89.364 209.635L88.74 211.286L80.5724 208.199L81.1568 206.653ZM88.136 204.748L89.8744 205.405L87.0483 212.883L85.31 212.226L88.136 204.748ZM93.7721 215.564C92.584 215.115 91.8013 214.456 91.4239 213.588C91.0524 212.722 91.0812 211.721 91.5104 210.586L93.6926 204.812C94.124 203.67 94.7672 202.902 95.6222 202.506C96.4794 202.105 97.4991 202.127 98.6813 202.574C99.8693 203.023 100.65 203.678 101.024 204.538C101.404 205.4 101.377 206.405 100.943 207.552L98.7608 213.326C98.3294 214.468 97.6851 215.239 96.8279 215.64C95.9728 216.036 94.9542 216.011 93.7721 215.564ZM94.4125 213.869C95.0415 214.107 95.5661 214.119 95.9863 213.905C96.4146 213.687 96.7454 213.27 96.9787 212.653L99.161 206.879C99.3943 206.261 99.4241 205.733 99.2503 205.295C99.0788 204.851 98.6756 204.509 98.0408 204.269C97.4061 204.029 96.8775 204.019 96.455 204.239C96.0347 204.452 95.708 204.868 95.4747 205.485L93.2924 211.259C93.0591 211.877 93.0282 212.407 93.1998 212.852C93.3793 213.292 93.7836 213.631 94.4125 213.869ZM108.902 221.282C108.29 221.051 107.733 220.774 107.229 220.45C106.726 220.127 106.28 219.758 105.89 219.345C105.506 218.934 105.174 218.475 104.892 217.97L106.517 217.026C106.842 217.628 107.256 218.144 107.759 218.574C108.262 219.004 108.854 219.347 109.536 219.605C110.456 219.952 111.233 220.053 111.867 219.907C112.504 219.755 112.94 219.367 113.175 218.744L113.179 218.735C113.346 218.293 113.361 217.899 113.225 217.555C113.097 217.207 112.873 216.903 112.552 216.642C112.24 216.377 111.815 216.083 111.278 215.761C111.263 215.748 111.243 215.738 111.22 215.729C111.203 215.722 111.186 215.713 111.171 215.7L111.05 215.625C110.255 215.158 109.623 214.733 109.156 214.35C108.696 213.963 108.369 213.457 108.173 212.83C107.979 212.198 108.052 211.433 108.391 210.536L108.394 210.528C108.691 209.742 109.119 209.138 109.677 208.717C110.244 208.292 110.92 208.062 111.706 208.026C112.491 207.99 113.359 208.151 114.308 208.51C114.762 208.682 115.189 208.9 115.588 209.164C115.993 209.43 116.371 209.742 116.721 210.101C117.08 210.456 117.409 210.86 117.711 211.314L116.163 212.346C115.813 211.808 115.43 211.36 115.013 211.003C114.604 210.642 114.157 210.37 113.674 210.187C112.806 209.859 112.065 209.779 111.449 209.945C110.842 210.109 110.418 210.507 110.178 211.142L110.175 211.151C110.01 211.588 110.002 211.978 110.152 212.32C110.308 212.665 110.546 212.968 110.867 213.229C111.196 213.487 111.665 213.804 112.274 214.181C112.296 214.195 112.314 214.209 112.329 214.221C112.352 214.23 112.374 214.242 112.396 214.256C112.422 214.273 112.452 214.291 112.485 214.31C112.518 214.329 112.548 214.347 112.575 214.364C113.284 214.812 113.854 215.24 114.285 215.649C114.722 216.061 115.021 216.573 115.182 217.186C115.351 217.796 115.278 218.517 114.963 219.35L114.956 219.367C114.664 220.142 114.229 220.736 113.653 221.151C113.08 221.56 112.388 221.778 111.579 221.805C110.778 221.828 109.886 221.654 108.902 221.282ZM121.315 221.8L122.686 220.971L126.014 226.482L124.639 227.32L121.315 221.8ZM119.961 225.462C119.076 225.127 118.368 224.64 117.838 224C117.31 223.355 116.992 222.609 116.886 221.764C116.788 220.915 116.914 220.024 117.267 219.092L118.627 215.493C118.979 214.562 119.472 213.813 120.105 213.247C120.746 212.677 121.477 212.328 122.298 212.199C123.121 212.064 123.975 212.164 124.86 212.498C125.745 212.833 126.452 213.323 126.98 213.968C127.51 214.608 127.825 215.352 127.923 216.201C128.029 217.047 127.907 217.936 127.554 218.867L126.194 222.466C125.842 223.398 125.345 224.149 124.704 224.718C124.071 225.284 123.343 225.635 122.52 225.77C121.699 225.899 120.846 225.796 119.961 225.462ZM120.624 223.706C121.148 223.904 121.653 223.961 122.137 223.878C122.629 223.791 123.064 223.573 123.442 223.223C123.829 222.87 124.13 222.408 124.345 221.838L125.752 218.116C125.967 217.546 126.046 217.003 125.988 216.488C125.937 215.97 125.755 215.519 125.441 215.134C125.136 214.745 124.721 214.452 124.197 214.254C123.672 214.056 123.164 214 122.672 214.087C122.188 214.17 121.753 214.389 121.367 214.742C120.988 215.091 120.691 215.551 120.476 216.122L119.069 219.843C118.853 220.414 118.771 220.959 118.821 221.477C118.88 221.991 119.062 222.443 119.368 222.831C119.681 223.216 120.1 223.508 120.624 223.706ZM127.792 226.135L129.662 226.842L128.955 228.711L127.086 228.005L127.792 226.135ZM141.224 218.833L143.006 219.506L138.206 232.207L136.424 231.534L141.224 218.833ZM139.959 224.823L146.117 227.151L145.477 228.846L139.318 226.518L139.959 224.823ZM142.098 219.163L149.217 221.854L148.577 223.548L141.458 220.857L142.098 219.163ZM153.646 224.715L155.428 225.389L151.021 237.051L149.239 236.377L153.646 224.715ZM150.449 222.319L159.412 225.706L158.771 227.401L149.809 224.014L150.449 222.319ZM155.536 236.621L157.405 237.327L156.699 239.197L154.83 238.49L155.536 236.621Z" fill="#002D4B"/>
<path d="M121.651 354.7C120.56 354.7 119.589 354.487 118.736 354.06C117.894 353.634 117.205 353.014 116.669 352.201C116.144 351.389 115.792 350.412 115.613 349.272V349.257H118.647V349.272C118.756 350.065 119.073 350.685 119.599 351.131C120.124 351.567 120.808 351.785 121.651 351.785C122.622 351.785 123.371 351.463 123.896 350.818C124.432 350.164 124.699 349.247 124.699 348.067V346.253C124.699 345.083 124.432 344.176 123.896 343.532C123.371 342.878 122.622 342.55 121.651 342.55C121.126 342.55 120.62 342.699 120.134 342.996C119.648 343.294 119.222 343.71 118.855 344.246H116.089V332.855H127.108V335.74H119.123V340.602C119.5 340.295 119.921 340.057 120.387 339.888C120.853 339.72 121.329 339.636 121.815 339.636C123.064 339.636 124.129 339.893 125.012 340.409C125.904 340.924 126.578 341.678 127.034 342.669C127.5 343.661 127.733 344.855 127.733 346.253V348.067C127.733 349.465 127.495 350.66 127.019 351.651C126.543 352.643 125.849 353.401 124.937 353.926C124.025 354.442 122.93 354.7 121.651 354.7ZM144.894 332.855H147.556L135.808 354.477H133.146L144.894 332.855ZM145.816 354.7C144.666 354.7 143.779 354.368 143.154 353.703C142.529 353.029 142.217 352.092 142.217 350.893V349.034C142.217 347.834 142.529 346.903 143.154 346.238C143.779 345.564 144.666 345.227 145.816 345.227C146.966 345.227 147.853 345.564 148.478 346.238C149.102 346.903 149.415 347.844 149.415 349.064V350.893C149.415 352.102 149.097 353.039 148.463 353.703C147.838 354.368 146.956 354.7 145.816 354.7ZM145.816 352.335C146.163 352.335 146.435 352.226 146.634 352.008C146.832 351.78 146.931 351.458 146.931 351.042V348.856C146.931 348.459 146.832 348.152 146.634 347.934C146.435 347.715 146.163 347.606 145.816 347.606C145.459 347.606 145.181 347.715 144.983 347.934C144.795 348.152 144.701 348.464 144.701 348.87V351.042C144.701 351.468 144.795 351.79 144.983 352.008C145.181 352.226 145.459 352.335 145.816 352.335ZM135.064 342.119C133.914 342.119 133.027 341.787 132.402 341.123C131.778 340.449 131.466 339.512 131.466 338.312V336.453C131.466 335.254 131.778 334.322 132.402 333.658C133.027 332.984 133.914 332.646 135.064 332.646C136.214 332.646 137.102 332.984 137.726 333.658C138.351 334.322 138.663 335.264 138.663 336.483V338.312C138.663 339.522 138.346 340.459 137.711 341.123C137.087 341.787 136.204 342.119 135.064 342.119ZM135.064 339.755C135.411 339.755 135.684 339.646 135.882 339.428C136.081 339.199 136.18 338.877 136.18 338.461V336.275C136.18 335.878 136.081 335.571 135.882 335.353C135.684 335.135 135.411 335.026 135.064 335.026C134.707 335.026 134.43 335.135 134.232 335.353C134.043 335.571 133.949 335.883 133.949 336.29V338.461C133.949 338.887 134.043 339.209 134.232 339.428C134.43 339.646 134.707 339.755 135.064 339.755Z" fill="#F1EBE0"/>
</svg>
