<svg width="52" height="110" viewBox="0 0 52 110" fill="none" xmlns="http://www.w3.org/2000/svg">
<path fill-rule="evenodd" clip-rule="evenodd" d="M35.0009 103.73C40.9423 106.191 47.2772 107.55 53.6962 107.745L53.6962 1.64089C47.2772 1.83645 40.9423 3.19551 35.0009 5.65651C28.5613 8.32387 22.7102 12.2335 17.7815 17.1621C12.8529 22.0908 8.94325 27.9419 6.27589 34.3815C3.60853 40.8211 2.23566 47.723 2.23566 54.6931C2.23566 61.6633 3.60853 68.5652 6.27589 75.0047C8.94325 81.4443 12.8529 87.2955 17.7815 92.2241C22.7101 97.1527 28.5613 101.062 35.0009 103.73ZM53.6962 0.0238858C54.2345 0.0079733 54.7733 -2.35698e-08 55.3125 0L55.3125 109.386C54.7733 109.386 54.2345 109.378 53.6962 109.362C47.0649 109.166 40.5198 107.765 34.3823 105.223C27.7467 102.474 21.7173 98.4457 16.6386 93.367C11.5599 88.2883 7.53123 82.2589 4.78264 75.6233C2.03405 68.9876 0.619374 61.8755 0.619375 54.6931C0.619375 47.5107 2.03406 40.3986 4.78264 33.763C7.53123 27.1273 11.5599 21.098 16.6386 16.0192C21.7173 10.9405 27.7467 6.91185 34.3824 4.16326C40.5199 1.62103 47.0649 0.21993 53.6962 0.0238858Z" fill="#EF5000"/>
</svg>
