<svg width="79" height="82" viewBox="0 0 79 82" fill="none" xmlns="http://www.w3.org/2000/svg">
<g clip-path="url(#clip0_69_1360)">
<path d="M51.4944 82.0001C49.8018 81.6514 48.0755 81.4204 46.4229 80.9348C42.2136 79.6983 38.6471 77.3665 35.6877 74.0827C35.0195 73.3425 34.9689 72.6473 35.5422 72.1296C36.0861 71.6397 36.7606 71.7295 37.3992 72.4355C40.2828 75.623 43.7797 77.7922 47.9005 78.8896C60.379 82.2076 72.9059 73.6164 74.569 60.6118C74.921 57.8586 74.784 55.131 74.0927 52.4398C74.0526 52.2858 74.0147 52.1296 73.9809 51.9735C73.8207 51.2354 74.1285 50.6279 74.7503 50.4418C75.4269 50.2407 76.0867 50.5787 76.2511 51.3467C76.563 52.8014 76.9214 54.2667 77.0289 55.745C77.8025 66.2659 72.3621 75.5674 62.9316 79.9293C60.6699 80.9754 58.288 81.6086 55.8113 81.8611C55.5794 81.8846 55.3539 81.9552 55.1241 82.0023H51.4944V82.0001Z" fill="white"/>
<path d="M77.3393 23.1298C79.561 26.3301 79.561 28.2084 77.3119 30.8482C78.661 32.1981 79.2849 33.8304 78.8696 35.7557C78.4607 37.6596 77.2234 38.8491 75.6088 39.4716C75.8133 40.5241 76.1695 41.5018 76.159 42.4751C76.1273 45.269 73.9668 47.3248 71.1507 47.3676C69.4729 47.3933 67.7929 47.3719 65.9823 47.3719C66.1846 47.6778 66.3153 47.8917 66.4586 48.095C73.7054 58.2415 67.7023 72.4847 55.4536 74.1811C51.6995 74.701 48.1878 73.9394 44.927 71.9819C44.0754 71.4707 43.8014 70.8225 44.1534 70.1657C44.5223 69.4811 45.2326 69.3913 46.1327 69.9176C51.6173 73.1243 58.1031 72.5403 62.654 68.2297C66.8823 64.225 68.2693 59.2234 66.5472 53.6356C64.8377 48.0907 60.9529 44.6999 55.2512 43.8913C49.345 43.0527 44.5939 45.3417 41.4807 50.4695C38.399 55.5439 38.6604 60.753 41.8263 65.7888C41.9254 65.9471 42.0392 66.0947 42.1278 66.2573C42.465 66.882 42.3386 67.5088 41.8095 67.8853C41.2973 68.2468 40.5574 68.1869 40.2096 67.5986C39.4424 66.3022 38.6625 64.993 38.0891 63.6025C37.5875 62.3874 37.3598 61.0546 37.0036 59.7411C35.6567 59.4373 34.4173 60.3957 34.413 61.8162C34.4088 62.8837 34.4236 63.9512 34.4088 65.0186C34.3772 67.3654 32.8553 68.9485 30.5557 68.987C28.7408 69.0169 26.926 69.0212 25.1111 68.987C22.8346 68.9442 21.336 67.3847 21.3086 65.0743C21.2938 63.9276 21.2854 62.7788 21.3086 61.6301C21.3296 60.6054 20.6931 60.2139 19.8794 59.8759C19.1059 59.555 18.4777 59.5807 17.8791 60.2224C17.1203 61.0375 16.3319 61.8226 15.5394 62.6056C13.8383 64.2849 11.6968 64.2742 10.0105 62.582C8.75633 61.3242 7.51059 60.062 6.27118 58.7891C4.61441 57.0863 4.62706 54.8978 6.29226 53.1778C7.06794 52.3778 7.83309 51.567 8.6404 50.8054C9.39501 50.0952 9.19265 49.3614 8.85751 48.5485C8.53922 47.7719 8.0755 47.3377 7.19652 47.3719C6.11941 47.4147 5.0402 47.3911 3.96098 47.3804C1.53695 47.3569 0.0171968 45.8209 0.00454975 43.38C-0.00598949 41.5659 -0.012313 39.7497 0.00454975 37.9356C0.0277361 35.653 1.52852 34.1213 3.76495 34.0849C4.89686 34.0678 6.02878 34.0593 7.15858 34.0871C8.05442 34.1085 8.54133 33.6635 8.87226 32.8527C9.21163 32.0227 9.35496 31.2975 8.61721 30.5979C7.80991 29.8342 7.04054 29.0277 6.26696 28.2255C4.63338 26.5312 4.61652 24.3534 6.23745 22.672C7.48951 21.3756 8.75422 20.092 10.0316 18.8213C11.7179 17.142 13.8658 17.1634 15.5605 18.8598C16.3467 19.6471 17.135 20.4322 17.9023 21.2408C18.4798 21.8505 19.0974 21.8805 19.8373 21.5724C20.6362 21.2408 21.3191 20.8814 21.3022 19.846C21.2833 18.6716 21.2854 17.4971 21.3022 16.3227C21.336 14.0037 22.8494 12.487 25.1448 12.472C26.9597 12.4592 28.7746 12.457 30.5894 12.472C32.8048 12.4912 34.3456 14.0358 34.3983 16.297C34.4257 17.4714 34.432 18.6459 34.3983 19.8203C34.3688 20.7702 34.9021 21.1766 35.6777 21.5018C36.4492 21.827 37.1195 21.9404 37.7603 21.2537C38.4664 20.4985 39.2231 19.7925 39.9272 19.0374C40.6965 18.2116 41.5903 17.6597 42.8149 17.5763C42.8149 16.1023 42.8149 14.6412 42.8149 13.1779C42.8149 12.8849 42.7854 12.5811 42.8465 12.3008C42.9899 11.6462 43.4072 11.274 44.086 11.3211C44.7225 11.3638 45.0893 11.7489 45.1673 12.3886C45.1989 12.6517 45.182 12.9212 45.182 13.1886C45.182 21.1959 45.1862 29.2053 45.1799 37.2125C45.1799 39.0052 45.6268 40.646 46.7376 42.0537C46.8957 42.2526 47.3363 42.4238 47.5555 42.3446C51.9946 40.753 56.3283 40.9584 60.5672 43.0506C60.6557 43.0955 60.7632 43.1041 60.9171 43.1426C60.7548 41.6729 61.0689 40.3551 61.9984 39.1293C60.563 38.2052 59.6208 36.9366 59.4374 35.2123C59.2561 33.5052 59.8779 32.0783 61.1195 30.8482C60.0487 29.8043 59.4163 28.5507 59.4079 27.0425C59.3995 25.5215 60.0234 24.2572 61.1152 23.194C59.3173 21.3285 58.9062 19.2363 60.0803 16.7698C59.7409 16.7526 59.4711 16.727 59.2013 16.727C57.4645 16.7227 55.7297 16.7334 53.9928 16.7227C52.1801 16.7099 51.3433 15.852 51.3391 14.0187C51.3348 12.0698 51.3538 10.1209 51.3327 8.17207C51.2969 5.20064 49.1848 2.81108 46.295 2.43244C45.3148 2.30408 45.1862 2.41318 45.1841 3.40152C45.182 4.49682 45.1926 5.58998 45.1799 6.68529C45.1715 7.55596 44.712 8.07367 43.9911 8.06511C43.2808 8.05655 42.8276 7.53029 42.8191 6.65534C42.8065 5.37392 42.796 4.0925 42.8234 2.81108C42.8634 1.17027 44.0522 0.00865268 45.6584 9.56338e-05C49.9563 -0.021297 53.6029 3.54913 53.6977 7.9068C53.7378 9.7209 53.7104 11.5371 53.7125 13.3512C53.7125 13.64 53.7125 13.9288 53.7125 14.3203C54.1193 14.3203 54.4523 14.3203 54.7833 14.3203C61.0963 14.3203 67.4114 14.3139 73.7244 14.3246C76.3992 14.3289 78.4059 15.8734 78.8907 18.3443C79.2575 20.214 78.6778 21.8184 77.3393 23.1298ZM42.8234 19.8439C42.3702 20.1626 42.0329 20.3423 41.7673 20.6012C40.9495 21.3948 40.1717 22.227 39.3581 23.025C37.9711 24.3877 36.4197 24.4412 34.7039 23.6967C33.0387 22.9736 32.0586 21.8206 32.0501 19.9337C32.0438 18.7871 32.0607 17.6383 32.0438 16.4917C32.0291 15.3557 31.5611 14.8829 30.4524 14.8765C28.7176 14.868 26.9808 14.868 25.246 14.8765C24.1289 14.8829 23.6904 15.3386 23.6799 16.4938C23.6693 17.6148 23.6904 18.7357 23.6736 19.8567C23.6441 21.874 22.5817 23.072 20.7732 23.7908C19.0363 24.4797 17.5439 24.2657 16.2223 22.918C15.4614 22.1414 14.7026 21.3649 13.9332 20.599C13.1238 19.7925 12.4725 19.7754 11.6841 20.5627C10.4279 21.8163 9.18212 23.0806 7.94692 24.3556C7.22814 25.0979 7.23236 25.7803 7.94059 26.5205C8.70996 27.3249 9.49408 28.1143 10.2803 28.9015C11.6968 30.3198 11.8422 31.9114 11.0855 33.7362C10.3372 35.5418 9.09359 36.4895 7.15858 36.4895C6.07936 36.4895 5.00225 36.4809 3.92304 36.4916C2.8396 36.5044 2.38642 36.9558 2.37799 38.0468C2.36534 39.8353 2.36534 41.6237 2.37799 43.41C2.38431 44.4753 2.86911 44.9631 3.93358 44.9802C5.01069 44.9973 6.0899 44.9802 7.16912 44.9866C9.14628 44.993 10.2634 45.7632 11.0433 47.6521C11.9033 49.7315 11.6947 51.0835 10.2698 52.551C9.51305 53.3297 8.73736 54.0913 7.98486 54.8743C7.23025 55.6572 7.21549 56.3397 7.95113 57.1012C9.18633 58.3762 10.4321 59.6405 11.6883 60.8942C12.4451 61.6493 13.1175 61.645 13.8805 60.8942C14.6541 60.1326 15.415 59.3582 16.1696 58.5752C17.5313 57.1611 19.0721 56.9601 20.8575 57.6874C22.6681 58.4254 23.6693 59.6726 23.6757 61.6814C23.6778 62.7746 23.6672 63.8699 23.6799 64.963C23.6904 66.0926 24.1542 66.5825 25.2566 66.5953C26.966 66.6124 28.6755 66.6103 30.3849 66.5953C31.5653 66.5867 32.0354 66.0861 32.0459 64.8625C32.0565 63.688 32.0291 62.5136 32.0607 61.3413C32.1007 59.7475 32.8532 58.588 34.2929 57.9655C35.1487 57.5954 36.0593 57.3537 37.0415 57.0242C37.1785 54.3844 37.91 51.798 39.3054 49.4149C40.6986 47.0317 42.5915 45.1449 44.9417 43.6453C43.1501 41.3606 42.7707 38.7614 42.8065 35.9932C42.8718 30.9766 42.8255 25.96 42.8255 20.9435C42.8255 20.6568 42.8255 20.368 42.8255 19.8482L42.8234 19.8439ZM69.1841 29.6331C70.7586 29.6331 72.3353 29.6396 73.9099 29.6331C75.4486 29.6246 76.5742 28.5699 76.6164 27.1195C76.6585 25.6049 75.5898 24.4091 74.0363 24.3898C70.8071 24.3492 67.5779 24.3492 64.3487 24.3919C62.8605 24.4112 61.7413 25.652 61.7771 27.0724C61.8129 28.5207 62.9533 29.6203 64.4583 29.631C66.0329 29.6438 67.6095 29.6331 69.1841 29.6331ZM69.0935 37.3088C70.668 37.3088 72.2447 37.3174 73.8192 37.3067C75.4655 37.296 76.6016 36.2306 76.6164 34.7075C76.6311 33.1479 75.4865 32.0441 73.8087 32.0377C70.7376 32.027 67.6643 32.027 64.5911 32.0377C62.9765 32.0441 61.7961 33.1501 61.7729 34.639C61.7497 36.1643 62.9428 37.296 64.6016 37.3067C66.0982 37.3152 67.5948 37.3067 69.0913 37.3067L69.0935 37.3088ZM69.1735 21.9682C70.7523 21.9682 72.3311 21.9789 73.9099 21.966C75.5034 21.9511 76.6121 20.8771 76.6185 19.369C76.6248 17.8651 75.5287 16.7462 73.9394 16.7334C70.7818 16.7077 67.6264 16.7056 64.4688 16.7334C62.909 16.7462 61.7624 17.9185 61.7792 19.3797C61.7961 20.8579 62.9427 21.951 64.5194 21.9639C66.0708 21.9767 67.6243 21.966 69.1757 21.966L69.1735 21.9682ZM68.5264 39.7133C67.6348 39.7133 66.7411 39.7005 65.8495 39.7155C64.4014 39.7433 63.2884 40.8429 63.2463 42.2676C63.2041 43.6453 64.2222 44.8775 65.6429 44.9374C67.58 45.0187 69.5277 45.023 71.4648 44.9331C72.8834 44.8668 73.8825 43.6239 73.8277 42.2398C73.7708 40.8065 72.6705 39.739 71.2013 39.7155C70.3097 39.7005 69.4181 39.7133 68.5243 39.7133H68.5264Z" fill="white"/>
<path d="M51.5604 61.8842C54.25 58.7973 56.8785 55.7809 59.5091 52.7646C59.6819 52.5656 59.8484 52.3496 60.055 52.1913C60.5651 51.7998 61.092 51.8233 61.56 52.2597C62.0005 52.6704 62.0553 53.1839 61.775 53.7144C61.678 53.9005 61.5326 54.0631 61.3935 54.2214C58.5394 57.503 55.6854 60.7825 52.8251 64.0599C51.8049 65.2279 51.2948 65.2258 50.2809 64.0556C48.5799 62.0918 46.8683 60.1343 45.2031 58.1405C44.927 57.809 44.7077 57.2848 44.7394 56.872C44.7647 56.5447 45.1862 56.0376 45.4834 55.997C45.9029 55.9414 46.5057 56.1082 46.7903 56.412C48.0403 57.7448 49.2038 59.161 50.3989 60.5472C50.7615 60.9665 51.1261 61.3858 51.5583 61.8821L51.5604 61.8842Z" fill="white"/>
<path d="M26.7506 28.1291C34.2967 28.0414 39.7792 33.2355 40.2577 39.8715C40.7257 46.3898 35.9619 52.3391 29.5878 53.1948C23.357 54.0313 17.5583 50.2148 15.9121 44.1735C15.813 43.8077 15.7456 43.3029 15.9163 43.0269C16.1208 42.6975 16.6351 42.3252 16.9555 42.3744C17.3581 42.4365 17.8365 42.8301 18.041 43.213C18.5385 44.1436 18.7914 45.2132 19.3268 46.1139C21.7129 50.1164 26.6052 51.8877 31.0043 50.4159C35.3675 48.9569 38.308 44.4602 37.8843 39.8886C37.4437 35.1373 33.9026 31.2909 29.3433 30.6106C24.3919 29.8726 19.6767 32.8996 18.2117 37.76C18.1801 37.8627 18.1654 37.9676 18.1316 38.0702C17.8597 38.8896 17.2737 39.2618 16.5887 39.0522C15.9268 38.8511 15.636 38.19 15.8678 37.3472C16.3421 35.6293 17.1136 34.0634 18.2518 32.7007C20.7601 29.695 23.9683 28.1783 26.7506 28.127V28.1291Z" fill="white"/>
<path d="M34.5034 40.7529C34.4802 44.4944 31.4786 47.5129 27.8089 47.4808C24.1201 47.4488 21.1692 44.4196 21.1818 40.6801C21.1945 36.9578 24.2045 33.9329 27.8784 33.95C31.5545 33.9671 34.5245 37.0156 34.5013 40.7507L34.5034 40.7529ZM32.1342 40.7379C32.1447 38.312 30.2308 36.3567 27.8447 36.3546C25.5008 36.3546 23.5742 38.2842 23.551 40.6566C23.5278 43.0868 25.4123 45.0464 27.8047 45.0785C30.1802 45.1105 32.1257 43.1595 32.1363 40.7379H32.1342Z" fill="white"/>
</g>
<defs>
<clipPath id="clip0_69_1360">
<rect width="79" height="82" fill="white"/>
</clipPath>
</defs>
</svg>
