<svg width="74" height="74" viewBox="0 0 74 74" fill="none" xmlns="http://www.w3.org/2000/svg">
<path d="M30.1769 3.99416C32.9308 6.11553 35.068 9.02093 35.7075 12.5046C35.7075 12.6942 35.7075 12.8837 35.7075 13.0791C35.8556 13.0672 36.0037 13.0554 36.1563 13.0431C36.958 13.0949 37.3419 13.407 37.8824 13.98C38.3612 14.7244 38.2311 15.6762 38.2207 16.5256C38.2229 16.7063 38.2251 16.887 38.2274 17.0732C38.2204 18.7142 38.2204 18.7142 37.5744 19.3978C36.9677 19.899 36.6245 20.0002 35.8511 19.9722C35.8524 20.0554 35.8537 20.1386 35.855 20.2243C35.8678 21.0956 35.8764 21.967 35.8827 22.8384C35.8856 23.163 35.8895 23.4875 35.8945 23.812C35.9015 24.2805 35.9047 24.7488 35.9072 25.2173C35.9117 25.4324 35.9117 25.4324 35.9162 25.6517C35.9166 26.9681 35.5711 28.1109 34.6596 29.0869C33.4927 30.136 32.3582 30.3611 30.8249 30.312C30.7865 30.4174 30.7482 30.5227 30.7087 30.6312C30.1283 31.9842 28.9916 32.8907 27.6655 33.4714C27.5233 33.4714 27.3811 33.4714 27.2347 33.4714C27.2312 34.0466 27.3332 34.4341 27.6655 34.9075C28.3881 35.3337 29.2375 35.5339 30.0319 35.7879C31.6082 36.3315 33.0739 37.2359 34.4151 38.2105C34.5304 38.2936 34.6457 38.3767 34.7645 38.4623C35.9507 39.3642 36.9635 40.4528 38.0053 41.5135C38.0527 39.7126 38.1 37.9118 38.1489 36.0563C39.6654 36.0563 41.1819 36.0563 42.7443 36.0563C42.7443 31.5068 42.7443 26.9573 42.7443 22.27C44.2608 22.27 45.7773 22.27 47.3398 22.27C47.3398 20.7535 47.3398 19.237 47.3398 17.6745C48.098 17.6745 48.8563 17.6745 49.6375 17.6745C49.6375 19.191 49.6375 20.7075 49.6375 22.27C50.3958 22.27 51.154 22.27 51.9352 22.27C51.9352 19.9952 51.9352 17.7205 51.9352 15.3768C52.6935 15.3768 53.4517 15.3768 54.233 15.3768C54.233 17.6515 54.233 19.9263 54.233 22.27C54.9912 22.27 55.7495 22.27 56.5307 22.27C56.5307 20.7535 56.5307 19.237 56.5307 17.6745C57.289 17.6745 58.0472 17.6745 58.8284 17.6745C58.8284 19.191 58.8284 20.7075 58.8284 22.27C60.3449 22.27 61.8614 22.27 63.4239 22.27C63.4239 28.336 63.4239 34.402 63.4239 40.6518C64.1821 40.6518 64.9404 40.6518 65.7216 40.6518C65.7216 45.2013 65.7216 49.7508 65.7216 54.4382C66.1712 54.2134 66.244 53.7667 66.4146 53.3182C66.4544 53.2162 66.4941 53.1141 66.535 53.009C66.6214 52.7869 66.7074 52.5647 66.7929 52.3423C66.9283 51.9907 67.0652 51.6397 67.2025 51.2889C67.5927 50.2911 67.9808 49.2926 68.3666 48.2931C68.6025 47.6823 68.8405 47.0724 69.0799 46.4629C69.1709 46.2301 69.261 45.9969 69.3502 45.7635C69.475 45.4373 69.6024 45.1124 69.7305 44.7876C69.7669 44.6903 69.8034 44.593 69.8409 44.4927C70.0999 43.8477 70.0999 43.8477 70.4593 43.6694C70.9232 43.6665 71.2915 43.843 71.7173 44.0176C71.9694 44.1195 71.9694 44.1195 72.2266 44.2235C72.3547 44.277 72.4828 44.3305 72.6148 44.3856C72.2907 45.574 71.8491 46.706 71.388 47.8468C71.3113 48.0379 71.2346 48.229 71.158 48.4202C70.9581 48.9185 70.7575 49.4166 70.5567 49.9146C70.3149 50.5147 70.0741 51.1151 69.8331 51.7155C69.4686 52.6234 69.1029 53.5307 68.7374 54.4382C70.1117 54.4382 71.486 54.4382 72.902 54.4382C72.4673 57.4809 71.5319 59.993 69.0628 61.926C67.2601 63.1243 65.432 63.6655 63.2893 63.6886C63.0479 63.6927 63.0479 63.6927 62.8016 63.697C62.291 63.7055 61.7804 63.7122 61.2698 63.7189C60.9222 63.7243 60.5745 63.73 60.2269 63.7357C59.3778 63.7494 58.5287 63.7617 57.6796 63.7727C57.6434 63.8788 57.6073 63.985 57.57 64.0943C57.5208 64.2347 57.4716 64.3752 57.421 64.5199C57.373 64.6586 57.325 64.7973 57.2755 64.9402C56.697 66.3397 55.467 67.4007 54.0983 68.0002C52.6407 68.4737 50.814 68.4565 49.4058 67.8397C47.6572 66.8724 46.8781 65.6625 46.1909 63.7727C45.0535 63.7253 43.9162 63.6779 42.7443 63.6291C42.7443 66.6621 42.7443 69.6951 42.7443 72.82C31.3706 72.82 19.9968 72.82 8.27838 72.82C8.23099 70.877 8.1836 68.934 8.13478 66.9321C7.47131 66.5056 6.80784 66.0791 6.12426 65.6396C3.6362 63.5796 1.92166 60.811 1.3852 57.5976C1.36851 57.2245 1.35826 56.8554 1.35603 56.4824C1.35521 56.3744 1.35439 56.2665 1.35354 56.1553C1.35219 55.9264 1.35125 55.6975 1.3507 55.4687C1.34932 55.1274 1.34487 54.7862 1.34032 54.4449C1.30724 49.6861 3.00593 45.1096 6.12426 41.5135C6.22589 41.3944 6.32752 41.2754 6.43223 41.1528C8.91523 38.3132 12.3874 36.0136 16.0781 35.0735C16.4908 34.9442 16.4908 34.9442 16.6424 34.5653C16.6724 34.4353 16.7024 34.3054 16.7333 34.1715C16.7655 34.0408 16.7977 33.9101 16.8309 33.7754C16.852 33.6751 16.8731 33.5748 16.8949 33.4714C16.7908 33.4553 16.6868 33.4392 16.5796 33.4226C15.1822 33.0937 14.2295 32.0504 13.4573 30.9044C13.3047 30.5992 13.3047 30.5992 13.3047 30.312C13.2073 30.3187 13.1099 30.3254 13.0096 30.3322C11.7484 30.3811 10.7428 30.1343 9.74139 29.3427C8.95236 28.6057 8.33326 27.6166 8.2533 26.522C8.24521 26.1055 8.24612 25.69 8.25034 25.2734C8.25074 25.1216 8.25115 24.9698 8.25157 24.8135C8.25317 24.3306 8.25677 23.8478 8.26043 23.365C8.26187 23.0368 8.26318 22.7086 8.26436 22.3805C8.26752 21.5777 8.27232 20.775 8.27838 19.9722C8.07901 19.9795 8.07901 19.9795 7.87561 19.9868C7.13512 19.9633 6.74114 19.5947 6.24655 19.0713C5.76846 18.3268 5.89841 17.3749 5.90885 16.5256C5.90663 16.345 5.90441 16.1643 5.90212 15.9781C5.90907 14.3383 5.90907 14.3383 6.55509 13.6535C7.18713 13.1198 7.60049 13.0133 8.42199 13.0791C8.43088 12.9339 8.43976 12.7888 8.44892 12.6393C8.75696 10.2749 9.99042 7.93203 11.5814 6.18586C11.7084 6.04554 11.8354 5.90522 11.9662 5.76065C16.6124 0.794391 24.63 0.119116 30.1769 3.99416ZM20.9159 4.03174C20.9159 7.01735 20.9159 10.003 20.9159 13.0791C21.6741 13.0791 22.4324 13.0791 23.2136 13.0791C23.2136 10.0934 23.2136 7.10783 23.2136 4.03174C21.9675 3.83879 21.9675 3.83879 20.9159 4.03174ZM25.5114 4.46257C25.5114 7.30601 25.5114 10.1494 25.5114 13.0791C28.0704 13.0791 30.6295 13.0791 33.2662 13.0791C32.361 9.76005 30.7734 7.27549 27.8091 5.46782C27.0533 5.04262 26.3375 4.73794 25.5114 4.46257ZM13.8224 7.36783C12.5194 8.75295 10.8633 11.0954 10.8633 13.0791C13.4224 13.0791 15.9815 13.0791 18.6182 13.0791C18.6182 10.2356 18.6182 7.39217 18.6182 4.46257C16.9552 4.46257 14.9489 6.30959 13.8224 7.36783ZM8.27838 15.3768C8.27838 16.135 8.27838 16.8933 8.27838 17.6745C17.3774 17.6745 26.4764 17.6745 35.8511 17.6745C35.8511 16.9163 35.8511 16.158 35.8511 15.3768C26.7521 15.3768 17.6531 15.3768 8.27838 15.3768ZM10.5761 19.9722C10.5761 20.5409 10.5761 21.1096 10.5761 21.6955C10.742 21.6274 10.9078 21.5593 11.0787 21.4891C11.6798 21.2615 12.2351 21.1781 12.8738 21.1211C12.8738 20.742 12.8738 20.3629 12.8738 19.9722C12.1156 19.9722 11.3573 19.9722 10.5761 19.9722ZM15.1716 19.9722C15.1656 21.2725 15.1597 22.5728 15.1536 23.9125C15.151 24.3206 15.1484 24.7287 15.1457 25.1491C15.1449 25.4757 15.1441 25.8023 15.1435 26.1289C15.1421 26.2959 15.1406 26.4629 15.1391 26.635C15.1388 27.9428 15.1729 29.1221 16.0332 30.1684C17.2665 31.3929 18.4865 31.4831 20.1648 31.485C20.3135 31.4855 20.4622 31.486 20.6154 31.4865C20.9294 31.4872 21.2433 31.4875 21.5573 31.4875C22.0347 31.4878 22.5121 31.4904 22.9895 31.4931C23.2955 31.4936 23.6015 31.4938 23.9075 31.494C24.1197 31.4955 24.1197 31.4955 24.336 31.4971C25.5696 31.4931 26.6826 31.4074 27.6655 30.5992C28.6777 29.5797 28.9775 28.6141 28.9743 27.1782C28.9742 26.9335 28.9742 26.9335 28.9742 26.6838C28.9735 26.5145 28.9727 26.3453 28.972 26.1709C28.9718 26.0137 28.9717 25.8565 28.9715 25.6945C28.9708 25.1095 28.9688 24.5244 28.9669 23.9394C28.9625 21.9757 28.9625 21.9757 28.9579 19.9722C24.4084 19.9722 19.8589 19.9722 15.1716 19.9722ZM31.2557 19.9722C31.2557 20.3514 31.2557 20.7305 31.2557 21.1211C31.3614 21.1402 31.4671 21.1592 31.576 21.1789C31.7161 21.2042 31.8563 21.2296 32.0006 21.2557C32.2081 21.2932 32.2081 21.2932 32.4197 21.3315C32.7983 21.4015 33.1759 21.4764 33.5534 21.5519C33.5534 21.0306 33.5534 20.5093 33.5534 19.9722C32.7952 19.9722 32.0369 19.9722 31.2557 19.9722ZM11.2942 24.1369C10.7289 24.7617 10.628 25.2739 10.6647 26.0902C10.7809 26.8176 11.1614 27.1889 11.716 27.6373C12.1785 27.9268 12.1785 27.9268 12.8738 27.8707C12.8738 26.449 12.8738 25.0272 12.8738 23.5624C12.0762 23.5624 11.8962 23.6501 11.2942 24.1369ZM31.2557 23.5624C31.2557 24.9842 31.2557 26.4059 31.2557 27.8707C32.3268 27.7177 32.4322 27.6994 33.1226 27.009C33.5156 26.3693 33.5022 25.7281 33.4098 24.9985C33.0744 24.302 32.6545 23.9237 31.9737 23.5624C31.7368 23.5624 31.4998 23.5624 31.2557 23.5624ZM45.0421 24.5677C45.0421 28.359 45.0421 32.1502 45.0421 36.0563C48.0751 36.0563 51.1081 36.0563 54.233 36.0563C54.233 37.5728 54.233 39.0894 54.233 40.6518C56.5077 40.6518 58.7825 40.6518 61.1262 40.6518C61.1262 35.3441 61.1262 30.0363 61.1262 24.5677C55.8184 24.5677 50.5107 24.5677 45.0421 24.5677ZM19.4798 33.7586C18.8096 35.3214 18.8096 35.3214 19.049 36.3436C19.2492 36.7022 19.451 37.0323 19.6812 37.3701C19.7441 37.4645 19.8069 37.5589 19.8717 37.6562C20.0041 37.8544 20.1373 38.052 20.2712 38.2492C20.4767 38.5524 20.6795 38.8573 20.882 39.1624C21.0111 39.355 21.1404 39.5474 21.2699 39.7397C21.3308 39.8312 21.3917 39.9227 21.4544 40.017C21.6025 40.2339 21.7609 40.4437 21.9212 40.6518C22.0159 40.6518 22.1107 40.6518 22.2084 40.6518C22.4529 40.3334 22.6788 40.0153 22.9012 39.6819C22.968 39.5823 23.0349 39.4827 23.1038 39.38C23.2452 39.1683 23.3861 38.9561 23.5264 38.7436C23.7412 38.4199 23.9598 38.0991 24.1788 37.7782C24.3156 37.5723 24.4522 37.3661 24.5886 37.1598C24.6544 37.0644 24.7202 36.9691 24.788 36.8709C25.0953 36.3958 25.2251 36.1435 25.219 35.5655C25.0549 34.9557 24.8494 34.3577 24.6497 33.7586C22.9436 33.7586 21.2376 33.7586 19.4798 33.7586ZM27.8091 37.636C27.8091 45.4555 27.8091 53.275 27.8091 61.3314C28.283 61.4262 28.7569 61.5209 29.2452 61.6186C30.1511 62.0972 30.7944 62.7888 31.1121 63.7727C31.2278 64.8992 31.2696 66.0118 30.5376 66.9321C29.7012 67.816 29.0239 68.051 27.8091 68.2246C27.8091 68.9828 27.8091 69.7411 27.8091 70.5223C29.7047 70.5223 31.6003 70.5223 33.5534 70.5223C33.5911 68.8067 33.5911 68.8067 33.6165 67.0911C33.6242 66.3899 33.6332 65.6888 33.6509 64.9877C33.6651 64.4216 33.6727 63.8556 33.676 63.2893C33.6784 63.0748 33.683 62.8603 33.6901 62.6458C33.7362 61.183 33.4854 60.2848 32.5787 59.152C31.5319 57.816 31.2995 56.0566 30.9685 54.4382C32.3428 54.4382 33.7171 54.4382 35.1331 54.4382C35.0117 53.8311 34.8593 53.3511 34.6304 52.7817C34.594 52.6906 34.5576 52.5994 34.52 52.5055C34.4002 52.2062 34.2794 51.9071 34.1587 51.6081C34.0751 51.3999 33.9916 51.1916 33.9082 50.9833C33.6889 50.4366 33.4689 49.8901 33.2488 49.3437C33.024 48.7855 32.8 48.2271 32.5759 47.6687C32.1365 46.5741 31.6964 45.4797 31.2557 44.3856C31.3678 44.3642 31.48 44.3427 31.5956 44.3206C32.0407 44.2281 32.4346 44.0711 32.8544 43.9004C33.1226 43.8112 33.1226 43.8112 33.5534 43.8112C33.6046 43.9422 33.6558 44.0732 33.7086 44.2082C34.1908 45.4409 34.6746 46.6729 35.1601 47.9043C35.4097 48.5375 35.6586 49.1708 35.9062 49.8048C36.145 50.4161 36.3854 51.0269 36.6269 51.6372C36.7189 51.8706 36.8104 52.1041 36.9012 52.3379C37.0283 52.6645 37.1573 52.9903 37.2868 53.3159C37.3429 53.4622 37.3429 53.4622 37.4001 53.6114C37.5154 53.9083 37.5154 53.9083 37.718 54.2946C37.9313 54.3657 37.9313 54.3657 38.1489 54.4382C38.1791 53.387 38.2019 52.3359 38.2158 51.2843C38.2225 50.7958 38.2316 50.3076 38.2464 49.8192C38.3786 46.6938 38.3786 46.6938 36.8564 44.0984C36.7101 43.9093 36.5644 43.7196 36.42 43.529C36.0415 43.0939 35.6623 42.6603 35.2767 42.2315C35.1949 42.1376 35.1131 42.0438 35.0288 41.9471C33.895 40.7232 32.3963 39.7735 30.9595 38.9465C30.8752 38.897 30.7909 38.8475 30.704 38.7965C29.7653 38.275 28.8565 38.0101 27.8091 37.636ZM9.14003 41.9443C8.98092 42.087 8.98092 42.087 8.8186 42.2326C5.52146 45.3131 3.85362 50.0673 3.68636 54.4899C3.61951 57.6744 4.45745 60.3727 6.66279 62.7271C8.91574 65.0113 11.6321 65.9093 14.8109 65.9537C15.3351 65.9557 15.8591 65.9509 16.3833 65.9448C16.6018 65.9433 16.8203 65.942 17.0388 65.9409C17.5653 65.938 18.0916 65.9324 18.6182 65.9268C18.6182 65.1212 18.6182 64.3155 18.6182 63.4855C18.2983 63.4055 17.9784 63.3256 17.6488 63.2432C17.4837 63.2014 17.4837 63.2014 17.3153 63.1588C16.7412 63.0139 16.1663 62.8748 15.5889 62.7433C13.0288 62.1514 11.0065 61.2619 9.5041 58.9888C8.69506 57.5724 8.40521 56.315 8.37655 54.7091C8.37357 54.5699 8.37058 54.4307 8.36751 54.2872C8.35815 53.8439 8.34967 53.4006 8.34121 52.9572C8.33501 52.6561 8.32874 52.3549 8.32242 52.0538C8.30707 51.3168 8.29252 50.5798 8.27838 49.8427C9.03663 49.8427 9.79489 49.8427 10.5761 49.8427C10.5728 50.1632 10.5694 50.4836 10.566 50.8138C10.5638 51.1308 10.562 51.4479 10.5603 51.7649C10.5589 51.982 10.557 52.1991 10.5544 52.4162C10.5291 54.6612 10.5555 56.9123 12.1805 58.6522C13.4418 59.7949 14.5999 60.0396 16.3204 60.4697C16.3204 52.9346 16.3204 45.3995 16.3204 37.636C13.8295 37.636 10.8074 40.3721 9.14003 41.9443ZM40.4466 38.3541C40.4466 43.6618 40.4466 48.9696 40.4466 54.4382C44.2379 54.4382 48.0291 54.4382 51.9352 54.4382C51.9352 49.1304 51.9352 43.8227 51.9352 38.3541C48.144 38.3541 44.3527 38.3541 40.4466 38.3541ZM18.6182 40.0774C18.6182 41.7834 18.6182 43.4895 18.6182 45.2473C19.0939 44.7715 19.537 44.3164 19.9645 43.8022C20.0663 43.6821 20.1681 43.5619 20.273 43.4381C20.518 43.1211 20.518 43.1211 20.4487 42.8213C20.3306 42.488 20.1796 42.225 19.9869 41.9286C19.9168 41.8203 19.8466 41.712 19.7743 41.6004C19.7008 41.4888 19.6273 41.3772 19.5516 41.2621C19.4781 41.1483 19.4046 41.0344 19.3289 40.9171C19.0535 40.4916 19.0535 40.4916 18.7618 40.0774C18.7144 40.0774 18.667 40.0774 18.6182 40.0774ZM25.3677 40.0774C25.0545 40.4817 24.7746 40.9104 24.4881 41.3339C24.4054 41.4524 24.3226 41.5709 24.2374 41.693C24.121 41.8651 24.121 41.8651 24.0023 42.0408C23.8943 42.1987 23.8943 42.1987 23.7841 42.3598C23.6186 42.6519 23.6186 42.6519 23.6717 42.9574C23.7969 43.258 23.9402 43.4778 24.1426 43.7327C24.2127 43.8215 24.2829 43.9104 24.3552 44.0019C24.4287 44.093 24.5022 44.1841 24.5779 44.2779C24.6514 44.3712 24.7249 44.4645 24.8006 44.5606C24.9855 44.7929 25.1762 45.0205 25.3677 45.2473C25.4151 45.2473 25.4625 45.2473 25.5114 45.2473C25.5114 43.5412 25.5114 41.8351 25.5114 40.0774C25.464 40.0774 25.4166 40.0774 25.3677 40.0774ZM54.233 42.9495C54.233 46.7408 54.233 50.532 54.233 54.4382C57.266 54.4382 60.299 54.4382 63.4239 54.4382C63.4239 50.6469 63.4239 46.8557 63.4239 42.9495C60.3909 42.9495 57.3579 42.9495 54.233 42.9495ZM21.9212 44.96C21.6762 45.245 21.4474 45.5314 21.2211 45.8307C21.096 45.9941 20.9707 46.1573 20.8452 46.3204C20.7763 46.4135 20.7073 46.5066 20.6363 46.6025C20.4067 46.8891 20.1765 47.1442 19.9212 47.4062C18.7898 48.6137 18.4021 49.5347 18.4229 51.1861C18.4317 51.4382 18.4407 51.6903 18.4499 51.9424C18.4531 52.2066 18.4555 52.4707 18.4573 52.7349C18.4638 53.4229 18.4806 54.1103 18.4998 54.798C18.5176 55.5027 18.5254 56.2075 18.534 56.9123C18.5524 58.2899 18.5817 59.667 18.6182 61.0442C19.2404 61.0919 19.2404 61.0919 19.7698 60.8181C19.8548 60.7179 19.9398 60.6178 20.0273 60.5146C20.6498 59.7849 21.3973 59.246 22.363 59.1193C22.8429 59.1069 23.3173 59.1144 23.797 59.1324C23.9624 59.1356 24.1278 59.1389 24.2983 59.1422C24.7028 59.1506 25.107 59.1623 25.5114 59.1772C25.5583 57.9088 25.5939 56.6408 25.6155 55.3717C25.6259 54.7821 25.64 54.193 25.663 53.6038C25.889 50.4093 25.889 50.4093 24.5454 47.6437C24.2875 47.3882 24.0243 47.1467 23.7484 46.9108C23.3498 46.5446 23.0523 46.1134 22.7469 45.6691C22.5744 45.4276 22.3972 45.189 22.2084 44.96C22.1136 44.96 22.0188 44.96 21.9212 44.96ZM33.9842 56.7359C35.1279 59.0233 36.2969 60.2697 38.6913 61.0733C40.0938 61.4201 41.5759 61.3914 43.0124 61.4132C43.2833 61.4185 43.5542 61.4264 43.8249 61.4368C45.343 61.5671 45.343 61.5671 46.6955 61.0496C46.9135 60.7183 47.0532 60.407 47.1962 60.0389C48.0934 59.1854 48.9212 59.1318 50.107 59.129C50.2499 59.1281 50.3928 59.1271 50.54 59.1261C50.8419 59.1247 51.1438 59.124 51.4457 59.124C51.9052 59.1234 52.3646 59.1182 52.8241 59.1127C53.1181 59.1119 53.4122 59.1113 53.7062 59.1111C53.8425 59.109 53.9789 59.1069 54.1193 59.1048C55.1339 59.1117 55.9067 59.3288 56.6777 60.0075C56.7417 60.0889 56.8058 60.1704 56.8718 60.2543C56.9712 60.3765 56.9712 60.3765 57.0726 60.5011C57.2562 60.7678 57.3939 61.0408 57.536 61.3314C58.3403 61.3386 59.1446 61.3437 59.949 61.3471C60.2218 61.3486 60.4946 61.3505 60.7675 61.353C63.4835 61.3774 65.8798 61.3405 68.0193 59.4645C68.1097 59.3893 68.2 59.3142 68.2931 59.2367C69.1383 58.4768 69.3243 57.8599 69.8863 56.7359C58.0386 56.7359 46.1909 56.7359 33.9842 56.7359ZM21.2314 62.5414C20.7691 63.1583 20.8416 63.8054 20.8738 64.5457C20.8769 64.6787 20.8799 64.8118 20.883 64.9488C20.8909 65.275 20.9019 65.6008 20.9159 65.9268C21.8818 65.9378 22.8477 65.9453 23.8137 65.9505C24.1421 65.9527 24.4706 65.9556 24.799 65.9593C25.2717 65.9646 25.7443 65.967 26.2171 65.9689C26.4366 65.9722 26.4366 65.9722 26.6605 65.9756C27.4366 65.9758 28.0059 65.9468 28.6707 65.496C28.8747 65.088 28.8595 64.7988 28.8143 64.3471C28.4938 63.9382 28.3045 63.7943 27.8091 63.6291C27.4158 63.619 27.0264 63.6157 26.6333 63.6201C26.5256 63.6208 26.418 63.6214 26.3071 63.6221C26.0418 63.6238 25.7766 63.6264 25.5114 63.6291C25.5169 63.3457 25.5225 63.0623 25.528 62.7789C25.5017 62.3075 25.3459 62.003 25.0805 61.6186C23.7478 60.7562 22.2061 61.543 21.2314 62.5414ZM48.7759 61.7622C48.4875 62.3389 48.5446 63.038 48.7203 63.6471C49.1177 64.5432 49.8201 65.2335 50.6989 65.6643C51.5614 65.938 52.5819 65.9361 53.4162 65.5678C54.1687 65.1263 54.7185 64.4542 55.1575 63.7099C55.2801 63.151 55.3263 62.6172 55.2382 62.0494C54.9225 61.614 54.7428 61.5013 54.233 61.3314C53.5838 61.2985 52.9343 61.2986 52.2844 61.2969C51.9648 61.2955 51.6453 61.291 51.3258 61.2865C51.1211 61.2856 50.9164 61.2848 50.7118 61.2843C50.4339 61.2822 50.4339 61.2822 50.1503 61.2802C49.5951 61.3356 49.2483 61.4701 48.7759 61.7622ZM35.8511 62.4802C35.8511 65.1341 35.8511 67.788 35.8511 70.5223C37.3676 70.5223 38.8841 70.5223 40.4466 70.5223C40.4466 68.2475 40.4466 65.9728 40.4466 63.6291C39.6883 63.5343 38.9301 63.4395 38.1489 63.3419C37.5059 63.1166 36.9016 62.8937 36.282 62.6238C36.1398 62.5765 35.9976 62.5291 35.8511 62.4802ZM10.5761 67.7937C10.5761 68.6942 10.5761 69.5946 10.5761 70.5223C12.4717 70.5223 14.3674 70.5223 16.3204 70.5223C16.3204 69.764 16.3204 69.0058 16.3204 68.2246C16.0381 68.2175 15.7558 68.2105 15.465 68.2032C15.1859 68.1952 14.9069 68.1872 14.6279 68.179C14.3436 68.1709 14.0593 68.1641 13.775 68.1572C12.6784 68.1239 11.6499 68.0205 10.5761 67.7937ZM18.6182 68.2246C18.6182 68.9828 18.6182 69.7411 18.6182 70.5223C20.8929 70.5223 23.1677 70.5223 25.5114 70.5223C25.5114 69.764 25.5114 69.0058 25.5114 68.2246C23.2366 68.2246 20.9619 68.2246 18.6182 68.2246Z" fill="#EF5000"/>
<path d="M47.3398 40.6519C48.0981 40.6519 48.8563 40.6519 49.6376 40.6519C49.6376 44.4431 49.6376 48.2344 49.6376 52.1405C48.8793 52.1405 48.1211 52.1405 47.3398 52.1405C47.3398 48.3492 47.3398 44.558 47.3398 40.6519Z" fill="#EF5000"/>
<path d="M42.7441 40.6519C43.5024 40.6519 44.2606 40.6519 45.0419 40.6519C45.0419 44.4431 45.0419 48.2344 45.0419 52.1405C44.2836 52.1405 43.5254 52.1405 42.7441 52.1405C42.7441 48.3492 42.7441 44.558 42.7441 40.6519Z" fill="#EF5000"/>
<path d="M56.5312 49.8428C58.0478 49.8428 59.5643 49.8428 61.1267 49.8428C61.1267 50.601 61.1267 51.3593 61.1267 52.1405C59.6102 52.1405 58.0937 52.1405 56.5312 52.1405C56.5312 51.3823 56.5312 50.624 56.5312 49.8428Z" fill="#EF5000"/>
<path d="M56.5312 45.2473C58.0478 45.2473 59.5643 45.2473 61.1267 45.2473C61.1267 46.0056 61.1267 46.7638 61.1267 47.545C59.6102 47.545 58.0937 47.545 56.5312 47.545C56.5312 46.7868 56.5312 46.0285 56.5312 45.2473Z" fill="#EF5000"/>
<path d="M56.5312 36.0564C57.2895 36.0564 58.0478 36.0564 58.829 36.0564C58.829 36.8146 58.829 37.5729 58.829 38.3541C58.0707 38.3541 57.3125 38.3541 56.5312 38.3541C56.5312 37.5959 56.5312 36.8376 56.5312 36.0564Z" fill="#EF5000"/>
<path d="M56.5312 31.4609C57.2895 31.4609 58.0478 31.4609 58.829 31.4609C58.829 32.2192 58.829 32.9774 58.829 33.7587C58.0707 33.7587 57.3125 33.7587 56.5312 33.7587C56.5312 33.0004 56.5312 32.2422 56.5312 31.4609Z" fill="#EF5000"/>
<path d="M51.9355 31.4609C52.6938 31.4609 53.452 31.4609 54.2333 31.4609C54.2333 32.2192 54.2333 32.9774 54.2333 33.7587C53.475 33.7587 52.7168 33.7587 51.9355 33.7587C51.9355 33.0004 51.9355 32.2422 51.9355 31.4609Z" fill="#EF5000"/>
<path d="M47.3398 31.4609C48.0981 31.4609 48.8563 31.4609 49.6376 31.4609C49.6376 32.2192 49.6376 32.9774 49.6376 33.7587C48.8793 33.7587 48.1211 33.7587 47.3398 33.7587C47.3398 33.0004 47.3398 32.2422 47.3398 31.4609Z" fill="#EF5000"/>
<path d="M56.5312 26.8655C57.2895 26.8655 58.0478 26.8655 58.829 26.8655C58.829 27.6237 58.829 28.382 58.829 29.1632C58.0707 29.1632 57.3125 29.1632 56.5312 29.1632C56.5312 28.405 56.5312 27.6467 56.5312 26.8655Z" fill="#EF5000"/>
<path d="M51.9355 26.8655C52.6938 26.8655 53.452 26.8655 54.2333 26.8655C54.2333 27.6237 54.2333 28.382 54.2333 29.1632C53.475 29.1632 52.7168 29.1632 51.9355 29.1632C51.9355 28.405 51.9355 27.6467 51.9355 26.8655Z" fill="#EF5000"/>
<path d="M47.3398 26.8655C48.0981 26.8655 48.8563 26.8655 49.6376 26.8655C49.6376 27.6237 49.6376 28.382 49.6376 29.1632C48.8793 29.1632 48.1211 29.1632 47.3398 29.1632C47.3398 28.405 47.3398 27.6467 47.3398 26.8655Z" fill="#EF5000"/>
</svg>
