<svg width="65" height="64" viewBox="0 0 65 64" fill="none" xmlns="http://www.w3.org/2000/svg">
<path d="M29.6742 26.0415H61.2308C61.9917 26.0415 62.7214 26.3437 63.2594 26.8817C63.7974 27.4197 64.0996 28.1494 64.0996 28.9103V60.4669C64.0996 61.2278 63.7974 61.9574 63.2594 62.4954C62.7214 63.0335 61.9917 63.3357 61.2308 63.3357H29.6742C28.9133 63.3357 28.1836 63.0335 27.6456 62.4954C27.1076 61.9574 26.8054 61.2278 26.8054 60.4669V28.9103C26.8054 28.1494 27.1076 27.4197 27.6456 26.8817C28.1836 26.3437 28.9133 26.0415 29.6742 26.0415ZM32.543 57.5981H58.362V31.7791H32.543V57.5981ZM0.986324 51.8606V57.5981C0.986324 59.1198 1.59082 60.5792 2.66682 61.6552C3.74282 62.7312 5.2022 63.3357 6.7239 63.3357H15.3303C16.0911 63.3357 16.8208 63.0335 17.3588 62.4954C17.8968 61.9574 18.199 61.2278 18.199 60.4669C18.199 59.7061 17.8968 58.9764 17.3588 58.4384C16.8208 57.9004 16.0911 57.5981 15.3303 57.5981H6.7239V51.8606C6.7239 51.0997 6.42165 50.37 5.88365 49.832C5.34565 49.294 4.61596 48.9918 3.85511 48.9918C3.09426 48.9918 2.36457 49.294 1.82657 49.832C1.28857 50.37 0.986324 51.0997 0.986324 51.8606ZM0.986324 26.0415V37.5166C0.986324 38.2775 1.28857 39.0072 1.82657 39.5452C2.36457 40.0832 3.09426 40.3854 3.85511 40.3854C4.61596 40.3854 5.34565 40.0832 5.88365 39.5452C6.42165 39.0072 6.7239 38.2775 6.7239 37.5166V26.0415C6.7239 25.2806 6.42165 24.5509 5.88365 24.0129C5.34565 23.4749 4.61596 23.1727 3.85511 23.1727C3.09426 23.1727 2.36457 23.4749 1.82657 24.0129C1.28857 24.5509 0.986324 25.2806 0.986324 26.0415ZM0.986324 5.95998V11.6976C0.986324 12.4584 1.28857 13.1881 1.82657 13.7261C2.36457 14.2641 3.09426 14.5663 3.85511 14.5663C4.61596 14.5663 5.34565 14.2641 5.88365 13.7261C6.42165 13.1881 6.7239 12.4584 6.7239 11.6976V5.95998H12.4615C13.2223 5.95998 13.952 5.65774 14.49 5.11973C15.028 4.58173 15.3303 3.85205 15.3303 3.0912C15.3303 2.33035 15.028 1.60066 14.49 1.06266C13.952 0.524659 13.2223 0.222412 12.4615 0.222412H6.7239C5.2022 0.222412 3.74282 0.826904 2.66682 1.90291C1.59082 2.97891 0.986324 4.43828 0.986324 5.95998ZM23.9366 3.0912C23.9366 3.85205 24.2389 4.58173 24.7769 5.11973C25.3149 5.65774 26.0445 5.95998 26.8054 5.95998H38.2805C39.0414 5.95998 39.7711 5.65774 40.3091 5.11973C40.8471 4.58173 41.1493 3.85205 41.1493 3.0912C41.1493 2.33035 40.8471 1.60066 40.3091 1.06266C39.7711 0.524659 39.0414 0.222412 38.2805 0.222412H26.8054C26.0445 0.222412 25.3149 0.524659 24.7769 1.06266C24.2389 1.60066 23.9366 2.33035 23.9366 3.0912ZM64.0996 14.5663V5.95998C64.0996 4.43828 63.4951 2.97891 62.4191 1.90291C61.3431 0.826904 59.8837 0.222412 58.362 0.222412H52.6245C51.8636 0.222412 51.1339 0.524659 50.5959 1.06266C50.0579 1.60066 49.7557 2.33035 49.7557 3.0912C49.7557 3.85205 50.0579 4.58173 50.5959 5.11973C51.1339 5.65774 51.8636 5.95998 52.6245 5.95998H58.362V14.5663C58.362 15.3272 58.6643 16.0569 59.2023 16.5949C59.7403 17.1329 60.47 17.4351 61.2308 17.4351C61.9917 17.4351 62.7214 17.1329 63.2594 16.5949C63.7974 16.0569 64.0996 15.3272 64.0996 14.5663Z" fill="#F6F6F6"/>
</svg>
