<svg width="79" height="83" viewBox="0 0 79 83" fill="none" xmlns="http://www.w3.org/2000/svg">
<g clip-path="url(#clip0_69_1798)">
<path d="M51.4944 82.2223C49.8018 81.8736 48.0755 81.6425 46.4229 81.1569C42.2136 79.9204 38.6471 77.5886 35.6877 74.3049C35.0195 73.5647 34.9689 72.8694 35.5422 72.3517C36.0861 71.8619 36.7606 71.9517 37.3992 72.6577C40.2828 75.8452 43.7797 78.0144 47.9005 79.1118C60.379 82.4298 72.9059 73.8385 74.569 60.834C74.921 58.0807 74.784 55.3532 74.0927 52.662C74.0526 52.508 74.0147 52.3518 73.9809 52.1956C73.8207 51.4576 74.1285 50.85 74.7503 50.6639C75.4269 50.4628 76.0867 50.8008 76.2511 51.5688C76.563 53.0235 76.9214 54.4889 77.0289 55.9671C77.8025 66.488 72.3621 75.7895 62.9316 80.1515C60.6699 81.1976 58.288 81.8308 55.8113 82.0832C55.5794 82.1068 55.3539 82.1774 55.1241 82.2244H51.4944V82.2223Z" fill="white"/>
<path d="M77.3393 23.352C79.561 26.5523 79.561 28.4306 77.3119 31.0704C78.661 32.4203 79.2849 34.0525 78.8696 35.9779C78.4607 37.8818 77.2234 39.0712 75.6088 39.6938C75.8133 40.7463 76.1695 41.7239 76.159 42.6973C76.1273 45.4912 73.9668 47.547 71.1507 47.5898C69.4729 47.6154 67.7929 47.5941 65.9823 47.5941C66.1846 47.9 66.3153 48.1139 66.4586 48.3171C73.7054 58.4636 67.7023 72.7068 55.4536 74.4033C51.6995 74.9231 48.1878 74.1615 44.927 72.2041C44.0754 71.6928 43.8014 71.0446 44.1534 70.3879C44.5223 69.7033 45.2326 69.6135 46.1327 70.1397C51.6173 73.3465 58.1031 72.7625 62.654 68.4519C66.8823 64.4472 68.2693 59.4456 66.5472 53.8578C64.8377 48.3128 60.9529 44.9221 55.2512 44.1135C49.345 43.2749 44.5939 45.5639 41.4807 50.6917C38.399 55.766 38.6604 60.9751 41.8263 66.011C41.9254 66.1693 42.0392 66.3169 42.1278 66.4795C42.465 67.1041 42.3386 67.7309 41.8095 68.1074C41.2973 68.469 40.5574 68.4091 40.2096 67.8208C39.4424 66.5244 38.6625 65.2151 38.0891 63.8246C37.5875 62.6095 37.3598 61.2768 37.0036 59.9633C35.6567 59.6595 34.4173 60.6179 34.413 62.0383C34.4088 63.1058 34.4236 64.1733 34.4088 65.2408C34.3772 67.5876 32.8553 69.1706 30.5557 69.2092C28.7408 69.2391 26.926 69.2434 25.1111 69.2092C22.8346 69.1664 21.336 67.6068 21.3086 65.2964C21.2938 64.1498 21.2854 63.001 21.3086 61.8522C21.3296 60.8275 20.6931 60.436 19.8794 60.098C19.1059 59.7771 18.4777 59.8028 17.8791 60.4446C17.1203 61.2597 16.3319 62.0448 15.5394 62.8277C13.8383 64.507 11.6968 64.4964 10.0105 62.8042C8.75633 61.5463 7.51059 60.2841 6.27118 59.0113C4.61441 57.3084 4.62706 55.12 6.29226 53.4C7.06794 52.5999 7.83309 51.7891 8.6404 51.0276C9.39501 50.3173 9.19265 49.5836 8.85751 48.7706C8.53922 47.9941 8.0755 47.5598 7.19652 47.5941C6.11941 47.6368 5.0402 47.6133 3.96098 47.6026C1.53695 47.5791 0.0171968 46.0431 0.00454975 43.6022C-0.00598949 41.7881 -0.012313 39.9719 0.00454975 38.1578C0.0277361 35.8752 1.52852 34.3435 3.76495 34.3071C4.89686 34.29 6.02878 34.2814 7.15858 34.3092C8.05442 34.3306 8.54133 33.8857 8.87226 33.0749C9.21163 32.2449 9.35496 31.5196 8.61721 30.8201C7.80991 30.0564 7.04054 29.2499 6.26696 28.4477C4.63338 26.7534 4.61652 24.5756 6.23745 22.8941C7.48951 21.5978 8.75422 20.3142 10.0316 19.0435C11.7179 17.3642 13.8658 17.3856 15.5605 19.082C16.3467 19.8692 17.135 20.6543 17.9023 21.463C18.4798 22.0727 19.0974 22.1026 19.8373 21.7946C20.6362 21.463 21.3191 21.1036 21.3022 20.0682C21.2833 18.8937 21.2854 17.7193 21.3022 16.5448C21.336 14.2259 22.8494 12.7091 25.1448 12.6942C26.9597 12.6813 28.7746 12.6792 30.5894 12.6942C32.8048 12.7134 34.3456 14.258 34.3983 16.5192C34.4257 17.6936 34.432 18.8681 34.3983 20.0425C34.3688 20.9923 34.9021 21.3988 35.6777 21.724C36.4492 22.0491 37.1195 22.1625 37.7603 21.4758C38.4664 20.7207 39.2231 20.0147 39.9272 19.2595C40.6965 18.4338 41.5903 17.8819 42.8149 17.7984C42.8149 16.3245 42.8149 14.8634 42.8149 13.4001C42.8149 13.107 42.7854 12.8033 42.8465 12.523C42.9899 11.8684 43.4072 11.4962 44.086 11.5432C44.7225 11.586 45.0893 11.9711 45.1673 12.6107C45.1989 12.8739 45.182 13.1434 45.182 13.4108C45.182 21.4181 45.1862 29.4275 45.1799 37.4347C45.1799 39.2274 45.6268 40.8682 46.7376 42.2759C46.8957 42.4748 47.3363 42.6459 47.5555 42.5668C51.9946 40.9752 56.3283 41.1805 60.5672 43.2727C60.6557 43.3177 60.7632 43.3262 60.9171 43.3647C60.7548 41.8951 61.0689 40.5773 61.9984 39.3515C60.563 38.4273 59.6208 37.1587 59.4374 35.4345C59.2561 33.7274 59.8779 32.3005 61.1195 31.0704C60.0487 30.0264 59.4163 28.7728 59.4079 27.2647C59.3995 25.7436 60.0234 24.4793 61.1152 23.4161C59.3173 21.5507 58.9062 19.4585 60.0803 16.9919C59.7409 16.9748 59.4711 16.9491 59.2013 16.9491C57.4645 16.9449 55.7297 16.9556 53.9928 16.9449C52.1801 16.932 51.3433 16.0742 51.3391 14.2408C51.3348 12.292 51.3538 10.3431 51.3327 8.39424C51.2969 5.42281 49.1848 3.03325 46.295 2.6546C45.3148 2.52625 45.1862 2.63535 45.1841 3.62369C45.182 4.71899 45.1926 5.81215 45.1799 6.90745C45.1715 7.77813 44.712 8.29583 43.9911 8.28728C43.2808 8.27872 42.8276 7.75246 42.8191 6.8775C42.8065 5.59609 42.796 4.31467 42.8234 3.03325C42.8634 1.39244 44.0522 0.230821 45.6584 0.222264C49.9563 0.200871 53.6029 3.7713 53.6977 8.12897C53.7378 9.94306 53.7104 11.7593 53.7125 13.5734C53.7125 13.8622 53.7125 14.151 53.7125 14.5425C54.1193 14.5425 54.4523 14.5425 54.7833 14.5425C61.0963 14.5425 67.4114 14.5361 73.7244 14.5468C76.3992 14.551 78.4059 16.0956 78.8907 18.5664C79.2575 20.4361 78.6778 22.0406 77.3393 23.352ZM42.8234 20.066C42.3702 20.3848 42.0329 20.5645 41.7673 20.8233C40.9495 21.617 40.1717 22.4492 39.3581 23.2471C37.9711 24.6098 36.4197 24.6633 34.7039 23.9189C33.0387 23.1958 32.0586 22.0427 32.0501 20.1559C32.0438 19.0093 32.0607 17.8605 32.0438 16.7138C32.0291 15.5779 31.5611 15.1051 30.4524 15.0987C28.7176 15.0901 26.9808 15.0901 25.246 15.0987C24.1289 15.1051 23.6904 15.5608 23.6799 16.716C23.6693 17.8369 23.6904 18.9579 23.6736 20.0789C23.6441 22.0962 22.5817 23.2942 20.7732 24.013C19.0363 24.7018 17.5439 24.4879 16.2223 23.1402C15.4614 22.3636 14.7026 21.5871 13.9332 20.8212C13.1238 20.0147 12.4725 19.9976 11.6841 20.7848C10.4279 22.0384 9.18212 23.3027 7.94692 24.5777C7.22814 25.3201 7.23236 26.0025 7.94059 26.7427C8.70996 27.547 9.49408 28.3364 10.2803 29.1237C11.6968 30.542 11.8422 32.1336 11.0855 33.9584C10.3372 35.7639 9.09359 36.7116 7.15858 36.7116C6.07936 36.7116 5.00225 36.7031 3.92304 36.7138C2.8396 36.7266 2.38642 37.178 2.37799 38.269C2.36534 40.0574 2.36534 41.8459 2.37799 43.6321C2.38431 44.6975 2.86911 45.1852 3.93358 45.2024C5.01069 45.2195 6.0899 45.2024 7.16912 45.2088C9.14628 45.2152 10.2634 45.9853 11.0433 47.8743C11.9033 49.9537 11.6947 51.3057 10.2698 52.7732C9.51305 53.5519 8.73736 54.3135 7.98486 55.0964C7.23025 55.8794 7.21549 56.5618 7.95113 57.3234C9.18633 58.5984 10.4321 59.8627 11.6883 61.1163C12.4451 61.8715 13.1175 61.8672 13.8805 61.1163C14.6541 60.3547 15.415 59.5803 16.1696 58.7974C17.5313 57.3833 19.0721 57.1822 20.8575 57.9096C22.6681 58.6476 23.6693 59.8948 23.6757 61.9036C23.6778 62.9967 23.6672 64.092 23.6799 65.1852C23.6904 66.3147 24.1542 66.8046 25.2566 66.8175C26.966 66.8346 28.6755 66.8324 30.3849 66.8175C31.5653 66.8089 32.0354 66.3083 32.0459 65.0847C32.0565 63.9102 32.0291 62.7357 32.0607 61.5634C32.1007 59.9697 32.8532 58.8102 34.2929 58.1877C35.1487 57.8176 36.0593 57.5758 37.0415 57.2464C37.1785 54.6066 37.91 52.0202 39.3054 49.637C40.6986 47.2539 42.5915 45.3671 44.9417 43.8675C43.1501 41.5827 42.7707 38.9835 42.8065 36.2153C42.8718 31.1988 42.8255 26.1822 42.8255 21.1656C42.8255 20.879 42.8255 20.5902 42.8255 20.0703L42.8234 20.066ZM69.1841 29.8553C70.7586 29.8553 72.3353 29.8617 73.9099 29.8553C75.4486 29.8467 76.5742 28.7921 76.6164 27.3417C76.6585 25.8271 75.5898 24.6312 74.0363 24.612C70.8071 24.5713 67.5779 24.5713 64.3487 24.6141C62.8605 24.6334 61.7413 25.8741 61.7771 27.2946C61.8129 28.7429 62.9533 29.8425 64.4583 29.8532C66.0329 29.866 67.6095 29.8553 69.1841 29.8553ZM69.0935 37.531C70.668 37.531 72.2447 37.5395 73.8192 37.5288C75.4655 37.5181 76.6016 36.4528 76.6164 34.9296C76.6311 33.3701 75.4865 32.2662 73.8087 32.2598C70.7376 32.2491 67.6643 32.2491 64.5911 32.2598C62.9765 32.2662 61.7961 33.3722 61.7729 34.8612C61.7497 36.3865 62.9428 37.5181 64.6016 37.5288C66.0982 37.5374 67.5948 37.5288 69.0913 37.5288L69.0935 37.531ZM69.1735 22.1903C70.7523 22.1903 72.3311 22.201 73.9099 22.1882C75.5034 22.1732 76.6121 21.0993 76.6185 19.5911C76.6248 18.0872 75.5287 16.9684 73.9394 16.9556C70.7818 16.9299 67.6264 16.9278 64.4688 16.9556C62.909 16.9684 61.7624 18.1407 61.7792 19.6018C61.7961 21.0801 62.9427 22.1732 64.5194 22.1861C66.0708 22.1989 67.6243 22.1882 69.1757 22.1882L69.1735 22.1903ZM68.5264 39.9355C67.6348 39.9355 66.7411 39.9227 65.8495 39.9376C64.4014 39.9654 63.2884 41.065 63.2463 42.4898C63.2041 43.8675 64.2222 45.0997 65.6429 45.1596C67.58 45.2409 69.5277 45.2451 71.4648 45.1553C72.8834 45.089 73.8825 43.8461 73.8277 42.462C73.7708 41.0287 72.6705 39.9612 71.2013 39.9376C70.3097 39.9227 69.4181 39.9355 68.5243 39.9355H68.5264Z" fill="white"/>
<path d="M51.5604 62.1067C54.25 59.0197 56.8785 56.0033 59.5091 52.987C59.6819 52.788 59.8484 52.572 60.055 52.4137C60.5651 52.0222 61.092 52.0457 61.56 52.4821C62.0005 52.8929 62.0553 53.4063 61.775 53.9368C61.678 54.1229 61.5326 54.2855 61.3935 54.4438C58.5394 57.7255 55.6854 61.0049 52.8251 64.2823C51.8049 65.4503 51.2948 65.4482 50.2809 64.278C48.5799 62.3142 46.8683 60.3567 45.2031 58.3629C44.927 58.0314 44.7077 57.5072 44.7394 57.0944C44.7647 56.7671 45.1862 56.2601 45.4834 56.2194C45.9029 56.1638 46.5057 56.3307 46.7903 56.6344C48.0403 57.9672 49.2038 59.3834 50.3989 60.7696C50.7615 61.1889 51.1261 61.6082 51.5583 62.1045L51.5604 62.1067Z" fill="white"/>
<path d="M26.7508 28.3515C34.2968 28.2638 39.7794 33.4579 40.2578 40.0939C40.7258 46.6122 35.962 52.5615 29.5879 53.4172C23.3571 54.2537 17.5584 50.4372 15.9122 44.396C15.8131 44.0301 15.7457 43.5253 15.9164 43.2493C16.1209 42.9199 16.6352 42.5476 16.9556 42.5968C17.3582 42.6589 17.8367 43.0525 18.0411 43.4354C18.5386 44.366 18.7915 45.4356 19.3269 46.3363C21.713 50.3388 26.6053 52.1101 31.0044 50.6383C35.3676 49.1793 38.3081 44.6826 37.8844 40.111C37.4439 35.3597 33.9027 31.5133 29.3434 30.833C24.3921 30.095 19.6768 33.1221 18.2119 37.9825C18.1802 38.0851 18.1655 38.19 18.1318 38.2927C17.8599 39.112 17.2739 39.4842 16.5888 39.2746C15.927 39.0735 15.6361 38.4124 15.8679 37.5696C16.3422 35.8518 17.1137 34.2858 18.2519 32.9231C20.7602 29.9174 23.9684 28.4007 26.7508 28.3494V28.3515Z" fill="white"/>
<path d="M34.5033 40.9753C34.4801 44.7169 31.4785 47.7353 27.8088 47.7033C24.12 47.6712 21.169 44.642 21.1817 40.9026C21.1943 37.1802 24.2043 34.1553 27.8783 34.1724C31.5544 34.1895 34.5244 37.238 34.5012 40.9731L34.5033 40.9753ZM32.1341 40.9603C32.1446 38.5344 30.2307 36.5791 27.8446 36.577C25.5007 36.577 23.5741 38.5066 23.5509 40.879C23.5277 43.3092 25.4121 45.2688 27.8045 45.3009C30.1801 45.333 32.1256 43.382 32.1362 40.9603H32.1341Z" fill="white"/>
</g>
<defs>
<clipPath id="clip0_69_1798">
<rect width="79" height="82" fill="white" transform="translate(0 0.222412)"/>
</clipPath>
</defs>
</svg>
