<svg width="65" height="64" viewBox="0 0 65 64" fill="none" xmlns="http://www.w3.org/2000/svg">
<path d="M35.4118 26.0415H3.85511C3.09426 26.0415 2.36458 26.3437 1.82658 26.8817C1.28857 27.4197 0.986328 28.1494 0.986328 28.9103V60.4669C0.986328 61.2278 1.28857 61.9574 1.82658 62.4954C2.36458 63.0335 3.09426 63.3357 3.85511 63.3357H35.4118C36.1726 63.3357 36.9023 63.0335 37.4403 62.4954C37.9783 61.9574 38.2805 61.2278 38.2805 60.4669V28.9103C38.2805 28.1494 37.9783 27.4197 37.4403 26.8817C36.9023 26.3437 36.1726 26.0415 35.4118 26.0415ZM32.543 57.5981H6.7239V31.7791H32.543V57.5981ZM64.0996 51.8606V57.5981C64.0996 59.1198 63.4951 60.5792 62.4191 61.6552C61.3431 62.7312 59.8837 63.3357 58.362 63.3357H49.7557C48.9948 63.3357 48.2651 63.0335 47.7271 62.4954C47.1891 61.9574 46.8869 61.2278 46.8869 60.4669C46.8869 59.7061 47.1891 58.9764 47.7271 58.4384C48.2651 57.9004 48.9948 57.5981 49.7557 57.5981H58.362V51.8606C58.362 51.0997 58.6643 50.37 59.2023 49.832C59.7403 49.294 60.47 48.9918 61.2308 48.9918C61.9917 48.9918 62.7214 49.294 63.2594 49.832C63.7974 50.37 64.0996 51.0997 64.0996 51.8606ZM64.0996 26.0415V37.5166C64.0996 38.2775 63.7974 39.0072 63.2594 39.5452C62.7214 40.0832 61.9917 40.3854 61.2308 40.3854C60.47 40.3854 59.7403 40.0832 59.2023 39.5452C58.6643 39.0072 58.362 38.2775 58.362 37.5166V26.0415C58.362 25.2806 58.6643 24.5509 59.2023 24.0129C59.7403 23.4749 60.47 23.1727 61.2308 23.1727C61.9917 23.1727 62.7214 23.4749 63.2594 24.0129C63.7974 24.5509 64.0996 25.2806 64.0996 26.0415ZM64.0996 5.95998V11.6976C64.0996 12.4584 63.7974 13.1881 63.2594 13.7261C62.7214 14.2641 61.9917 14.5663 61.2308 14.5663C60.47 14.5663 59.7403 14.2641 59.2023 13.7261C58.6643 13.1881 58.362 12.4584 58.362 11.6976V5.95998H52.6245C51.8636 5.95998 51.1339 5.65774 50.5959 5.11973C50.0579 4.58173 49.7557 3.85205 49.7557 3.0912C49.7557 2.33035 50.0579 1.60066 50.5959 1.06266C51.1339 0.524659 51.8636 0.222412 52.6245 0.222412H58.362C59.8837 0.222412 61.3431 0.826904 62.4191 1.90291C63.4951 2.97891 64.0996 4.43828 64.0996 5.95998ZM41.1493 3.0912C41.1493 3.85205 40.8471 4.58173 40.3091 5.11973C39.7711 5.65774 39.0414 5.95998 38.2805 5.95998H26.8054C26.0445 5.95998 25.3149 5.65774 24.7769 5.11973C24.2389 4.58173 23.9366 3.85205 23.9366 3.0912C23.9366 2.33035 24.2389 1.60066 24.7769 1.06266C25.3149 0.524659 26.0445 0.222412 26.8054 0.222412H38.2805C39.0414 0.222412 39.7711 0.524659 40.3091 1.06266C40.8471 1.60066 41.1493 2.33035 41.1493 3.0912ZM0.986328 14.5663V5.95998C0.986328 4.43828 1.59082 2.97891 2.66682 1.90291C3.74283 0.826904 5.2022 0.222412 6.7239 0.222412H12.4615C13.2223 0.222412 13.952 0.524659 14.49 1.06266C15.028 1.60066 15.3303 2.33035 15.3303 3.0912C15.3303 3.85205 15.028 4.58173 14.49 5.11973C13.952 5.65774 13.2223 5.95998 12.4615 5.95998H6.7239V14.5663C6.7239 15.3272 6.42165 16.0569 5.88365 16.5949C5.34565 17.1329 4.61596 17.4351 3.85511 17.4351C3.09426 17.4351 2.36458 17.1329 1.82658 16.5949C1.28857 16.0569 0.986328 15.3272 0.986328 14.5663Z" fill="#F6F6F6"/>
</svg>
