<svg width="72" height="73" viewBox="0 0 72 73" fill="none" xmlns="http://www.w3.org/2000/svg">
<g clip-path="url(#clip0_69_1804)">
<path d="M70.6255 16.9415L45.3355 41.3705C42.7075 43.9565 39.3085 45.2555 35.9005 45.2555C32.5345 45.2555 29.1625 43.9865 26.5195 41.4425L17.9455 33.5285C16.1215 31.8425 16.0075 28.9955 17.6905 27.1685C19.3795 25.3415 22.2265 25.2335 24.0505 26.9135L32.6965 34.8935C34.5355 36.6635 37.3015 36.6515 39.0505 34.9265L64.3735 10.4675C66.1615 8.74248 69.0085 8.79348 70.7365 10.5785C72.4615 12.3665 72.4135 15.2135 70.6255 16.9415ZM15.6415 16.6865C16.6675 16.6865 17.7025 16.3385 18.5455 15.6245C19.5415 14.7815 20.6095 14.0015 21.7165 13.3115C23.8195 11.9915 24.4585 9.21348 23.1415 7.10748C21.8215 5.00148 19.0435 4.37448 16.9375 5.68248C15.4705 6.60348 14.0575 7.63548 12.7375 8.75148C10.8385 10.3565 10.6015 13.1945 12.2065 15.0935C13.0975 16.1465 14.3635 16.6865 15.6415 16.6865ZM11.0035 46.4495C10.5115 45.2435 10.1005 43.9955 9.79154 42.7355C9.19454 40.3205 6.74054 38.8445 4.34654 39.4445C1.93154 40.0385 0.458537 42.4805 1.05554 44.8895C1.47254 46.5755 2.01554 48.2435 2.67254 49.8515C3.38354 51.5945 5.06654 52.6505 6.84254 52.6505C7.40654 52.6505 7.98554 52.5455 8.54054 52.3175C10.8415 51.3785 11.9455 48.7505 11.0035 46.4495ZM4.32554 33.1115C4.68554 33.1985 5.04254 33.2405 5.39354 33.2405C7.42154 33.2405 9.26054 31.8635 9.76154 29.8055C10.0735 28.5365 10.4725 27.2885 10.9585 26.0915C11.8945 23.7875 10.7845 21.1625 8.48354 20.2295C6.17054 19.2935 3.55454 20.4095 2.62154 22.7045C1.96754 24.3095 1.43054 25.9835 1.01954 27.6725C0.431537 30.0905 1.91054 32.5235 4.32554 33.1085V33.1115ZM33.7435 9.30048C33.8515 9.30048 35.3485 9.22248 35.9995 9.22248C36.6505 9.22248 38.1475 9.30048 38.2555 9.30048C40.5925 9.30048 42.5695 7.48848 42.7375 5.11848C42.9145 2.63748 41.0485 0.486482 38.5675 0.309482C37.7185 0.246482 36.8605 0.219482 35.9995 0.219482C35.1385 0.219482 34.2805 0.249482 33.4315 0.309482C30.9535 0.486482 29.0875 2.63448 29.2615 5.11848C29.4295 7.48848 31.4065 9.30048 33.7435 9.30048ZM67.6735 39.3575C65.2525 38.7695 62.8225 40.2425 62.2315 42.6575C61.9195 43.9205 61.5175 45.1715 61.0285 46.3775C60.0925 48.6815 61.2025 51.3065 63.5035 52.2395C64.0615 52.4645 64.6315 52.5695 65.1925 52.5695C66.9715 52.5695 68.6545 51.5075 69.3655 49.7615C70.0195 48.1535 70.5595 46.4825 70.9735 44.7995C71.5645 42.3845 70.0885 39.9515 67.6735 39.3575ZM53.4355 56.8385C52.4365 57.6845 51.3715 58.4615 50.2705 59.1485C48.1645 60.4625 47.5225 63.2405 48.8365 65.3495C49.6885 66.7145 51.1555 67.4645 52.6555 67.4645C53.4685 67.4645 54.2965 67.2455 55.0375 66.7805C56.5015 65.8625 57.9175 64.8335 59.2435 63.7115C61.1425 62.1065 61.3795 59.2685 59.7745 57.3695C58.1725 55.4765 55.3345 55.2335 53.4355 56.8385ZM21.7945 59.1875C20.6935 58.5005 19.6225 57.7295 18.6235 56.8865C16.7215 55.2815 13.8805 55.5335 12.2845 57.4325C10.6855 59.3345 10.9285 62.1725 12.8305 63.7715C14.1595 64.8905 15.5815 65.9225 17.0485 66.8345C17.7865 67.2935 18.6085 67.5125 19.4185 67.5125C20.9215 67.5125 22.3915 66.7595 23.2435 65.3855C24.5545 63.2735 23.9065 60.4955 21.7945 59.1875ZM38.0005 63.1475C36.7075 63.2375 35.3725 63.2435 34.0795 63.1535C31.6435 62.9795 29.4505 64.8425 29.2705 67.3235C29.0905 69.8045 30.9565 71.9555 33.4405 72.1325C34.2835 72.1955 35.1355 72.2225 35.9995 72.2225C36.8905 72.2225 37.7755 72.1895 38.6515 72.1265C41.1295 71.9465 42.9925 69.7925 42.8155 67.3145C42.6325 64.8365 40.4575 62.9645 38.0035 63.1505L38.0005 63.1475Z" fill="#F6F6F6"/>
</g>
<defs>
<clipPath id="clip0_69_1804">
<rect width="72" height="72" fill="white" transform="translate(0 0.222412)"/>
</clipPath>
</defs>
</svg>
