<svg width="49" height="49" viewBox="0 0 49 49" fill="none" xmlns="http://www.w3.org/2000/svg">
<path d="M42.4624 27.9299V39.9479C42.4624 40.3464 42.3041 40.7285 42.0224 41.0102C41.7407 41.2919 41.3586 41.4502 40.9601 41.4502H7.91046C7.51204 41.4502 7.12993 41.2919 6.8482 41.0102C6.56648 40.7285 6.4082 40.3464 6.4082 39.9479V27.9299C6.4082 27.5314 6.56648 27.1493 6.8482 26.8676C7.12993 26.5859 7.51204 26.4276 7.91046 26.4276C8.30889 26.4276 8.69099 26.5859 8.97272 26.8676C9.25445 27.1493 9.41272 27.5314 9.41272 27.9299V38.4457H39.4579V27.9299C39.4579 27.5314 39.6162 27.1493 39.8979 26.8676C40.1796 26.5859 40.5617 26.4276 40.9601 26.4276C41.3586 26.4276 41.7407 26.5859 42.0224 26.8676C42.3041 27.1493 42.4624 27.5314 42.4624 27.9299ZM23.3725 28.9927C23.512 29.1324 23.6777 29.2432 23.86 29.3188C24.0424 29.3944 24.2379 29.4333 24.4353 29.4333C24.6327 29.4333 24.8282 29.3944 25.0106 29.3188C25.1929 29.2432 25.3586 29.1324 25.4982 28.9927L33.0094 21.4814C33.149 21.3419 33.2597 21.1762 33.3353 20.9938C33.4108 20.8114 33.4497 20.616 33.4497 20.4186C33.4497 20.2212 33.4108 20.0257 33.3353 19.8434C33.2597 19.661 33.149 19.4953 33.0094 19.3557C32.8699 19.2162 32.7042 19.1054 32.5218 19.0299C32.3394 18.9544 32.144 18.9155 31.9466 18.9155C31.7492 18.9155 31.5537 18.9544 31.3714 19.0299C31.189 19.1054 31.0233 19.2162 30.8837 19.3557L25.9376 24.3038V6.89825C25.9376 6.49983 25.7793 6.11773 25.4976 5.836C25.2158 5.55427 24.8337 5.396 24.4353 5.396C24.0369 5.396 23.6548 5.55427 23.373 5.836C23.0913 6.11773 22.933 6.49983 22.933 6.89825V24.3038L17.9869 19.3557C17.705 19.0738 17.3227 18.9155 16.924 18.9155C16.5254 18.9155 16.143 19.0738 15.8612 19.3557C15.5793 19.6376 15.4209 20.0199 15.4209 20.4186C15.4209 20.8172 15.5793 21.1995 15.8612 21.4814L23.3725 28.9927Z" fill="#EF5000"/>
</svg>
