<svg width="60" height="55" viewBox="0 0 60 55" fill="none" xmlns="http://www.w3.org/2000/svg">
<path d="M18 15.7C17.1 15.7 16.5 15.4 15.9 14.8L0.9 0.1C-0.3 -1.1 -0.3 -2.9 0.9 -4.1C2.1 -5.3 3.9 -5.3 5.1 -4.1L20.1 10.6C21.3 11.8 21.3 13.6 20.1 14.8C19.5 15.7 18.9 15.7 18 15.7ZM3 55C2.1 55 1.5 54.7 0.9 54.1C-0.3 52.9 -0.3 51.1 0.9 49.9L15.9 34.9C17.1 33.7 18.9 33.7 20.1 34.9C21.3 36.1 21.3 37.9 20.1 39.1L5.1 54.1C4.5 54.7 3.9 55 3 55ZM57 55C56.1 55 55.5 54.7 54.9 54.1L40.2 39.1C39 37.9 39 36.1 40.2 34.9C41.4 33.7 43.2 33.7 44.4 34.9L59.1 49.9C60.3 51.1 60.3 52.9 59.1 54.1C58.5 54.7 57.9 55 57 55ZM42 15.7C41.1 15.7 40.5 15.4 39.9 14.8C38.7 13.6 38.7 11.8 39.9 10.6L54.9 -4.1C56.1 -5.3 57.9 -5.3 59.1 -4.1C60.3 -2.9 60.3 -1.1 59.1 0.1L44.1 14.8C43.5 15.7 42.9 15.7 42 15.7Z" fill="#EF5000"/>
<path d="M57 14.5C55.2 14.5 54 13.3 54 11.5V1H43.5C41.7 1 40.5 -0.2 40.5 -2C40.5 -3.8 41.7 -5 43.5 -5H57C58.8 -5 60 -3.8 60 -2V11.5C60 13.3 58.8 14.5 57 14.5ZM57 55H43.5C41.7 55 40.5 53.8 40.5 52C40.5 50.2 41.7 49 43.5 49H54V38.5C54 36.7 55.2 35.5 57 35.5C58.8 35.5 60 36.7 60 38.5V52C60 53.8 58.8 55 57 55ZM16.5 55H3C1.2 55 0 53.8 0 52V38.5C0 36.7 1.2 35.5 3 35.5C4.8 35.5 6 36.7 6 38.5V49H16.5C18.3 49 19.5 50.2 19.5 52C19.5 53.8 18.3 55 16.5 55ZM3 14.5C1.2 14.5 0 13.3 0 11.5V-2C0 -3.8 1.2 -5 3 -5H16.5C18.3 -5 19.5 -3.8 19.5 -2C19.5 -0.2 18.3 1 16.5 1H6V11.5C6 13.3 4.8 14.5 3 14.5Z" fill="#EF5000"/>
</svg>
