<svg width="26" height="24" viewBox="0 0 26 24" fill="none" xmlns="http://www.w3.org/2000/svg">
<path d="M25.484 8.22817L13.366 0.275753C13.2416 0.194013 13.0953 0.150391 12.9457 0.150391C12.7961 0.150391 12.6498 0.194013 12.5253 0.275753L0.407345 8.22817C0.303506 8.29637 0.218401 8.38877 0.1596 8.49716C0.1008 8.60556 0.0701283 8.72657 0.0703133 8.84945V21.7721C0.0703133 22.2335 0.256501 22.676 0.587916 23.0022C0.919332 23.3284 1.36883 23.5117 1.83752 23.5117H24.0538C24.5225 23.5117 24.972 23.3284 25.3034 23.0022C25.6349 22.676 25.821 22.2335 25.821 21.7721V8.84945C25.8212 8.72657 25.7906 8.60556 25.7318 8.49716C25.673 8.38877 25.5878 8.29637 25.484 8.22817ZM9.43399 15.8078L1.58506 21.2627V10.297L9.43399 15.8078ZM10.9828 16.5534H14.9085L22.7713 22.0206H3.12001L10.9828 16.5534ZM16.4574 15.8078L24.3063 10.297V21.2627L16.4574 15.8078ZM12.9457 1.79292L23.7294 8.87554L14.906 15.0623H10.9853L2.16193 8.87057L12.9457 1.79292Z" fill="#EF5000"/>
</svg>
