<svg width="90" height="90" viewBox="0 0 90 90" fill="none" xmlns="http://www.w3.org/2000/svg">
<g clip-path="url(#clip0_131_230)">
<path d="M87.2376 89.3154H1.94596C0.922464 89.3154 0.0917969 88.4848 0.0917969 87.4613V2.1696C0.0917969 1.1461 0.922464 0.31543 1.94596 0.31543H87.2376C88.2611 0.31543 89.0918 1.1461 89.0918 2.1696V87.4613C89.0918 88.4848 88.2611 89.3154 87.2376 89.3154ZM3.80013 85.6071H85.3835V4.02376H3.80013V85.6071Z" fill="#EF5000"/>
<path d="M24.1901 78.189H13.0651C12.0416 78.189 11.2109 77.3584 11.2109 76.3349V65.2099C11.2109 64.1864 12.0416 63.3557 13.0651 63.3557C14.0886 63.3557 14.9193 64.1864 14.9193 65.2099V74.4807H24.1901C25.2136 74.4807 26.0443 75.3114 26.0443 76.3349C26.0443 77.3584 25.2136 78.189 24.1901 78.189Z" fill="#EF5000"/>
<path d="M76.1081 26.2721C75.0846 26.2721 74.2539 25.4414 74.2539 24.4179V15.1471H64.9831C63.9596 15.1471 63.1289 14.3164 63.1289 13.2929C63.1289 12.2694 63.9596 11.4387 64.9831 11.4387H76.1081C77.1316 11.4387 77.9622 12.2694 77.9622 13.2929V24.4179C77.9622 25.4414 77.1316 26.2721 76.1081 26.2721Z" fill="#EF5000"/>
<path d="M13.066 78.1923C12.5914 78.1923 12.1167 78.0106 11.7533 77.6509C11.0302 76.9277 11.0302 75.7522 11.7533 75.0291L74.7949 11.9874C75.5181 11.2643 76.6936 11.2643 77.4167 11.9874C78.1399 12.7105 78.1399 13.8861 77.4167 14.6092L14.3751 77.6509C14.0154 78.0106 13.5407 78.1923 13.066 78.1923Z" fill="#EF5000"/>
</g>
<defs>
<clipPath id="clip0_131_230">
<rect width="89" height="89" fill="white" transform="translate(0.0859375 0.312256)"/>
</clipPath>
</defs>
</svg>
