<svg width="84" height="84" viewBox="0 0 84 84" fill="none" xmlns="http://www.w3.org/2000/svg">
<g clip-path="url(#clip0_131_578)">
<path d="M11.3732 51.6565C11.4812 51.6562 11.5891 51.6558 11.7003 51.6555C12.0646 51.6546 12.4289 51.6548 12.7932 51.655C13.0559 51.6546 13.3187 51.6541 13.5815 51.6536C14.3056 51.6523 15.0298 51.652 15.7539 51.6519C16.5341 51.6516 17.3143 51.6504 18.0945 51.6493C19.8013 51.6471 21.5082 51.6461 23.2151 51.6454C24.2803 51.645 25.3456 51.6443 26.4108 51.6436C29.3587 51.6416 32.3066 51.6399 35.2545 51.6394C35.5377 51.6393 35.5377 51.6393 35.8265 51.6393C36.0157 51.6393 36.2049 51.6392 36.3999 51.6392C36.7833 51.6391 37.1667 51.639 37.5501 51.639C37.8354 51.6389 37.8354 51.6389 38.1264 51.6389C41.2093 51.6382 44.292 51.6354 47.3749 51.6317C50.538 51.6279 53.7011 51.6258 56.8643 51.6257C58.641 51.6255 60.4178 51.6246 62.1946 51.6217C63.7073 51.6192 65.2201 51.6183 66.7328 51.6197C67.505 51.6203 68.2771 51.6202 69.0492 51.6179C69.7558 51.6159 70.4623 51.616 71.1689 51.618C71.4248 51.6183 71.6806 51.6178 71.9365 51.6164C72.2839 51.6146 72.6313 51.6158 72.9787 51.6178C73.1718 51.6177 73.3649 51.6176 73.5639 51.6175C74.358 51.7079 75.0182 52.0235 75.5516 52.6238C76.7689 54.1921 77.2077 56.5133 77.7988 58.3833C78.0776 59.2651 78.3585 60.1462 78.6391 61.0274C78.6992 61.2164 78.7593 61.4054 78.8213 61.6002C79.3118 63.1405 79.8074 64.6791 80.3048 66.2171C80.3428 66.3345 80.3807 66.4518 80.4198 66.5727C80.7601 67.6248 81.1006 68.6768 81.4414 69.7287C81.6197 70.279 81.7978 70.8294 81.9759 71.3798C82.0723 71.6778 82.1689 71.9757 82.2656 72.2737C82.5643 73.1969 82.8598 74.1211 83.1496 75.0472C83.202 75.2143 83.2543 75.3814 83.3083 75.5536C83.5955 76.5734 83.6684 77.7663 83.1708 78.7323C82.5687 79.4929 81.9611 80.048 81.0169 80.3427C80.5749 80.3727 80.1496 80.3862 79.7078 80.3836C79.5112 80.3844 79.5112 80.3844 79.3105 80.3851C78.8717 80.3864 78.4328 80.3854 77.9939 80.3844C77.6791 80.3848 77.3643 80.3854 77.0495 80.3861C76.1948 80.3876 75.34 80.387 74.4853 80.386C73.5913 80.3852 72.6973 80.3859 71.8033 80.3864C70.3021 80.387 68.8009 80.3862 67.2997 80.3847C65.5631 80.3829 63.8267 80.3835 62.0902 80.3853C60.6 80.3867 59.1098 80.387 57.6196 80.3861C56.7292 80.3856 55.8388 80.3855 54.9485 80.3866C54.1117 80.3875 53.2748 80.3869 52.438 80.385C52.1305 80.3846 51.8231 80.3847 51.5156 80.3854C51.0966 80.3863 50.6777 80.3852 50.2587 80.3836C50.0753 80.3847 50.0753 80.3847 49.8882 80.3858C49.2901 80.3813 48.8266 80.3661 48.3259 80.0206C47.994 79.643 47.8499 79.3688 47.8264 78.8632C47.8692 78.2441 47.9284 77.8667 48.3058 77.3635C48.9619 76.9003 49.5929 76.9385 50.363 76.9415C50.4897 76.9414 50.6164 76.9412 50.7469 76.9411C51.1727 76.9408 51.5985 76.9417 52.0243 76.9426C52.3289 76.9426 52.6336 76.9426 52.9383 76.9425C53.7668 76.9425 54.5952 76.9434 55.4236 76.9445C56.2889 76.9456 57.1542 76.9456 58.0195 76.9458C59.6587 76.9463 61.2978 76.9477 62.9369 76.9493C64.8028 76.9511 66.6686 76.952 68.5345 76.9528C72.3732 76.9545 76.212 76.9573 80.0507 76.9609C79.9956 76.796 79.9405 76.631 79.8838 76.4611C79.6762 75.8395 79.4688 75.2179 79.2614 74.5963C79.1722 74.329 79.083 74.0618 78.9938 73.7946C78.27 71.6275 77.5621 69.4559 76.8701 67.2784C76.7767 66.985 76.6831 66.6917 76.5896 66.3983C76.2402 65.3027 75.8909 64.2071 75.5416 63.1115C74.6913 60.4543 73.841 57.7972 72.9649 55.0595C52.6643 55.0595 32.3636 55.0595 11.4478 55.0595C8.61119 63.8367 8.61119 63.8367 5.80019 72.6221C5.33329 74.0724 4.84532 75.5159 4.36208 76.9609C4.52069 76.9604 4.67929 76.96 4.84271 76.9595C8.7 76.9488 12.5573 76.9409 16.4146 76.9358C18.28 76.9334 20.1453 76.93 22.0107 76.9244C23.6363 76.9196 25.2619 76.9165 26.8875 76.9154C27.7485 76.9148 28.6094 76.9133 29.4704 76.9098C30.2805 76.9065 31.0906 76.9055 31.9007 76.9062C32.1982 76.9061 32.4958 76.9051 32.7933 76.9033C33.1992 76.9009 33.6051 76.9015 34.011 76.9028C34.129 76.9014 34.2469 76.9 34.3685 76.8985C35.2442 76.9062 35.7546 77.1232 36.3788 77.7258C36.6551 78.2495 36.6315 78.6316 36.57 79.2154C36.3747 79.6548 36.2232 79.9258 35.8275 80.201C35.2754 80.4043 34.7379 80.3881 34.1573 80.3858C33.9615 80.3869 33.9615 80.3869 33.7618 80.388C33.324 80.39 32.8861 80.3898 32.4482 80.3895C32.1345 80.3905 31.8208 80.3916 31.507 80.3928C30.6542 80.3956 29.8014 80.3964 28.9486 80.3966C28.2367 80.3969 27.5248 80.3981 26.8128 80.3992C25.1329 80.4018 23.4529 80.4026 21.773 80.4024C20.0404 80.4022 18.3079 80.4056 16.5753 80.4107C15.0877 80.4149 13.6001 80.4166 12.1125 80.4164C11.2241 80.4163 10.3357 80.4172 9.44732 80.4207C8.61139 80.4238 7.77553 80.4238 6.93961 80.4215C6.6332 80.4211 6.32679 80.4219 6.02038 80.4238C5.60121 80.4263 5.18223 80.4248 4.76305 80.4223C4.64255 80.424 4.52205 80.4256 4.3979 80.4274C3.37729 80.4141 2.54447 80.0841 1.77601 79.406C1.70273 79.3132 1.62945 79.2204 1.55395 79.1248C1.47776 79.0316 1.40158 78.9384 1.32308 78.8424C0.769423 78.0167 0.907872 76.9411 0.980244 75.9946C1.13796 75.2488 1.37178 74.5383 1.61811 73.8175C1.68632 73.6104 1.75424 73.4033 1.82189 73.1961C1.96621 72.756 2.1124 72.3165 2.26018 71.8776C2.4934 71.1849 2.72245 70.4908 2.95082 69.7965C3.18619 69.0815 3.42185 68.3667 3.65903 67.6523C4.18034 66.0822 4.69345 64.5096 5.1981 62.9341C5.23089 62.8317 5.26368 62.7294 5.29747 62.6239C5.45789 62.123 5.61812 61.622 5.77826 61.121C6.22208 59.7325 6.66751 58.3446 7.11621 56.9577C7.2566 56.5219 7.39503 56.0854 7.53325 55.6488C7.61703 55.3884 7.70087 55.128 7.7848 54.8676C7.82051 54.7529 7.85623 54.6382 7.89303 54.52C8.27855 53.3371 8.85837 52.5678 9.83742 51.8387C10.3835 51.6567 10.7973 51.6571 11.3732 51.6565Z" fill="#EF5000"/>
<path d="M42.2062 28.0854C42.3357 28.0837 42.4652 28.082 42.5987 28.0803C43.3478 28.2356 43.8548 28.646 44.3078 29.2513C44.4043 29.4177 44.5009 29.5841 44.6004 29.7555C44.6541 29.8467 44.7078 29.9379 44.7631 30.0319C44.9328 30.3213 45.0994 30.6123 45.2659 30.9035C45.3752 31.0909 45.4847 31.2782 45.5944 31.4654C45.8694 31.936 46.1409 32.4084 46.4109 32.8818C46.5748 33.169 46.7397 33.4556 46.9046 33.7422C49.7581 38.7204 49.7581 38.7204 48.9497 41.7435C48.2975 43.5727 47.1677 45.0274 45.4471 45.9406C43.4452 46.8685 41.556 46.868 39.4685 46.2023C37.4082 45.2721 36.2851 43.7374 35.4425 41.6932C35.2681 41.0483 35.2445 40.4174 35.2311 39.7507C35.2251 39.5561 35.2191 39.3616 35.2129 39.1612C35.2934 37.5848 36.0788 36.1507 36.8617 34.8188C36.9516 34.6635 37.0415 34.5081 37.1341 34.3481C37.3264 34.017 37.5197 33.6864 37.7139 33.3563C37.9776 32.9069 38.2384 32.4559 38.498 32.0041C38.7623 31.5455 39.03 31.0887 39.2974 30.6318C39.3963 30.4597 39.4951 30.2875 39.597 30.1102C40.8079 28.0674 40.8079 28.0674 42.2062 28.0854ZM42.0451 32.836C41.7876 33.2272 41.5516 33.6171 41.3204 34.0237C41.2503 34.1452 41.1801 34.2666 41.1079 34.3918C40.8818 34.7848 40.6579 35.179 40.4347 35.5737C40.3587 35.7078 40.2827 35.8419 40.2044 35.9801C39.9816 36.3742 39.76 36.7689 39.5389 37.164C39.4698 37.2873 39.4007 37.4107 39.3295 37.5379C39.2336 37.7109 39.2336 37.7109 39.1357 37.8874C39.0512 38.0396 39.0512 38.0396 38.9649 38.1949C38.5448 39.0244 38.5255 39.8995 38.7677 40.788C39.1797 41.8285 39.7769 42.4922 40.7788 42.9922C41.6488 43.3308 42.4321 43.4035 43.3334 43.1426C44.3863 42.6664 45.1466 41.9719 45.6383 40.9182C46.0315 39.0951 45.335 37.9285 44.4607 36.3789C44.3745 36.226 44.2883 36.0731 44.1994 35.9155C43.9201 35.4242 43.6377 34.9349 43.3536 34.4464C43.2156 34.2082 43.2156 34.2082 43.0748 33.9651C42.9878 33.8183 42.9009 33.6716 42.8113 33.5204C42.6946 33.3224 42.6946 33.3224 42.5755 33.1204C42.4724 32.9796 42.4724 32.9796 42.3672 32.836C42.2609 32.836 42.1546 32.836 42.0451 32.836Z" fill="#EF5000"/>
<path d="M42.2062 3.28524C42.3357 3.28358 42.4652 3.28192 42.5987 3.28021C43.3478 3.43552 43.8548 3.84586 44.3078 4.45117C44.4043 4.61757 44.5009 4.78396 44.6004 4.9554C44.6541 5.04662 44.7078 5.13783 44.7631 5.23181C44.9328 5.5212 45.0994 5.81223 45.2659 6.10344C45.3752 6.29083 45.4847 6.4781 45.5944 6.66527C45.8694 7.13585 46.1409 7.6083 46.4109 8.08172C46.5748 8.36887 46.7397 8.65548 46.9046 8.94208C49.7581 13.9203 49.7581 13.9203 48.9497 16.9434C48.2975 18.7726 47.1677 20.2273 45.4471 21.1405C43.4452 22.0684 41.556 22.0679 39.4685 21.4022C37.4082 20.472 36.2851 18.9373 35.4425 16.8931C35.2681 16.2482 35.2445 15.6173 35.2311 14.9506C35.2251 14.756 35.2191 14.5615 35.2129 14.3611C35.3083 12.5956 36.2565 11.0491 37.1334 9.56579C37.2485 9.36864 37.3635 9.17143 37.4784 8.97416C37.7087 8.57942 37.9401 8.18539 38.1725 7.79184C38.4751 7.27849 38.7716 6.76182 39.0671 6.24435C39.2343 5.95572 39.4016 5.66719 39.5691 5.37876C39.6431 5.24808 39.7171 5.1174 39.7934 4.98277C40.3643 4.01563 40.9959 3.26973 42.2062 3.28524ZM42.0451 8.03591C41.8024 8.36893 41.8024 8.36893 41.5601 8.80211C41.4651 8.96505 41.37 9.128 41.2721 9.29588C41.1718 9.47131 41.0715 9.64674 40.9682 9.82748C40.8159 10.0926 40.8159 10.0926 40.6605 10.3632C40.3685 10.8746 40.079 11.3874 39.7906 11.9009C39.6836 12.0894 39.6836 12.0894 39.5746 12.2818C38.6831 13.8483 38.6831 13.8483 38.6633 15.6048C38.9863 16.6457 39.5345 17.5109 40.4769 18.0789C41.4479 18.5225 42.2999 18.6334 43.3334 18.3424C44.388 17.877 45.1487 17.1673 45.6383 16.1181C46.0315 14.295 45.335 13.1284 44.4607 11.5788C44.3745 11.4259 44.2883 11.273 44.1994 11.1154C43.9201 10.6241 43.6377 10.1348 43.3536 9.64631C43.2156 9.40804 43.2156 9.40804 43.0748 9.16496C42.9878 9.01823 42.9009 8.8715 42.8113 8.72033C42.6946 8.52229 42.6946 8.52229 42.5755 8.32025C42.4724 8.1795 42.4724 8.1795 42.3672 8.03591C42.2609 8.03591 42.1546 8.03591 42.0451 8.03591Z" fill="#EF5000"/>
<path d="M59.2574 16.6012C59.9394 17.183 60.3808 17.8988 60.8193 18.6727C60.8717 18.7648 60.9241 18.8568 60.9781 18.9516C61.1467 19.248 61.3143 19.5451 61.4817 19.8422C61.5977 20.047 61.7137 20.2519 61.8297 20.4567C62.0021 20.761 62.1743 21.0653 62.3461 21.3698C62.657 21.9203 62.9707 22.4689 63.289 23.0151C64.5994 25.2697 65.4246 27.367 64.7327 29.9977C63.9492 32.1761 62.6471 33.4149 60.5991 34.3848C59.1221 35.0217 57.0853 35.0278 55.5635 34.5068C53.5613 33.6299 52.2059 32.2939 51.3865 30.2594C51.1286 29.4812 51.0129 28.7941 51.0041 27.9747C50.9995 27.783 50.9949 27.5914 50.9902 27.394C51.0957 25.7251 51.9548 24.2351 52.7755 22.8214C52.875 22.6471 52.9746 22.4729 53.0771 22.2933C53.3708 21.7806 53.6668 21.2693 53.9632 20.7581C54.1205 20.4834 54.2778 20.2087 54.435 19.934C56.9112 15.6322 56.9112 15.6322 59.2574 16.6012ZM57.8281 20.9191C57.07 22.2575 56.3192 23.5998 55.5736 24.9451C55.4659 25.1375 55.4659 25.1375 55.3562 25.3337C54.4505 26.8992 54.4505 26.8992 54.4463 28.649C54.845 29.8361 55.4483 30.6068 56.5398 31.2256C57.521 31.5527 58.7078 31.566 59.66 31.1351C60.4691 30.658 61.0216 30.0004 61.4314 29.1623C61.7768 27.4007 61.2804 26.3179 60.4048 24.7841C60.3158 24.626 60.2269 24.4679 60.1353 24.305C59.8348 23.7723 59.5317 23.2411 59.2272 22.7107C59.1269 22.5352 59.0266 22.3598 58.9232 22.179C58.8282 22.0161 58.7331 21.8532 58.6352 21.6853C58.5496 21.5377 58.464 21.3902 58.3758 21.2381C58.3014 21.1328 58.2269 21.0276 58.1502 20.9191C58.0439 20.9191 57.9376 20.9191 57.8281 20.9191Z" fill="#EF5000"/>
<path d="M26.3947 16.3597C26.5286 16.3537 26.6625 16.3476 26.8005 16.3414C27.5655 16.4635 28.0695 16.8846 28.5265 17.4954C28.6231 17.6618 28.7196 17.8282 28.8191 17.9996C28.8728 18.0909 28.9265 18.1821 28.9818 18.276C29.1515 18.5654 29.3181 18.8565 29.4847 19.1477C29.594 19.3351 29.7035 19.5223 29.8132 19.7095C30.0881 20.1801 30.3596 20.6525 30.6296 21.1259C30.7936 21.4131 30.9584 21.6997 31.1234 21.9863C33.7907 26.6414 33.7907 26.6414 33.2446 29.5259C32.7613 31.2808 31.8067 32.7674 30.2899 33.8023C28.4421 34.7903 26.5086 35.0849 24.4421 34.6584C22.6622 34.0491 21.1311 32.9111 20.2129 31.2502C19.6823 30.1205 19.4679 29.1523 19.4499 27.9042C19.4439 27.6929 19.4378 27.4815 19.4316 27.2638C19.5164 25.5883 20.4835 24.0898 21.2918 22.6704C21.4 22.4785 21.5082 22.2866 21.6163 22.0947C21.929 21.5407 22.2444 20.9883 22.56 20.436C22.6438 20.2879 22.7276 20.1399 22.814 19.9873C23.0264 19.6126 23.2405 19.2389 23.4557 18.8659C23.515 18.7616 23.5743 18.6574 23.6354 18.55C24.3327 17.3603 24.9244 16.4026 26.3947 16.3597ZM26.2639 20.9191C26.2064 21.0212 26.1488 21.1233 26.0896 21.2284C25.8224 21.7025 25.555 22.1764 25.2876 22.6503C25.192 22.8196 25.0965 22.989 24.998 23.1634C24.4195 24.1872 23.8351 25.2064 23.2318 26.2158C22.794 27.0038 22.7751 27.7702 22.882 28.649C23.2546 29.8382 23.8948 30.6129 24.9756 31.2256C25.9539 31.5518 27.1419 31.5639 28.0957 31.1451C28.928 30.6579 29.4034 29.8838 29.8671 29.0617C30.3883 26.9249 29.0316 25.1959 28.0051 23.4253C27.8272 23.1168 27.6494 22.8082 27.4717 22.4995C27.312 22.2224 27.1518 21.9455 26.9916 21.6687C26.8505 21.4221 26.713 21.1732 26.586 20.9191C26.4797 20.9191 26.3734 20.9191 26.2639 20.9191Z" fill="#EF5000"/>
<path d="M65.779 58.0689C65.9712 58.0663 66.1634 58.0637 66.3615 58.061C67.7602 58.0603 68.8243 58.1098 69.8515 59.1238C70.6049 60.0623 70.9054 61.2049 71.2543 62.3365C71.3292 62.5716 71.4044 62.8066 71.4797 63.0416C71.6336 63.5234 71.7855 64.0057 71.9358 64.4886C72.1163 65.0675 72.3018 65.6445 72.4898 66.221C72.6602 66.744 72.8277 67.2679 72.9956 67.7917C73.0578 67.9828 73.1201 68.1739 73.1842 68.3708C73.6344 69.8059 73.8486 70.8883 73.1705 72.2832C72.7466 72.9645 72.1075 73.4579 71.355 73.7401C70.4765 73.9299 69.6122 73.9307 68.718 73.9313C68.5718 73.9333 68.4257 73.9353 68.2751 73.9373C66.9389 73.9402 65.8324 73.794 64.7524 72.9349C64.2558 72.3806 63.9851 71.8972 63.7568 71.1911C63.6961 71.0062 63.6354 70.8214 63.5728 70.6309C63.5097 70.4328 63.4466 70.2346 63.3816 70.0305C63.3145 69.8237 63.2472 69.617 63.1798 69.4103C63.0033 68.8681 62.8289 68.3252 62.655 67.7821C62.5127 67.3391 62.3689 66.8966 62.2251 66.454C61.9277 65.5389 61.6314 64.6234 61.3374 63.7071C61.2853 63.5451 61.2333 63.383 61.1796 63.216C60.8279 62.0723 60.712 61.0111 61.1812 59.8837C62.238 58.1247 63.9223 58.0639 65.779 58.0689ZM64.4303 61.5011C64.5357 62.2389 64.6211 62.7984 64.8461 63.4807C64.8977 63.6386 64.9493 63.7965 65.0024 63.9592C65.0579 64.1259 65.1135 64.2927 65.1707 64.4646C65.2276 64.6381 65.2846 64.8117 65.3433 64.9905C65.5246 65.542 65.7071 66.0932 65.8897 66.6443C66.0132 67.0193 66.1366 67.3943 66.2599 67.7693C66.5616 68.6863 66.8645 69.6029 67.168 70.5193C68.1777 70.5193 69.1874 70.5193 70.2277 70.5193C69.9445 69.6231 69.6611 68.727 69.3775 67.831C69.2814 67.5273 69.1853 67.2236 69.0894 66.9198C68.517 65.1085 67.9352 63.3014 67.329 61.5011C66.3724 61.5011 65.4158 61.5011 64.4303 61.5011Z" fill="#EF5000"/>
<path d="M18.6139 58.0589C18.8047 58.057 18.9954 58.0552 19.192 58.0532C20.4153 58.0573 21.4535 58.0935 22.4373 58.8974C23.2911 59.933 23.6556 60.7783 23.5256 62.1453C23.3817 62.764 23.185 63.362 22.9846 63.9645C22.9289 64.1368 22.8733 64.3091 22.8159 64.4867C22.6382 65.0354 22.4579 65.5832 22.2775 66.131C22.1587 66.4966 22.04 66.8623 21.9215 67.2281C21.6512 68.0605 21.3801 68.8926 21.1048 69.7233C20.9955 70.0558 20.8884 70.3889 20.783 70.7226C20.7281 70.8939 20.6732 71.0652 20.6167 71.2416C20.5679 71.3962 20.5191 71.5508 20.4689 71.7101C20.137 72.5588 19.6179 73.0824 18.8555 73.5589C17.8338 73.9421 16.8122 73.9306 15.7353 73.9314C15.5892 73.9333 15.443 73.9353 15.2925 73.9373C13.9563 73.9402 12.8497 73.794 11.7697 72.9349C11.0113 72.1344 10.7535 71.356 10.7661 70.2563C10.8409 69.4933 11.1036 68.7802 11.3445 68.0559C11.4001 67.8836 11.4558 67.7113 11.5131 67.5338C11.6908 66.9851 11.8711 66.4373 12.0515 65.8894C12.1704 65.5238 12.2891 65.1581 12.4076 64.7924C12.6779 63.9598 12.9489 63.1276 13.2246 62.2968C13.3334 61.9655 13.4396 61.6334 13.544 61.3007C13.5983 61.1301 13.6527 60.9596 13.7086 60.7838C13.7807 60.5534 13.7807 60.5534 13.8543 60.3182C14.2291 59.3757 14.7983 58.7786 15.6976 58.33C16.6449 58.0009 17.6226 58.0492 18.6139 58.0589ZM17.084 61.5011C16.7058 62.6531 16.3278 63.8051 15.9502 64.9573C15.7748 65.4922 15.5994 66.0271 15.4238 66.5619C15.222 67.1762 15.0207 67.7906 14.8194 68.4051C14.756 68.598 14.6926 68.7909 14.6273 68.9896C14.5692 69.1669 14.5112 69.3443 14.4514 69.5269C14.3742 69.7624 14.3742 69.7624 14.2954 70.0027C14.1774 70.3219 14.1774 70.3219 14.1853 70.5193C15.195 70.5193 16.2047 70.5193 17.2451 70.5193C17.6233 69.3674 18.0012 68.2153 18.3789 67.0632C18.5542 66.5282 18.7297 65.9933 18.9053 65.4585C19.107 64.8442 19.3084 64.2298 19.5097 63.6154C19.5731 63.4225 19.6365 63.2296 19.7018 63.0308C19.7598 62.8535 19.8179 62.6762 19.8777 62.4935C19.9292 62.3365 19.9807 62.1795 20.0337 62.0178C20.1517 61.6986 20.1517 61.6986 20.1438 61.5011C19.1341 61.5011 18.1243 61.5011 17.084 61.5011Z" fill="#EF5000"/>
<path d="M50.0766 58.0689C50.2765 58.0663 50.4764 58.0637 50.6824 58.0611C51.9351 58.0604 52.9922 58.0734 54.0007 58.8974C54.0875 59.0026 54.1742 59.1079 54.2636 59.2163C54.3975 59.3723 54.3975 59.3723 54.5341 59.5315C54.9814 60.2217 55.1293 60.9774 55.2316 61.7837C55.2662 62.0514 55.2662 62.0514 55.3014 62.3246C55.3249 62.5153 55.3484 62.7061 55.3727 62.9026C55.3976 63.1012 55.4226 63.2997 55.4483 63.5043C55.514 64.031 55.5786 64.5577 55.643 65.0845C55.6826 65.4051 55.7233 65.7256 55.7644 66.046C55.8437 66.6654 55.9205 67.2851 55.9967 67.9049C56.0334 68.1891 56.0334 68.1891 56.0709 68.479C56.2467 69.9526 56.3943 71.3827 55.5054 72.6518C54.8016 73.4319 54.0296 73.7856 52.9954 73.9011C52.4115 73.9269 51.8286 73.9309 51.2441 73.9313C51.0903 73.9333 50.9365 73.9353 50.778 73.9373C49.4189 73.9401 48.2978 73.8097 47.198 72.9349C46.1444 71.852 46.1247 70.3666 45.9481 68.9353C45.9231 68.7366 45.8982 68.5379 45.8725 68.3332C45.8202 67.9139 45.7684 67.4946 45.717 67.0752C45.6646 66.6474 45.611 66.2198 45.5563 65.7924C45.4772 65.1728 45.4003 64.553 45.324 63.933C45.2996 63.7433 45.2751 63.5535 45.2499 63.358C45.0674 61.8333 44.9884 60.5413 45.9097 59.2465C47.0914 57.9916 48.4655 58.0648 50.0766 58.0689ZM48.4863 61.5011C48.8583 64.4771 49.2303 67.4531 49.6136 70.5193C50.6765 70.5193 51.7393 70.5193 52.8344 70.5193C52.4624 67.5433 52.0904 64.5673 51.7071 61.5011C50.6443 61.5011 49.5814 61.5011 48.4863 61.5011Z" fill="#EF5000"/>
<path d="M34.2962 58.0689C34.4961 58.0663 34.696 58.0637 34.902 58.0611C36.156 58.0604 37.2049 58.078 38.2203 58.8917C39.3253 60.2135 39.3325 61.2218 39.1844 62.8921C39.0621 64.1554 38.9054 65.415 38.7491 66.6744C38.6843 67.1999 38.6218 67.7257 38.5594 68.2515C38.5178 68.5893 38.4761 68.9272 38.4342 69.2649C38.4161 69.4203 38.3979 69.5757 38.3792 69.7357C38.2037 71.113 37.8962 72.2538 36.893 73.257C35.7358 73.971 34.5269 73.9304 33.2092 73.9313C33.0554 73.9333 32.9016 73.9353 32.7431 73.9373C31.4073 73.94 30.2235 73.8303 29.1631 72.9349C28.287 71.912 28.1504 70.8633 28.2243 69.5475C28.2772 69.0023 28.3416 68.4597 28.4107 67.9162C28.4348 67.7178 28.4589 67.5194 28.4838 67.315C28.5349 66.8978 28.5869 66.4807 28.6398 66.0636C28.7201 65.4275 28.7968 64.7911 28.8731 64.1544C28.9234 63.7476 28.9739 63.3408 29.0247 62.9341C29.0474 62.745 29.07 62.5559 29.0934 62.3611C29.429 59.7626 29.429 59.7626 30.4212 58.9446C30.5252 58.8553 30.6292 58.766 30.7364 58.6741C31.8348 57.9623 33.0379 58.0657 34.2962 58.0689ZM32.706 61.5011C32.334 64.4771 31.962 67.4531 31.5787 70.5193C32.6415 70.5193 33.7044 70.5193 34.7995 70.5193C35.1715 67.5433 35.5435 64.5673 35.9268 61.5011C34.8639 61.5011 33.801 61.5011 32.706 61.5011Z" fill="#EF5000"/>
<path d="M42.6905 76.9609C43.5889 77.4694 43.5889 77.4694 43.8178 77.9271C43.9072 78.6731 43.9203 79.2125 43.5158 79.8596C42.9887 80.3557 42.6162 80.3965 41.8916 80.3899C41.381 80.3165 41.1092 80.0604 40.758 79.6985C40.4784 79.1393 40.5 78.5371 40.597 77.9271C41.2273 77.1309 41.6806 76.8638 42.6905 76.9609Z" fill="#EF5000"/>
</g>
<defs>
<clipPath id="clip0_131_578">
<rect width="82.4523" height="82.4523" fill="white" transform="translate(0.980469 0.628113)"/>
</clipPath>
</defs>
</svg>
