<svg width="102" height="85" viewBox="0 0 102 85" fill="none" xmlns="http://www.w3.org/2000/svg">
<g clip-path="url(#clip0_69_2027)">
<path d="M101.978 22.3168C101.978 20.5527 101.292 18.997 99.9949 17.8183L84.4909 3.72311C82.5624 1.97038 80.131 0.178955 76.7124 0.178955C76.7114 0.178955 76.7098 0.178955 76.7088 0.178955C73.288 0.180164 70.8563 1.974 68.9289 3.72876L53.4348 17.8347C52.1385 19.0146 51.4538 20.5709 51.4544 22.3349L51.4616 40.4385H41.1717C43.034 36.527 44.3312 30.3482 42.8745 25.7215C41.8493 22.4652 39.5915 20.3186 36.3455 19.5135C35.9311 19.4105 35.4934 19.4802 35.1302 19.7065C34.7671 19.9326 34.5087 20.2968 34.4128 20.7171C34.2361 21.4935 34.0726 22.2212 33.919 22.9053C32.0047 31.431 31.7587 32.5267 26.4712 36.0219C22.7358 38.4911 22.4707 38.8099 20.1476 42.2376C19.9103 42.5878 19.6485 42.9738 19.3555 43.4026C18.4148 44.7787 17.2113 45.3993 15.4624 45.4148L15.3275 45.4152V45.0292C15.3275 43.0216 13.7126 41.3883 11.7274 41.3883H3.59988C1.61487 41.3883 0 43.0216 0 45.0292V80.5439C0 82.5518 1.61487 84.185 3.59988 84.185H11.7276C13.7126 84.185 15.3277 82.5518 15.3277 80.5439V78.8917C16.0461 79.1452 16.7643 79.4156 17.5038 79.6949C21.1246 81.0626 25.2283 82.6128 31.3214 82.6128H52.4776C53.3795 82.6128 54.2377 82.4224 55.0168 82.0809C55.7818 82.4288 56.6106 82.6128 57.4603 82.6128C57.4607 82.6128 57.4611 82.6128 57.4617 82.6128L96.0185 82.5993C99.3179 82.5979 102.001 79.882 102 76.545L101.978 22.3168ZM12.1402 80.5439C12.1402 80.7702 11.9513 80.9612 11.7276 80.9612H3.59988C3.37636 80.9612 3.1875 80.7702 3.1875 80.5439V45.0292C3.1875 44.8031 3.37636 44.6121 3.59988 44.6121H11.7276C11.9513 44.6121 12.1402 44.8031 12.1402 45.0292V80.5439ZM31.3214 79.389C25.8042 79.389 22.1515 78.009 18.6192 76.6748C17.5528 76.272 16.4593 75.8589 15.3279 75.4902V48.639L15.4815 48.6386C18.2656 48.6141 20.4514 47.469 21.9778 45.2355C22.2735 44.8031 22.5374 44.4136 22.7769 44.0602C24.9193 40.8991 24.9193 40.8991 28.2154 38.7202C34.5818 34.5118 35.0511 32.4205 37.0274 23.6192C37.0567 23.4886 37.0864 23.356 37.1164 23.222C38.4299 23.9272 39.3262 25.0761 39.8374 26.6995C41.3411 31.4756 38.9698 38.8284 37.1145 40.995C36.7061 41.4719 36.6104 42.1461 36.8696 42.7201C37.129 43.2942 37.6954 43.6623 38.3193 43.6623H56.5399C58.3155 43.6623 59.76 45.1233 59.76 46.9191C59.76 48.715 58.3155 50.1762 56.5399 50.1762H43.9781C43.098 50.1762 42.3844 50.8979 42.3844 51.7881C42.3844 52.6782 43.098 53.4 43.9781 53.4H59.1724C60.948 53.4 62.3925 54.861 62.3925 56.6568C62.3925 58.4527 60.948 59.9139 59.1724 59.9139H43.9781C43.098 59.9139 42.3844 60.6356 42.3844 61.5258C42.3844 62.4159 43.098 63.1376 43.9781 63.1376H57.5176C59.2933 63.1376 60.7378 64.5986 60.7378 66.3945C60.7378 68.1903 59.2933 69.6513 57.5176 69.6513H43.9781C43.098 69.6513 42.3844 70.3731 42.3844 71.2632C42.3844 72.1534 43.098 72.8751 43.9781 72.8751H52.4778C54.2534 72.8751 55.6982 74.3363 55.6982 76.1322C55.6982 77.928 54.2536 79.389 52.4778 79.389H31.3214ZM96.0173 79.3755L58.0141 79.3888C58.5669 78.4311 58.8855 77.3189 58.8855 76.1322C58.8855 74.9379 58.5645 73.8183 58.0053 72.8566C61.3116 72.6035 63.9253 69.8018 63.9253 66.3945C63.9253 64.8134 63.3625 63.3627 62.429 62.2366C64.3136 61.1071 65.58 59.0285 65.58 56.6568C65.58 54.0026 63.994 51.7162 61.7305 50.7152C62.4959 49.6475 62.9475 48.3358 62.9475 46.9191C62.9475 43.3458 60.073 40.4385 56.5399 40.4385H54.6493L54.6421 22.3339C54.6419 21.486 54.9445 20.7981 55.5675 20.231L71.0615 6.12484C73.1846 4.19197 74.8212 3.40356 76.7102 3.40275C76.711 3.40275 76.7118 3.40275 76.7126 3.40275C78.6 3.40275 80.2367 4.19036 82.3604 6.12061L97.8644 20.2158C98.4878 20.7826 98.791 21.4703 98.7914 22.3182L98.8125 76.5462C98.8131 78.1057 97.5592 79.3749 96.0173 79.3755ZM86.2842 57.5619C86.5177 59.5073 86.0021 61.2828 84.7935 62.6962C83.3718 64.3585 81.0095 65.4729 78.3211 65.7856V67.8359C78.3211 68.7261 77.6075 69.4478 76.7273 69.4478C75.8472 69.4478 75.1336 68.7261 75.1336 67.8359V65.7622C71.1524 65.2089 68.0577 62.6629 67.1618 59.0285C66.9489 58.1647 67.4686 57.2899 68.3227 57.0745C69.1773 56.8605 70.0417 57.385 70.2547 58.2486C71.0803 61.5971 74.412 62.7143 77.0158 62.6486C79.2514 62.5948 81.3579 61.7859 82.3827 60.5874C83.0047 59.8603 83.2459 58.9975 83.1202 57.9504C82.8228 55.4721 80.7786 54.0496 76.492 53.3377C69.67 52.2048 68.0814 48.7055 67.9503 45.9697C67.7682 42.1788 70.3923 39.0013 74.4801 38.0636C74.6945 38.0146 74.9126 37.9721 75.134 37.9368V35.8404C75.134 34.9502 75.8476 34.2285 76.7277 34.2285C77.6079 34.2285 78.3215 34.9502 78.3215 35.8404V37.9231C81.2394 38.3602 84.1179 40.0698 85.5561 43.5344C85.8968 44.355 85.5152 45.3 84.7036 45.6445C83.8918 45.9895 82.9579 45.6032 82.6172 44.7824C81.2348 41.4526 77.8885 40.5878 75.1852 41.208C73.1424 41.6764 71.0053 43.1326 71.1342 45.8138C71.1745 46.6534 71.297 49.2084 77.0086 50.1568C79.1247 50.5078 85.566 51.5775 86.2842 57.5619ZM76.7142 21.7931C79.8437 21.7931 82.3899 19.2181 82.3899 16.0527C82.3899 12.8874 79.8439 10.3124 76.7142 10.3124C73.5844 10.3124 71.0382 12.8874 71.0382 16.0527C71.0382 19.2181 73.5844 21.7931 76.7142 21.7931ZM76.7142 13.5359C78.0862 13.5359 79.2024 14.6651 79.2024 16.0525C79.2024 17.44 78.0862 18.5691 76.7142 18.5691C75.3421 18.5691 74.2257 17.44 74.2257 16.0525C74.2257 14.6651 75.3421 13.5359 76.7142 13.5359Z" fill="#EF5000"/>
</g>
<defs>
<clipPath id="clip0_69_2027">
<rect width="102" height="84" fill="white" transform="translate(0 0.171875)"/>
</clipPath>
</defs>
</svg>
