<svg width="84" height="84" viewBox="0 0 84 84" fill="none" xmlns="http://www.w3.org/2000/svg">
<g clip-path="url(#clip0_131_711)">
<path d="M65.8672 3.04187C66.1435 3.2096 66.1435 3.2096 66.3532 3.52788C66.3285 3.82197 66.3023 4.11605 66.2662 4.40896C66.1655 5.59962 66.4176 6.41405 67.1755 7.34261C68.0401 8.29667 68.9668 9.18648 69.9011 10.0717C70.3736 10.5226 70.8378 10.982 71.3028 11.4406C72.1829 12.3063 73.0693 13.1653 73.9586 14.0215C75.5533 15.5572 77.1384 17.1027 78.7189 18.6529C79.2733 19.1961 79.8309 19.7358 80.3914 20.2728C80.7389 20.6067 81.0842 20.943 81.4289 21.2798C81.5891 21.4352 81.7503 21.5897 81.9125 21.7431C83.2907 23.0477 83.2907 23.0477 83.3172 23.7778C83.2014 24.2641 83.2014 24.2641 82.8774 24.5881C82.4061 24.6117 81.9508 24.6183 81.4801 24.6084C81.3502 24.6069 81.2203 24.6055 81.0865 24.604C80.7654 24.6001 80.4444 24.5943 80.1234 24.5881C80.1236 24.7637 80.1236 24.7637 80.1239 24.9428C80.1348 31.8746 80.1431 38.8063 80.1482 45.738C80.1488 46.5696 80.1494 47.4012 80.1501 48.2329C80.1502 48.3984 80.1503 48.564 80.1505 48.7346C80.1526 51.4182 80.1564 54.1018 80.1609 56.7854C80.1654 59.5374 80.1681 62.2894 80.1691 65.0414C80.1698 66.7406 80.1719 68.4398 80.1758 70.139C80.1784 71.303 80.1792 72.4669 80.1785 73.6309C80.1782 74.3033 80.1787 74.9756 80.1813 75.6479C80.1837 76.2628 80.1838 76.8776 80.1821 77.4925C80.1819 77.7155 80.1825 77.9386 80.1841 78.1617C80.186 78.4637 80.1847 78.7657 80.1832 79.0677C80.1834 79.3199 80.1834 79.3199 80.1837 79.5772C80.1234 79.9928 80.1234 79.9928 79.9065 80.2897C79.4802 80.5892 79.0931 80.5419 78.5793 80.5434C78.3711 80.544 78.1629 80.5446 77.9484 80.5453C77.8401 80.5442 77.7318 80.5432 77.6202 80.5422C77.2894 80.5396 76.959 80.5422 76.6283 80.5453C76.4201 80.5446 76.2119 80.544 75.9974 80.5434C75.7106 80.5425 75.7106 80.5425 75.418 80.5417C74.9393 80.4788 74.9393 80.4788 74.67 80.3009C74.343 79.836 74.3936 79.4527 74.3949 78.8888C74.3944 78.7759 74.394 78.6631 74.3936 78.5468C74.3928 78.1676 74.3955 77.7886 74.3981 77.4095C74.3983 77.1381 74.3982 76.8667 74.3979 76.5953C74.3978 75.8576 74.4006 75.12 74.404 74.3823C74.4071 73.6118 74.4073 72.8412 74.4079 72.0706C74.4094 70.611 74.4134 69.1514 74.4183 67.6918C74.4237 66.0303 74.4264 64.3688 74.4288 62.7072C74.4339 59.289 74.4426 55.8707 74.4533 52.4525C73.1168 52.4525 71.7803 52.4525 70.4033 52.4525C70.4047 52.7964 70.4061 53.1404 70.4076 53.4947C70.4208 56.7297 70.4305 59.9647 70.4368 63.1997C70.4402 64.863 70.4447 66.5263 70.4521 68.1896C70.4586 69.639 70.4628 71.0884 70.4642 72.5378C70.4651 73.3056 70.4671 74.0733 70.4718 74.8411C70.4762 75.5632 70.4775 76.2853 70.4765 77.0075C70.4767 77.273 70.478 77.5385 70.4805 77.8039C70.4837 78.1656 70.4829 78.5271 70.4812 78.8888C70.4818 79.0915 70.4824 79.2941 70.483 79.5029C70.4033 79.9928 70.4033 79.9928 70.106 80.3061C69.607 80.5518 69.3066 80.4761 68.7832 80.3168C68.4592 79.8308 68.4592 79.8308 68.4592 77.8868C66.4277 77.8868 64.3962 77.8868 62.3032 77.8868C62.3032 78.5818 62.3032 79.2768 62.3032 79.9928C62.1428 80.1532 61.9824 80.3136 61.8171 80.4788C60.7731 80.4068 60.7731 80.4068 60.5211 80.1548C60.5054 79.798 60.5014 79.4408 60.5017 79.0836C60.5014 78.9137 60.5014 78.9137 60.5012 78.7404C60.501 78.3581 60.5019 77.9758 60.5027 77.5934C60.5028 77.3205 60.5028 77.0475 60.5027 76.7746C60.5026 76.0312 60.5036 75.2878 60.5047 74.5445C60.5057 73.7685 60.5058 72.9925 60.506 72.2165C60.5065 70.746 60.5078 69.2755 60.5095 67.805C60.5113 66.1313 60.5122 64.4577 60.513 62.784C60.5147 59.3402 60.5176 55.8963 60.5211 52.4525C59.1846 52.4525 57.8481 52.4525 56.4711 52.4525C56.4711 57.3174 56.4711 62.1823 56.4711 67.1946C57.273 67.1946 58.0749 67.1946 58.9011 67.1946C59.6387 67.9323 59.6305 68.0224 59.633 69.0064C59.6347 69.1804 59.6347 69.1804 59.6364 69.3579C59.6393 69.7405 59.6374 70.1229 59.6352 70.5056C59.6356 70.7719 59.6362 71.0382 59.6371 71.3045C59.638 71.8623 59.6366 72.42 59.6336 72.9778C59.6299 73.6926 59.632 74.4072 59.6359 75.122C59.6383 75.6718 59.6375 76.2215 59.6358 76.7714C59.6354 77.0349 59.6359 77.2984 59.6374 77.5619C59.6391 77.9304 59.6366 78.2986 59.633 78.667C59.6325 78.8766 59.6319 79.0862 59.6314 79.3021C59.5323 79.9388 59.404 80.0892 58.9011 80.4788C58.4379 80.5595 58.4379 80.5595 57.8909 80.5589C57.6833 80.5603 57.4758 80.5616 57.2619 80.563C57.0322 80.5613 56.8025 80.5594 56.5728 80.5575C56.3306 80.5579 56.0884 80.5585 55.8462 80.5594C55.1885 80.561 54.5308 80.5585 53.873 80.5552C53.1841 80.5523 52.4952 80.5529 51.8063 80.553C50.6487 80.5527 49.4912 80.5499 48.3336 80.5455C46.997 80.5404 45.6605 80.5387 44.324 80.5389C42.8996 80.5391 41.4753 80.5369 40.0509 80.5339C39.6414 80.5332 39.2319 80.533 38.8224 80.5329C38.1772 80.5325 37.532 80.5306 36.8868 80.5273C36.6507 80.5264 36.4146 80.526 36.1784 80.5262C34.1731 80.5271 34.1731 80.5272 33.3464 80.2936C33.0852 80.2249 33.0852 80.2249 32.8188 80.1548C32.6584 80.2617 32.498 80.3687 32.3328 80.4788C31.917 80.5124 31.5191 80.5281 31.1032 80.5275C30.9832 80.5282 30.8632 80.5289 30.7395 80.5296C30.4858 80.5306 30.2321 80.5307 29.9784 80.53C29.5908 80.5294 29.2035 80.5332 28.8159 80.5373C28.5692 80.5377 28.3225 80.5378 28.0758 80.5377C27.9024 80.5399 27.9024 80.5399 27.7255 80.5422C27.2217 80.5375 26.8732 80.5057 26.4287 80.2595C26.0703 79.8802 26.0794 79.5851 26.0552 79.0714C26.046 78.9104 26.0368 78.7494 26.0274 78.5835C26.0211 78.399 26.0211 78.399 26.0147 78.2108C25.8829 78.2949 25.7512 78.3791 25.6154 78.4658C23.2148 79.9458 20.7855 80.5035 17.9828 80.5023C17.797 80.5029 17.6111 80.5034 17.4197 80.504C16.8075 80.5055 16.1954 80.5059 15.5833 80.506C15.1575 80.5065 14.7317 80.5071 14.3059 80.5077C13.4147 80.5087 12.5236 80.5089 11.6325 80.5088C10.6022 80.5087 9.57203 80.5105 8.54181 80.513C7.54959 80.5154 6.55736 80.516 5.56513 80.5159C5.14321 80.5161 4.7213 80.5168 4.29938 80.518C3.71104 80.5196 3.12274 80.5191 2.5344 80.5182C2.35918 80.5191 2.18395 80.52 2.00342 80.5209C1.76361 80.5199 1.76361 80.5199 1.51895 80.5189C1.31038 80.519 1.31038 80.519 1.09759 80.5191C0.742411 80.4788 0.74241 80.4788 0.256404 80.1548C0.195484 79.8388 0.195482 79.8388 0.195243 79.4433C0.193976 79.2929 0.192708 79.1424 0.191402 78.9874C0.193028 78.7378 0.19303 78.7378 0.194689 78.4832C0.193931 78.3073 0.193172 78.1313 0.192391 77.9501C0.190442 77.3567 0.191993 76.7634 0.193518 76.17C0.19286 75.7462 0.191995 75.3224 0.190937 74.8986C0.188771 73.8645 0.189243 72.8305 0.19065 71.7964C0.191746 70.9562 0.191897 70.116 0.191367 69.2758C0.191293 69.1564 0.191221 69.037 0.191145 68.914C0.190989 68.6714 0.19083 68.4289 0.19067 68.1863C0.189283 65.9096 0.190879 63.633 0.193488 61.3564C0.195659 59.4017 0.195284 57.447 0.193043 55.4923C0.190444 53.2242 0.189419 50.9562 0.190912 48.6881C0.191067 48.4464 0.191216 48.2047 0.191367 47.9629C0.191442 47.844 0.191517 47.725 0.191595 47.6025C0.192015 46.7631 0.191308 45.9237 0.190166 45.0843C0.188663 43.955 0.189728 42.8257 0.192544 41.6964C0.193189 41.281 0.192999 40.8656 0.191931 40.4502C0.190611 39.8849 0.192257 39.3198 0.194689 38.7545C0.193605 38.5885 0.192519 38.4224 0.191402 38.2514C0.192669 38.1005 0.193937 37.9496 0.195243 37.7942C0.195362 37.5984 0.195365 37.5984 0.195485 37.3986C0.272603 36.9729 0.39589 36.8301 0.74241 36.5763C1.17873 36.528 1.57684 36.5082 2.01311 36.5117C2.19913 36.511 2.19913 36.511 2.38891 36.5103C2.6509 36.51 2.9129 36.5109 3.17489 36.5129C3.57601 36.5155 3.97686 36.5129 4.37796 36.5098C4.63257 36.5102 4.88717 36.5108 5.14178 36.5117C5.32176 36.5103 5.32176 36.5103 5.50539 36.5088C6.22093 36.5185 6.3676 36.5314 6.89848 37.0623C6.89848 37.5434 6.89848 38.0246 6.89848 38.5203C13.2603 38.5203 19.6221 38.5203 26.1767 38.5203C26.1767 38.0392 26.1767 37.558 26.1767 37.0623C26.4229 36.7325 26.4229 36.7325 26.8247 36.5763C27.253 36.527 27.6421 36.5043 28.0701 36.506C28.2498 36.5048 28.2498 36.5048 28.4332 36.5035C28.6859 36.5024 28.9386 36.5026 29.1913 36.504C29.5775 36.5054 29.9634 36.5007 30.3495 36.4956C30.5955 36.4953 30.8414 36.4954 31.0874 36.4959C31.2025 36.4941 31.3176 36.4923 31.4362 36.4904C31.9357 36.4974 32.2687 36.533 32.6868 36.8153C33.1195 37.4173 33.0735 37.9412 33.0692 38.666C33.0709 38.8115 33.0726 38.9569 33.0743 39.1068C33.0791 39.5872 33.0793 40.0675 33.0795 40.5479C33.0819 40.8811 33.0847 41.2143 33.0876 41.5475C33.0947 42.4243 33.098 43.301 33.1004 44.1778C33.1036 45.0726 33.1104 45.9674 33.1169 46.8621C33.1291 48.6176 33.1372 50.373 33.1428 52.1285C33.2175 51.9979 33.2922 51.8673 33.3692 51.7328C33.4688 51.5599 33.5685 51.3871 33.6712 51.209C33.8183 50.953 33.8183 50.953 33.9684 50.6918C35.7163 47.8163 38.142 46.29 41.2429 45.1624C41.2964 42.9705 41.3498 40.7786 41.4049 38.5203C40.9238 38.5203 40.4426 38.5203 39.9469 38.5203C39.4609 38.0343 39.4609 38.0343 39.39 37.5483C39.4609 37.0623 39.4609 37.0623 39.7243 36.7924C40.226 36.5105 40.5746 36.5178 41.1491 36.5211C41.3628 36.5212 41.5765 36.5212 41.7967 36.5213C42.023 36.5237 42.2493 36.5262 42.4756 36.5288C42.7852 36.5296 42.7852 36.5296 43.1009 36.5303C43.8721 36.5328 44.6433 36.5396 45.4144 36.5459C48.0006 36.5609 48.0006 36.5609 50.639 36.5763C50.639 32.6202 50.639 28.6641 50.639 24.5881C49.7836 24.5881 48.9283 24.5881 48.047 24.5881C47.561 24.1021 47.561 24.1021 47.5158 23.605C47.7082 22.6401 48.5753 22.0117 49.2557 21.3636C49.4184 21.2051 49.581 21.0463 49.7433 20.8874C50.0927 20.546 50.4435 20.2061 50.7954 19.8672C51.3526 19.3301 51.9054 18.7885 52.4573 18.2459C54.0273 16.7039 55.602 15.1668 57.184 13.6371C58.0582 12.7917 58.9279 11.9419 59.793 11.0872C60.3395 10.5478 60.8909 10.0142 61.4466 9.48435C61.7929 9.15166 62.1339 8.81389 62.4736 8.47455C62.7051 8.24633 62.9425 8.02424 63.1802 7.80246C64.1498 6.81933 64.4106 6.08494 64.4014 4.7393C64.3996 4.63364 64.3978 4.52799 64.396 4.41913C64.4083 3.88978 64.4323 3.62988 64.7332 3.20387C65.1461 2.99743 65.4094 2.99721 65.8672 3.04187ZM64.9541 8.45066C64.7951 8.60983 64.7951 8.60983 64.6329 8.77221C64.4502 8.95384 64.4502 8.95384 64.2639 9.13913C64.1302 9.2737 63.9966 9.40826 63.8589 9.54691C63.7182 9.68728 63.5775 9.82764 63.4326 9.97227C63.0461 10.3583 62.6603 10.745 62.2749 11.132C61.8722 11.5362 61.4686 11.9394 61.0652 12.3428C60.3878 13.0204 59.711 13.6986 59.0346 14.3771C58.2515 15.1628 57.4675 15.9477 56.6831 16.732C55.9298 17.4852 55.177 18.2388 54.4244 18.9927C54.1035 19.3142 53.7824 19.6356 53.4613 19.9568C53.0135 20.4048 52.5664 20.8534 52.1194 21.3022C51.9851 21.4364 51.8508 21.5707 51.7124 21.709C51.5916 21.8305 51.4707 21.952 51.3462 22.0773C51.2403 22.1834 51.1344 22.2896 51.0253 22.399C50.7828 22.6087 50.7828 22.6087 50.801 22.8061C60.4239 22.8061 70.0468 22.8061 79.9614 22.8061C79.1823 21.8917 79.1823 21.8917 78.3642 21.0253C78.2502 20.9106 78.1362 20.7959 78.0187 20.6777C77.897 20.556 77.7752 20.4344 77.6498 20.309C77.5191 20.1777 77.3883 20.0464 77.2536 19.9111C76.8243 19.4803 76.3944 19.0501 75.9645 18.62C75.6652 18.3202 75.3659 18.0203 75.0666 17.7205C74.441 17.0939 73.8151 16.4677 73.189 15.8417C72.4648 15.1176 71.7414 14.3925 71.0185 13.6671C70.322 12.9682 69.6247 12.2703 68.927 11.5727C68.6303 11.2759 68.334 10.9788 68.0379 10.6814C67.6257 10.2676 67.2124 9.85481 66.7989 9.44225C66.6758 9.3183 66.5528 9.19435 66.426 9.06665C66.3138 8.95515 66.2017 8.84365 66.0861 8.72877C65.9885 8.63109 65.8909 8.5334 65.7903 8.43276C65.4349 8.1353 65.3051 8.1531 64.9541 8.45066ZM52.583 24.5881C52.583 31.5915 52.583 38.5948 52.583 45.8104C61.0833 45.8104 69.5835 45.8104 78.3413 45.8104C78.3413 38.807 78.3413 31.8037 78.3413 24.5881C69.8411 24.5881 61.3409 24.5881 52.583 24.5881ZM2.03843 38.5203C2.03843 51.7251 2.03843 64.9299 2.03843 78.5348C2.30573 78.5348 2.57303 78.5348 2.84844 78.5348C2.86431 78.4272 2.88018 78.3197 2.89653 78.2089C3.15499 76.6827 3.15499 76.6827 3.82045 76.1048C4.24813 75.9444 4.67582 75.784 5.11646 75.6188C5.11646 63.3763 5.11646 51.1338 5.11646 38.5203C4.10071 38.5203 3.08496 38.5203 2.03843 38.5203ZM28.1207 38.5203C28.1207 45.8444 28.1207 53.1685 28.1207 60.7146C30.7855 58.0499 31.2722 55.4325 31.2741 51.7779C31.2709 50.3902 31.2413 49.0038 31.2036 47.6167C31.1785 46.5893 31.1676 45.5617 31.1554 44.534C31.1296 42.529 31.0883 40.5247 31.0368 38.5203C30.0745 38.5203 29.1122 38.5203 28.1207 38.5203ZM43.3489 38.5203C43.3489 40.6053 43.3489 42.6902 43.3489 44.8384C44.3112 44.8384 45.2735 44.8384 46.265 44.8384C46.265 42.7534 46.265 40.6684 46.265 38.5203C45.3027 38.5203 44.3404 38.5203 43.3489 38.5203ZM48.209 38.5203C48.209 40.6053 48.209 42.6902 48.209 44.8384C49.0109 44.8384 49.8128 44.8384 50.639 44.8384C50.639 42.7534 50.639 40.6684 50.639 38.5203C49.8371 38.5203 49.0352 38.5203 48.209 38.5203ZM6.89848 40.4643C6.89848 41.1593 6.89848 41.8543 6.89848 42.5704C13.2603 42.5704 19.6221 42.5704 26.1767 42.5704C26.1767 41.8754 26.1767 41.1804 26.1767 40.4643C19.8149 40.4643 13.4531 40.4643 6.89848 40.4643ZM6.89848 44.3524C6.89848 54.6703 6.89848 64.9882 6.89848 75.6188C12.5245 76.2865 12.5245 76.2865 14.1886 74.6467C14.4749 74.3223 14.7391 73.9897 15.0036 73.6475C15.8796 72.8324 16.8319 72.8044 17.9652 72.7938C19.636 72.7392 20.8256 72.4355 22.0976 71.3042C22.3239 71.0906 22.3239 71.0906 22.2887 70.7587C22.1375 70.757 21.9864 70.7554 21.8307 70.7536C20.4075 70.7378 18.9844 70.7212 17.5613 70.7037C16.8296 70.6948 16.098 70.6861 15.3663 70.6781C14.6604 70.6704 13.9545 70.6619 13.2487 70.6529C12.9791 70.6496 12.7096 70.6466 12.4401 70.6438C12.063 70.6399 11.686 70.6351 11.309 70.63C11.1972 70.629 11.0853 70.6281 10.9701 70.6271C10.4867 70.6197 10.1152 70.5889 9.65252 70.4347C9.29143 69.7125 9.45327 68.7268 9.45002 67.9338C9.44667 67.7307 9.44333 67.5276 9.43989 67.3184C9.43905 67.124 9.43822 66.9297 9.43736 66.7295C9.43584 66.5509 9.43433 66.3722 9.43277 66.1882C9.49052 65.7366 9.49052 65.7366 9.67609 65.4417C9.97652 65.2506 9.97652 65.2506 10.9485 65.0886C10.9485 58.2457 10.9485 51.4027 10.9485 44.3524C9.61202 44.3524 8.2755 44.3524 6.89848 44.3524ZM12.8926 44.3524C12.8926 51.1953 12.8926 58.0383 12.8926 65.0886C15.3517 65.0886 17.8109 65.0886 20.3446 65.0886C20.3446 58.2457 20.3446 51.4027 20.3446 44.3524C17.8855 44.3524 15.4263 44.3524 12.8926 44.3524ZM22.2887 44.3524C22.2887 51.1953 22.2887 58.0383 22.2887 65.0886C22.6629 65.1955 23.0371 65.3025 23.4227 65.4126C23.766 65.756 23.6525 66.485 23.6758 66.9618C23.6828 67.0924 23.6898 67.223 23.697 67.3576C23.7142 67.6813 23.7306 68.005 23.7467 68.3287C25.2709 66.8755 26.2537 64.8843 26.3838 62.793C26.4078 61.7655 26.3915 60.7414 26.3666 59.7141C26.3618 59.2686 26.3601 58.8231 26.3582 58.3775C26.3522 57.3344 26.3364 56.2916 26.3167 55.2487C26.2948 54.0588 26.2843 52.8689 26.2745 51.679C26.2544 49.2365 26.2188 46.7946 26.1767 44.3524C24.8937 44.3524 23.6106 44.3524 22.2887 44.3524ZM36.872 49.9478C35.7214 51.3499 34.8222 52.9209 33.9562 54.5084C33.3961 55.5351 32.8128 56.5466 32.2214 57.5555C31.4204 58.9232 30.6233 60.2931 29.8319 61.6663C29.7312 61.841 29.6305 62.0157 29.5268 62.1956C29.22 62.7279 28.9134 63.2602 28.6067 63.7926C27.8988 65.0217 27.1904 66.2505 26.4806 67.4785C26.2736 67.837 26.0668 68.1955 25.8601 68.5542C25.5512 69.0903 25.2414 69.6258 24.9313 70.1613C24.838 70.3237 24.7446 70.4861 24.6484 70.6534C23.5953 72.4674 22.4006 73.706 20.3446 74.3227C19.7874 74.4431 19.3217 74.4824 18.7493 74.4563C17.4641 74.3847 17.4641 74.3847 16.3092 74.8685C15.918 75.2446 15.5753 75.6395 15.2498 76.0736C14.6212 76.8992 14.0634 77.1761 13.0546 77.4008C12.416 77.4695 11.7822 77.4798 11.1403 77.4837C10.9626 77.4866 10.7848 77.4895 10.6017 77.4925C10.0389 77.5012 9.47619 77.5067 8.91338 77.5122C8.52979 77.5175 8.14619 77.5231 7.7626 77.5289C6.82657 77.5426 5.89054 77.5537 4.95446 77.5628C4.89255 77.8311 4.8388 78.1014 4.79246 78.3728C5.12894 78.7093 5.85865 78.5603 6.32246 78.5609C6.46605 78.5617 6.60964 78.5625 6.75758 78.5633C7.23571 78.5657 7.71383 78.5668 8.19197 78.5677C8.52448 78.5686 8.85699 78.5696 9.1895 78.5705C9.88899 78.5722 10.5885 78.5731 11.288 78.5737C12.1796 78.5746 13.0713 78.5785 13.9629 78.5831C14.6512 78.5861 15.3394 78.587 16.0277 78.5872C16.3561 78.5877 16.6844 78.589 17.0127 78.5911C20.4083 78.6117 23.0298 78.1119 25.7401 75.894C26.9709 74.6614 27.851 73.2642 28.6979 71.751C28.9005 71.3936 29.1033 71.0363 29.306 70.679C29.4039 70.5021 29.5018 70.3252 29.6027 70.143C29.9028 69.6247 29.9028 69.6247 30.2262 69.1567C31.1763 67.7439 31.1879 66.5398 31.1583 64.8962C31.1542 64.4146 31.1535 63.9331 31.1557 63.4515C31.1565 63.281 31.1565 63.281 31.1572 63.1071C31.1782 61.8853 31.4301 60.7822 32.3328 59.9046C33.2012 59.3146 33.6272 59.2326 34.6919 59.2971C35.2137 59.2788 35.6048 59.1959 36.0588 58.9325C36.9361 57.9427 37.4935 56.6984 38.082 55.524C39.0719 53.5857 40.1527 52.0045 42.2149 51.1565C42.3467 51.1015 42.4785 51.0466 42.6143 50.9899C43.3849 50.778 44.116 50.7748 44.912 50.7654C45.076 50.7622 45.2401 50.7591 45.4091 50.7559C45.9306 50.7462 46.4521 50.7387 46.9737 50.7312C47.3283 50.725 47.6829 50.7187 48.0375 50.7122C48.9046 50.6964 49.7718 50.6835 50.639 50.6704C50.639 49.3339 50.639 47.9974 50.639 46.6204C49.7144 46.6091 48.7901 46.5995 47.8655 46.5937C47.5521 46.5913 47.2387 46.588 46.9253 46.5837C43.1799 46.5343 39.5848 47.0637 36.872 49.9478ZM52.583 47.7544C52.583 48.7167 52.583 49.679 52.583 50.6704C61.0833 50.6704 69.5835 50.6704 78.3413 50.6704C78.3413 49.7082 78.3413 48.7459 78.3413 47.7544C69.8411 47.7544 61.3409 47.7544 52.583 47.7544ZM40.9189 54.2345C40.4791 54.8675 40.0987 55.5255 39.7241 56.1988C39.6245 56.3723 39.5249 56.5458 39.4223 56.7246C39.0065 57.4553 38.64 58.1497 38.3269 58.9325C42.3899 58.9325 46.4529 58.9325 50.639 58.9325C50.639 56.7941 50.639 54.6557 50.639 52.4525C49.5798 52.4391 48.5206 52.4257 47.4293 52.412C47.0988 52.4061 46.7683 52.4002 46.4277 52.3941C44.2744 52.3707 42.409 52.4891 40.9189 54.2345ZM52.583 52.4525C52.583 54.5909 52.583 56.7293 52.583 58.9325C53.2246 58.9325 53.8661 58.9325 54.5271 58.9325C54.5271 56.7941 54.5271 54.6557 54.5271 52.4525C53.8855 52.4525 53.244 52.4525 52.583 52.4525ZM62.3032 52.4525C62.3032 52.9336 62.3032 53.4148 62.3032 53.9105C64.3347 53.9105 66.3662 53.9105 68.4592 53.9105C68.4592 53.4293 68.4592 52.9482 68.4592 52.4525C66.4277 52.4525 64.3962 52.4525 62.3032 52.4525ZM76.2353 52.4525C76.2353 61.0596 76.2353 69.6668 76.2353 78.5348C76.9303 78.5348 77.6253 78.5348 78.3413 78.5348C78.3413 69.9276 78.3413 61.3205 78.3413 52.4525C77.6464 52.4525 76.9514 52.4525 76.2353 52.4525ZM62.3032 55.8545C62.3032 56.7099 62.3032 57.5653 62.3032 58.4465C64.3347 58.4465 66.3662 58.4465 68.4592 58.4465C68.4592 57.5912 68.4592 56.7358 68.4592 55.8545C66.4277 55.8545 64.3962 55.8545 62.3032 55.8545ZM62.3032 60.2286C62.3032 61.0839 62.3032 61.9393 62.3032 62.8206C64.3347 62.8206 66.3662 62.8206 68.4592 62.8206C68.4592 61.9652 68.4592 61.1099 68.4592 60.2286C66.4277 60.2286 64.3962 60.2286 62.3032 60.2286ZM33.3048 61.5246C32.8774 62.2166 32.9339 62.9751 32.9363 63.7644C32.9355 63.9068 32.9346 64.0491 32.9338 64.1958C32.9315 64.6653 32.9317 65.1348 32.9321 65.6044C32.9314 65.9314 32.9307 66.2584 32.93 66.5855C32.9288 67.2706 32.9288 67.9557 32.9297 68.6408C32.9306 69.5181 32.9279 70.3953 32.9241 71.2725C32.9217 71.9478 32.9216 72.6231 32.9221 73.2984C32.922 73.6218 32.9211 73.9452 32.9195 74.2686C32.9175 74.7211 32.9186 75.1735 32.9205 75.626C32.9192 75.7591 32.918 75.8922 32.9167 76.0293C32.9239 76.817 33.01 77.3778 33.4668 78.0488C34.0416 78.4631 34.4382 78.5954 35.143 78.5932C35.4003 78.5942 35.4003 78.5942 35.6627 78.5953C35.8491 78.5935 36.0356 78.5918 36.2277 78.59C36.5241 78.5901 36.5241 78.5901 36.8266 78.5902C37.3671 78.5899 37.9075 78.5875 38.4481 78.5841C39.0134 78.581 39.5788 78.5807 40.1442 78.5802C41.2142 78.5787 42.2842 78.5747 43.3543 78.5698C44.6923 78.5638 46.0303 78.5612 47.3683 78.5585C49.7546 78.5538 52.1408 78.5441 54.5271 78.5348C54.5271 72.7076 54.5271 66.8804 54.5271 60.8766C50.7764 60.8571 50.7764 60.8571 47.0258 60.844C45.6845 60.8404 44.3433 60.8359 43.002 60.8277C41.9401 60.8212 40.8782 60.8171 39.8162 60.8156C39.2541 60.8148 38.692 60.8128 38.1298 60.8081C37.5019 60.8028 36.874 60.8027 36.2461 60.803C35.9673 60.7995 35.9673 60.7995 35.6829 60.7959C34.6883 60.8011 34.0375 60.817 33.3048 61.5246ZM62.3032 64.7646C62.3032 65.5665 62.3032 66.3684 62.3032 67.1946C64.3347 67.1946 66.3662 67.1946 68.4592 67.1946C68.4592 66.3927 68.4592 65.5908 68.4592 64.7646C66.4277 64.7646 64.3962 64.7646 62.3032 64.7646ZM11.2725 67.0326C11.2725 67.6207 11.2725 68.2088 11.2725 68.8147C14.8009 68.8147 18.3293 68.8147 21.9647 68.8147C21.9647 68.2266 21.9647 67.6385 21.9647 67.0326C18.4363 67.0326 14.9079 67.0326 11.2725 67.0326ZM56.4711 69.1387C56.4711 72.2394 56.4711 75.3401 56.4711 78.5348C56.8453 78.5348 57.2195 78.5348 57.6051 78.5348C57.6051 75.4341 57.6051 72.3334 57.6051 69.1387C57.2309 69.1387 56.8566 69.1387 56.4711 69.1387ZM62.3032 69.1387C62.3032 69.994 62.3032 70.8494 62.3032 71.7307C64.3347 71.7307 66.3662 71.7307 68.4592 71.7307C68.4592 70.8753 68.4592 70.02 68.4592 69.1387C66.4277 69.1387 64.3962 69.1387 62.3032 69.1387ZM30.8748 71.5687C30.7169 71.815 30.5673 72.0666 30.421 72.3199C30.3295 72.477 30.2379 72.6341 30.1435 72.7961C29.9511 73.1289 29.7587 73.4618 29.5664 73.7946C29.4742 73.9528 29.382 74.111 29.287 74.274C29.1613 74.4916 29.1613 74.4916 29.0331 74.7136C28.7687 75.1327 28.7687 75.1327 28.4163 75.551C28.1116 75.9548 28.0415 76.0976 28.0575 76.5889C28.0591 76.6921 28.0607 76.7953 28.0624 76.9017C28.0683 77.0296 28.0742 77.1576 28.0802 77.2894C28.0936 77.7004 28.107 78.1114 28.1207 78.5348C29.083 78.5348 30.0453 78.5348 31.0368 78.5348C31.0368 76.236 31.0368 73.9372 31.0368 71.5687C30.9833 71.5687 30.9299 71.5687 30.8748 71.5687ZM62.3032 73.5127C62.3032 74.3681 62.3032 75.2235 62.3032 76.1048C64.3347 76.1048 66.3662 76.1048 68.4592 76.1048C68.4592 75.2494 68.4592 74.394 68.4592 73.5127C66.4277 73.5127 64.3962 73.5127 62.3032 73.5127Z" fill="#EF5000"/>
<path d="M69.8862 28.3648C71.6404 29.5578 72.9224 31.2034 73.4097 33.3078C73.7635 35.8759 73.4282 38.1714 71.8606 40.3023C70.3884 42.0764 68.4243 43.111 66.1399 43.35C63.7269 43.4819 61.6103 42.7763 59.787 41.1839C58.1625 39.5799 57.3211 37.4995 57.25 35.2297C57.2863 32.847 58.2263 31.085 59.7712 29.3368C62.6596 26.7923 66.576 26.376 69.8862 28.3648ZM60.6824 31.2302C59.4948 32.755 59.001 34.3149 59.2244 36.2523C59.6752 38.137 60.6673 39.5892 62.3024 40.6263C63.7515 41.4015 65.2302 41.6837 66.8549 41.3256C68.7134 40.7587 70.1618 39.6118 71.1012 37.8926C71.8242 36.2938 71.8653 34.627 71.2632 32.9819C70.5636 31.394 69.4064 30.1507 67.8276 29.4178C65.2308 28.4157 62.4946 29.1241 60.6824 31.2302Z" fill="#EF5000"/>
<path d="M47.8341 65.0481C49.1288 66.3079 49.8333 67.93 49.8793 69.7259C49.86 71.4796 49.1253 73.0784 47.8904 74.3183C46.5372 75.4708 44.9756 75.9059 43.2138 75.8427C41.5664 75.6437 39.9649 74.852 38.924 73.5431C37.9044 72.0648 37.5467 70.5978 37.6786 68.8146C37.9594 67.3111 38.6492 66.1104 39.7846 65.0886C39.9049 64.9783 40.0252 64.8681 40.1491 64.7545C42.6712 62.9776 45.395 63.4599 47.8341 65.0481ZM40.5946 67.0326C40.4777 67.1629 40.3607 67.2932 40.2402 67.4275C39.5526 68.3997 39.4909 69.4389 39.6226 70.5967C39.9815 71.7973 40.5613 72.6857 41.6577 73.3102C42.7428 73.8884 43.8034 74.019 45.0155 73.7563C46.2998 73.3175 47.1257 72.441 47.7227 71.2447C48.1114 70.0343 47.9918 68.7911 47.4202 67.6699C46.8576 66.7096 46.1896 66.1651 45.1813 65.6961C43.3854 65.2895 41.8176 65.6 40.5946 67.0326Z" fill="#EF5000"/>
<path d="M52.4312 75.4872C52.9071 75.6188 52.9071 75.6188 53.2311 76.1048C53.2008 76.6009 53.2008 76.6009 53.0691 77.0768C52.5831 77.4008 52.5831 77.4008 52.087 77.3705C51.6111 77.2388 51.6111 77.2388 51.2871 76.7528C51.3175 76.2567 51.3175 76.2567 51.4491 75.7808C51.9351 75.4568 51.9351 75.4568 52.4312 75.4872Z" fill="#EF5000"/>
<path d="M52.9071 62.4966C53.2562 63.0203 53.307 63.1853 53.2311 63.7926C53.0489 64.0862 53.0489 64.0862 52.7451 64.2786C52.2591 64.3495 52.2591 64.3495 51.7731 64.2786C51.4592 64.0154 51.4592 64.0154 51.2871 63.6306C51.3175 63.1142 51.3175 63.1142 51.4491 62.6586C51.9421 62.4121 52.3651 62.4579 52.9071 62.4966Z" fill="#EF5000"/>
<path d="M35.3296 62.4561C35.8966 62.4966 35.8966 62.4966 36.2206 62.8206C36.2611 63.3876 36.2611 63.3876 36.2206 63.9546C35.8966 64.2786 35.8966 64.2786 35.3296 64.3191C34.7626 64.2786 34.7626 64.2786 34.4386 63.9546C34.3981 63.3876 34.3981 63.3876 34.4386 62.8206C34.7626 62.4966 34.7626 62.4966 35.3296 62.4561Z" fill="#EF5000"/>
<path d="M36.0582 75.6188C36.2873 76.0771 36.2719 76.4083 36.2202 76.9148C35.9468 77.2287 35.9468 77.2287 35.5722 77.4008C35.0262 77.3618 34.8289 77.3056 34.4382 76.9148C34.3848 76.413 34.3647 76.0767 34.6103 75.6289C35.1156 75.3518 35.5164 75.4884 36.0582 75.6188Z" fill="#EF5000"/>
</g>
<defs>
<clipPath id="clip0_131_711">
<rect width="82.945" height="82.945" fill="white" transform="translate(0.255859 0.287842)"/>
</clipPath>
</defs>
</svg>
