<svg width="74" height="74" viewBox="0 0 74 74" fill="none" xmlns="http://www.w3.org/2000/svg">
<g clip-path="url(#clip0_209_700)">
<path fill-rule="evenodd" clip-rule="evenodd" d="M35.2009 59.3471H7.10428C6.50557 59.3471 6.03516 58.8766 6.03516 58.2779V27.5298C6.03516 26.9311 6.50557 26.4607 7.10428 26.4607C7.70299 26.4607 8.17341 26.9311 8.17341 27.5298V57.2516H34.2173V13.2891C34.2173 12.6903 34.6878 12.2627 35.2865 12.2627C35.8852 12.2627 36.3556 12.7331 36.3556 13.2891V58.2779C36.2701 58.8766 35.7997 59.3471 35.2009 59.3471Z" fill="#EF5000"/>
<path fill-rule="evenodd" clip-rule="evenodd" d="M8.77212 34.0303C8.25894 34.0303 7.70299 33.9875 7.06151 33.902C6.4628 33.8592 6.03515 33.3033 6.16345 32.7901C6.29174 32.2342 6.76216 31.8493 7.27534 31.8921C8.13064 32.0203 8.72935 32.0203 9.2853 31.9348C13.9895 31.721 17.0258 28.6847 18.7364 26.2043C20.7463 23.339 23.7827 21.4146 27.546 20.3882C29.2994 19.9178 31.4376 19.6185 33.0627 19.6612L35.372 19.7895C35.9707 19.8751 36.3984 20.3455 36.3556 20.8587C36.2701 21.4574 35.7997 21.885 35.2865 21.7995L33.0199 21.714C31.6514 21.6284 29.6842 21.9278 28.1447 22.3554C24.7663 23.2535 22.2431 24.9213 20.5325 27.3162C17.71 31.3789 13.8184 33.7309 9.54189 33.9875C9.19977 34.0303 8.94318 34.0303 8.77212 34.0303ZM8.77212 28.7702C8.13064 28.7702 7.4464 28.6847 6.89045 28.5136C6.33451 28.3853 5.99239 27.7866 6.12068 27.2734C6.29174 26.7175 6.80492 26.3754 7.36087 26.5037C7.87405 26.6319 8.60106 26.6747 9.19977 26.6319C11.0814 26.4609 12.792 25.3062 14.2888 23.1252C17.0258 19.1908 21.174 16.4966 26.3058 15.1709C28.5724 14.5722 31.2238 14.2728 33.2765 14.3584L35.2865 14.4439C35.8852 14.5294 36.2701 14.9998 36.2273 15.5986C36.1845 16.1973 35.6714 16.5822 35.1154 16.5394L33.1482 16.4111C31.3093 16.3683 28.8717 16.6677 26.7762 17.1381C22.1576 18.4211 18.4798 20.8587 15.9994 24.3654C14.1605 27.0168 11.894 28.5136 9.37083 28.7702H8.77212Z" fill="#EF5000"/>
<path fill-rule="evenodd" clip-rule="evenodd" d="M12.3211 59.3471C11.7224 59.3471 11.252 58.8766 11.252 58.2779V32.4906C11.252 31.8919 11.7224 31.4215 12.3211 31.4215C12.9198 31.4215 13.3902 31.8919 13.3902 32.4906V58.3207C13.3902 58.8766 12.9198 59.3471 12.3211 59.3471ZM16.7686 59.3471C16.1699 59.3471 15.6995 58.8766 15.6995 58.2779V29.9247C15.6995 29.326 16.1699 28.8555 16.7686 28.8555C17.3674 28.8555 17.8378 29.326 17.8378 29.9247V58.3207C17.8378 58.8766 17.3674 59.3471 16.7686 59.3471ZM21.1735 59.3471C20.5747 59.3471 20.1043 58.8766 20.1043 58.2779V24.9212C20.1043 24.3225 20.5747 23.852 21.1735 23.852C21.7722 23.852 22.2426 24.3225 22.2426 24.9212V58.3207C22.2426 58.8766 21.7722 59.3471 21.1735 59.3471ZM25.621 59.3471C25.0223 59.3471 24.5519 58.8766 24.5519 58.2779V22.0987C24.5519 21.5 25.0223 21.0295 25.621 21.0295C26.2197 21.0295 26.6901 21.5 26.6901 22.0987V58.2779C26.6901 58.8766 26.2197 59.3471 25.621 59.3471ZM29.9831 59.3471C29.3843 59.3471 28.9139 58.8766 28.9139 58.2779V20.944C28.9139 20.3453 29.3843 19.8749 29.9831 19.8749C30.5818 19.8749 31.0522 20.3453 31.0522 20.944V58.2779C31.0522 58.8766 30.5818 59.3471 29.9831 59.3471ZM67.7446 59.3471H67.7019L39.6052 57.5509C39.0493 57.5082 38.6644 57.0805 38.6644 56.5673V13.2891C38.6644 12.6903 39.1348 12.2627 39.7335 12.2627C40.3322 12.2627 40.8026 12.7331 40.8026 13.2891V55.541L66.8038 57.166V27.5298C66.8038 26.9311 67.2742 26.4607 67.8729 26.4607C68.4716 26.4607 68.9421 26.9311 68.9421 27.5298V58.2779C68.9421 58.5773 68.8138 58.8339 68.5999 59.0477C68.2578 59.2188 68.0012 59.3471 67.7446 59.3471Z" fill="#EF5000"/>
<path fill-rule="evenodd" clip-rule="evenodd" d="M66.1196 34.0301H65.5209C61.2016 33.7735 57.2672 31.4642 54.5303 27.4015C52.8196 24.9639 50.2537 23.2961 46.8753 22.398C45.3358 22.0131 43.4113 21.7138 41.9573 21.7566L39.7335 21.8849C39.1776 21.9276 38.6644 21.4572 38.6644 20.944C38.5789 20.3453 39.0493 19.8749 39.6052 19.8749L41.8718 19.7466C43.4969 19.6611 45.6351 19.9604 47.3885 20.4736C51.109 21.4144 54.1881 23.4244 56.1981 26.2041C57.9087 28.6845 60.945 31.7208 65.6492 31.9346C66.2051 32.0202 66.8038 31.9346 67.6591 31.8919C68.2578 31.8491 68.7283 32.234 68.771 32.7899C68.8138 33.3887 68.4289 33.8591 67.873 33.9018C67.1887 34.0301 66.6328 34.0301 66.1196 34.0301ZM66.0341 28.77H65.5209C62.955 28.5134 60.6884 27.0167 58.8923 24.3652C56.3692 20.8585 52.7769 18.4209 48.03 17.2662C45.9345 16.7103 43.4969 16.4109 41.658 16.5392L39.7335 16.6675C39.1348 16.7103 38.6644 16.2399 38.5789 15.7267C38.5361 15.128 39.0065 14.6576 39.5625 14.572L41.4869 14.4437C43.5824 14.401 46.2338 14.7003 48.5004 15.2563C53.675 16.5392 57.8232 19.3189 60.5174 23.1678C62.0141 25.3061 63.7247 26.5035 65.6919 26.6745C66.1196 26.7173 66.8038 26.6745 67.5308 26.5462C68.044 26.4607 68.6427 26.8028 68.771 27.316C68.8993 27.872 68.5572 28.4707 68.0013 28.5562C67.4025 28.6845 66.7183 28.77 66.0341 28.77Z" fill="#EF5000"/>
<path fill-rule="evenodd" clip-rule="evenodd" d="M62.5275 59.0478C61.9716 59.0478 61.5012 58.5774 61.5012 57.9787V32.4907C61.5012 31.892 61.9716 31.4216 62.5275 31.4216C63.1262 31.4216 63.5967 31.892 63.5967 32.4907V57.9787C63.5539 58.5774 63.0835 59.0478 62.5275 59.0478ZM58.08 58.7485C57.524 58.7485 57.0536 58.2781 57.0536 57.6793V29.9248C57.0536 29.3261 57.524 28.8557 58.08 28.8557C58.6787 28.8557 59.1491 29.3261 59.1491 29.9248V57.7649C59.1063 58.2781 58.6787 58.7485 58.08 58.7485ZM53.7179 58.4491C53.1192 58.4491 52.6488 57.9787 52.6488 57.38V24.9213C52.6488 24.3226 53.1192 23.8522 53.7179 23.8522C54.3166 23.8522 54.787 24.3226 54.787 24.9213V57.4655C54.7015 57.9787 54.2311 58.4491 53.7179 58.4491ZM49.2703 58.1498C48.6716 58.1498 48.2012 57.6793 48.2012 57.0806V22.0988C48.2012 21.5001 48.6716 21.0297 49.2703 21.0297C49.8691 21.0297 50.3395 21.5001 50.3395 22.0988V57.1662C50.2539 57.6793 49.8691 58.1498 49.2703 58.1498ZM44.8655 57.9359C44.2668 57.9359 43.7964 57.4655 43.7964 56.8668V20.9441C43.7964 20.3454 44.2668 19.875 44.8655 19.875C45.4643 19.875 45.9347 20.3454 45.9347 20.9441V56.8668C45.8919 57.4655 45.4215 57.9359 44.8655 57.9359ZM7.10398 63.4526H2.52811C1.97217 63.4526 1.45898 62.9822 1.45898 62.3835V22.056C1.45898 21.4573 1.97217 20.9869 2.52811 20.9869H7.10398C7.70269 20.9869 8.1731 21.4573 8.1731 22.056V62.3835C8.1731 62.9822 7.70269 63.4526 7.10398 63.4526ZM3.59724 61.3571H6.12038V23.1251H3.59724V61.3571ZM72.3207 63.6237H67.7449C67.1889 63.6237 66.7185 63.1533 66.7185 62.5546V22.2271C66.7185 21.6284 67.1889 21.158 67.7449 21.158H72.3207C72.9194 21.158 73.3899 21.6284 73.3899 22.2271V62.5546C73.3471 63.1533 72.8767 63.6237 72.3207 63.6237ZM68.7712 61.5282H71.2516V23.2962H68.7712V61.5282Z" fill="#EF5000"/>
<path fill-rule="evenodd" clip-rule="evenodd" d="M4.83691 23.1252C4.28096 23.1252 3.81055 22.6548 3.81055 22.0561V17.2664C3.81055 16.6677 4.28096 16.1973 4.83691 16.1973C5.43562 16.1973 5.90604 16.6677 5.90604 17.2664V22.0988C5.90604 22.6548 5.43562 23.1252 4.83691 23.1252ZM70.0109 23.2963C69.4122 23.2963 68.9418 22.8259 68.9418 22.2271V17.3519C68.9418 16.796 69.4122 16.2828 70.0109 16.2828C70.6096 16.2828 71.08 16.796 71.08 17.3519V22.2271C71.0373 22.8259 70.5668 23.2963 70.0109 23.2963Z" fill="#EF5000"/>
<path fill-rule="evenodd" clip-rule="evenodd" d="M4.83694 18.2071C2.74145 18.2071 0.945312 16.4965 0.945312 14.2727C0.945312 12.1345 2.65592 10.3811 4.83694 10.3811C6.97519 10.3811 8.77132 12.0917 8.77132 14.2727C8.77132 16.4965 6.97519 18.2071 4.83694 18.2071ZM4.83694 12.5194C3.85334 12.5194 3.0408 13.3319 3.0408 14.3583C3.0408 15.3419 3.85334 16.1972 4.83694 16.1972C5.8633 16.1972 6.67583 15.3419 6.67583 14.3583C6.67583 13.3319 5.8633 12.5194 4.83694 12.5194ZM70.0109 18.4209C67.8727 18.4209 66.1193 16.7103 66.1193 14.5721C66.1193 12.5194 67.8299 10.8088 70.0109 10.8088C72.1919 10.8088 73.9453 12.5194 73.9453 14.5721C73.8598 16.7103 72.1492 18.4209 70.0109 18.4209ZM70.0109 12.8615C69.0273 12.8615 68.172 13.6312 68.172 14.5721C68.172 15.5984 68.9418 16.3682 70.0109 16.3682C71.0373 16.3682 71.8498 15.5984 71.8498 14.5721C71.8071 13.6312 71.0373 12.8615 70.0109 12.8615Z" fill="#EF5000"/>
</g>
<defs>
<clipPath id="clip0_209_700">
<rect width="73" height="73" fill="white" transform="translate(0.945312 0.502441)"/>
</clipPath>
</defs>
</svg>
