<svg width="40" height="39" viewBox="0 0 40 39" fill="none" xmlns="http://www.w3.org/2000/svg">
<path d="M21.3773 17.0343H8.1533C7.83446 17.0343 7.52868 17.1613 7.30322 17.3874C7.07777 17.6135 6.95111 17.9201 6.95111 18.2398V31.4997C6.95111 31.8194 7.07777 32.126 7.30322 32.3521C7.52868 32.5782 7.83446 32.7052 8.1533 32.7052H21.3773C21.6962 32.7052 22.0019 32.5782 22.2274 32.3521C22.4529 32.126 22.5795 31.8194 22.5795 31.4997V18.2398C22.5795 17.9201 22.4529 17.6135 22.2274 17.3874C22.0019 17.1613 21.6962 17.0343 21.3773 17.0343ZM20.1751 30.2943H9.35548V19.4452H20.1751V30.2943ZM33.3992 27.8834V30.2943C33.3992 30.9337 33.1459 31.5469 32.6949 31.999C32.244 32.4512 31.6325 32.7052 30.9948 32.7052H27.3883C27.0694 32.7052 26.7636 32.5782 26.5382 32.3521C26.3127 32.126 26.1861 31.8194 26.1861 31.4997C26.1861 31.18 26.3127 30.8734 26.5382 30.6473C26.7636 30.4213 27.0694 30.2943 27.3883 30.2943H30.9948V27.8834C30.9948 27.5637 31.1215 27.2571 31.3469 27.031C31.5724 26.8049 31.8781 26.6779 32.197 26.6779C32.5158 26.6779 32.8216 26.8049 33.0471 27.031C33.2725 27.2571 33.3992 27.5637 33.3992 27.8834ZM33.3992 17.0343V21.8561C33.3992 22.1758 33.2725 22.4824 33.0471 22.7085C32.8216 22.9346 32.5158 23.0616 32.197 23.0616C31.8781 23.0616 31.5724 22.9346 31.3469 22.7085C31.1215 22.4824 30.9948 22.1758 30.9948 21.8561V17.0343C30.9948 16.7146 31.1215 16.408 31.3469 16.1819C31.5724 15.9559 31.8781 15.8289 32.197 15.8289C32.5158 15.8289 32.8216 15.9559 33.0471 16.1819C33.2725 16.408 33.3992 16.7146 33.3992 17.0343ZM33.3992 8.59617V11.0071C33.3992 11.3268 33.2725 11.6334 33.0471 11.8595C32.8216 12.0855 32.5158 12.2125 32.197 12.2125C31.8781 12.2125 31.5724 12.0855 31.3469 11.8595C31.1215 11.6334 30.9948 11.3268 30.9948 11.0071V8.59617H28.5904C28.2716 8.59617 27.9658 8.46917 27.7404 8.2431C27.5149 8.01704 27.3883 7.71043 27.3883 7.39072C27.3883 7.07102 27.5149 6.76441 27.7404 6.53834C27.9658 6.31227 28.2716 6.18527 28.5904 6.18527H30.9948C31.6325 6.18527 32.244 6.43928 32.6949 6.89141C33.1459 7.34354 33.3992 7.95676 33.3992 8.59617ZM23.7817 7.39072C23.7817 7.71043 23.655 8.01704 23.4296 8.2431C23.2041 8.46917 22.8984 8.59617 22.5795 8.59617H17.7708C17.4519 8.59617 17.1462 8.46917 16.9207 8.2431C16.6952 8.01704 16.5686 7.71043 16.5686 7.39072C16.5686 7.07102 16.6952 6.76441 16.9207 6.53834C17.1462 6.31227 17.4519 6.18527 17.7708 6.18527H22.5795C22.8984 6.18527 23.2041 6.31227 23.4296 6.53834C23.655 6.76441 23.7817 7.07102 23.7817 7.39072ZM6.95111 12.2125V8.59617C6.95111 7.95676 7.20443 7.34354 7.65533 6.89141C8.10624 6.43928 8.7178 6.18527 9.35548 6.18527H11.7598C12.0787 6.18527 12.3845 6.31227 12.6099 6.53834C12.8354 6.76441 12.962 7.07102 12.962 7.39072C12.962 7.71043 12.8354 8.01704 12.6099 8.2431C12.3845 8.46917 12.0787 8.59617 11.7598 8.59617H9.35548V12.2125C9.35548 12.5322 9.22882 12.8388 9.00337 13.0649C8.77791 13.291 8.47213 13.418 8.1533 13.418C7.83446 13.418 7.52868 13.291 7.30322 13.0649C7.07777 12.8388 6.95111 12.5322 6.95111 12.2125Z" fill="#032B3A"/>
</svg>
