<svg width="36" height="37" viewBox="0 0 36 37" fill="none" xmlns="http://www.w3.org/2000/svg">
<path d="M33.6737 29.4189H31.4289V13.6631C31.4289 13.0661 31.1924 12.4936 30.7715 12.0715C30.3505 11.6494 29.7795 11.4123 29.1842 11.4123H20.2053V4.65976C20.2055 4.25216 20.0954 3.85215 19.8867 3.50241C19.6779 3.15266 19.3784 2.86632 19.02 2.67395C18.6616 2.48157 18.2579 2.39037 17.8519 2.4101C17.4459 2.42982 17.0528 2.55972 16.7147 2.78594L5.49101 10.2868C5.18312 10.4928 4.9308 10.7719 4.75651 11.0994C4.58223 11.4268 4.4914 11.7923 4.4921 12.1635V29.4189H2.24737C1.9497 29.4189 1.66422 29.5375 1.45373 29.7485C1.24325 29.9596 1.125 30.2459 1.125 30.5443C1.125 30.8428 1.24325 31.1291 1.45373 31.3401C1.66422 31.5512 1.9497 31.6698 2.24737 31.6698H33.6737C33.9713 31.6698 34.2568 31.5512 34.4673 31.3401C34.6778 31.1291 34.796 30.8428 34.796 30.5443C34.796 30.2459 34.6778 29.9596 34.4673 29.7485C34.2568 29.5375 33.9713 29.4189 33.6737 29.4189ZM29.1842 13.6631V29.4189H20.2053V13.6631H29.1842ZM6.73684 12.1635L17.9605 4.65976V29.4189H6.73684V12.1635ZM15.7158 15.9139V18.1648C15.7158 18.4632 15.5975 18.7495 15.387 18.9605C15.1766 19.1716 14.8911 19.2902 14.5934 19.2902C14.2957 19.2902 14.0103 19.1716 13.7998 18.9605C13.5893 18.7495 13.471 18.4632 13.471 18.1648V15.9139C13.471 15.6154 13.5893 15.3292 13.7998 15.1181C14.0103 14.9071 14.2957 14.7885 14.5934 14.7885C14.8911 14.7885 15.1766 14.9071 15.387 15.1181C15.5975 15.3292 15.7158 15.6154 15.7158 15.9139ZM11.2263 15.9139V18.1648C11.2263 18.4632 11.1081 18.7495 10.8976 18.9605C10.6871 19.1716 10.4016 19.2902 10.1039 19.2902C9.80627 19.2902 9.52079 19.1716 9.31031 18.9605C9.09982 18.7495 8.98158 18.4632 8.98158 18.1648V15.9139C8.98158 15.6154 9.09982 15.3292 9.31031 15.1181C9.52079 14.9071 9.80627 14.7885 10.1039 14.7885C10.4016 14.7885 10.6871 14.9071 10.8976 15.1181C11.1081 15.3292 11.2263 15.6154 11.2263 15.9139ZM11.2263 23.7918V26.0427C11.2263 26.3412 11.1081 26.6274 10.8976 26.8385C10.6871 27.0495 10.4016 27.1681 10.1039 27.1681C9.80627 27.1681 9.52079 27.0495 9.31031 26.8385C9.09982 26.6274 8.98158 26.3412 8.98158 26.0427V23.7918C8.98158 23.4934 9.09982 23.2071 9.31031 22.996C9.52079 22.785 9.80627 22.6664 10.1039 22.6664C10.4016 22.6664 10.6871 22.785 10.8976 22.996C11.1081 23.2071 11.2263 23.4934 11.2263 23.7918ZM15.7158 23.7918V26.0427C15.7158 26.3412 15.5975 26.6274 15.387 26.8385C15.1766 27.0495 14.8911 27.1681 14.5934 27.1681C14.2957 27.1681 14.0103 27.0495 13.7998 26.8385C13.5893 26.6274 13.471 26.3412 13.471 26.0427V23.7918C13.471 23.4934 13.5893 23.2071 13.7998 22.996C14.0103 22.785 14.2957 22.6664 14.5934 22.6664C14.8911 22.6664 15.1766 22.785 15.387 22.996C15.5975 23.2071 15.7158 23.4934 15.7158 23.7918Z" fill="#032B3A"/>
</svg>
