<svg width="40" height="39" viewBox="0 0 40 39" fill="none" xmlns="http://www.w3.org/2000/svg">
<g clip-path="url(#clip0_69_1647)">
<path d="M33.2896 6.77094V16.1868C33.0909 16.6202 32.746 16.7543 32.2815 16.7448C31.2063 16.7232 30.1287 16.7376 29.0535 16.7376H28.7972V21.3449H29.0798C30.1478 21.3449 31.2159 21.3593 32.2839 21.3378C32.7484 21.3282 33.0933 21.4623 33.292 21.8957V31.3116C33.0933 31.745 32.7484 31.8719 32.2839 31.8695C29.4055 31.8552 26.5271 31.8623 23.6487 31.8623C23.0644 31.8623 22.777 31.5702 22.777 30.9835C22.777 29.8652 22.777 28.7469 22.777 27.6286V27.3675H18.1697V27.6477C18.1697 28.766 18.1697 29.8843 18.1697 31.0027C18.1697 31.5678 17.8727 31.8623 17.3028 31.8623C14.3741 31.8623 11.4454 31.8623 8.51673 31.8623C7.94919 31.8623 7.65464 31.5678 7.65464 30.9979C7.65464 28.0692 7.65464 25.1405 7.65464 22.2118C7.65464 21.6395 7.94679 21.3449 8.51433 21.3449C9.63983 21.3449 10.7677 21.3449 11.8932 21.3449C11.9794 21.3449 12.068 21.3449 12.1471 21.3449V16.7376H11.8621C10.7605 16.7376 9.65899 16.7376 8.55744 16.7376C7.93482 16.7376 7.65225 16.4574 7.65225 15.8396C7.64985 12.9684 7.65704 10.0995 7.64267 7.22833C7.64267 6.76376 7.76719 6.41893 8.20063 6.22017H17.6165C18.0499 6.41893 18.184 6.76376 18.1744 7.22833C18.1529 8.30354 18.1673 9.38114 18.1673 10.4563V10.7126H22.7746V10.43C22.7746 9.36198 22.789 8.29396 22.7674 7.22593C22.7579 6.75897 22.892 6.41653 23.3254 6.21777H32.7413C32.9879 6.33751 33.1723 6.5195 33.292 6.76855L33.2896 6.77094ZM13.6773 16.7376V21.3449C14.8794 21.3449 16.0623 21.3449 17.2477 21.3449C17.8895 21.3449 18.1673 21.6203 18.1673 22.2525C18.1673 23.3613 18.1673 24.4724 18.1673 25.5811V25.8373H22.7746V25.5548C22.7746 24.47 22.7746 23.3852 22.7746 22.3004C22.7746 21.606 23.0332 21.3425 23.7181 21.3425C24.8101 21.3425 25.9045 21.3425 26.9964 21.3425H27.2622V16.7352C26.0769 16.7352 24.9107 16.7352 23.7421 16.7352C23.0309 16.7352 22.7722 16.479 22.7722 15.7773C22.7722 14.6853 22.7722 13.591 22.7722 12.499V12.2428H18.1649C18.1649 12.3386 18.1649 12.42 18.1649 12.5014C18.1649 13.3012 18.1529 14.1034 18.1649 14.9033C18.196 16.74 18.1721 16.7687 16.3425 16.74C15.4589 16.7256 14.5753 16.7376 13.6749 16.7376H13.6773ZM9.16329 7.73121V15.2194H16.6466V7.73121H9.16329ZM9.17047 22.856V30.3369H16.6514V22.856H9.17047ZM31.7714 30.3465V22.8656H24.2904V30.3465H31.7714ZM30.6531 7.72163C30.0472 7.72163 29.4462 7.72881 28.8475 7.71684C28.6751 7.71445 28.5554 7.76234 28.4332 7.88447C27.2598 9.06744 26.0984 10.2672 24.8891 11.4118C24.4293 11.8477 24.1851 12.2835 24.2689 12.9229C24.3192 13.3108 24.2785 13.7107 24.2785 14.0963C26.4097 11.9674 28.5266 9.8481 30.6555 7.71923L30.6531 7.72163ZM25.3968 15.2337C26.0553 15.2337 26.6971 15.2385 27.3389 15.2289C27.4227 15.2289 27.5257 15.1667 27.5879 15.102C28.9481 13.749 30.3059 12.3912 31.6589 11.0287C31.7307 10.9568 31.7786 10.8299 31.781 10.7269C31.793 10.2265 31.7858 9.72597 31.7858 9.22549V8.84473C29.6473 10.9832 27.5304 13.0977 25.3944 15.2337H25.3968ZM26.3978 7.74079H24.2976V9.84092C24.9969 9.14167 25.6961 8.44003 26.3978 7.74079ZM31.7786 13.1623C31.0937 13.8424 30.3897 14.5417 29.712 15.217H31.7786V13.1623Z" fill="#032B3A"/>
</g>
<defs>
<clipPath id="clip0_69_1647">
<rect width="25.647" height="25.647" fill="white" transform="translate(7.64267 6.21973)"/>
</clipPath>
</defs>
</svg>
