<svg width="61" height="61" viewBox="0 0 61 61" fill="none" xmlns="http://www.w3.org/2000/svg">
<path fill-rule="evenodd" clip-rule="evenodd" d="M57.1705 58.3608H3.81211C3.15431 58.3608 2.62109 57.8275 2.62109 57.1697V53.0652C2.62109 52.4074 3.15431 51.8742 3.81211 51.8742H4.57518V13.2112H3.81211C3.15431 13.2112 2.62109 12.678 2.62109 12.0202V7.91573C2.62109 7.25794 3.15431 6.72469 3.81211 6.72469H13.877C14.5348 6.72469 15.0681 7.25794 15.0681 7.91573V12.0202C15.0681 12.678 14.5348 13.2112 13.877 13.2112H13.114V17.7523L29.6973 2.92339C29.9157 2.72818 30.1984 2.62027 30.4913 2.62027C30.7842 2.62027 31.0668 2.72818 31.2852 2.92339L47.8686 17.7523V13.2112H47.1055C46.4477 13.2112 45.9145 12.678 45.9145 12.0202V7.91573C45.9145 7.25794 46.4477 6.72469 47.1055 6.72469H57.1704C57.8282 6.72469 58.3615 7.25794 58.3615 7.91573V12.0202C58.3615 12.678 57.8282 13.2112 57.1704 13.2112H56.4074V51.8742H57.1704C57.8282 51.8742 58.3615 52.4074 58.3615 53.0652V57.1697C58.3615 57.8275 57.8282 58.3608 57.1704 58.3608H57.1705ZM38.4805 43.6652V29.6293H31.6824V43.6652H38.4805ZM47.8687 43.6652V29.6293H40.8626V43.6652H47.8687ZM40.8626 46.0473V55.9787H45.9146V53.0652C45.9146 52.4074 46.4478 51.8742 47.1056 51.8742H47.8687V46.0473H40.8626ZM31.6824 46.0473V55.9787H38.4805V46.0473H31.6824ZM20.1201 43.6652V29.6293H13.1141V43.6652H20.1201ZM20.1201 27.2473V14.6832L13.1141 20.948V27.2473H20.1201ZM12.6861 55.9787V54.2563H5.00324V55.9787H12.6861ZM47.8686 27.2473V20.948L40.8625 14.6832V27.2473H47.8686ZM38.4804 27.2473V12.5531L31.6823 6.47417V27.2473H38.4804ZM11.9229 10.8293H12.686V9.10692H5.00312V10.8293H11.9229ZM54.0252 51.8743V13.2113L50.2505 13.2113V51.874H54.0252V51.8743ZM55.2162 10.8293H55.9793V9.10692H48.2965V10.8293H55.2162ZM29.3001 6.47417L22.502 12.5531V27.2473H29.3001V6.47417ZM10.7318 51.8743V13.2113L6.95712 13.2114V51.874H10.7318V51.8743ZM13.1139 46.0474V51.8743H13.8769C14.5347 51.8743 15.068 52.4075 15.068 53.0653V55.9788H20.1199V46.0474H13.1139ZM29.3001 46.0474H22.502V55.9788H29.3001V46.0474ZM48.2965 55.9788H55.9793V54.2564H48.2965V55.9788ZM29.3001 29.6294H22.502V43.6653H29.3001V29.6294Z" fill="#EF5000"/>
</svg>
