<svg width="82" height="83" viewBox="0 0 82 83" fill="none" xmlns="http://www.w3.org/2000/svg">
<path d="M0.541016 28.2269V21.2088C1.17086 19.9009 2.16461 19.2539 3.64825 19.3805C3.95617 19.4086 4.30608 19.2117 4.60001 19.057C16.0352 13.1641 27.4843 7.29925 38.8775 1.35006C40.5431 0.47807 41.9288 0.506199 43.5663 1.37819C54.5676 7.18674 65.5969 12.925 76.6122 18.7054C77.4519 19.1414 78.2637 19.4227 79.2435 19.3946C80.8531 19.3524 81.8609 20.4072 81.8748 22.0246C81.8748 23.7545 81.8748 25.4844 81.8748 27.2143C81.8748 29.0708 80.8951 30.0553 79.0196 30.0694C78.3757 30.0694 77.7179 30.0694 77.0181 30.0694C77.0181 30.6741 77.0181 31.1523 77.0181 31.6305C77.0181 32.1368 77.0181 32.6431 77.0181 33.1494C76.9621 34.6402 75.9963 35.6248 74.5127 35.6951C74.3027 35.6951 74.1068 35.7232 73.8828 35.7373V65.9474C75.9123 66.2287 76.6262 67.0585 76.6262 69.0837C76.6262 69.8151 76.6262 70.5464 76.6262 71.3199C77.5639 71.3199 78.3897 71.3199 79.2015 71.3199C80.8391 71.3481 81.8608 72.3748 81.8608 74.0343C81.8608 75.7643 81.8608 77.4942 81.8608 79.2241C81.8608 81.0384 80.8671 82.0088 79.0476 82.0088C73.8129 82.0088 68.5641 82.0088 63.3294 82.0088C63.1475 82.0088 62.9515 82.0088 62.7696 82.0088C62.1257 81.9244 61.7618 81.5165 61.7198 80.8977C61.6779 80.2648 62.0278 79.8288 62.6296 79.6741C62.8816 79.6038 63.1615 79.6319 63.4134 79.6319C68.4382 79.6319 73.4769 79.6319 78.5017 79.6319H79.3975V73.8093H2.97641V79.6319H4.04015C21.5918 79.6319 39.1434 79.6319 56.6951 79.6319C57.9128 79.6319 58.4866 79.9976 58.5146 80.8133C58.5426 81.6431 57.9408 82.0369 56.6811 82.0369C39.0035 82.0369 21.3119 82.0369 3.63425 82.051C2.10863 82.051 1.08688 81.5306 0.541016 80.1101V73.2467C1.43679 70.898 3.49428 71.3762 5.39781 71.334C5.39781 70.5042 5.39781 69.7447 5.39781 68.9712C5.39781 66.6225 6.09764 65.863 8.39307 65.7083C8.43506 65.7083 8.47705 65.6661 8.56103 65.6239V35.7795C5.90169 35.4419 5.39781 34.8512 5.39781 32.179C5.39781 31.5039 5.39781 30.8148 5.39781 30.0694C3.46629 30.0694 1.46479 30.4632 0.541016 28.2129L0.541016 28.2269ZM72.3152 19.3946C72.3152 19.3946 72.3432 19.2961 72.3432 19.2539C72.2032 19.1555 72.0633 19.057 71.9233 18.9726C61.9158 13.7266 51.8943 8.49472 41.9008 3.24874C41.3549 2.96745 40.935 3.03777 40.4311 3.30499C30.3256 8.52285 20.2061 13.7407 10.1006 18.9586C9.93269 19.0429 9.77873 19.1555 9.61077 19.268C11.2204 19.4086 12.802 19.4086 14.3836 19.4086C15.3913 19.4086 16.3991 19.3946 17.4068 19.4227C18.0787 19.4508 18.4846 19.8587 18.5126 20.5478C18.5406 21.237 18.1626 21.6448 17.5048 21.7714C17.2529 21.8277 16.9729 21.7995 16.707 21.7995C12.4381 21.7995 8.18312 21.7995 3.91418 21.7995C3.60626 21.7995 3.29833 21.7995 2.99041 21.7995V27.58H79.4395V21.7995H78.3757C60.1662 21.7995 41.9567 21.7995 23.7333 21.7995C23.4113 21.7995 23.0894 21.8277 22.7815 21.7714C22.1237 21.6589 21.7458 21.251 21.7178 20.576C21.6898 19.9431 22.1797 19.4649 22.8795 19.3946C23.1734 19.3664 23.4673 19.3946 23.7473 19.3946C39.6333 19.3946 55.5194 19.3946 71.3914 19.3946H72.3012H72.3152ZM27.8762 71.2918C27.8762 70.898 27.8762 70.5745 27.8762 70.2651C27.8762 63.0783 27.8482 55.8914 27.8762 48.7186C27.9322 39.9566 35.9942 33.6557 44.4481 35.7373C50.3267 37.1859 54.4836 42.5444 54.5116 48.7889C54.5396 55.9758 54.5116 63.1626 54.5116 70.3354C54.5116 70.6449 54.5116 70.9543 54.5116 71.3059H59.7603C59.7603 71.0527 59.7883 70.8558 59.7883 70.6449C59.7883 70.026 59.7883 69.4213 59.7883 68.8024C59.8023 67.1006 60.5161 66.3552 62.5456 65.9333V35.7513C60.1242 35.7513 59.2285 34.4152 59.3964 32.3759C59.4524 31.6446 59.3964 30.8991 59.3964 30.1537H22.9775C22.9775 30.7304 22.9775 31.2367 22.9775 31.7289C22.9775 32.2353 22.9775 32.7416 22.9775 33.2479C22.9215 34.5981 21.9697 35.5966 20.626 35.6951C20.3741 35.7091 20.1082 35.7232 19.8422 35.7373V65.6661C22.3896 65.8911 22.9775 66.5521 22.9775 69.1118C22.9775 69.8291 22.9775 70.5323 22.9775 71.2918H27.8762ZM52.0622 71.2918C52.0902 71.1652 52.1322 71.0808 52.1322 71.0105C52.1322 63.458 52.2582 55.8914 52.0902 48.3389C51.9363 41.5599 45.8058 36.7218 39.2694 37.9172C33.9787 38.8877 30.2976 43.3742 30.2836 48.9014C30.2696 56.0883 30.2836 63.2752 30.2836 70.448C30.2836 70.7011 30.2836 70.9683 30.2836 71.2777H52.0622V71.2918ZM65.065 35.7373V65.9755H71.3495V35.7373H65.065ZM11.0384 65.6661H17.3369V35.7513H11.0384V65.6661ZM7.8612 30.1256V33.2619H20.5281V30.1256H7.8612ZM74.5687 30.1256H61.9018V33.2338H74.5687V30.1256ZM20.5141 71.3199V68.1836H7.8612V71.3199H20.5141ZM62.2517 68.493V71.2918H74.1628V68.493H62.2517Z" fill="#EF5000"/>
</svg>
