<svg width="18" height="18" viewBox="0 0 18 18" fill="none" xmlns="http://www.w3.org/2000/svg">
<g clip-path="url(#clip0_69_1513)">
<path d="M8.57568 1.5416C10.8487 1.5416 11.1183 1.55012 12.0157 1.59126C12.9437 1.63383 13.8993 1.84524 14.5753 2.52133C15.2578 3.2038 15.4628 4.15019 15.5054 5.08096C15.5466 5.97839 15.5551 6.24798 15.5551 8.521C15.5551 10.794 15.5466 11.0636 15.5054 11.961C15.4636 12.884 15.2472 13.8488 14.5753 14.5207C13.8929 15.2031 12.9472 15.4082 12.0157 15.4507C11.1183 15.4919 10.8487 15.5004 8.57568 15.5004C6.30266 15.5004 6.03308 15.4919 5.13565 15.4507C4.21977 15.4089 3.24217 15.1875 2.57602 14.5207C1.89709 13.8417 1.68852 12.8861 1.64595 11.961C1.60481 11.0636 1.59629 10.794 1.59629 8.521C1.59629 6.24798 1.60481 5.97839 1.64595 5.08096C1.68781 4.16154 1.90631 3.19103 2.57602 2.52133C3.25707 1.84028 4.207 1.63383 5.13565 1.59126C6.03308 1.55012 6.30266 1.5416 8.57568 1.5416ZM8.57568 0.0078125C6.26364 0.0078125 5.97349 0.0177445 5.06541 0.0588916C3.74942 0.119193 2.44264 0.48526 1.4913 1.43661C0.536401 2.3915 0.173881 3.69544 0.113579 5.01073C0.072432 5.9188 0.0625 6.20896 0.0625 8.521C0.0625 10.833 0.072432 11.1232 0.113579 12.0313C0.173881 13.3458 0.541367 14.6562 1.4913 15.6054C2.44548 16.5596 3.75155 16.9228 5.06541 16.9831C5.97349 17.0242 6.26364 17.0342 8.57568 17.0342C10.8877 17.0342 11.1779 17.0242 12.086 16.9831C13.4012 16.9228 14.7094 16.556 15.6601 15.6054C16.6157 14.6498 16.9775 13.3466 17.0378 12.0313C17.0789 11.1232 17.0889 10.833 17.0889 8.521C17.0889 6.20896 17.0789 5.9188 17.0378 5.01073C16.9775 3.69473 16.6107 2.38725 15.6601 1.43661C14.7073 0.483841 13.3977 0.118484 12.086 0.0588916C11.1779 0.0177445 10.8877 0.0078125 8.57568 0.0078125Z" fill="white"/>
<path d="M8.5766 4.15039C6.1624 4.15039 4.20508 6.10771 4.20508 8.52191C4.20508 10.9361 6.1624 12.8934 8.5766 12.8934C10.9908 12.8934 12.9481 10.9361 12.9481 8.52191C12.9481 6.10771 10.9908 4.15039 8.5766 4.15039ZM8.5766 11.3596C7.00946 11.3596 5.73887 10.089 5.73887 8.52191C5.73887 6.95478 7.00946 5.68418 8.5766 5.68418C10.1437 5.68418 11.4143 6.95478 11.4143 8.52191C11.4143 10.089 10.1437 11.3596 8.5766 11.3596Z" fill="white"/>
<path d="M13.1213 4.99848C13.6856 4.99848 14.143 4.54105 14.143 3.97678C14.143 3.41251 13.6856 2.95508 13.1213 2.95508C12.557 2.95508 12.0996 3.41251 12.0996 3.97678C12.0996 4.54105 12.557 4.99848 13.1213 4.99848Z" fill="white"/>
</g>
<defs>
<clipPath id="clip0_69_1513">
<rect width="17.0264" height="17.0264" fill="white" transform="translate(0.0625 0.0078125)"/>
</clipPath>
</defs>
</svg>
