<svg width="67" height="67" viewBox="0 0 67 67" fill="none" xmlns="http://www.w3.org/2000/svg">
<g clip-path="url(#clip0_141_2966)">
<path d="M26.4046 3.20846C26.541 3.20708 26.541 3.20708 26.6801 3.20567C26.9839 3.20338 27.2875 3.20574 27.5914 3.20808C27.8095 3.20742 28.0276 3.20647 28.2457 3.20527C28.8376 3.20286 29.4294 3.20454 30.0213 3.2071C30.6407 3.20923 31.2601 3.20808 31.8796 3.20742C32.9198 3.20683 33.96 3.2089 35.0003 3.21253C36.2029 3.2167 37.4054 3.2167 38.6081 3.21445C39.765 3.21239 40.9219 3.21326 42.0788 3.21548C42.5712 3.21638 43.0635 3.21624 43.5558 3.21528C44.1356 3.21429 44.7153 3.21586 45.2951 3.21942C45.5079 3.22032 45.7207 3.22033 45.9334 3.2194C46.2239 3.21827 46.5142 3.22034 46.8047 3.22323C47.0485 3.22377 47.0485 3.22377 47.2973 3.22433C47.7994 3.30202 48.0163 3.45495 48.3729 3.81029C48.4592 4.07036 48.4592 4.07036 48.4542 4.33043C48.4558 4.41626 48.4575 4.50208 48.4592 4.5905C48.3246 4.99613 48.0722 5.13638 47.7227 5.37072C47.3442 5.43675 47.3442 5.43675 46.9188 5.4382C46.7571 5.44001 46.5954 5.44182 46.4287 5.44369C46.2506 5.44307 46.0724 5.44241 45.8942 5.4417C45.7058 5.44284 45.5173 5.4442 45.3289 5.44578C44.8182 5.4494 44.3076 5.44984 43.7969 5.44971C43.2629 5.45012 42.7289 5.45345 42.1949 5.45647C41.184 5.46175 40.1732 5.46439 39.1623 5.46609C38.0113 5.46816 36.8604 5.47315 35.7094 5.47839C33.3421 5.48911 30.9748 5.49614 28.6075 5.50075C29.1469 6.20537 29.6511 6.82407 30.5293 7.06717C31.1075 7.13459 31.6854 7.12481 32.2665 7.11623C32.4886 7.11817 32.7107 7.12072 32.9328 7.12382C33.5323 7.13031 34.1315 7.12783 34.731 7.12328C35.3605 7.11964 35.9899 7.12302 36.6194 7.12526C37.6762 7.12786 38.7329 7.12445 39.7897 7.11762C41.0088 7.10984 42.2276 7.11236 43.4467 7.12024C44.4963 7.12674 45.5459 7.12764 46.5955 7.1239C47.2211 7.12168 47.8466 7.12135 48.4722 7.1261C49.0607 7.13025 49.6488 7.12732 50.2372 7.1191C50.4521 7.11722 50.6671 7.11773 50.8821 7.1209C51.8801 7.13428 52.6938 7.12156 53.4562 6.40654C53.7317 6.117 53.9815 5.81821 54.2245 5.50075C54.1149 5.4993 54.0052 5.49784 53.8923 5.49634C53.4503 5.48981 53.0085 5.47897 52.5665 5.46824C52.3312 5.46548 52.3312 5.46548 52.0911 5.46266C51.8648 5.45637 51.8648 5.45637 51.6339 5.44996C51.4256 5.44587 51.4256 5.44587 51.213 5.4417C50.7598 5.35462 50.6065 5.20794 50.3234 4.85058C50.1813 4.45461 50.1775 4.25716 50.2909 3.85093C50.4535 3.55022 50.4535 3.55022 50.8436 3.29015C51.1329 3.2545 51.1329 3.2545 51.4744 3.25031C51.6024 3.24823 51.7305 3.24615 51.8624 3.24401C52.0005 3.24331 52.1387 3.24261 52.2811 3.2419C52.4944 3.24013 52.4944 3.24013 52.712 3.23834C53.0131 3.23645 53.3141 3.2353 53.6151 3.23482C54.0755 3.23327 54.5357 3.22687 54.9961 3.22031C55.2885 3.21908 55.5809 3.21814 55.8733 3.21751C56.0109 3.21497 56.1486 3.21243 56.2904 3.20982C56.4192 3.21061 56.5481 3.2114 56.6809 3.21221C56.8502 3.21122 56.8502 3.21122 57.0229 3.21021C57.5017 3.32891 57.6869 3.56087 57.9955 3.94033C58.0595 4.29383 58.0832 4.56594 58.0772 4.91842C58.0781 5.01578 58.079 5.11315 58.08 5.21346C58.0823 5.53915 58.0799 5.86464 58.0776 6.19033C58.0782 6.42403 58.0792 6.65772 58.0804 6.89142C58.0828 7.52574 58.0811 8.16 58.0786 8.79432C58.0764 9.4579 58.0776 10.1215 58.0782 10.7851C58.0788 11.8993 58.0768 13.0135 58.0731 14.1278C58.069 15.4165 58.069 16.7052 58.0712 17.9939C58.0733 19.2332 58.0724 20.4725 58.0702 21.7117C58.0693 22.2394 58.0694 22.767 58.0704 23.2947C58.0714 23.9158 58.0698 24.5368 58.0662 25.1579C58.0653 25.386 58.0653 25.6142 58.0663 25.8423C58.0674 26.1533 58.0653 26.4642 58.0624 26.7752C58.0635 26.8659 58.0646 26.9565 58.0657 27.0499C58.0583 27.481 58.0216 27.7028 57.7556 28.0488C57.3557 28.3458 57.034 28.4032 56.55 28.4041C56.3858 28.4048 56.3858 28.4048 56.2183 28.4056C56.0981 28.4055 55.9778 28.4054 55.8539 28.4052C55.6622 28.4058 55.6622 28.4058 55.4667 28.4064C55.0367 28.4075 54.6066 28.4077 54.1766 28.4079C53.869 28.4085 53.5615 28.4092 53.254 28.4099C52.4171 28.4116 51.5801 28.4124 50.7432 28.413C50.2207 28.4134 49.6982 28.4139 49.1756 28.4145C47.7289 28.4161 46.2822 28.4174 44.8355 28.4179C44.6966 28.4179 44.6966 28.4179 44.5549 28.418C44.4157 28.418 44.4157 28.418 44.2737 28.418C44.0856 28.4181 43.8975 28.4182 43.7094 28.4182C43.6161 28.4183 43.5228 28.4183 43.4267 28.4183C41.9149 28.4188 40.4032 28.4211 38.8914 28.4241C37.3394 28.4272 35.7874 28.4288 34.2354 28.429C33.3639 28.4291 32.4925 28.4299 31.6211 28.4322C30.8015 28.4343 29.9819 28.4346 29.1623 28.4335C28.8613 28.4334 28.5603 28.434 28.2593 28.4352C27.8487 28.4369 27.4382 28.4361 27.0277 28.4348C26.8486 28.4363 26.8486 28.4363 26.6659 28.4379C26.0036 28.4328 25.538 28.371 24.9665 27.9969C24.775 27.6139 24.8168 27.2264 24.8165 26.8065C24.8156 26.6611 24.8156 26.6611 24.8147 26.5128C24.813 26.1862 24.8122 25.8597 24.8114 25.5332C24.8104 25.2997 24.8093 25.0663 24.8082 24.8329C24.8048 24.0648 24.8028 23.2968 24.8009 22.5288C24.8002 22.2647 24.7995 22.0005 24.7988 21.7364C24.796 20.638 24.7936 19.5395 24.7921 18.4411C24.79 16.8655 24.7857 15.2899 24.7783 13.7143C24.7733 12.6072 24.7707 11.5001 24.77 10.393C24.7695 9.73133 24.768 9.06975 24.7638 8.40813C24.7599 7.78576 24.759 7.16347 24.7606 6.54109C24.7606 6.31259 24.7595 6.08408 24.7572 5.85559C24.7543 5.5437 24.7554 5.23207 24.7574 4.92017C24.7547 4.78439 24.7547 4.78439 24.752 4.64587C24.7597 4.17425 24.8326 3.94583 25.1091 3.5591C25.5774 3.22552 25.8328 3.20873 26.4046 3.20846ZM26.9171 6.93114C26.9171 12.7671 26.9171 18.6031 26.9171 24.616C27.2174 24.3585 27.5178 24.101 27.8273 23.8357C27.9725 23.7198 28.1176 23.6039 28.2672 23.4844C28.7769 22.96 28.7227 22.3505 28.7208 21.6548C28.7248 21.4453 28.7248 21.4453 28.7288 21.2316C28.7362 20.7704 28.7377 20.3095 28.7386 19.8483C28.7411 19.5267 28.7437 19.205 28.7464 18.8833C28.7511 18.2088 28.7525 17.5345 28.7521 16.86C28.752 15.9985 28.7626 15.1374 28.7761 14.276C28.7848 13.6113 28.7864 12.9468 28.7859 12.282C28.7869 11.9646 28.7903 11.6472 28.7963 11.3299C28.8915 9.37964 28.8915 9.37964 28.043 7.7095C27.5391 7.19084 27.5391 7.19084 26.9171 6.93114ZM54.7908 7.71138C53.7828 8.81871 54.001 10.3706 54.0172 11.775C54.0162 12.0955 54.0147 12.4161 54.0127 12.7366C54.0104 13.4065 54.0137 14.0761 54.0211 14.746C54.0299 15.6014 54.0248 16.4561 54.0155 17.3115C54.0098 17.9729 54.0116 18.6341 54.0157 19.2955C54.0167 19.6107 54.0155 19.9259 54.0118 20.2411C53.937 22.1793 53.937 22.1793 54.7908 23.8357C55.2939 24.3551 55.2939 24.3551 55.9149 24.616C55.9149 18.78 55.9149 12.944 55.9149 6.93114C55.5215 6.93114 55.0663 7.45282 54.7908 7.71138ZM30.6881 9.14174C30.6881 12.2743 30.6881 15.4068 30.6881 18.6343C31.2629 18.1751 31.2629 18.1751 31.7446 17.6591C31.8216 17.5699 31.8985 17.4807 31.9778 17.3888C32.1228 17.2201 32.2678 17.0513 32.4124 16.8822C33.9412 15.1056 33.9412 15.1056 35.0112 14.9512C35.9475 14.9054 36.6804 15.2159 37.3834 15.8396C37.6805 16.1329 37.9511 16.4461 38.222 16.7635C38.5511 17.1444 38.8896 17.5158 39.2298 17.8866C39.2901 17.9526 39.3504 18.0186 39.4125 18.0865C39.7471 18.4512 40.0879 18.8074 40.4407 19.1545C40.986 18.6241 41.5025 18.0791 41.9991 17.5031C42.3191 17.1379 42.6474 16.7807 42.9764 16.4237C43.3742 15.9918 43.7698 15.5586 44.1549 15.1152C44.2597 14.9956 44.2597 14.9956 44.3667 14.8735C44.5507 14.6621 44.7328 14.4491 44.9143 14.2355C46.1147 12.8563 46.1147 12.8563 47.1787 12.7441C48.2067 12.6978 48.8991 12.8534 49.6758 13.5325C50.4156 14.2511 51.0844 15.0413 51.7376 15.8386C51.8287 15.9458 51.9199 16.0531 52.0139 16.1637C52.0568 16.1637 52.0997 16.1637 52.1439 16.1637C52.1439 13.8464 52.1439 11.5292 52.1439 9.14174C45.0635 9.14174 37.9831 9.14174 30.6881 9.14174ZM46.3005 15.6435C46.2198 15.7336 46.1391 15.8236 46.056 15.9164C45.8292 16.1704 45.6052 16.4266 45.3821 16.6838C45.2929 16.7849 45.2037 16.886 45.1118 16.9901C44.9744 17.1465 44.8378 17.3036 44.7019 17.4615C44.3927 17.8144 44.0745 18.1591 43.7566 18.5043C43.1318 19.1842 43.1318 19.1842 42.5132 19.8697C42.4103 19.9843 42.4103 19.9843 42.3054 20.1013C42.1213 20.3375 42.0013 20.5761 41.8711 20.8449C42.2436 21.583 42.6774 22.1612 43.4315 22.5354C44.7806 22.8164 46.2083 22.7027 47.5774 22.6515C48.0925 22.634 48.6078 22.6264 49.1231 22.6179C50.1304 22.5999 51.1371 22.5712 52.1439 22.5354C52.1689 22.0169 52.1839 21.4985 52.1973 20.9795C52.2044 20.8338 52.2116 20.6881 52.2189 20.538C52.2365 19.6249 52.1348 19.0925 51.5249 18.3994C51.2076 18.0902 50.8808 17.797 50.5389 17.5154C50.2775 17.2953 50.0607 17.0532 49.8439 16.7895C49.7779 16.7139 49.7118 16.6383 49.6438 16.5604C49.5117 16.4076 49.3802 16.2544 49.2502 16.0998C49.0655 15.8809 48.8779 15.6646 48.6899 15.4485C48.6026 15.3428 48.6026 15.3428 48.5135 15.235C48.2284 14.9116 48.0238 14.7443 47.6049 14.6317C46.9929 14.7862 46.7036 15.1761 46.3005 15.6435ZM34.199 17.8541C34.1296 17.9326 34.0602 18.011 33.9887 18.0918C33.842 18.2589 33.6961 18.4268 33.5509 18.5952C33.2309 18.9604 32.9026 19.3176 32.5736 19.6746C32.0817 20.2086 31.5967 20.7474 31.1224 21.297C30.9834 21.455 30.8369 21.6064 30.6881 21.7552C30.6881 22.0126 30.6881 22.2701 30.6881 22.5354C33.9494 22.5354 37.2107 22.5354 40.5708 22.5354C40.1272 22.0179 39.6865 21.5042 39.2298 20.9993C39.1297 20.8885 39.0296 20.7778 38.9265 20.6636C38.8255 20.5518 38.7244 20.44 38.6202 20.3248C38.3284 20.0007 38.0367 19.6764 37.745 19.3521C37.5419 19.1265 37.3383 18.9014 37.1345 18.6765C37.0321 18.5633 36.9296 18.4502 36.8241 18.3336C36.7321 18.2322 36.6401 18.1308 36.5453 18.0263C36.3583 17.8136 36.1785 17.5944 36.0043 17.3711C35.7797 17.0604 35.7797 17.0604 35.4588 16.9114C34.8638 16.9667 34.5756 17.4205 34.199 17.8541ZM28.4775 26.1764C28.4775 26.2193 28.4775 26.2622 28.4775 26.3064C37.0169 26.3064 45.5563 26.3064 54.3545 26.3064C54.0971 26.006 53.8396 25.7057 53.5743 25.3962C53.4237 25.1784 53.4237 25.1784 53.27 24.9563C52.6184 24.3265 51.4869 24.5009 50.6413 24.5026C50.4196 24.5003 50.1978 24.4976 49.976 24.4947C49.3744 24.4878 48.7729 24.486 48.1712 24.4855C47.7949 24.4849 47.4185 24.4832 47.0421 24.4812C45.7276 24.474 44.413 24.4708 43.0985 24.4714C41.8756 24.4718 40.653 24.4636 39.4302 24.4513C38.3785 24.4411 37.3269 24.4369 36.2752 24.4374C35.6478 24.4376 35.0207 24.4354 34.3934 24.4271C33.8026 24.4195 33.2122 24.4195 32.6214 24.4252C32.4057 24.426 32.1899 24.4242 31.9742 24.4194C30.3036 24.3851 29.4882 24.8368 28.4775 26.1764Z" fill="#EF5000"/>
<path d="M27.8603 34.214C28.0232 34.2124 28.1862 34.2108 28.354 34.2092C28.5109 34.2089 28.6678 34.2087 28.8295 34.2084C28.9712 34.2079 29.1128 34.2073 29.2588 34.2068C29.7797 34.249 30.1523 34.3669 30.5423 34.7179C30.7582 35.1618 30.6781 35.4591 30.5585 35.9288C30.4128 36.1482 30.4128 36.1482 30.1684 36.3189C29.7628 36.371 29.7628 36.371 29.2658 36.3763C29.1771 36.378 29.0884 36.3798 28.9969 36.3815C28.7129 36.3868 28.4289 36.3897 28.1448 36.3921C25.4311 36.3791 25.4311 36.3791 23.1653 37.7351C22.4642 38.6145 22.1798 39.5303 22.1697 40.6385C22.1674 40.7352 22.1651 40.8319 22.1627 40.9315C22.1557 41.2361 22.1512 41.5407 22.1469 41.8454C22.1426 42.0537 22.1381 42.262 22.1334 42.4702C22.1224 42.9771 22.1137 43.484 22.1062 43.991C22.2893 44.0188 22.2893 44.0188 22.4761 44.0471C23.6466 44.258 24.5568 45.132 25.2271 46.0716C26.3135 48.0082 25.8773 49.8279 25.8773 52.1832C36.1332 52.1832 46.389 52.1832 56.9557 52.1832C56.9557 50.7672 56.9557 49.3511 56.9557 47.8921C57.5183 46.2043 58.1115 45.074 59.6809 44.247C60.0483 44.0799 60.3202 43.991 60.7267 43.991C60.721 43.3851 60.7118 42.7793 60.6998 42.1735C60.6961 41.968 60.6934 41.7624 60.6915 41.5569C60.6775 40.0838 60.6135 38.7075 59.5519 37.5675C58.431 36.6539 57.2251 36.4283 55.8163 36.4319C55.7187 36.4316 55.6211 36.4313 55.5206 36.4311C55.1958 36.4303 54.871 36.4304 54.5462 36.4305C54.3124 36.4301 54.0787 36.4297 53.845 36.4292C53.3427 36.4281 52.8405 36.4275 52.3383 36.427C51.5444 36.4263 50.7506 36.4241 49.9567 36.4217C49.6847 36.4208 49.4127 36.42 49.1407 36.4192C49.0046 36.4188 48.8684 36.4184 48.7281 36.4179C46.8805 36.4125 45.033 36.4082 43.1854 36.4066C41.938 36.4055 40.6906 36.4026 39.4432 36.3976C38.7832 36.395 38.1233 36.3934 37.4634 36.394C36.8434 36.3946 36.2234 36.3929 35.6034 36.3892C35.3757 36.3883 35.1479 36.3883 34.9202 36.3892C34.6098 36.3904 34.2995 36.3884 33.989 36.3855C33.8986 36.3866 33.8081 36.3877 33.7149 36.3889C33.2859 36.3816 33.0609 36.3426 32.7132 36.0831C32.4146 35.6672 32.4378 35.3875 32.5091 34.8885C32.7976 34.5105 32.9667 34.3892 33.4193 34.2384C33.7272 34.2258 34.0353 34.2214 34.3434 34.221C34.4855 34.2205 34.4855 34.2205 34.6305 34.2201C34.9488 34.2193 35.2671 34.2194 35.5854 34.2195C35.8133 34.2191 36.0412 34.2186 36.2692 34.2182C36.8893 34.217 37.5095 34.2167 38.1296 34.2166C38.5175 34.2165 38.9053 34.2162 39.2932 34.2159C40.6475 34.2147 42.0018 34.2142 43.3562 34.2143C44.6162 34.2143 45.8762 34.213 47.1363 34.2109C48.2193 34.2092 49.3024 34.2085 50.3854 34.2086C51.0317 34.2086 51.6779 34.2083 52.3241 34.2069C52.9331 34.2056 53.5421 34.2056 54.1511 34.2066C54.3735 34.2067 54.596 34.2064 54.8183 34.2056C57.2065 34.1977 59.3021 34.3419 61.1169 36.0589C62.2947 37.31 62.8316 38.695 62.82 40.3973C62.8197 40.5517 62.8197 40.5517 62.8195 40.7093C62.8187 41.0366 62.8171 41.3638 62.8154 41.691C62.8148 41.9136 62.8142 42.1362 62.8137 42.3587C62.8122 42.9028 62.81 43.4469 62.8073 43.991C62.95 44.0091 63.0926 44.0273 63.2396 44.0459C64.306 44.2135 65.0964 44.8953 65.7331 45.7384C66.4944 46.8206 66.6362 47.7537 66.6309 49.0442C66.6322 49.2715 66.6322 49.2715 66.6336 49.5034C66.636 50.0018 66.6355 50.5002 66.6347 50.9987C66.6352 51.2581 66.6356 51.5174 66.6362 51.7768C66.638 52.5908 66.6378 53.4047 66.6363 54.2187C66.6348 55.0579 66.6367 55.897 66.6402 56.7361C66.643 57.4579 66.6439 58.1797 66.6431 58.9015C66.6427 59.3321 66.6432 59.7626 66.6453 60.1932C66.6472 60.6726 66.6458 61.1519 66.6436 61.6313C66.6448 61.7737 66.6461 61.9161 66.6474 62.0628C66.6461 62.1933 66.6448 62.3238 66.6435 62.4583C66.6435 62.5715 66.6435 62.6848 66.6434 62.8014C66.5544 63.2181 66.3951 63.3716 66.0582 63.6264C65.758 63.6918 65.758 63.6918 65.4216 63.6924C65.2936 63.6939 65.1656 63.6953 65.0338 63.6969C64.8942 63.6958 64.7546 63.6948 64.6108 63.6937C64.4632 63.6946 64.3155 63.6955 64.1634 63.6964C63.6748 63.6987 63.1862 63.6972 62.6976 63.6954C62.3585 63.6958 62.0194 63.6963 61.6803 63.697C60.9693 63.6979 60.2583 63.6967 59.5474 63.6942C58.7257 63.6913 57.904 63.6923 57.0823 63.6951C56.2915 63.6978 55.5007 63.6975 54.7099 63.696C54.3735 63.6956 54.0371 63.696 53.7008 63.6973C53.2309 63.6986 52.7613 63.6966 52.2915 63.6937C52.0821 63.6952 52.0821 63.6952 51.8685 63.6969C50.9279 63.6861 50.9279 63.6861 50.5006 63.3819C50.2915 63.0557 50.2128 62.844 50.1939 62.456C50.3322 61.9603 50.4052 61.8384 50.8441 61.5458C51.123 61.5145 51.123 61.5145 51.4494 61.5163C51.6354 61.5163 51.6354 61.5163 51.8252 61.5164C52.0202 61.5184 52.0202 61.5184 52.2191 61.5204C52.3388 61.5207 52.4586 61.5209 52.582 61.5212C53.0294 61.5226 53.4768 61.5262 53.9243 61.5295C54.9247 61.5349 55.925 61.5403 56.9557 61.5458C56.9557 59.1427 56.9557 56.7397 56.9557 54.2638C46.6998 54.2638 36.4439 54.2638 25.8773 54.2638C25.8773 56.6669 25.8773 59.0699 25.8773 61.5458C26.5356 61.5431 27.194 61.5403 27.8723 61.5375C30.0444 61.5289 32.2165 61.5232 34.3886 61.5188C35.706 61.5162 37.0233 61.5125 38.3406 61.5066C39.4886 61.5014 40.6367 61.498 41.7848 61.4969C42.3927 61.4962 43.0007 61.4946 43.6087 61.4908C44.1809 61.4873 44.753 61.4862 45.3252 61.487C45.5353 61.4868 45.7453 61.4858 45.9554 61.4838C46.2422 61.4812 46.5288 61.4818 46.8157 61.4832C46.9762 61.4828 47.1367 61.4823 47.302 61.4818C47.8023 61.5578 48.0181 61.7124 48.3734 62.0659C48.4597 62.326 48.4597 62.326 48.4547 62.5861C48.4563 62.6719 48.458 62.7577 48.4597 62.8462C48.32 63.2671 48.0971 63.3931 47.7232 63.6264C47.3086 63.7027 46.9 63.6966 46.4794 63.6924C46.3535 63.6932 46.2275 63.694 46.0978 63.6949C45.6754 63.6969 45.2531 63.6953 44.8307 63.6937C44.528 63.6944 44.2253 63.6953 43.9227 63.6964C43.1003 63.6988 42.278 63.6979 41.4556 63.6962C40.6827 63.6951 39.9099 63.696 39.137 63.6967C37.5131 63.6982 35.8891 63.6965 34.2652 63.6937C32.8718 63.6914 31.4785 63.6918 30.0852 63.6942C28.467 63.697 26.8489 63.6981 25.2307 63.6965C24.3742 63.6956 23.5177 63.6955 22.6611 63.6973C21.8559 63.6988 21.0508 63.6977 20.2456 63.6947C19.9498 63.694 19.654 63.6942 19.3582 63.6954C18.9549 63.6968 18.5518 63.695 18.1486 63.6924C18.031 63.6936 17.9135 63.6947 17.7923 63.6959C17.269 63.6894 16.9706 63.6635 16.5071 63.4022C16.2127 63.057 16.1733 62.9139 16.173 62.4658C16.1705 62.2726 16.1705 62.2726 16.168 62.0754C16.1695 61.9348 16.171 61.7942 16.1726 61.6494C16.1716 61.5007 16.1707 61.352 16.1698 61.1988C16.1676 60.706 16.1701 60.2135 16.1729 59.7207C16.1728 59.378 16.1724 59.0352 16.1719 58.6924C16.1713 57.973 16.1734 57.2537 16.177 56.5343C16.1812 55.7056 16.1812 54.8771 16.1789 54.0485C16.1769 53.2489 16.1778 52.4494 16.18 51.6498C16.1806 51.3109 16.1806 50.972 16.1798 50.6331C16.1791 50.1576 16.1817 49.6822 16.1853 49.2066C16.1844 49.0679 16.1836 48.9292 16.1827 48.7862C16.1998 47.4271 16.5784 46.1442 17.555 45.1613C18.3077 44.55 19.0281 43.991 20.0257 43.991C20.0229 43.8574 20.0202 43.7237 20.0174 43.5861C20.0079 43.0829 20.002 42.5799 19.9971 42.0767C19.9945 41.8603 19.991 41.6439 19.9864 41.4275C19.9457 39.4371 20.2115 37.656 21.6196 36.131C23.4363 34.4054 25.4559 34.2152 27.8603 34.214ZM18.7548 47.1403C18.4464 47.5881 18.3026 47.9253 18.3039 48.473C18.3036 48.5886 18.3032 48.7042 18.3029 48.8233C18.3038 48.9491 18.3047 49.0749 18.3057 49.2045C18.3056 49.3377 18.3056 49.471 18.3056 49.6083C18.3057 50.0487 18.3078 50.4892 18.3098 50.9296C18.3103 51.235 18.3107 51.5404 18.3109 51.8458C18.3119 52.6496 18.3145 53.4533 18.3174 54.2571C18.32 55.0773 18.3212 55.8975 18.3225 56.7177C18.3253 58.3271 18.3299 59.9364 18.3352 61.5458C20.1375 61.5458 21.9398 61.5458 23.7967 61.5458C23.8085 59.8197 23.818 58.0936 23.8236 56.3675C23.8264 55.5659 23.83 54.7644 23.8359 53.9628C23.8416 53.1888 23.8447 52.4148 23.846 51.6408C23.847 51.346 23.8489 51.0512 23.8517 50.7563C23.8555 50.3424 23.856 49.9285 23.8557 49.5145C23.8576 49.3935 23.8595 49.2724 23.8614 49.1477C23.8558 48.2428 23.6805 47.4194 23.0503 46.7368C22.3385 46.0856 21.7097 45.8771 20.7485 45.9014C19.8637 46.0081 19.3035 46.4659 18.7548 47.1403ZM59.7108 46.8274C59.0903 47.7316 58.9796 48.4101 58.992 49.485C58.9919 49.6158 58.9919 49.7465 58.9918 49.8813C58.9921 50.3112 58.9951 50.741 58.9982 51.1709C58.9989 51.4699 58.9995 51.7689 58.9999 52.0679C59.0014 52.8531 59.0052 53.6382 59.0095 54.4234C59.0135 55.2254 59.0153 56.0273 59.0172 56.8292C59.0214 58.4014 59.0283 59.9736 59.0363 61.5458C60.8386 61.5458 62.6409 61.5458 64.4978 61.5458C64.5066 59.779 64.5137 58.0123 64.518 56.2456C64.52 55.4252 64.5228 54.6048 64.5272 53.7844C64.5314 52.9927 64.5338 52.201 64.5348 51.4093C64.5355 51.1073 64.5369 50.8052 64.539 50.5032C64.5419 50.0801 64.5422 49.6571 64.5421 49.234C64.5435 49.1092 64.5449 48.9843 64.5463 48.8556C64.5425 48.0415 64.4329 47.4684 63.8649 46.8457C63.0637 46.1661 62.5162 45.8755 61.4501 45.9009C60.7118 45.9909 60.2295 46.3088 59.7108 46.8274Z" fill="#EF5000"/>
<path d="M4.9067 7.25168C5.00741 7.25056 5.10811 7.24944 5.21187 7.24829C5.54432 7.24534 5.87663 7.24622 6.20909 7.2474C6.44033 7.24671 6.67158 7.2459 6.90282 7.24495C7.3873 7.2436 7.87172 7.24419 8.35619 7.24609C8.97717 7.24833 9.59798 7.24527 10.2189 7.2407C10.6964 7.23784 11.1738 7.23803 11.6513 7.23911C11.8802 7.23921 12.1092 7.23832 12.3381 7.23641C12.6582 7.23414 12.978 7.23603 13.298 7.23898C13.3926 7.23746 13.4872 7.23594 13.5847 7.23438C14.0203 7.24257 14.2613 7.28685 14.6036 7.56251C14.9198 8.14904 15.0504 8.74349 15.1933 9.39139C15.2264 9.53461 15.2594 9.67783 15.2935 9.82539C15.4022 10.2984 15.5083 10.7719 15.6143 11.2455C15.6892 11.5748 15.7643 11.904 15.8395 12.2332C15.9966 12.9232 16.1526 13.6134 16.3077 14.3038C16.4865 15.1005 16.6674 15.8968 16.8493 16.6928C17.0246 17.4603 17.1988 18.228 17.3725 18.9959C17.4463 19.3218 17.5203 19.6477 17.5946 19.9735C17.6983 20.4293 17.8007 20.8853 17.9027 21.3414C17.9335 21.4758 17.9643 21.6101 17.9961 21.7485C18.3692 23.4332 18.3692 23.4332 17.9758 24.0849C17.3396 24.494 16.7574 24.4257 16.0186 24.3963C15.8091 24.3919 15.8091 24.3919 15.5953 24.3874C15.2513 24.3798 14.9077 24.3691 14.5639 24.3557C14.565 24.4979 14.5662 24.6401 14.5674 24.7866C14.5779 26.126 14.5857 27.4653 14.5908 28.8047C14.5935 29.4933 14.5972 30.1819 14.6031 30.8705C14.6087 31.5349 14.6119 32.1993 14.6132 32.8637C14.6142 33.1173 14.6161 33.371 14.6189 33.6246C14.6226 33.9795 14.6232 34.3343 14.6229 34.6893C14.6248 34.7944 14.6267 34.8996 14.6286 35.0079C14.6251 35.4785 14.6059 35.7437 14.3164 36.1236C14.023 36.3338 13.8807 36.3928 13.5236 36.3921C13.3948 36.3964 13.3948 36.3964 13.2635 36.4007C12.8448 36.269 12.716 36.035 12.4833 35.6688C12.4355 35.2812 12.4173 34.9431 12.4242 34.5564C12.4242 34.446 12.4241 34.3356 12.424 34.2218C12.4244 33.858 12.4284 33.4943 12.4325 33.1305C12.4335 32.8778 12.4342 32.6251 12.4347 32.3724C12.4367 31.7082 12.4418 31.044 12.4476 30.3798C12.4529 29.7017 12.4553 29.0235 12.4579 28.3454C12.4635 27.0155 12.4726 25.6856 12.4833 24.3557C11.7109 24.3557 10.9385 24.3557 10.1427 24.3557C10.1427 35.4698 10.1427 46.5839 10.1427 58.0349C10.7005 58.0349 11.2584 58.0349 11.8331 58.0349C13.2143 58.4316 14.0861 58.9336 14.8874 60.1383C15.3365 60.9772 15.5254 61.898 15.4741 62.8462C15.1796 63.4485 15.1796 63.4485 14.8239 63.6264C14.4664 63.6419 14.112 63.6496 13.7543 63.6515C13.6437 63.6525 13.5331 63.6536 13.4191 63.6547C13.0521 63.6579 12.6852 63.6601 12.3182 63.6619C12.193 63.6626 12.0678 63.6633 11.9388 63.664C11.2762 63.6675 10.6136 63.67 9.951 63.6719C9.26621 63.6741 8.5815 63.6799 7.89673 63.6865C7.37053 63.6909 6.84434 63.6924 6.31812 63.6931C6.06569 63.694 5.81325 63.696 5.56083 63.6991C5.20747 63.7032 4.85432 63.7032 4.50094 63.7023C4.34456 63.7055 4.34456 63.7055 4.18502 63.7087C3.65349 63.7028 3.41183 63.6511 2.99055 63.3157C2.63307 62.8487 2.65299 62.5829 2.68492 62.0157C2.8497 60.7908 3.41754 59.6852 4.38859 58.9045C5.6268 58.0658 6.47413 58.0349 8.06209 58.0349C8.06209 46.9207 8.06209 35.8066 8.06209 24.3557C5.61613 24.3557 3.17016 24.3557 0.650073 24.3557C-0.00010407 23.8355 -0.00010407 23.8355 -0.0742188 23.5526C-0.033327 22.6933 0.106536 21.8842 0.302 21.047C0.33414 20.9043 0.366281 20.7616 0.399395 20.6146C0.505214 20.1468 0.613103 19.6795 0.721186 19.2122C0.79581 18.8859 0.870364 18.5595 0.944851 18.2332C1.10088 17.5511 1.25796 16.8693 1.41581 16.1877C1.59805 15.4006 1.77785 14.613 1.95647 13.825C2.1289 13.0648 2.30345 12.305 2.47886 11.5455C2.55306 11.223 2.62668 10.9004 2.69969 10.5777C2.80178 10.1275 2.90627 9.67795 3.01141 9.22847C3.04115 9.09498 3.0709 8.96149 3.10154 8.82396C3.21911 8.33024 3.32534 7.92742 3.60112 7.49875C4.0283 7.24558 4.42402 7.24735 4.9067 7.25168ZM5.20131 9.40161C4.74726 11.3513 4.74726 11.3513 4.29411 13.3012C4.05566 14.3283 3.81652 15.3552 3.57676 16.382C3.43251 17.0003 3.28874 17.6187 3.14508 18.2371C3.07471 18.5396 3.00414 18.842 2.93336 19.1443C2.83376 19.57 2.73488 19.9958 2.63616 20.4216C2.60615 20.5491 2.57614 20.6766 2.54523 20.8079C2.51814 20.9254 2.49105 21.0429 2.46314 21.1639C2.42744 21.3171 2.42744 21.3171 2.39102 21.4733C2.32524 21.7926 2.32524 21.7926 2.34053 22.2751C6.80335 22.2751 11.2662 22.2751 15.8642 22.2751C15.4175 20.0393 15.4175 20.0393 14.9283 17.8135C14.9043 17.709 14.8803 17.6046 14.8556 17.497C14.8311 17.3901 14.8065 17.2833 14.7813 17.1733C14.7295 16.9467 14.6778 16.7201 14.6261 16.4935C14.4921 15.9068 14.3578 15.3203 14.2233 14.7338C14.0609 14.0248 13.899 13.3157 13.737 12.6066C13.4929 11.5382 13.2481 10.4699 13.0034 9.40161C10.4287 9.40161 7.85403 9.40161 5.20131 9.40161ZM5.26633 60.9769C5.04813 61.2615 5.04813 61.2615 5.07128 61.5458C7.7318 61.5458 10.3923 61.5458 13.1335 61.5458C12.7158 60.8498 12.3651 60.3794 11.573 60.1154C11.2112 60.0981 10.8527 60.0878 10.4906 60.0844C10.3839 60.0834 10.2773 60.0823 10.1674 60.0813C9.94146 60.0795 9.71553 60.0781 9.48959 60.077C9.25969 60.0755 9.02979 60.0729 8.79992 60.069C8.46675 60.0635 8.13371 60.0614 7.8005 60.0601C7.699 60.0578 7.59751 60.0555 7.49294 60.0532C6.58975 60.0567 5.89436 60.3175 5.26633 60.9769Z" fill="#EF5000"/>
<path d="M42.1324 10.572C42.6968 11.0907 43.1303 11.6405 43.2209 12.4148C43.2394 13.4095 43.2097 14.1111 42.5225 14.8631C41.956 15.4453 41.2065 15.7593 40.3936 15.782C39.6019 15.7166 39.0252 15.4814 38.4101 14.9688C37.7939 14.2391 37.4765 13.5687 37.5242 12.5987C37.6515 11.8464 37.9387 11.2188 38.5168 10.7117C39.6938 9.89783 40.899 9.78999 42.1324 10.572ZM39.8893 12.3518C39.6297 12.634 39.6297 12.634 39.6536 12.9857C39.8324 13.396 40.0468 13.5003 40.4419 13.6928C40.7812 13.5544 40.7812 13.5544 41.0921 13.3027C41.1896 12.9126 41.1896 12.9126 41.0921 12.5225C40.8696 12.2662 40.8696 12.2662 40.5719 12.1324C40.1729 12.0934 40.1729 12.0934 39.8893 12.3518Z" fill="#EF5000"/>
</g>
<defs>
<clipPath id="clip0_141_2966">
<rect width="66.5781" height="66.5781" fill="white" transform="translate(0 0.169189)"/>
</clipPath>
</defs>
</svg>
