<svg width="148" height="89" viewBox="0 0 148 89" fill="none" xmlns="http://www.w3.org/2000/svg">
<g clip-path="url(#clip0_131_247)">
<path d="M75.2506 0.654053C92.8635 10.8807 110.467 21.1073 128.08 31.3339C128.437 31.5408 128.814 31.7279 129.171 31.9545C131.77 33.59 131.809 35.5506 129.171 37.2058C123.201 40.9496 117.191 44.6343 111.211 48.3388C100.09 55.2353 88.9409 62.0925 77.8688 69.0678C75.8979 70.3092 74.3714 70.2994 72.3908 69.0875C55.087 58.4866 37.7252 47.9743 20.3828 37.4324C16.9046 35.3142 16.9046 33.4028 20.3925 31.4028C37.3291 21.6688 54.2657 11.9545 71.1927 2.23041C72.0623 1.72794 72.8931 1.18607 73.7434 0.654053C74.2458 0.654053 74.7482 0.654053 75.2506 0.654053ZM61.2124 56.191C65.6857 58.9299 69.9657 61.5506 74.2747 64.1417C74.6322 64.3585 75.2989 64.4866 75.608 64.2994C79.5886 61.9053 83.5305 59.4521 87.9844 56.6935C86.3806 55.2649 84.8928 54.388 84.1005 53.0678C83.6271 52.2797 83.859 50.4866 84.4677 49.7674C84.9314 49.2156 86.6608 49.2846 87.54 49.7082C88.6124 50.2304 89.5013 51.3043 90.2452 52.3191C91.5495 54.0728 92.7282 53.8856 94.4383 52.8018C102.66 47.59 110.96 42.5161 119.23 37.3831C120.592 36.5358 121.925 35.6393 123.5 34.6245C117.539 31.1565 111.916 27.8166 106.206 24.6541C105.53 24.2797 104.138 24.5457 103.433 25.0481C98.6894 28.388 94.0422 31.8659 89.3757 35.3043C86.3613 37.521 83.3566 39.7477 80.3035 42.0038C81.6851 43.7575 84.0522 45.2747 81.8977 47.3437C79.0765 50.0432 77.8688 46.2304 75.8786 45.255C74.6709 46.1122 73.5405 47.2944 72.1782 47.7575C71.2507 48.0728 69.6276 47.7181 68.9899 47.0284C68.5068 46.4964 68.9126 44.9102 69.2314 43.8856C69.3957 43.3536 70.2169 43.0186 70.758 42.6245C79.9654 35.8462 89.1825 29.0777 98.3899 22.2994C98.8923 21.9348 99.3367 21.4915 99.9454 20.9693C93.3273 17.127 86.7188 13.7871 80.6417 9.60972C76.236 6.58509 72.6419 6.25011 68.4585 9.64913C66.3136 11.393 63.6954 12.5161 61.1351 14.0038C64.5842 17.1073 67.7146 19.9151 70.8449 22.7427C73.3569 25.0087 73.2796 26.388 70.5357 28.3289C63.135 33.5802 55.715 38.8117 48.3142 44.0531C47.2805 44.792 46.2563 45.5506 45.0583 46.4275C49.1258 48.8807 52.8358 51.127 56.5459 53.3634C58.8356 51.4718 60.9998 49.7279 63.1157 47.9348C64.4586 46.792 65.8692 46.4866 67.0962 47.8954C68.3619 49.3536 67.7532 50.7427 66.4393 51.8659C64.7775 53.2747 63.0867 54.6541 61.222 56.191H61.2124ZM25.3971 34.4669C30.0153 37.2846 34.3244 39.8265 38.5368 42.5161C39.8121 43.3339 40.672 43.2156 41.8604 42.3585C49.2997 37.0087 56.7874 31.7378 64.2654 26.4373C64.7871 26.0728 65.2509 25.6393 65.8789 25.127C62.6519 22.2403 59.5796 19.4915 56.4009 16.6442C46.1404 22.5457 35.9282 28.4077 25.3971 34.4669Z" fill="#EF5000"/>
<path d="M58.1987 88.6541C57.5417 87.659 56.1408 86.0728 56.363 85.7871C57.3678 84.4866 58.8364 83.5605 60.1696 82.4767C42.9915 72.0334 25.4075 61.3437 7.40809 50.3979C7.62064 51.5408 7.99744 52.2797 7.80421 52.8018C7.38877 53.925 6.91535 55.3831 6.02649 55.8757C4.6932 56.6147 3.45653 55.7575 2.99278 54.1812C2.15222 51.3536 1.33099 48.5161 0.509766 45.6885C0.509766 45.0087 0.509766 44.3289 0.509766 43.6393C4.33573 42.3782 8.12304 41.0087 12.007 39.9841C12.6156 39.8265 14.0745 41.1467 14.3161 42.0235C14.5093 42.7132 13.6301 43.9841 12.9055 44.6147C12.2099 45.2156 11.0988 45.3043 9.71719 45.7772C28.161 56.989 46.2281 67.9743 64.6526 79.1664C64.5946 77.8166 64.2275 76.6935 64.585 75.9053C65.0294 74.9004 65.9472 73.6885 66.8651 73.4816C67.5317 73.3339 69.1355 74.5457 69.2708 75.3437C69.8215 78.6048 70.0534 81.925 70.2273 85.2353C70.3142 86.8708 69.1838 87.5999 67.6477 87.7575C65.0004 88.0334 62.3628 88.3585 59.7156 88.6541H58.2084H58.1987Z" fill="#EF5000"/>
<path d="M147.5 48.2303C146.785 50.7328 146.061 53.2353 145.346 55.7476C144.853 57.4717 144.244 59.1564 142.003 58.585C139.829 58.0234 139.761 56.4077 140.389 54.5653C140.515 54.1811 140.505 53.7476 140.621 52.8609C123.54 62.8806 106.777 72.7032 89.9851 82.5555C91.2894 83.4126 92.7677 83.9446 93.5502 85.0087C94.613 86.4569 93.3667 87.6491 92.3136 88.654H90.304C87.8499 87.9249 85.3863 87.186 82.9322 86.4569C80.3719 85.6885 79.8309 84.7722 80.4782 82.1515C81.0482 79.8461 81.6956 77.5604 82.2463 75.2451C82.7004 73.3239 83.4829 71.6491 85.7631 72.319C87.9466 72.9594 87.5408 74.8609 87.193 76.5752C87.0964 77.0579 86.9418 77.5308 86.6712 78.5555C103.985 68.388 120.892 58.4766 138.138 48.3486C136.815 47.8954 135.732 47.787 135.008 47.2156C134.322 46.6638 133.588 45.5899 133.646 44.8116C133.704 44.0333 134.583 42.9791 135.346 42.6638C137.24 41.8757 146.215 45.0284 147.491 46.7131V48.25L147.5 48.2303Z" fill="#EF5000"/>
</g>
<defs>
<clipPath id="clip0_131_247">
<rect width="147" height="88" fill="white" transform="translate(0.5 0.654053)"/>
</clipPath>
</defs>
</svg>
