<svg width="20" height="19" viewBox="0 0 20 19" fill="none" xmlns="http://www.w3.org/2000/svg">
<path d="M17.0067 16.7665H14.3466C14.3466 14.8839 14.3496 13.0413 14.3451 11.1972C14.3451 10.754 14.3615 10.3033 14.2947 9.86749C14.1477 8.91283 13.6089 8.35397 12.8132 8.25169C12.028 8.15088 11.1714 8.60301 10.8315 9.39461C10.6623 9.78892 10.5866 10.2499 10.5806 10.6828C10.5554 12.6796 10.5688 14.6778 10.5688 16.7398H7.79883V6.02958H10.1873C10.2392 6.20747 10.2986 6.41649 10.3713 6.66849C10.4619 6.63588 10.5554 6.62254 10.6222 6.57362C11.645 5.83391 12.7999 5.62044 14.0052 5.868C15.7257 6.22081 16.8405 7.38597 16.9592 9.05959C17.1403 11.6034 17.0067 14.1709 17.0067 16.7665Z" fill="white"/>
<path d="M3.10156 6.01367H5.78986V16.761H3.10156V6.01367Z" fill="white"/>
<path d="M2.85891 3.75729C2.85445 2.83672 3.50908 2.1489 4.4131 2.12369C5.33641 2.09849 6.05636 2.81152 6.05488 3.75284C6.05488 4.66451 5.39134 5.32121 4.45615 5.33455C3.55213 5.34789 2.86188 4.66599 2.85742 3.75581L2.85891 3.75729Z" fill="white"/>
</svg>
