<svg width="23" height="30" viewBox="0 0 23 30" fill="none" xmlns="http://www.w3.org/2000/svg">
<path d="M11.0295 29.1782C9.82222 27.7755 8.66819 26.4793 7.56461 25.1405C5.35012 22.4574 3.2769 19.6686 1.64951 16.571C0.931219 15.2034 0.277146 13.7933 0.101014 12.2394C-0.221895 9.38657 0.588129 6.82674 2.28248 4.55617C6.11794 -0.586669 13.6467 -1.32096 18.3674 3.00507C20.9782 5.39709 22.2432 8.4038 22.001 11.9761C21.8827 13.7172 21.1158 15.2721 20.3094 16.787C18.8628 19.5044 17.0721 21.9873 15.1365 24.3627C13.943 25.8285 12.6816 27.2377 11.4514 28.672C11.3313 28.812 11.2157 28.9548 11.0285 29.1791L11.0295 29.1782ZM11.0652 27.5121C12.5238 25.7256 13.9466 24.0511 15.2933 22.3165C17.1721 19.8957 18.8857 17.3655 20.1388 14.5378C21.4084 11.6738 21.102 8.91002 19.5709 6.29085C16.0089 0.195836 7.78844 -0.419784 3.33836 5.05405C1.75409 7.00382 1.00369 9.27717 1.18441 11.8073C1.29541 13.3612 1.96966 14.7501 2.68428 16.1009C4.31259 19.1809 6.39498 21.9419 8.59939 24.6139C9.38006 25.5605 10.1882 26.484 11.0643 27.5121H11.0652Z" fill="#EF5000"/>
<path d="M5.13674 11.3264C5.12757 8.0517 7.75304 5.35651 10.9592 5.34816C14.291 5.33982 16.9633 7.99978 16.9459 11.3069C16.9284 14.6094 14.3011 17.2628 11.0482 17.2647C7.78423 17.2665 5.14683 14.6168 5.13766 11.3254L5.13674 11.3264ZM11.017 16.115C13.6746 16.1178 15.8102 13.9761 15.8157 11.3032C15.8212 8.65064 13.659 6.48113 11.0133 6.48391C8.40803 6.48669 6.25225 8.67289 6.25775 11.3078C6.26325 13.9557 8.39886 16.1123 11.017 16.115Z" fill="#EF5000"/>
</svg>
