<svg width="23" height="30" viewBox="0 0 23 30" fill="none" xmlns="http://www.w3.org/2000/svg">
<g clip-path="url(#clip0_69_1504)">
<path d="M11.0685 29.5332C9.86128 28.1304 8.70725 26.8343 7.60367 25.4955C5.38918 22.8124 3.31596 20.0235 1.68857 16.926C0.970282 15.5584 0.316208 14.1482 0.140076 12.5944C-0.182833 9.74155 0.627191 7.18172 2.32155 4.91115C6.157 -0.231689 13.6857 -0.965983 18.4064 3.36005C21.0172 5.75207 22.2823 8.75878 22.0401 12.3311C21.9217 14.0722 21.1548 15.627 20.3485 17.142C18.9018 19.8594 17.1111 22.3423 15.1755 24.7176C13.982 26.1834 12.7207 27.5927 11.4905 29.027C11.3703 29.167 11.2547 29.3098 11.0676 29.5341L11.0685 29.5332ZM11.1043 27.8671C12.5629 26.0805 13.9857 24.4061 15.3324 22.6714C17.2111 20.2507 18.9247 17.7205 20.1779 14.8927C21.4475 12.0288 21.1411 9.265 19.61 6.64583C16.0479 0.550817 7.82751 -0.0648038 3.37742 5.40903C1.79315 7.3588 1.04275 9.63215 1.22347 12.1623C1.33447 13.7162 2.00873 15.1051 2.72335 16.4559C4.35165 19.5359 6.43405 22.2969 8.63845 24.9689C9.41912 25.9155 10.2273 26.8389 11.1034 27.8671H11.1043Z" fill="#EF5000"/>
<path d="M5.17581 11.6794C5.16663 8.40473 7.7921 5.70954 10.9983 5.70119C14.3301 5.69285 17.0023 8.35281 16.9849 11.6599C16.9675 14.9624 14.3402 17.6159 11.0872 17.6177C7.82329 17.6196 5.1859 14.9698 5.17672 11.6785L5.17581 11.6794ZM11.056 16.4681C13.7136 16.4708 15.8492 14.3292 15.8547 11.6562C15.8602 9.00366 13.698 6.83416 11.0524 6.83694C8.44709 6.83972 6.29131 9.02591 6.29681 11.6608C6.30232 14.3088 8.43792 16.4653 11.056 16.4681Z" fill="#EF5000"/>
</g>
<defs>
<clipPath id="clip0_69_1504">
<rect width="22" height="29" fill="white" transform="translate(0.0703125 0.533203)"/>
</clipPath>
</defs>
</svg>
