<svg width="69" height="84" viewBox="0 0 69 84" fill="none" xmlns="http://www.w3.org/2000/svg">
<g clip-path="url(#clip0_69_2034)">
<path d="M8.03228 64.5911C12.0964 62.9503 17.6083 61.7182 23.7385 61.0657C15.8084 50.2537 7.02892 36.4704 7.02892 27.4575C7.02908 12.3173 19.2163 0 34.1966 0C49.1767 0 61.364 12.3173 61.364 27.4575C61.364 33.0107 57.9086 41.1652 51.0942 51.6946C49.004 54.9244 46.7765 58.1059 44.6182 61.0618C50.758 61.7128 56.2793 62.9447 60.3507 64.5868C66.8363 67.2026 68.1978 70.2051 68.1978 72.2633C68.1978 79.8866 50.6796 84 34.1966 84C17.7136 84 0.195312 79.8866 0.195312 72.2635C0.195473 70.2068 1.55515 67.2061 8.03228 64.5911ZM58.7667 27.4575C58.7667 13.7648 47.7447 2.625 34.1966 2.625C20.6486 2.625 9.62636 13.7648 9.62636 27.4575C9.62636 32.5466 12.8936 40.1784 19.3373 50.1409C24.4442 58.0366 30.3752 65.584 34.196 70.3995C41.8157 60.7774 58.7667 38.9077 58.7667 27.4575ZM35.2096 73.3187C34.963 73.6293 34.5904 73.8099 34.1966 73.8099C33.8028 73.8099 33.4301 73.6293 33.1837 73.3187L32.8006 72.8362C31.9694 71.7896 31.0175 70.5908 29.9816 69.2701C23.5275 69.8252 20.9416 71.4202 20.7312 71.9639C20.8378 72.2231 21.6998 73.0309 24.4781 73.7617C27.113 74.4547 30.5645 74.8363 34.1966 74.8363C37.8287 74.8363 41.28 74.4547 43.9151 73.7617C46.6934 73.0309 47.5552 72.2231 47.6619 71.9639C47.4517 71.4199 44.8635 69.824 38.4039 69.2695C37.1893 70.8248 36.1032 72.1929 35.2096 73.3187ZM11.4631 78.3827C17.5169 80.3122 25.5904 81.375 34.1966 81.375C42.8029 81.375 50.8763 80.3122 56.9301 78.3827C62.3592 76.6521 65.6005 74.3644 65.6005 72.2635C65.6005 68.9181 57.0889 64.7776 42.8004 63.5219C41.9375 64.6764 41.096 65.7848 40.2905 66.8336C44.1969 67.327 50.2642 68.6308 50.2642 71.9642C50.2642 76.3033 40.1643 77.4611 34.1964 77.4611C28.2286 77.4611 18.1287 76.3033 18.1287 71.9642C18.1287 68.6349 24.1833 67.3301 28.0865 66.8356C27.2745 65.7836 26.4291 64.6764 25.5637 63.5243C11.2935 64.7832 2.79276 68.9217 2.79276 72.2633C2.79276 74.3646 6.03399 76.6521 11.4631 78.3827ZM20.3646 27.4257C20.3646 19.7174 26.5697 13.4461 34.1966 13.4461C41.8237 13.4461 48.0287 19.7174 48.0287 27.4257C48.0287 35.1341 41.8237 41.4053 34.1966 41.4053C26.5695 41.4053 20.3646 35.1341 20.3646 27.4257ZM34.1966 38.7803C40.3916 38.7803 45.4315 33.6866 45.4315 27.4257C45.4315 21.1647 40.3914 16.0711 34.1966 16.0711C28.0018 16.0711 22.9619 21.1647 22.9619 27.4257C22.9619 33.6866 28.0016 38.7803 34.1966 38.7803Z" fill="#EF5000"/>
</g>
<defs>
<clipPath id="clip0_69_2034">
<rect width="68" height="84" fill="white" transform="matrix(-1 0 0 1 68.2051 0)"/>
</clipPath>
</defs>
</svg>
