<svg width="96" height="96" viewBox="0 0 96 96" fill="none" xmlns="http://www.w3.org/2000/svg">
<g clip-path="url(#clip0_131_289)">
<path d="M13.7936 11.4845C14.0454 11.5162 14.2973 11.5477 14.5492 11.5791C15.2345 11.665 15.9196 11.7526 16.6046 11.8406C17.3461 11.9355 18.0878 12.0287 18.8294 12.122C20.1124 12.2837 21.3953 12.4464 22.6781 12.6098C24.5345 12.8461 26.3912 13.0803 28.248 13.3138C31.2633 13.6931 34.2785 14.0732 37.2935 14.4543C37.4737 14.4771 37.6539 14.4999 37.8396 14.5233C39.851 14.7776 41.8625 15.0323 43.8738 15.2874C44.0548 15.3104 44.2358 15.3333 44.4223 15.357C44.7874 15.4033 45.1525 15.4496 45.5176 15.496C45.698 15.5188 45.8784 15.5417 46.0643 15.5653C46.2445 15.5882 46.4247 15.611 46.6103 15.6346C49.6154 16.0158 52.6207 16.3948 55.6263 16.772C57.4785 17.0045 59.3305 17.2389 61.1821 17.4757C62.4503 17.6377 63.7187 17.7977 64.9873 17.9561C65.7189 18.0475 66.4503 18.1398 67.1815 18.2346C67.8513 18.3215 68.5214 18.4057 69.1918 18.4878C69.548 18.5322 69.9038 18.5793 70.2596 18.6266C71.5016 18.7757 72.5248 18.7911 73.7205 18.4074C73.8508 18.3673 73.9812 18.3272 74.1155 18.2859C74.4838 18.1702 74.8483 18.0458 75.2132 17.9197C75.4884 17.8272 75.7636 17.7349 76.0389 17.6426C76.4651 17.4989 76.8909 17.3544 77.316 17.2078C77.7317 17.065 78.1484 16.9257 78.5655 16.7869C78.6911 16.7426 78.8168 16.6983 78.9462 16.6526C79.7988 16.3726 80.4324 16.3468 81.3037 16.5578C82.1374 17.1934 82.4272 17.8525 82.7486 18.8351C82.7886 18.9544 82.8285 19.0738 82.8697 19.1967C82.9666 19.4876 83.0603 19.7797 83.1532 20.072C83.6772 20.1537 84.2012 20.2346 84.7254 20.3147C84.8886 20.3398 85.0518 20.3648 85.22 20.3906C86.1589 20.5318 87.0977 20.6589 88.0408 20.7677C88.2375 20.7907 88.4342 20.8136 88.6369 20.8372C89.0198 20.8811 89.403 20.9234 89.7863 20.9638C90.8153 21.0823 91.6815 21.2164 92.586 21.7366C93.1529 22.4713 93.1952 22.9599 93.112 23.8713C93.1016 23.991 93.0912 24.1106 93.0804 24.2339C93.0435 24.6351 93.0007 25.0353 92.9559 25.4357C92.9402 25.576 92.9245 25.7162 92.9083 25.8607C92.8004 26.802 92.6816 27.7416 92.5595 28.6811C92.4911 29.2085 92.4238 29.7361 92.3567 30.2637C92.1662 31.7616 91.9736 33.2593 91.7804 34.7568C91.6616 35.6785 91.5441 36.6003 91.4272 37.5223C91.3828 37.8706 91.3379 38.219 91.2925 38.5672C90.8061 42.1936 90.8061 42.1936 91.5232 45.744C91.5858 45.9285 91.6484 46.113 91.7129 46.3031C91.9124 46.8891 92.1161 47.4736 92.3201 48.0581C92.452 48.442 92.5836 48.826 92.7149 49.2101C92.7797 49.3995 92.8445 49.5888 92.9112 49.784C92.9758 49.9728 93.0404 50.1617 93.1069 50.3563C93.1713 50.5447 93.2357 50.7332 93.3021 50.9273C93.4312 51.3051 93.56 51.683 93.6887 52.0609C93.8171 52.4378 93.9461 52.8145 94.0755 53.191C94.2618 53.7359 94.4441 54.282 94.6255 54.8285C94.6813 54.9894 94.737 55.1503 94.7944 55.3162C95.1422 56.3802 95.384 57.4242 95.1753 58.5427C94.5872 59.3857 93.9198 59.6527 92.9595 59.9624C92.8385 60.0022 92.7176 60.0419 92.5929 60.0829C92.2099 60.2079 91.8258 60.329 91.4416 60.4501C91.1815 60.5348 90.9215 60.6196 90.6616 60.7048C88.7749 61.3171 88.7749 61.3171 88.332 61.3171C88.3229 61.5023 88.3139 61.6876 88.3045 61.8785C88.2906 62.1268 88.2767 62.375 88.2626 62.6233C88.2498 62.8658 88.2369 63.1083 88.2236 63.3581C88.127 64.2829 88.0045 65.0905 87.4303 65.8369C86.0653 66.5194 84.4325 66.1102 82.99 65.8326C78.2916 64.9607 74.9717 65.4474 70.5641 67.2149C68.9402 67.8654 67.286 68.3997 65.6188 68.9269C64.7865 69.1911 63.9563 69.4619 63.126 69.7326C62.8797 69.8127 62.8797 69.8127 62.6284 69.8945C60.6815 70.5288 58.7399 71.1791 56.7982 71.829C54.6031 72.5635 52.4051 73.2882 50.2033 74.0021C46.1679 75.311 42.1388 76.6387 38.1108 77.9701C36.7087 78.4336 35.3063 78.8962 33.9038 79.3585C33.0927 79.6259 32.2816 79.8934 31.4704 80.1609C31.1735 80.2588 31.1735 80.2588 30.8705 80.3587C28.5134 81.1362 26.1576 81.9177 23.8042 82.7066C22.9352 82.9975 22.0656 83.2866 21.196 83.5758C20.7524 83.724 20.3091 83.8732 19.8662 84.0234C19.2704 84.2254 18.6735 84.4242 18.0763 84.6222C17.91 84.6797 17.7436 84.7372 17.5722 84.7964C16.5101 85.1437 15.4663 85.3863 14.3497 85.1764C13.5379 84.6034 13.2622 83.9866 12.9662 83.0559C12.9079 82.8772 12.9079 82.8772 12.8485 82.6949C12.7183 82.2937 12.592 81.8913 12.4655 81.4888C12.3715 81.1972 12.2772 80.9057 12.1826 80.6143C12.0276 80.1368 11.8729 79.6592 11.7192 79.1812C11.2925 77.8545 10.8541 76.5319 10.4115 75.2104C10.3082 74.902 10.3082 74.902 10.2028 74.5873C10.0614 74.1651 9.91994 73.7429 9.77846 73.3207C8.54653 69.6414 7.33134 65.9567 6.13593 62.2653C6.08726 62.1151 6.03859 61.9648 5.98844 61.81C5.89405 61.5186 5.79973 61.2272 5.70549 60.9357C5.46397 60.1907 5.21878 59.4471 4.96867 58.7049C4.91693 58.5512 4.86519 58.3975 4.81188 58.2391C4.71273 57.9453 4.61309 57.6516 4.51289 57.3582C4.17719 56.3638 4.17719 56.3638 4.17719 55.9534C3.9197 55.8904 3.9197 55.8904 3.657 55.8262C2.94189 55.5318 2.81884 55.3588 2.51259 54.6587C2.52176 54.318 2.53362 53.9769 2.56714 53.6378C2.77993 51.3237 1.99436 49.3282 1.20165 47.196C0.127554 44.2793 0.127554 44.2793 0.478079 43.1914C1.15742 42.3913 1.76445 42.0706 2.75535 41.7465C2.87467 41.7065 2.994 41.6666 3.11695 41.6255C3.4079 41.5285 3.69996 41.4348 3.99224 41.3419C4.01001 41.1982 4.02778 41.0545 4.04608 40.9064C4.47876 37.4083 4.91257 33.9103 5.34764 30.4124C5.55801 28.7209 5.768 27.0293 5.97708 25.3376C6.15934 23.8629 6.34232 22.3883 6.52616 20.9138C6.62346 20.1333 6.7204 19.3527 6.81647 18.572C6.90697 17.8367 6.99844 17.1015 7.09064 16.3664C7.12425 16.097 7.15751 15.8277 7.19039 15.5582C7.23547 15.1892 7.28195 14.8204 7.3285 14.4516C7.36686 14.1424 7.36686 14.1424 7.40599 13.827C7.69318 12.1154 7.69318 12.1154 8.28453 11.5295C9.72271 10.5958 12.1742 11.2737 13.7936 11.4845ZM11.3905 15.2631C11.0274 17.6248 10.6939 19.9876 10.3991 22.3586C10.3589 22.6787 10.3188 22.9988 10.2786 23.3188C10.1712 24.1745 10.0644 25.0304 9.95768 25.8862C9.84539 26.7864 9.73266 27.6865 9.62 28.5866C9.43143 30.0938 9.24323 31.6011 9.05526 33.1085C8.83801 34.8505 8.62009 36.5925 8.40185 38.3344C8.2138 39.8355 8.0261 41.3365 7.83871 42.8377C7.72705 43.732 7.61527 44.6264 7.50318 45.5207C7.39816 46.3587 7.29359 47.1968 7.18937 48.0348C7.15105 48.3423 7.11258 48.6498 7.07395 48.9573C7.02131 49.3763 6.96924 49.7954 6.91731 50.2146C6.88803 50.4491 6.85874 50.6837 6.82857 50.9254C6.75366 51.5383 6.75366 51.5383 6.76657 52.2543C8.45199 52.5886 10.1485 52.8087 11.8527 53.0197C12.1595 53.0582 12.4662 53.0966 12.773 53.1351C13.6114 53.2402 14.45 53.3447 15.2886 53.4489C16.1946 53.5617 17.1006 53.6752 18.0065 53.7886C19.7793 54.0103 21.5522 54.2314 23.3252 54.4523C24.7659 54.6318 26.2066 54.8115 27.6473 54.9914C27.8525 55.017 28.0577 55.0426 28.2691 55.069C28.686 55.1211 29.1028 55.1731 29.5197 55.2251C33.426 55.7128 37.3323 56.1997 41.2387 56.6863C44.8133 57.1317 48.3878 57.5779 51.9622 58.0246C55.6333 58.4834 59.3045 58.9415 62.9758 59.399C65.0366 59.6559 67.0974 59.9129 69.1581 60.1706C70.9115 60.3898 72.665 60.6085 74.4186 60.8265C75.3133 60.9377 76.208 61.0492 77.1026 61.1614C77.9214 61.264 78.7403 61.366 79.5592 61.4673C79.8556 61.5041 80.1519 61.5412 80.4481 61.5785C80.8508 61.6293 81.2536 61.679 81.6564 61.7286C81.9919 61.7704 81.9919 61.7704 82.3343 61.8131C82.981 61.8731 83.6139 61.8822 84.263 61.8719C84.6223 60.0847 84.8425 58.2822 85.0654 56.4743C85.1073 56.1378 85.1493 55.8013 85.1913 55.4648C85.3045 54.5566 85.417 53.6483 85.5294 52.7401C85.6473 51.7882 85.7657 50.8364 85.8841 49.8846C86.0826 48.2883 86.2806 46.6919 86.4783 45.0954C86.707 43.2489 86.9363 41.4024 87.166 39.556C87.3872 37.7783 87.6079 36.0006 87.8285 34.2229C87.9223 33.4666 88.0163 32.7103 88.1103 31.9539C88.2209 31.065 88.3311 30.176 88.441 29.2869C88.4814 28.9602 88.522 28.6336 88.5627 28.307C88.618 27.8622 88.673 27.4175 88.7278 26.9727C88.7441 26.8426 88.7604 26.7124 88.7772 26.5783C88.8396 26.0694 88.8869 25.5792 88.8869 25.0658C87.5364 24.739 86.1911 24.5448 84.8128 24.3759C84.5734 24.346 84.3341 24.316 84.0875 24.2851C83.4265 24.2023 82.7654 24.1206 82.1042 24.0389C81.389 23.9505 80.6739 23.8611 79.9588 23.7718C78.7176 23.617 77.4763 23.4628 76.2349 23.3089C74.4238 23.0845 72.6129 22.8591 70.8019 22.6336C67.8419 22.265 64.8817 21.8971 61.9215 21.5297C59.0839 21.1775 56.2463 20.8249 53.4087 20.4718C53.2359 20.4503 53.063 20.4288 52.8849 20.4066C52.1889 20.32 51.493 20.2334 50.797 20.1468C37.6623 18.5123 24.527 16.8831 11.3905 15.2631ZM89.4417 52.6242C89.2586 54.028 89.0755 55.4318 88.8869 56.8781C89.4972 56.695 90.1076 56.5119 90.7364 56.3233C90.3702 55.1026 90.004 53.8819 89.6267 52.6242C89.5656 52.6242 89.5046 52.6242 89.4417 52.6242ZM8.61613 56.5082C8.96374 57.8253 9.34621 59.1236 9.77666 60.4158C9.83449 60.5908 9.89232 60.7659 9.9519 60.9462C10.1412 61.5189 10.3313 62.0914 10.5213 62.6638C10.6548 63.0671 10.7881 63.4705 10.9215 63.8738C11.2718 64.9332 11.6227 65.9923 11.9738 67.0515C12.5337 68.7407 13.0928 70.4303 13.6516 72.1199C13.845 72.7041 14.0387 73.2883 14.2324 73.8724C14.354 74.2395 14.4756 74.6067 14.5971 74.9738C14.6549 75.1483 14.7128 75.3228 14.7725 75.5026C15.0556 76.3598 15.332 77.2183 15.5967 78.0813C15.6472 78.2455 15.6978 78.4096 15.7499 78.5787C15.8444 78.8876 15.9378 79.1969 16.0297 79.5067C16.1374 79.8586 16.2595 80.2062 16.3843 80.5525C16.9647 80.8427 17.3514 80.5774 17.9565 80.3763C18.0814 80.3353 18.2062 80.2942 18.3348 80.2519C18.7551 80.1133 19.1746 79.9727 19.5943 79.8322C19.8934 79.7331 20.1925 79.6341 20.4917 79.5353C21.1371 79.3218 21.7822 79.1075 22.4271 78.8925C23.4576 78.549 24.4888 78.2073 25.5201 77.8659C26.771 77.4517 28.0217 77.0371 29.2723 76.6219C31.396 75.9169 33.5207 75.2152 35.6464 74.5161C35.7952 74.4672 35.944 74.4182 36.0974 74.3678C36.8434 74.1225 37.5895 73.8772 38.3355 73.632C39.6818 73.1895 41.0278 72.7465 42.3739 72.3035C42.6758 72.2041 42.9778 72.1048 43.2797 72.0054C45.5538 71.257 47.8275 70.5079 50.1012 69.7585C51.1268 69.4205 52.1525 69.0826 53.1781 68.7446C53.9924 68.4763 54.8066 68.2079 55.6208 67.9394C59.5533 66.6423 63.4891 65.3566 67.432 64.0914C66.732 63.6247 66.0786 63.5803 65.2631 63.4831C65.1036 63.4631 64.9442 63.4431 64.7798 63.4225C64.4419 63.3804 64.1039 63.3391 63.7659 63.2985C63.253 63.2367 62.7405 63.1722 62.228 63.1074C61.8988 63.0668 61.5696 63.0263 61.2403 62.986C61.0888 62.9669 60.9373 62.9479 60.7813 62.9282C58.5356 62.645 58.5356 62.645 56.5427 63.5712C56.3182 63.7258 56.093 63.8795 55.8672 64.0322C55.7581 64.1065 55.6489 64.1808 55.5364 64.2574C52.498 66.2466 48.5067 66.6486 44.9902 66.0876C41.3339 65.2963 38.3212 63.5426 35.8046 60.7622C35.7026 60.5999 35.6005 60.4375 35.4954 60.2702C34.8585 59.6302 34.2275 59.6203 33.3539 59.5253C33.1901 59.5044 33.0262 59.4835 32.8574 59.4619C32.522 59.4194 32.1863 59.3787 31.8505 59.3396C31.4048 59.2872 30.9605 59.2287 30.516 59.167C29.3145 59.0037 28.1404 58.8465 26.9267 58.9127C26.6024 59.3453 26.6024 59.3453 26.3719 59.8374C25.6948 60.263 25.0807 60.2568 24.3128 60.1351C23.7411 59.9485 23.5216 59.6033 23.2276 59.0976C23.1601 58.8526 23.0972 58.6061 23.0427 58.3578C21.8534 58.121 20.6618 57.9322 19.4591 57.7798C19.3339 57.7636 19.2086 57.7474 19.0795 57.7308C18.4237 57.65 17.7848 57.6001 17.1241 57.618C17.396 58.9729 17.7955 60.2569 18.2389 61.5649C18.3109 61.7798 18.383 61.9948 18.4572 62.2162C18.6864 62.8994 18.9166 63.5821 19.147 64.2648C19.3766 64.9469 19.6059 65.6291 19.8349 66.3114C19.977 66.7346 20.1194 67.1576 20.2622 67.5806C20.657 68.754 21.0315 69.9311 21.3781 71.1197C22.7734 70.8503 24.0977 70.4169 25.4398 69.9571C25.8377 69.8209 26.2361 69.686 26.6346 69.5515C27.7664 69.1692 28.8976 68.7851 30.0281 68.3989C30.7226 68.1618 31.4177 67.9266 32.1133 67.6925C32.3768 67.6034 32.64 67.5136 32.903 67.4231C33.271 67.2964 33.6397 67.1722 34.0086 67.0485C34.2176 66.9773 34.4265 66.9061 34.6418 66.8328C35.5259 66.6118 36.2504 66.5338 37.0762 66.9467C37.5558 67.5251 37.619 67.9257 37.7004 68.6568C37.6367 69.2472 37.4598 69.5356 37.0993 70.01C36.6508 70.2341 36.2533 70.3998 35.7822 70.5552C35.5858 70.6243 35.5858 70.6243 35.3854 70.6947C34.9712 70.8395 34.5557 70.9797 34.14 71.1197C33.8831 71.2088 33.6263 71.298 33.3696 71.3876C32.5759 71.6632 31.7799 71.9317 30.9835 72.1991C30.8409 72.2471 30.6983 72.295 30.5514 72.3444C29.8006 72.5969 29.0495 72.8487 28.2983 73.1C27.5267 73.3582 26.7558 73.6188 25.9851 73.8799C25.3869 74.082 24.788 74.2825 24.1891 74.4825C23.9044 74.5778 23.62 74.6738 23.3358 74.7705C22.9397 74.9051 22.5428 75.0372 22.1457 75.1688C21.9209 75.2443 21.6961 75.3198 21.4645 75.3976C20.6337 75.6062 19.5893 75.7592 18.7887 75.3737C18.4922 74.7154 18.2737 74.0311 18.0496 73.3454C17.9778 73.1264 17.9061 72.9074 17.8321 72.6817C17.7541 72.4426 17.6761 72.2034 17.598 71.9643C17.5159 71.7135 17.4338 71.4627 17.3517 71.212C17.1344 70.5486 16.9175 69.8851 16.7007 69.2216C16.3182 68.0511 15.9351 66.8808 15.552 65.7105C15.5102 65.5829 15.4684 65.4554 15.4254 65.3239C14.5226 62.5668 13.6059 59.8143 12.6851 57.0631C12.5721 57.0449 12.459 57.0267 12.3424 57.0079C12.1913 56.9836 12.0402 56.9592 11.8845 56.9341C11.7271 56.9088 11.5696 56.8834 11.4074 56.8573C11.0789 56.8044 10.7505 56.7512 10.4221 56.6979C10.2808 56.6754 10.1395 56.6528 9.9939 56.6296C9.84958 56.6064 9.70526 56.5831 9.55657 56.5592C9.14413 56.4961 9.14413 56.4961 8.61613 56.5082ZM42.0931 60.7622C42.5904 61.4016 43.269 61.5702 44.012 61.8026C44.1951 61.8627 44.1951 61.8627 44.3819 61.924C46.5454 62.6222 48.7697 62.637 50.971 62.0569C50.414 61.5 49.7377 61.5367 48.9856 61.4486C48.8245 61.4286 48.6635 61.4086 48.4975 61.388C48.1562 61.3459 47.8148 61.3046 47.4732 61.264C46.9526 61.202 46.4324 61.1377 45.9121 61.0729C45.5803 61.0323 45.2484 60.9918 44.9166 60.9515C44.7616 60.9324 44.6067 60.9134 44.447 60.8937C43.6571 60.8005 42.8903 60.7411 42.0931 60.7622Z" fill="#EF5000"/>
<path d="M57.0746 25.9906C57.7227 26.5161 58.3294 27.0701 58.9241 27.6552C59.0672 27.7958 59.2102 27.9365 59.3576 28.0814C62.0427 30.886 63.4444 34.6589 63.4209 38.5213C63.4195 38.7881 63.4195 38.7881 63.4181 39.0602C63.3465 43.4397 61.4665 47.188 58.3693 50.2198C55.3827 53.0166 51.3949 54.3852 47.3269 54.2849C42.973 54.0878 39.0877 52.2053 36.067 49.079C33.0975 45.601 32.005 41.54 32.2501 37.0358C32.5864 32.8566 34.8669 29.0512 38.0242 26.3605C43.4753 22.0808 51.481 21.8103 57.0746 25.9906ZM38.7474 31.4005C36.6991 33.8387 35.9769 36.9189 36.2353 40.0407C36.6674 43.2058 38.2711 45.84 40.7327 47.8435C41.1758 48.1654 41.6236 48.4585 42.0932 48.7401C42.2076 48.8114 42.3221 48.8827 42.44 48.9561C44.964 50.3759 47.9573 50.5886 50.7283 49.9308C53.7845 49.0062 56.4216 47.1192 57.9994 44.3012C58.348 43.5741 58.6479 42.839 58.9241 42.0817C59.0004 41.8757 59.0767 41.6697 59.1553 41.4575C59.8477 38.1113 59.2438 35.0072 57.4756 32.1042C55.609 29.4742 53.1019 27.9658 49.9885 27.1769C45.4827 26.4827 41.7727 28.1434 38.7474 31.4005Z" fill="#EF5000"/>
<path d="M67.9875 25.8017C68.1447 25.8209 68.3019 25.8402 68.4639 25.86C68.9781 25.9233 69.492 25.988 70.006 26.0528C70.3659 26.0976 70.7258 26.1424 71.0856 26.187C71.8374 26.2806 72.589 26.3749 73.3406 26.4697C74.3025 26.591 75.2646 26.7104 76.2268 26.8291C76.9691 26.921 77.7111 27.0139 78.4532 27.1071C78.8079 27.1516 79.1626 27.1957 79.5174 27.2394C80.0133 27.3007 80.5089 27.3634 81.0045 27.4266C81.1501 27.4443 81.2957 27.4619 81.4457 27.4802C82.6443 27.6355 83.6336 27.8002 84.4477 28.765C85.4307 30.7309 84.108 35.0309 83.8436 37.1322C83.7784 37.6512 83.7138 38.1702 83.6492 38.6892C83.4969 39.9133 83.3436 41.1372 83.1897 42.3611C83.0315 43.6199 82.8747 44.8788 82.7185 46.1378C82.5837 47.2246 82.4481 48.3113 82.3119 49.3979C82.2308 50.0445 82.15 50.6911 82.0699 51.3377C81.9808 52.0571 81.8901 52.7762 81.7991 53.4953C81.7731 53.7074 81.747 53.9195 81.7202 54.1379C81.3868 56.7461 81.3868 56.7461 80.737 57.5141C79.5767 58.1313 78.0756 57.7759 76.8127 57.6081C76.6501 57.5874 76.4875 57.5666 76.32 57.5452C75.7878 57.477 75.2558 57.4071 74.7238 57.3371C74.3515 57.2886 73.9792 57.2402 73.6069 57.1918C72.829 57.0904 72.0512 56.9881 71.2736 56.8853C70.2782 56.7538 69.2824 56.6252 68.2865 56.4973C67.5185 56.3983 66.7508 56.2974 65.9831 56.196C65.616 56.1478 65.2489 56.1002 64.8817 56.0533C64.3684 55.9876 63.8556 55.9193 63.3428 55.8503C63.192 55.8316 63.0412 55.8128 62.8859 55.7935C62.0261 55.6748 61.3375 55.4978 60.5884 55.0287C60.1408 54.3153 59.9655 53.783 60.1145 52.9596C60.3115 52.3674 60.5523 51.9277 61.1208 51.6146C62.9201 51.1559 65.33 51.8359 67.1681 52.0752C67.4533 52.1119 67.7386 52.1485 68.0238 52.1851C68.6156 52.2611 69.2073 52.3376 69.799 52.4145C70.5572 52.5131 71.3155 52.6104 72.0739 52.7074C72.6602 52.7825 73.2465 52.8582 73.8327 52.934C74.1125 52.9702 74.3924 53.0061 74.6723 53.042C75.0613 53.0919 75.4502 53.1425 75.8391 53.1933C76.0601 53.2219 76.281 53.2505 76.5087 53.28C77.0495 53.3641 77.0495 53.3641 77.6044 53.5491C77.6157 53.4418 77.6271 53.3346 77.6388 53.224C78.065 49.2319 78.561 45.2488 79.0602 41.2653C79.1778 40.3262 79.2948 39.3869 79.4115 38.4476C79.5023 37.7182 79.5934 36.9888 79.6847 36.2595C79.7281 35.9127 79.7713 35.5659 79.8144 35.2191C79.8741 34.7387 79.9344 34.2583 79.9948 33.778C80.021 33.5655 80.021 33.5655 80.0478 33.3487C80.1256 32.735 80.2062 32.1345 80.3787 31.5394C80.2558 31.526 80.1329 31.5125 80.0063 31.4987C76.8834 31.1568 73.7622 30.802 70.6439 30.42C70.1834 30.3639 69.7227 30.3088 69.262 30.2544C68.583 30.1741 67.9045 30.0912 67.2259 30.0077C67.0207 29.984 66.8156 29.9603 66.6042 29.9359C65.4439 29.7896 64.4699 29.632 63.5709 28.8228C63.2616 28.1872 63.2188 27.5975 63.3628 26.9155C64.4132 25.1064 66.1931 25.5726 67.9875 25.8017Z" fill="#EF5000"/>
<path d="M18.9571 19.6892C19.1126 19.7075 19.268 19.7259 19.4281 19.7448C19.9362 19.8053 20.4442 19.8673 20.9521 19.9296C21.2141 19.9616 21.2141 19.9616 21.4813 19.9942C22.4037 20.1068 23.326 20.2206 24.2482 20.3355C25.1987 20.4537 26.1497 20.5673 27.1008 20.6799C27.8347 20.7676 28.5681 20.8587 29.3014 20.9508C29.6519 20.9942 30.0025 21.0363 30.3533 21.0771C30.8438 21.1344 31.3334 21.1965 31.8231 21.2599C31.967 21.2756 32.1108 21.2913 32.2591 21.3074C33.2709 21.4458 33.7859 21.7516 34.5095 22.4764C34.8304 23.191 34.7312 23.8345 34.5095 24.5687C34.0356 25.2056 33.6097 25.4637 32.8449 25.6206C31.9345 25.6091 31.0403 25.4861 30.1392 25.3642C29.8736 25.3308 29.608 25.2977 29.3423 25.2649C28.6439 25.1779 27.946 25.0866 27.2482 24.9944C26.5463 24.9025 25.8439 24.8147 25.1415 24.7266C22.7743 24.4278 20.4097 24.1141 18.0485 23.7711C18.0414 23.8926 18.0344 24.0142 18.0272 24.1394C17.8807 26.3225 17.5913 28.4883 17.3195 30.6585C17.2658 31.0905 17.2122 31.5224 17.1586 31.9544C17.0183 33.0841 16.8773 34.2136 16.7362 35.3431C16.592 36.4987 16.4484 37.6543 16.3048 38.8099C16.0235 41.072 15.7415 43.3339 15.4591 45.5958C17.6489 45.9161 19.8372 46.2222 22.0366 46.4686C22.5086 46.5232 22.9806 46.5778 23.4527 46.6326C24.1786 46.7164 24.9047 46.7997 25.6309 46.8809C26.3443 46.9611 27.0573 47.0441 27.7702 47.1275C27.9879 47.1512 28.2056 47.1749 28.4299 47.1994C28.6321 47.2235 28.8342 47.2475 29.0425 47.2724C29.3077 47.3025 29.3077 47.3025 29.5783 47.3333C30.2589 47.4883 30.8051 47.7556 31.2381 48.3124C31.4309 48.9608 31.486 49.5575 31.3653 50.2197C30.9954 50.8555 30.9954 50.8555 30.4405 51.3295C29.3848 51.534 28.4509 51.5054 27.3902 51.3715C27.1661 51.3454 27.1661 51.3454 26.9375 51.3187C26.4481 51.2612 25.959 51.2011 25.4698 51.1409C25.1272 51.0999 24.7845 51.0591 24.4418 51.0184C23.7253 50.9328 23.009 50.8461 22.2927 50.7585C21.3775 50.6465 20.4621 50.537 19.5465 50.4283C18.8393 50.3442 18.1323 50.259 17.4253 50.1736C17.0879 50.1329 16.7505 50.0924 16.4131 50.0522C15.9403 49.9956 15.4678 49.9378 14.9953 49.8796C14.7888 49.8552 14.7888 49.8552 14.5782 49.8303C12.3081 49.5464 12.3081 49.5464 11.4941 48.9828C10.676 47.772 11.1081 46.1664 11.2819 44.8109C11.3124 44.5635 11.3428 44.3161 11.373 44.0686C11.4552 43.3993 11.5394 42.7302 11.6242 42.0612C11.7127 41.3593 11.7995 40.6571 11.8865 39.955C12.0329 38.7759 12.1807 37.5969 12.3293 36.4181C12.5007 35.0578 12.6703 33.6974 12.8389 32.3368C13.0014 31.0249 13.165 29.7132 13.3292 28.4015C13.3989 27.8447 13.4682 27.2879 13.5374 26.7311C13.6189 26.0744 13.7014 25.4178 13.7846 24.7613C13.8293 24.4074 13.8731 24.0533 13.9168 23.6993C14.3331 20.4372 14.3331 20.4372 15.2742 19.7021C16.3067 19.1858 17.8446 19.5522 18.9571 19.6892Z" fill="#EF5000"/>
<path d="M50.2309 29.5049C50.9608 29.9964 51.1225 30.274 51.306 31.1348C51.3174 31.3293 51.3289 31.5239 51.3407 31.7243C51.5009 31.7586 51.6611 31.793 51.8262 31.8284C52.644 32.1767 53.1194 32.6162 53.5601 33.3889C53.7509 34.1519 53.6497 34.716 53.248 35.4003C52.5871 36.0076 52.1727 36.1735 51.2713 36.1401C50.633 35.986 50.199 35.7552 49.6472 35.409C49.0592 35.115 48.4768 35.0992 47.8265 35.0535C47.8265 35.2977 47.8265 35.5418 47.8265 35.7933C48.0804 36.0414 48.0804 36.0414 48.4348 36.2182C48.5628 36.2916 48.6908 36.3651 48.8227 36.4408C48.9594 36.5171 49.096 36.5933 49.2368 36.6719C50.6409 37.5022 51.5323 38.2144 52.1498 39.7583C52.4608 41.5308 52.2481 43.03 51.2135 44.5325C50.5408 45.3772 49.7043 45.8593 48.7513 46.3358C48.6674 46.5418 48.5834 46.7478 48.497 46.96C48.0709 47.9106 48.0709 47.9106 47.4566 48.1854C46.6292 48.3096 45.9998 48.2915 45.2487 47.9079C44.8557 47.4316 44.8191 47.2945 44.7285 46.7173C44.6292 46.1967 44.5691 46.0197 44.1382 45.6971C43.8446 45.5443 43.5488 45.3954 43.251 45.2506C42.6631 44.9562 42.3004 44.6437 41.9079 44.1163C41.6754 43.4029 41.6452 42.8208 41.9426 42.1165C42.5045 41.4383 42.7829 41.1941 43.6766 41.053C44.5961 41.0788 45.2704 41.5426 46.0304 42.024C46.6197 42.3093 46.9947 42.3538 47.6415 42.2668C48.0567 41.7594 48.0567 41.7594 47.9999 41.2531C47.7666 40.6263 47.4801 40.4982 46.9017 40.1745C45.575 39.3798 44.0575 38.449 43.5725 36.9031C43.2473 35.4047 43.3982 34.1891 44.1274 32.8341C44.8589 31.7909 45.6921 31.3924 46.8707 30.9787C47.4175 30.7343 47.5866 30.4111 47.8265 29.8748C48.6119 29.3512 49.3091 29.3637 50.2309 29.5049Z" fill="#EF5000"/>
<path d="M24.4522 33.6663C25.1205 33.8067 25.4205 34.1464 25.817 34.6835C26.1082 35.266 26.0663 35.7045 26.002 36.3481C25.6741 36.8987 25.2888 37.3521 24.7073 37.6428C23.4089 37.7492 23.4089 37.7492 22.6959 37.3307C22.081 36.6616 21.9282 36.2423 21.9445 35.3309C22.3187 33.934 23.0941 33.6015 24.4522 33.6663Z" fill="#EF5000"/>
<path d="M72.2411 39.6775C72.772 40.0093 73.0718 40.2291 73.3509 40.7872C73.4528 41.6378 73.4651 42.2627 73.0156 43.0067C72.4859 43.491 72.1442 43.555 71.432 43.6078C70.7127 43.5582 70.3946 43.453 69.8367 43.0067C69.4037 42.4499 69.3906 41.8456 69.4061 41.1513C69.502 40.5758 69.797 40.2599 70.2066 39.8624C70.8461 39.5427 71.542 39.5869 72.2411 39.6775Z" fill="#EF5000"/>
</g>
<defs>
<clipPath id="clip0_131_289">
<rect width="94.6973" height="94.6973" fill="white" transform="translate(0.478516 0.83667)"/>
</clipPath>
</defs>
</svg>
