<svg width="88" height="73" viewBox="0 0 88 73" fill="none" xmlns="http://www.w3.org/2000/svg">
<g clip-path="url(#clip0_141_1424)">
<path d="M30.8879 53.8175C30.1918 53.4171 29.3033 53.6574 28.9032 54.3544C28.5034 55.0513 28.7434 55.9411 29.4394 56.3417M30.8879 53.8175L46.5204 62.4598C43.4625 63.2924 40.3341 62.5821 37.6235 61.0147C35.6464 60.0316 33.7606 58.9058 31.8722 57.7785C31.0642 57.2962 30.2557 56.8135 29.4394 56.3417M30.8879 53.8175C31.6893 54.2808 32.4845 54.7555 33.2798 55.2303C35.1319 56.336 36.9841 57.4418 38.9157 58.4032L30.8879 53.8175ZM29.4394 56.3417L28.9389 57.2074C29.729 57.6641 30.5227 58.1379 31.3228 58.6155C33.217 59.7462 35.1474 60.8985 37.1504 61.8963C40.0225 63.5496 43.4152 64.3417 46.7831 63.4247L46.7832 63.4247L61.0517 59.5378C62.012 59.2762 63.6243 58.9235 65.0615 58.959C66.5831 58.9966 67.363 59.4306 67.5864 60.1703L67.5865 60.1705C67.6975 60.5378 67.671 61.0818 67.4672 61.5823C67.2616 62.087 66.9592 62.3584 66.695 62.4374L66.694 62.4377L39.6709 70.5459C38.5504 70.8808 37.6653 70.9351 36.8284 70.8036C35.9805 70.6705 35.1214 70.3378 34.0505 69.8045L17.8863 60.4596L17.8845 60.4586C17.2518 60.0946 16.6047 60.1089 16.106 60.1943C16.0284 60.2075 15.9474 60.2243 15.8653 60.2432L13.0168 49.2205L21.5836 46.9081C24.0507 46.2423 25.3305 46.1383 26.4293 46.4164C27.5767 46.7069 28.6454 47.4327 30.6716 48.8468L30.6934 48.862C33.4227 50.767 36.9585 53.2349 40.8226 55.0813C41.5364 55.6177 41.6407 56.4399 41.3717 57.0076C41.2371 57.2915 41.0137 57.5045 40.7161 57.6092C40.4247 57.7117 39.9695 57.7415 39.3239 57.4893C37.4415 56.55 35.6539 55.4828 33.8294 54.3934C33.0266 53.9141 32.2167 53.4305 31.3883 52.9517L31.3865 52.9506C30.2109 52.2744 28.7108 52.6808 28.0359 53.8566L28.0358 53.8567C27.3618 55.0317 27.7657 56.5323 28.9406 57.2084L29.4394 56.3417ZM2.40258 48.6501L2.4026 48.6499C2.55135 47.3793 3.70103 46.4677 4.97307 46.6169C6.24494 46.7659 7.15284 47.9186 7.00424 49.1888L2.40258 48.6501ZM2.40258 48.6501C2.25418 49.9201 3.16163 51.073 4.43396 51.222C5.70584 51.3712 6.85562 50.4597 7.00421 49.1891L2.40258 48.6501ZM72.1355 12.2444L74.9839 23.2671L66.4171 25.5795C63.95 26.2454 62.6702 26.3494 61.5715 26.0713C60.4241 25.7808 59.3554 25.0549 57.3292 23.6408C57.3291 23.6408 57.3291 23.6408 57.3291 23.6408L57.3072 23.6255C54.5779 21.7205 51.0422 19.2527 47.1781 17.4063C46.4643 16.8698 46.36 16.0476 46.6291 15.4799C46.7637 15.196 46.987 14.983 47.2846 14.8783C47.5761 14.7758 48.0312 14.746 48.6769 14.9982C50.5587 15.9371 52.3456 17.004 54.1695 18.093C54.9729 18.5726 55.7834 19.0565 56.6124 19.5357L56.6142 19.5368C57.7898 20.213 59.29 19.8067 59.9648 18.6309L59.9649 18.6307C60.6387 17.4563 60.2354 15.9566 59.0618 15.28C58.2718 14.8233 57.4781 14.3496 56.678 13.8719C54.7837 12.7412 52.8534 11.5889 50.8503 10.5911C47.9782 8.93779 44.5855 8.14575 41.2177 9.0627L41.2175 9.06273L26.9491 12.9494C26.9491 12.9494 26.949 12.9495 26.949 12.9495C25.9886 13.211 24.3765 13.5638 22.9393 13.5283C21.4178 13.4906 20.6378 13.0567 20.4143 12.3169C20.4143 12.3169 20.4143 12.3169 20.4143 12.3169L72.1355 12.2444ZM72.1355 12.2444C72.0533 12.2633 71.9723 12.2801 71.8947 12.2933C71.396 12.3787 70.7489 12.393 70.1162 12.0291L70.1142 12.028L53.95 2.68311L72.1355 12.2444ZM85.5983 23.8372L85.5983 23.8374C85.4496 25.1079 84.2999 26.0195 83.0278 25.8703L85.5983 23.8372ZM85.5983 23.8372C85.7467 22.5673 84.8394 21.4144 83.5672 21.2653L85.5983 23.8372ZM12.6568 67.4904L13.625 67.2402L12.6568 67.4904C12.7855 67.9885 12.4805 68.5051 11.9855 68.6333L7.88353 69.6962C7.38909 69.8243 6.87314 69.5214 6.74449 69.0236L1.23091 47.687L0.262713 47.9372L1.23091 47.687C1.10212 47.1887 1.40723 46.6723 1.90202 46.544L6.00395 45.4812C6.49837 45.3531 7.01431 45.656 7.14298 46.1537C7.14298 46.1537 7.14299 46.1537 7.14299 46.1537L12.6568 67.4904ZM81.9968 27.006L82.2476 27.974L81.9967 27.006C81.5026 27.1341 80.9866 26.8313 80.8579 26.3335L75.3442 4.99687C75.2154 4.49858 75.5204 3.98216 76.0154 3.8539L80.1172 2.79108C80.6116 2.66297 81.1276 2.96587 81.2562 3.46359L86.77 24.8002C86.8988 25.2984 86.5937 25.8149 86.0988 25.9432L81.9968 27.006ZM53.8436 44.349L51.5572 45.0855L51.0506 42.7331L50.8181 41.6531L49.7665 41.9918L46.8509 42.9309L39.9424 38.937L39.4248 38.6377L38.9162 38.952C36.4627 40.4683 33.2814 40.6192 30.6137 39.0769C26.7433 36.8393 25.4162 31.8824 27.6515 28.0054C29.8865 24.1293 34.8352 22.8021 38.7048 25.0393L39.2054 24.1736L38.7049 25.0393C41.3728 26.5817 42.8338 29.4169 42.749 32.304L42.7315 32.9004L43.2481 33.1991L59.7413 42.7343L61.165 47.3827L56.4351 48.4718L55.7736 48.0894L55.1278 45.0903L54.8952 44.0102L53.8436 44.349ZM36.4574 30.9567C36.4574 28.9108 34.8006 27.25 32.7541 27.25C30.7076 27.25 29.0508 28.9108 29.0508 30.9567C29.0508 33.0028 30.7075 34.6637 32.7541 34.6637C34.8006 34.6637 36.4574 33.0028 36.4574 30.9567ZM83.567 21.2652C82.2952 21.1161 81.1453 22.0275 80.9967 23.298C80.848 24.5683 81.7557 25.7211 83.0276 25.8703L83.567 21.2652Z" stroke="#EF5000" stroke-width="2"/>
</g>
<defs>
<clipPath id="clip0_141_1424">
<rect width="88" height="72" fill="white" transform="translate(0 0.243652)"/>
</clipPath>
</defs>
</svg>
