<svg width="28" height="19" viewBox="0 0 28 19" fill="none" xmlns="http://www.w3.org/2000/svg">
<path d="M25.7607 5.09754C19.298 -1.38408 8.37601 -1.38408 1.91453 5.09754C-0.331473 7.35207 -0.54849 10.6748 1.38716 13.1773C1.60382 13.4538 1.90345 13.653 2.24174 13.7455C2.58002 13.838 2.93901 13.8188 3.26563 13.6909L8.98273 11.6575L9.0084 11.647C9.26106 11.5465 9.48455 11.3841 9.65842 11.1746C9.83229 10.9651 9.95098 10.7152 10.0036 10.4478L10.692 6.99406C10.6987 6.9556 10.7152 6.91953 10.74 6.88939C10.7647 6.85925 10.7968 6.83605 10.8332 6.82207C12.7664 6.14924 14.8686 6.14471 16.8046 6.8092C16.8409 6.82282 16.8731 6.84558 16.898 6.8753C16.9229 6.90502 16.9398 6.94068 16.947 6.97885L17.6715 10.4595C17.7265 10.7239 17.8458 10.9706 18.0188 11.1776C18.1919 11.3846 18.4133 11.5454 18.6633 11.6458L18.6901 11.6552L24.4072 13.6909C24.7342 13.8185 25.0934 13.837 25.4317 13.7439C25.7701 13.6508 26.0695 13.4509 26.2857 13.1738C28.2237 10.6748 28.0067 7.35207 25.7607 5.09754ZM25.1773 12.3174C25.1457 12.3557 25.1028 12.3829 25.0547 12.3951C25.0067 12.4073 24.956 12.4039 24.9101 12.3853L24.8844 12.3747L19.1673 10.3413C19.1356 10.3259 19.1078 10.3035 19.086 10.2757C19.0641 10.2479 19.0489 10.2156 19.0413 10.181L18.3156 6.70156C18.2582 6.42557 18.1308 6.16909 17.9456 5.95695C17.7604 5.74481 17.5237 5.5842 17.2585 5.49065C15.0266 4.72476 12.6032 4.73011 10.3747 5.50586C10.1093 5.60143 9.87309 5.76426 9.68908 5.97851C9.50506 6.19276 9.37949 6.45113 9.32458 6.72847L8.63037 10.181C8.62311 10.2179 8.60714 10.2524 8.58378 10.2817C8.56043 10.311 8.53039 10.3343 8.49619 10.3495L2.78609 12.3747L2.76043 12.3853C2.71447 12.4039 2.66381 12.4073 2.61577 12.3951C2.56774 12.3829 2.52482 12.3557 2.49324 12.3174C0.976458 10.3589 1.14447 7.85749 2.9051 6.09084C5.86749 3.11913 9.85312 1.63327 13.8376 1.63327C17.8221 1.63327 21.8077 3.11913 24.7701 6.09084C26.5307 7.85749 26.6964 10.3589 25.1819 12.3174H25.1773ZM24.8051 17.7858C24.8051 17.972 24.7313 18.1506 24.6 18.2822C24.4688 18.4139 24.2907 18.4878 24.105 18.4878H3.57015C3.38449 18.4878 3.20643 18.4139 3.07514 18.2822C2.94386 18.1506 2.8701 17.972 2.8701 17.7858C2.8701 17.5997 2.94386 17.4211 3.07514 17.2895C3.20643 17.1578 3.38449 17.0838 3.57015 17.0838H24.105C24.2907 17.0838 24.4688 17.1578 24.6 17.2895C24.7313 17.4211 24.8051 17.5997 24.8051 17.7858Z" fill="#EF5000"/>
</svg>
