<svg width="64" height="62" viewBox="0 0 64 62" fill="none" xmlns="http://www.w3.org/2000/svg">
<path fill-rule="evenodd" clip-rule="evenodd" d="M9.48582 58.1205C9.44751 58.0733 9.40802 58.0244 9.36647 57.9795C8.9642 57.5382 8.59479 57.0497 8.29567 56.7351C6.64564 54.9984 4.57979 52.7201 3.36312 50.5073C7.59104 46.2778 12.4185 41.5087 18.7325 41.425C22.1002 41.38 25.4689 42.1075 28.8275 42.3322C31.1758 42.4875 34.1303 42.2055 36.3023 43.2782C37.6056 43.9218 37.413 45.5768 36.3715 46.4677C35.4497 47.2563 34.0466 47.2625 32.8868 47.2544C30.7299 47.2401 28.5842 46.6904 26.427 46.7498C25.5252 46.7742 24.8131 47.5261 24.8377 48.4293C24.8623 49.3303 25.6146 50.0435 26.5166 50.0168C28.6367 49.9596 30.7445 50.5093 32.8644 50.5237C34.7626 50.5359 36.9876 50.2417 38.4963 48.9524C41.3169 46.5392 41.2781 42.091 37.7504 40.3483C35.2141 39.0936 31.7873 39.253 29.045 39.0691C25.6001 38.8403 22.1434 38.1108 18.6892 38.1558C11.3172 38.2538 5.55732 43.6888 0.662337 48.5846C0.542038 48.7052 0.44118 48.8437 0.363363 48.9952L0.025194 49.6552C0.025194 49.6552 0.257713 51.6617 -0.0078125 51.0794C1.24555 53.8274 3.85336 56.8045 5.9254 58.9868C6.2839 59.3647 6.74363 59.9901 7.24064 60.4865C7.77774 61.0259 8.37259 61.4244 8.93635 61.594C9.57629 61.7841 10.2226 61.6859 10.8361 61.3099C11.3681 60.9851 11.8931 60.2843 12.2802 59.9124C13.0038 59.2177 13.6433 58.8008 14.6499 58.7846C19.6842 58.6966 24.6119 59.567 29.6501 58.858C35.1802 58.0816 40.6572 55.3947 45.6649 53.0388C49.5328 51.2183 53.6111 49.3752 56.9743 46.6986C58.8091 45.2377 60.6563 43.1883 60.7891 40.7016C60.9668 37.3568 57.5179 35.3219 54.6063 35.8531C50.675 36.5721 45.9592 39.6187 42.2751 41.3065C41.4538 41.6824 41.0939 42.655 41.4701 43.4743C41.846 44.2936 42.8166 44.6553 43.6359 44.2794C47.1013 42.6917 51.4963 39.7434 55.1926 39.0691C56.2122 38.8832 57.5852 39.3572 57.5239 40.5279C57.4403 42.0829 56.0855 43.2271 54.9393 44.1405C51.7721 46.6618 47.9145 48.368 44.2735 50.0802C39.5521 52.3013 34.4085 54.8881 29.1951 55.6216C24.2907 56.3101 19.4942 55.4315 14.5939 55.5153C12.672 55.5479 11.3973 56.2285 10.016 57.5545C9.89133 57.673 9.67414 57.9101 9.48582 58.1203V58.1205ZM13.0426 1.40976C12.9019 1.6423 12.822 1.90652 12.8103 2.17805C12.6866 4.93453 12.3245 7.92574 12.9393 10.6392C14.1324 15.9087 18.5256 19.6152 23.7415 20.3304C26.3314 25.1464 26.6829 30.5916 26.8245 36.0084C26.8481 36.9094 27.5996 37.6226 28.5014 37.598C29.4032 37.5756 30.1162 36.8236 30.0928 35.9226C30.0589 34.6292 30.0091 33.3337 29.9229 32.0464C30.0746 31.904 30.198 31.7342 30.2864 31.5459C31.3656 29.2513 32.6375 27.349 34.0932 25.7205C35.1867 26.8116 36.4215 27.7332 37.7373 28.5627C39.0636 29.4004 40.5574 30.1851 42.1363 30.4077C43.6891 30.6285 45.2808 30.4404 46.7744 29.9869C53.1637 28.0478 56.2348 22.1019 58.8501 16.4871C59.8207 14.4069 60.6768 12.188 62.3585 10.5615C62.4155 10.5064 62.4667 10.4472 62.5137 10.3859C62.6478 10.3419 62.7806 10.2942 62.9121 10.243C63.7539 9.91792 64.1749 8.97193 63.85 8.13012C63.5251 7.2883 62.577 6.86939 61.7352 7.19444C59.8841 7.90747 58.0696 7.59686 56.1366 7.3415C51.8479 6.77346 45.6976 5.33503 40.689 6.15017C36.889 6.76934 33.6961 8.59398 32.0528 12.6191C31.402 14.2149 31.0526 15.8578 30.8991 17.5701C30.8183 18.467 31.4821 19.2638 32.3807 19.3435C33.2792 19.4253 34.0742 18.7612 34.1549 17.8622C34.2793 16.4769 34.5532 15.1446 35.0797 13.8554C36.5566 10.2368 39.8836 9.26825 43.5012 9.17424C47.698 9.06388 52.3138 10.1325 55.7077 10.582C56.4963 10.6862 57.2707 10.7843 58.035 10.8374C57.2094 12.1962 56.5556 13.6695 55.8875 15.1058C53.6522 19.9034 51.284 25.2015 45.8264 26.8586C44.7843 27.1734 43.6768 27.3246 42.596 27.1713C41.4703 27.0119 40.4288 26.3968 39.4825 25.7982C38.3877 25.1075 37.3535 24.3496 36.4403 23.4444C39.4016 20.9453 42.9454 19.1515 47.0136 17.3616C47.8391 16.9999 48.2149 16.0334 47.8513 15.2079C47.4876 14.3825 46.5232 14.0066 45.6976 14.3703C38.7128 17.4412 33.2001 20.6185 29.2772 26.6401C28.757 23.8265 27.9039 21.0967 26.4822 18.5283C27.0519 16.5505 27.424 14.262 27.2557 12.0981C27.0497 9.44802 26.0484 6.988 23.8062 5.31455C22.4185 4.27661 20.8563 3.6125 19.3167 2.90758C18.0537 2.32938 16.8022 1.72657 15.7627 0.698797C15.1211 0.0653375 14.0852 0.0696107 13.451 0.71309C13.2579 0.906921 13.1174 1.14658 13.0426 1.40976ZM15.9178 4.85069C15.8102 6.55877 15.7601 8.29353 16.1278 9.91807C16.9631 13.608 19.9325 16.2398 23.5164 16.9773C23.8873 15.5124 24.1164 13.8962 23.9964 12.3516C23.8632 10.6413 23.2973 9.01481 21.8497 7.93193C20.6503 7.03692 19.2862 6.48937 17.9557 5.88052C17.2628 5.5618 16.5781 5.2307 15.9178 4.85069Z" fill="#EF5000"/>
</svg>
