<svg width="83" height="83" viewBox="0 0 83 83" fill="none" xmlns="http://www.w3.org/2000/svg">
<g clip-path="url(#clip0_131_613)">
<path d="M25.7943 35.524C26.5273 36.118 27.2022 36.7662 27.8657 37.4361C27.9093 37.3418 27.9528 37.2476 27.9977 37.1504C28.7759 35.6847 30.4553 34.9055 31.9787 34.4273C33.2829 34.1379 34.5671 34.125 35.8328 34.568C36.4957 35.0867 36.7282 35.5208 36.9482 36.3207C37.1863 38.5829 36.5983 40.5908 35.1954 42.3757C34.0932 43.6182 32.6564 44.3649 31.0526 44.7659C30.369 44.7659 29.6854 44.7659 28.9811 44.7659C28.9811 47.1847 28.9811 49.6035 28.9811 52.0956C30.506 52.043 32.0309 51.9904 33.602 51.9362C33.2865 51.463 32.971 50.9898 32.646 50.5022C32.1057 49.4274 31.9509 48.3636 31.9389 47.1759C31.9373 47.0622 31.9357 46.9485 31.934 46.8314C31.9465 46.0815 32.0941 45.5621 32.4866 44.9252C33.4315 44.0287 34.3097 44.0819 35.5677 44.0949C37.6843 44.2167 39.3828 45.1858 40.839 46.6854C41.0911 46.9966 41.0911 46.9966 41.0911 47.3153C41.1963 47.3153 41.3014 47.3153 41.4098 47.3153C41.4531 47.221 41.4965 47.1268 41.5411 47.0296C42.2905 45.6229 43.8524 44.8469 45.2894 44.3065C46.4881 43.9883 48.0665 43.8735 49.2375 44.3177C49.8962 44.733 50.2463 45.1433 50.4923 45.8812C50.6631 48.2722 50.2572 49.8988 48.8989 51.9362C50.4238 51.9888 51.9487 52.0414 53.5198 52.0956C53.5198 49.6768 53.5198 47.258 53.5198 44.7659C52.8362 44.7659 52.1526 44.7659 51.4483 44.7659C50.3207 44.4385 49.3699 44.0198 48.4208 43.3318C48.3261 43.2652 48.2315 43.1987 48.1339 43.1301C46.688 42.0145 45.8922 40.3135 45.5527 38.5515C45.436 37.3107 45.4161 36.1523 46.0307 35.046C46.643 34.5154 47.1409 34.3122 47.9428 34.2493C48.0439 34.2411 48.1449 34.2328 48.2491 34.2244C50.2134 34.1384 52.1417 34.7673 53.6287 36.0531C53.9831 36.397 54.3244 36.7337 54.6352 37.1174C54.6352 37.2226 54.6352 37.3278 54.6352 37.4361C54.7403 37.3277 54.8455 37.2192 54.9539 37.1075C55.1127 36.9509 55.2721 36.7949 55.4319 36.6394C55.5208 36.5511 55.6098 36.4628 55.7014 36.3718C57.2953 34.8744 59.2379 34.1546 61.4141 34.2094C62.2957 34.2991 63.0046 34.4922 63.638 35.1257C64.308 36.2424 64.2084 37.9394 63.9754 39.1998C63.5008 41.0605 62.3952 42.5357 60.8495 43.6505C59.1944 44.6316 58.0664 44.7659 56.0693 44.7659C56.0693 47.1847 56.0693 49.6035 56.0693 52.0956C57.5942 52.043 59.1191 51.9904 60.6902 51.9362C60.3747 51.4104 60.0592 50.8846 59.7341 50.3428C59.0945 48.843 58.7579 47.0761 59.286 45.4829C59.5899 44.8961 59.807 44.6238 60.3715 44.2878C62.2587 43.8072 64.3316 44.0922 66.0082 45.0646C66.937 45.6665 67.7281 46.3635 68.4979 47.156C68.5618 47.0751 68.6257 46.9941 68.6915 46.9107C69.9163 45.4277 71.5159 44.4283 73.4375 44.1285C75.8494 43.9786 75.8494 43.9786 76.9431 44.6065C77.5551 45.4657 77.6892 46.123 77.6701 47.1659C77.6688 47.2981 77.6675 47.4302 77.6662 47.5663C77.6135 49.2117 77.0872 50.5913 76.1464 51.9362C76.2889 51.95 76.4315 51.9638 76.5783 51.9779C78.2885 52.1767 79.6917 52.6134 80.9266 53.8483C81.9324 55.1988 82.0896 56.3878 82.0883 58.0422C82.0899 58.3382 82.0899 58.3382 82.0916 58.6401C82.0941 59.1793 82.0951 59.7186 82.0953 60.2578C82.0955 60.5952 82.0962 60.9325 82.0971 61.2699C82.1 62.4479 82.1013 63.626 82.1011 64.804C82.1009 65.9003 82.1042 66.9966 82.1093 68.0929C82.1134 69.0358 82.1152 69.9788 82.115 70.9217C82.1149 71.4842 82.1158 72.0466 82.1191 72.609C82.1228 73.2364 82.1214 73.8638 82.1194 74.4912C82.1212 74.6764 82.123 74.8616 82.1249 75.0524C82.1168 76.0933 82.0366 76.7494 81.4046 77.5903C80.4484 78.3473 79.7185 78.4107 78.5315 78.408C78.4009 78.4083 78.2703 78.4086 78.1357 78.409C77.6952 78.4099 77.2547 78.4096 76.8143 78.4094C76.4964 78.4098 76.1785 78.4103 75.8606 78.4108C74.9849 78.4121 74.1092 78.4124 73.2335 78.4125C72.2899 78.4128 71.3464 78.414 70.4028 78.4151C68.2309 78.4174 66.0591 78.4183 63.8873 78.419C62.8142 78.4194 61.7412 78.42 60.6681 78.4206C56.9956 78.4226 53.323 78.4243 49.6505 78.4249C49.4199 78.4249 49.1894 78.4249 48.9588 78.425C48.7277 78.425 48.4966 78.4251 48.2655 78.4251C47.8018 78.4252 47.3382 78.4252 46.8745 78.4253C46.7596 78.4253 46.6446 78.4253 46.5262 78.4254C42.7977 78.4259 39.0692 78.4285 35.3407 78.4322C31.3995 78.4361 27.4582 78.4383 23.5169 78.4385C23.0844 78.4385 22.6519 78.4385 22.2193 78.4386C22.1128 78.4386 22.0063 78.4386 21.8966 78.4386C20.288 78.4388 18.6794 78.4403 17.0707 78.4424C15.2413 78.4449 13.412 78.4457 11.5826 78.4444C10.6488 78.4438 9.71512 78.4439 8.78137 78.4462C7.92695 78.4482 7.07256 78.448 6.21814 78.4461C5.90867 78.4457 5.59921 78.4462 5.28975 78.4476C4.86966 78.4494 4.44967 78.4482 4.02957 78.4463C3.84865 78.4481 3.84865 78.4481 3.66407 78.45C2.62957 78.4397 1.91273 78.2023 1.12613 77.5206C0.500064 76.7872 0.417808 76.3044 0.407533 75.3359C0.405951 75.2223 0.404369 75.1087 0.402739 74.9917C0.39809 74.6163 0.395912 74.2411 0.394151 73.8657C0.39325 73.7368 0.392349 73.6079 0.391421 73.4752C0.386645 72.7921 0.383703 72.1091 0.382325 71.426C0.380585 70.7248 0.372943 70.0239 0.363849 69.3228C0.35787 68.7801 0.356253 68.2374 0.355767 67.6946C0.354811 67.4364 0.35228 67.1783 0.34806 66.9202C0.320766 65.1212 0.514793 63.6197 1.76558 62.2197C2.94174 61.0507 4.27405 60.6274 5.91056 60.6278C6.17531 60.6328 6.17531 60.6328 6.44541 60.6378C6.63061 60.6387 6.8158 60.6396 7.00661 60.6405C7.59267 60.6441 8.17857 60.6521 8.76459 60.6602C9.16419 60.6634 9.56379 60.6663 9.96339 60.6689C10.9382 60.6754 11.9127 60.6879 12.8876 60.7001C12.8876 58.7019 12.8876 56.7038 12.8876 54.6451C12.2566 54.6451 11.6256 54.6451 10.9755 54.6451C9.02385 54.2689 7.24609 53.1831 6.09063 51.5671C4.92971 49.7489 4.54602 47.7844 4.95407 45.6653C5.13058 45.0737 5.36885 44.7933 5.87651 44.4472C7.61371 43.7592 9.45054 44.0666 11.1348 44.7659C12.2145 45.2906 13.0404 45.9519 13.8436 46.8373C13.9488 46.9425 14.0539 47.0476 14.1623 47.156C14.2225 47.0769 14.2827 46.9978 14.3447 46.9163C15.6024 45.3641 17.2824 44.4035 19.2612 44.1285C19.6062 44.1105 19.9516 44.1007 20.297 44.0986C20.4695 44.0963 20.642 44.0941 20.8198 44.0918C21.5873 44.1467 22.1241 44.3162 22.7269 44.7957C23.5079 45.772 23.5039 46.9133 23.4041 48.112C23.0527 50.3713 22.0022 52.0313 20.2335 53.4544C18.7522 54.4825 17.2073 54.6451 15.437 54.6451C15.437 56.6432 15.437 58.6414 15.437 60.7001C17.2249 60.7001 19.0127 60.7001 20.8547 60.7001C20.8296 59.2438 20.8296 59.2438 20.7972 57.7877C20.7869 56.5893 20.8702 55.6809 21.492 54.6451C21.5986 54.4543 21.5986 54.4543 21.7074 54.2598C22.5932 53.0288 23.8311 52.3391 25.3162 52.0956C25.6843 52.0956 26.0524 52.0956 26.4316 52.0956C26.4316 49.6768 26.4316 47.258 26.4316 44.7659C25.7481 44.7659 25.0645 44.7659 24.3602 44.7659C22.2187 44.2251 20.4904 43.0918 19.3353 41.1726C18.6939 39.9402 18.409 38.8095 18.4147 37.4262C18.4122 37.3024 18.4096 37.1787 18.407 37.0511C18.4062 36.1313 18.5855 35.4958 19.1704 34.759C20.9353 33.4112 24.1704 34.4707 25.7943 35.524ZM21.014 36.7988C20.8997 38.2914 21.2024 39.4706 22.1294 40.6628C22.9474 41.5227 24.0042 42.1394 25.1918 42.2749C25.6101 42.276 26.0159 42.2606 26.4316 42.2164C26.5272 40.7513 26.1164 39.5263 25.1706 38.399C24.1225 37.3725 22.8731 36.831 21.4124 36.7788C21.2809 36.7854 21.1494 36.792 21.014 36.7988ZM30.1407 38.5335C29.2118 39.6951 28.8887 40.7373 28.9811 42.2164C30.374 42.3231 31.5713 42.0791 32.6958 41.2105C33.7743 40.132 34.4237 38.9835 34.4286 37.4262C34.4188 37.2191 34.4089 37.0121 34.3987 36.7988C32.6995 36.6879 31.2868 37.2782 30.1407 38.5335ZM48.1022 36.7988C48.0024 38.345 48.4338 39.5929 49.4018 40.8103C50.1956 41.5957 51.2098 42.1892 52.3372 42.2319C52.4777 42.2301 52.6182 42.2282 52.7629 42.2263C52.905 42.2249 53.0472 42.2235 53.1936 42.222C53.3551 42.2192 53.3551 42.2192 53.5198 42.2164C53.6171 40.7085 53.2692 39.5992 52.3048 38.422C51.4557 37.5253 50.4379 36.9885 49.2176 36.7988C48.8458 36.7927 48.4739 36.7915 48.1022 36.7988ZM57.2183 38.5223C56.3362 39.5977 55.9794 40.838 56.0693 42.2164C57.5052 42.369 58.5347 42.0622 59.7341 41.2603C60.6404 40.4975 61.2032 39.5407 61.4869 38.3922C61.5316 37.8555 61.528 37.3354 61.4869 36.7988C59.8678 36.6709 58.341 37.3823 57.2183 38.5223ZM7.46993 46.678C7.31729 48.1139 7.62408 49.1434 8.42599 50.3428C9.26474 51.3393 10.403 52.0019 11.7087 52.1392C12.1405 52.1522 12.1405 52.1522 12.7282 52.0956C12.9208 51.9387 12.9208 51.9387 12.9019 51.6393C12.8106 50.1712 12.2563 48.8231 11.1846 47.7934C10.087 46.935 8.84789 46.574 7.46993 46.678ZM16.7118 48.112C15.6816 49.3967 15.3791 50.4682 15.437 52.0956C16.9449 52.1929 18.0542 51.845 19.2314 50.8806C20.1281 50.0315 20.665 49.0137 20.8547 47.7934C20.8608 47.4216 20.862 47.0497 20.8547 46.678C19.3105 46.5783 17.8462 47.0137 16.7118 48.112ZM34.5581 46.678C34.4867 48.1768 34.7508 49.3386 35.7052 50.5252C36.5806 51.4272 37.6554 52.0558 38.9294 52.113C39.279 52.1152 39.6265 52.1098 39.9757 52.0956C40.085 50.647 39.6876 49.4189 38.7607 48.2913C37.911 47.4033 36.7442 46.7195 35.4917 46.6624C35.3808 46.6642 35.2699 46.6661 35.1556 46.668C34.9584 46.6713 34.7612 46.6746 34.5581 46.678ZM43.4812 48.5901C42.9048 49.5085 42.497 50.4035 42.5152 51.4981C42.5185 51.6952 42.5218 51.8924 42.5252 52.0956C44.024 52.167 45.1859 51.9029 46.3724 50.9484C47.2744 50.0731 47.903 48.9983 47.9602 47.7243C47.9624 47.3747 47.9571 47.0272 47.9428 46.678C46.1481 46.5425 44.6467 47.2187 43.4812 48.5901ZM61.6462 46.678C61.5545 48.0843 61.9285 49.2914 62.827 50.3833C63.6962 51.338 64.743 52.0131 66.0512 52.1348C66.389 52.1353 66.7267 52.1173 67.0639 52.0956C67.1522 50.9208 66.9962 50.0984 66.4265 49.0681C66.3378 48.9005 66.249 48.7329 66.1576 48.5602C65.3964 47.6345 64.257 46.9387 63.0803 46.678C62.5989 46.6441 62.1277 46.6479 61.6462 46.678ZM71.0138 48.084C70.1106 49.1825 69.5441 50.4993 69.6133 51.9362C69.8094 52.1668 69.8094 52.1668 70.4001 52.1454C71.7078 52.1246 72.8418 51.5848 73.7836 50.6889C74.7214 49.5748 75.1507 48.4451 75.0646 46.9942C75.0479 46.8376 75.0479 46.8376 75.031 46.678C73.5135 46.5634 72.1217 47.0194 71.0138 48.084ZM23.7228 55.9198C23.0086 57.3482 23.4041 59.1031 23.4041 60.7001C28.8728 60.7001 34.3414 60.7001 39.9757 60.7001C39.9757 58.7019 39.9757 56.7038 39.9757 54.6451C38.1252 54.6343 36.2747 54.6255 34.4241 54.6203C33.5648 54.6178 32.7054 54.6144 31.8461 54.609C31.0165 54.6038 30.1869 54.6009 29.3572 54.5997C29.0411 54.5988 28.7249 54.5971 28.4087 54.5945C27.9651 54.591 27.5216 54.5906 27.078 54.5908C26.9479 54.5891 26.8178 54.5874 26.6838 54.5856C25.4259 54.5923 24.563 54.9356 23.7228 55.9198ZM42.5252 54.6451C42.5252 56.6432 42.5252 58.6414 42.5252 60.7001C43.6183 60.7062 43.6183 60.7062 44.7336 60.7125C45.1954 60.7165 45.6573 60.7207 46.1191 60.7256C46.8521 60.7333 47.585 60.7403 48.318 60.7432C48.909 60.7457 49.4999 60.7511 50.0909 60.7587C50.3163 60.7611 50.5417 60.7624 50.7671 60.7625C51.0829 60.7629 51.3988 60.7676 51.7146 60.7724C51.8943 60.7738 52.0741 60.7752 52.2593 60.7767C52.8237 60.8773 53.0161 61.0462 53.3604 61.4968C53.3878 61.8727 53.3878 61.8727 53.3206 62.2536C53.3001 62.381 53.2795 62.5083 53.2584 62.6396C53.23 62.7837 53.23 62.7837 53.2011 62.9308C52.7046 63.0764 52.2609 63.1102 51.7444 63.1105C51.4946 63.1112 51.4945 63.1112 51.2397 63.112C51.0569 63.1117 50.8742 63.1114 50.6859 63.1111C50.3944 63.1116 50.3944 63.1116 50.097 63.1121C49.6701 63.1128 49.2433 63.1131 48.8163 63.1129C48.1218 63.1127 47.4272 63.1135 46.7326 63.1145C45.7241 63.1158 44.7156 63.1166 43.7071 63.1171C42.113 63.1179 40.519 63.1206 38.925 63.1237C38.3796 63.1247 37.8343 63.1257 37.2889 63.1267C37.1526 63.1269 37.0163 63.1272 36.8759 63.1274C35.3245 63.1303 33.773 63.1329 32.2215 63.1353C32.0797 63.1355 31.9379 63.1357 31.7917 63.1359C29.4932 63.1394 27.1947 63.1411 24.8962 63.1423C22.5365 63.1436 20.1768 63.1473 17.8171 63.1532C16.3615 63.1567 14.906 63.1582 13.4504 63.1572C12.4529 63.1567 11.4554 63.1585 10.4579 63.1622C9.88232 63.1642 9.30681 63.1652 8.73126 63.1634C8.10716 63.1614 7.48313 63.1644 6.85903 63.1679C6.67733 63.1666 6.49564 63.1652 6.30844 63.1638C5.06829 63.1766 4.34576 63.3608 3.43659 64.2454C2.70202 65.4425 2.80234 66.8053 2.80669 68.163C2.80638 68.3726 2.80608 68.5823 2.80577 68.7983C2.8053 69.2394 2.80597 69.6806 2.80747 70.1217C2.80929 70.6875 2.80823 71.2533 2.80633 71.8191C2.8049 72.3598 2.8059 72.9005 2.80669 73.4412C2.80604 73.6447 2.8054 73.8482 2.80473 74.0578C2.80574 74.2451 2.80674 74.4324 2.80778 74.6253C2.80803 74.7906 2.80829 74.9559 2.80855 75.1262C2.81019 75.5471 2.81019 75.5471 3.1677 75.8376C3.58256 75.869 3.98047 75.8802 4.39553 75.8777C4.58883 75.8783 4.58883 75.8783 4.78604 75.8791C5.22251 75.8802 5.65894 75.8791 6.09541 75.878C6.40963 75.8784 6.72385 75.8789 7.03806 75.8795C7.90514 75.8809 8.7722 75.8802 9.63927 75.8792C10.573 75.8785 11.5066 75.8796 12.4403 75.8805C14.2709 75.8819 16.1014 75.8816 17.9319 75.8807C19.419 75.8799 20.906 75.8798 22.3931 75.8802C22.4986 75.8802 22.6041 75.8802 22.7129 75.8803C23.1412 75.8804 23.5695 75.8805 23.9978 75.8806C28.0186 75.8816 32.0394 75.8807 36.0603 75.879C39.6353 75.8774 43.2103 75.8776 46.7853 75.8791C50.7985 75.8808 54.8118 75.8815 58.8251 75.8805C59.2527 75.8804 59.6803 75.8803 60.1078 75.8802C60.2131 75.8802 60.3184 75.8801 60.4268 75.8801C62.0191 75.8798 63.6114 75.8802 65.2037 75.881C67.0136 75.8819 68.8234 75.8816 70.6333 75.8799C71.5576 75.8791 72.4819 75.8788 73.4062 75.8798C74.251 75.8808 75.0959 75.8803 75.9407 75.8786C76.2476 75.8782 76.5545 75.8784 76.8614 75.8792C77.276 75.8801 77.6907 75.8791 78.1054 75.8777C78.2266 75.8784 78.3479 75.8791 78.4728 75.8799C79.135 75.8966 79.1349 75.8966 79.6519 75.5189C79.7008 75.1089 79.7008 75.1089 79.6931 74.6253C79.6946 74.3444 79.6946 74.3444 79.6962 74.0578C79.6955 73.8543 79.6949 73.6508 79.6942 73.4412C79.6945 73.2325 79.6948 73.0237 79.6951 72.8087C79.6956 72.3658 79.6949 71.923 79.6934 71.4802C79.6916 70.9155 79.6926 70.3508 79.6946 69.7861C79.696 69.2451 79.695 68.704 79.6942 68.163C79.6952 67.8607 79.6952 67.8607 79.6962 67.5522C79.7101 65.7534 79.7101 65.7534 78.9747 64.1558C77.942 63.1466 76.9683 63.1811 75.5951 63.1882C75.3955 63.1874 75.1959 63.1865 74.9903 63.1856C74.5575 63.1841 74.1249 63.1834 73.6921 63.1841C73.0078 63.1852 72.3235 63.1826 71.6392 63.1796C70.0636 63.173 68.488 63.1712 66.9123 63.1694C65.467 63.1678 64.0217 63.1651 62.5764 63.1586C61.8962 63.1557 61.216 63.155 60.5357 63.1562C60.0136 63.1565 59.4915 63.1537 58.9694 63.1515C58.6868 63.153 58.6868 63.153 58.3984 63.1545C58.226 63.1532 58.0536 63.1519 57.8759 63.1505C57.7261 63.1504 57.5764 63.1503 57.4221 63.1502C56.9517 63.0791 56.7318 62.9358 56.3879 62.6122C56.3089 62.3034 56.3089 62.3034 56.3182 61.9748C56.3185 61.8121 56.3185 61.8121 56.3189 61.6462C56.4109 61.235 56.5294 61.1136 56.866 60.8594C57.3106 60.7959 57.3106 60.7959 57.8564 60.7905C58.0605 60.7874 58.2646 60.7842 58.475 60.7809C58.6978 60.7799 58.9206 60.7788 59.1434 60.7779C59.3714 60.7752 59.5994 60.7723 59.8273 60.7692C60.4269 60.7616 61.0265 60.7569 61.6261 60.7527C62.3458 60.7471 63.0654 60.738 63.785 60.7295C64.878 60.717 65.9709 60.709 67.0639 60.7001C67.0639 58.7019 67.0639 56.7038 67.0639 54.6451C58.9661 54.6451 50.8683 54.6451 42.5252 54.6451ZM69.6133 54.6451C69.6133 56.6432 69.6133 58.6414 69.6133 60.7001C70.5001 60.709 70.5001 60.709 71.4047 60.7181C71.9811 60.7255 72.5575 60.7336 73.1339 60.7419C73.5327 60.7472 73.9314 60.7516 74.3301 60.7553C74.9053 60.7606 75.4804 60.769 76.0555 60.7779C76.232 60.7789 76.4085 60.7799 76.5903 60.7809C77.6847 60.8014 78.6228 60.9612 79.6519 61.3374C79.6653 60.7034 79.6743 60.0694 79.6818 59.4353C79.6858 59.2573 79.6898 59.0793 79.6939 58.8959C79.7052 57.6097 79.633 56.4907 78.8054 55.4617C77.7527 54.6294 76.9183 54.5791 75.6198 54.5984C75.4478 54.5991 75.2759 54.5997 75.0987 54.6004C74.5516 54.6031 74.0046 54.6091 73.4575 54.6152C73.0857 54.6176 72.7139 54.6198 72.3421 54.6217C71.4324 54.6266 70.523 54.6359 69.6133 54.6451Z" fill="#EF5000"/>
<path d="M33.4423 15.2876C34.849 16.3018 34.849 16.3018 35.3394 16.9862C35.7614 17.4577 36.0208 17.4865 36.6391 17.5781C38.4204 17.9376 39.7082 18.9329 40.772 20.3865C41.7327 21.9065 41.9795 23.6698 41.6484 25.4313C41.4178 26.2162 41.1137 26.7279 40.4533 27.2382C39.5989 27.6755 38.9328 27.7868 37.9806 27.7832C37.7842 27.7852 37.7842 27.7852 37.5837 27.7873C37.1539 27.791 36.7241 27.7911 36.2943 27.7909C35.9941 27.7921 35.6939 27.7933 35.3938 27.7946C34.7661 27.7968 34.1385 27.797 33.5109 27.7961C32.707 27.7951 31.9032 27.8 31.0993 27.8065C30.48 27.8106 29.8608 27.811 29.2416 27.8105C28.9452 27.8107 28.6487 27.8123 28.3523 27.8151C27.9381 27.8186 27.5241 27.8171 27.1099 27.8143C26.9879 27.8164 26.8659 27.8185 26.7401 27.8207C26.1068 27.8107 25.8226 27.739 25.3195 27.3417C24.9972 26.9195 24.9972 26.9195 24.8976 26.4415C25.0336 25.7885 25.2739 25.5793 25.7939 25.1668C26.2551 25.0874 26.6233 25.0564 27.0837 25.0617C27.2751 25.0592 27.2751 25.0592 27.4703 25.0566C27.8902 25.0521 28.3099 25.0531 28.7299 25.0541C29.0217 25.052 29.3135 25.0496 29.6053 25.0468C30.372 25.0405 31.1387 25.0388 31.9055 25.0382C32.6884 25.0367 33.4713 25.0308 34.2542 25.0252C35.7895 25.0149 37.3247 25.0096 38.8599 25.0074C39.1894 24.3484 39.114 23.5586 38.8991 22.8694C38.4074 21.7181 37.8375 20.9897 36.7287 20.3915C36.2609 20.2077 35.8538 20.1635 35.3544 20.1176C34.3219 19.9817 33.9481 19.5196 33.3159 18.7302C32.2414 17.4617 30.6148 16.6549 28.9807 16.403C26.5661 16.251 24.5505 16.5885 22.607 18.1557C22.3796 18.4271 22.1571 18.7028 21.9398 18.9823C21.2357 19.8249 20.5811 19.9692 19.5506 20.1752C18.4527 20.399 17.7737 20.777 17.1023 21.6706C16.5695 22.4862 16.3721 23.0975 16.3827 24.0813C16.3842 24.2544 16.3856 24.4276 16.3871 24.606C16.3889 24.7385 16.3908 24.8709 16.3927 25.0074C16.5486 25.0089 16.7046 25.0104 16.8653 25.012C17.445 25.0183 18.0246 25.0288 18.6043 25.0405C18.8549 25.045 19.1056 25.0484 19.3563 25.0506C19.7171 25.054 20.0777 25.0615 20.4385 25.0697C20.5502 25.0699 20.6619 25.0701 20.777 25.0703C21.3215 25.0865 21.6058 25.1314 22.0398 25.4716C22.3082 25.8308 22.3788 25.9984 22.378 26.4415C22.3815 26.5467 22.385 26.6519 22.3885 26.7602C22.2285 27.2691 21.9337 27.4305 21.4916 27.7163C21.0518 27.7786 20.6774 27.8059 20.2387 27.8009C20.119 27.8015 19.9994 27.8021 19.8761 27.8028C19.6237 27.8032 19.3712 27.802 19.1188 27.7994C18.7358 27.796 18.3532 27.7993 17.9702 27.8034C15.3934 27.8084 15.3934 27.8084 14.3468 26.7951C14.2602 26.6595 14.2602 26.6595 14.1719 26.5212C14.081 26.3856 14.081 26.3856 13.9882 26.2473C13.3973 25.0908 13.538 23.3475 13.7872 22.1001C14.3415 20.43 15.5965 18.8755 17.1782 18.0804C17.8554 17.7908 18.5003 17.5451 19.221 17.3889C19.8794 17.1483 20.1859 16.7719 20.6601 16.2685C23.9956 13.0269 29.6531 12.771 33.4423 15.2876Z" fill="#EF5000"/>
<path d="M73.4374 6.04571C75.2245 7.51685 76.3033 9.33387 76.6242 11.6227C76.7879 14.2229 76.2165 16.3493 74.5229 18.3549C72.9394 20.0204 71.0349 20.8583 68.747 20.9395C66.239 20.9675 64.2443 20.2432 62.393 18.5043C61.6058 17.6669 60.8931 16.7019 60.6601 15.5564C60.69 14.9689 60.69 14.9689 61.0087 14.4908C61.6017 14.0955 61.9023 14.0576 62.6021 14.1722C63.1123 14.5173 63.3228 14.9627 63.598 15.4967C64.3446 16.8849 65.5984 17.6673 67.0637 18.1557C69.1194 18.298 70.6761 18.0845 72.3151 16.7297C73.4479 15.5927 73.9041 14.2554 73.9752 12.6883C73.9419 11.1853 73.3572 9.83968 72.322 8.75453C71.0514 7.61591 69.6978 7.09402 67.9905 7.11692C66.6441 7.24951 65.2959 7.76269 64.3549 8.75453C64.0464 9.18522 63.7682 9.62237 63.5009 10.0797C62.7882 11.2455 62.7882 11.2455 62.2834 11.4042C61.7302 11.3858 61.4073 11.354 60.929 11.055C60.5793 10.4868 60.5845 10.2159 60.69 9.55124C61.5288 7.56548 62.9172 6.0629 64.884 5.16747C67.832 3.99563 70.7806 4.25206 73.4374 6.04571Z" fill="#EF5000"/>
<path d="M9.12581 68.4855C9.27684 68.4846 9.42788 68.4836 9.58348 68.4827C9.75052 68.4825 9.91757 68.4823 10.0897 68.4822C10.2645 68.4814 10.4394 68.4806 10.6196 68.4798C11.201 68.4774 11.7824 68.4764 12.3638 68.4755C12.7661 68.4746 13.1684 68.4736 13.5708 68.4727C14.3073 68.4713 15.0439 68.4703 15.7805 68.4698C16.8656 68.4691 17.9506 68.4663 19.0356 68.4616C19.9744 68.4578 20.9133 68.4566 21.8521 68.4563C22.252 68.4558 22.6518 68.4545 23.0517 68.4524C23.6103 68.4497 24.1688 68.45 24.7274 68.451C24.8938 68.4496 25.0602 68.4481 25.2316 68.4466C25.4595 68.4479 25.4595 68.4479 25.692 68.4493C25.8241 68.449 25.9562 68.4488 26.0924 68.4486C26.5139 68.5221 26.6507 68.6516 26.91 68.9859C27.0761 69.4713 27.0892 69.7169 26.9399 70.2108C26.7506 70.5793 26.7506 70.5793 26.432 70.898C26.1129 70.9385 26.1129 70.9385 25.7133 70.9395C25.562 70.9406 25.4108 70.9418 25.255 70.9429C25.0885 70.9425 24.922 70.9421 24.7505 70.9417C24.5756 70.9426 24.4007 70.9434 24.2205 70.9442C23.64 70.9464 23.0595 70.9463 22.4789 70.9459C22.0768 70.9465 21.6747 70.9472 21.2726 70.948C20.4289 70.9492 19.5851 70.9491 18.7413 70.9483C17.7656 70.9473 16.7899 70.9493 15.8142 70.9527C14.8761 70.9558 13.938 70.9563 13 70.9557C12.6005 70.9558 12.2011 70.9567 11.8017 70.9583C11.2439 70.9602 10.6862 70.9591 10.1284 70.9573C9.96223 70.9585 9.79609 70.9597 9.6249 70.961C9.4732 70.9599 9.32151 70.9588 9.16521 70.9576C8.96732 70.9576 8.96732 70.9576 8.76544 70.9577C8.3427 70.8833 8.20619 70.7577 7.94828 70.4199C7.76933 69.832 7.73518 69.5739 8.00803 69.0157C8.39775 68.4911 8.47657 68.4878 9.12581 68.4855Z" fill="#EF5000"/>
<path d="M46.6017 68.4461C46.7516 68.4445 46.9015 68.4429 47.056 68.4413C47.2201 68.442 47.3843 68.4427 47.5534 68.4434C47.8131 68.4418 47.8131 68.4418 48.078 68.4401C48.6518 68.4372 49.2254 68.4378 49.7992 68.4387C50.1971 68.438 50.595 68.4372 50.9929 68.4362C51.8276 68.4348 52.6622 68.4351 53.4969 68.4368C54.4615 68.4386 55.426 68.4363 56.3906 68.4321C57.3187 68.4281 58.2468 68.4277 59.175 68.4287C59.5698 68.4288 59.9647 68.4278 60.3595 68.4258C60.9112 68.4235 61.4627 68.4251 62.0143 68.4279C62.1782 68.4263 62.342 68.4248 62.5108 68.4232C63.6109 68.4347 63.6109 68.4347 64.1375 68.7967C64.4589 69.3124 64.4396 69.6663 64.3547 70.2606C64.1373 70.6088 64.1373 70.6088 63.7173 70.898C63.1514 70.9955 62.59 70.9866 62.0169 70.983C61.8437 70.9843 61.6706 70.9857 61.4922 70.9871C60.9193 70.9907 60.3465 70.9897 59.7736 70.9882C59.3759 70.989 58.9783 70.99 58.5806 70.9912C57.7469 70.9929 56.9132 70.9922 56.0795 70.9898C55.1161 70.9871 54.1527 70.9896 53.1893 70.9948C52.2619 70.9995 51.3346 70.9999 50.4072 70.9984C50.0128 70.9982 49.6184 70.9993 49.224 71.0017C48.6731 71.0044 48.1224 71.0021 47.5715 70.9985C47.4079 71.0004 47.2443 71.0022 47.0758 71.0042C45.9766 70.9894 45.9766 70.9894 45.4454 70.5294C45.1563 69.9448 45.2206 69.6066 45.393 68.9859C45.7545 68.5065 46.0128 68.4478 46.6017 68.4461Z" fill="#EF5000"/>
<path d="M36.4853 68.4369C36.7897 68.5078 36.7897 68.5078 37.198 68.8365C37.4966 69.4466 37.4477 69.7719 37.2677 70.4199C37.0984 70.7286 37.0984 70.7286 36.7897 70.8979C35.7074 71.0182 35.7074 71.0182 35.1166 70.649C34.7846 70.1094 34.7887 69.7676 34.8776 69.1452C35.285 68.4832 35.7498 68.3956 36.4853 68.4369Z" fill="#EF5000"/>
<path d="M71.5845 68.458C72.2701 68.4689 72.2701 68.4689 72.6501 68.7568C72.8576 69.2962 72.8711 69.6875 72.7995 70.2606C72.5605 70.649 72.5605 70.649 72.1621 70.8979C71.6014 70.9972 71.0853 71.0129 70.5786 70.7187C70.3347 70.2882 70.2698 69.9587 70.25 69.4639C70.6153 68.7167 70.7657 68.4832 71.5845 68.458Z" fill="#EF5000"/>
</g>
<defs>
<clipPath id="clip0_131_613">
<rect width="81.5831" height="81.5831" fill="white" transform="translate(0.458984 0.628113)"/>
</clipPath>
</defs>
</svg>
