<svg width="81" height="81" viewBox="0 0 81 81" fill="none" xmlns="http://www.w3.org/2000/svg">
<g clip-path="url(#clip0_209_669)">
<path d="M14.9242 34.8644H14.8703C13.2756 34.8644 11.8339 35.8698 11.2828 37.3667L9.19171 43.0495L8.42108 45.1439L5.67296 52.6122L2.05842 62.433C1.90309 62.8558 1.85208 63.3099 1.90975 63.7567C1.96742 64.2034 2.13206 64.6297 2.38967 64.9992C2.64748 65.3684 2.99056 65.6698 3.38977 65.8781C3.78898 66.0863 4.23255 66.1951 4.6828 66.1953H24.6397L16.667 74.6534C16.1345 75.2183 16.0619 76.0348 16.4866 76.6853C16.9051 77.3266 17.6767 77.6003 18.4184 77.3366L31.707 72.6066C32.0864 72.4727 32.5003 72.4727 32.8797 72.6066L46.0083 77.2792C46.7381 77.5389 47.537 77.2628 47.952 76.6094C48.367 75.9559 48.2758 75.1162 47.7309 74.567L39.4281 66.1952H76.0948C76.1711 66.1773 78.1733 66.4053 79.3958 64.5584C79.7297 64.0556 79.9335 63.4776 79.989 62.8765C80.0444 62.2754 79.9496 61.67 79.7133 61.1145C76.568 53.6958 76.6236 53.8272 71.3953 41.4967L71.395 41.4956L71.2783 41.2206L69.5711 37.1944C68.9827 35.8161 67.6189 34.8641 66.052 34.8641H47.8792C51.7011 30.0592 55.7086 23.9747 55.7086 19.5816C55.7086 11.1428 48.8433 4.27734 40.4044 4.27734C31.9697 4.27734 25.1076 11.1427 25.1076 19.5816C25.1076 23.9747 29.1172 30.0592 32.9409 34.8641C26.6711 34.8644 21.3048 34.8644 14.9242 34.8644ZM22.9489 36.7697L20.3587 44.2819C20.1987 44.7456 19.7395 45.0403 19.2564 45.0269L10.6561 44.587L13.0523 38.0752C13.34 37.2944 14.0922 36.7697 14.9242 36.7697H22.9489ZM6.15389 64.29C5.51827 64.29 4.94514 63.9908 4.58155 63.4698C4.21796 62.9481 4.1353 62.3072 4.35452 61.7111L7.10296 54.2422L7.37968 53.4905L15.7564 53.9236C15.9767 53.9355 16.0925 54.0725 16.1419 54.1528C16.1914 54.2331 16.2606 54.3984 16.1709 54.5994L11.857 64.29H6.15389ZM33.5183 70.8114C32.7259 70.53 31.8608 70.53 31.0684 70.8114L18.7861 75.1834L31.71 61.4728C31.7692 61.4095 31.8398 61.4081 31.8853 61.3969C31.9319 61.3969 31.9981 61.4095 32.0558 61.4677L45.5808 75.1045L33.5183 70.8114ZM37.5384 64.29L33.4084 60.1256C32.9953 59.7095 32.4531 59.4833 31.8576 59.4916C31.5697 59.4942 31.2852 59.5553 31.0216 59.6711C30.7579 59.7869 30.5204 59.955 30.3236 60.1652L26.4355 64.29H22.5836L29.2453 45.9194C29.2605 45.8752 29.2867 45.8357 29.3216 45.8047C29.3565 45.7736 29.3988 45.7521 29.4444 45.7422C29.4896 45.7304 29.5372 45.7306 29.5823 45.7429C29.6274 45.7552 29.6685 45.7791 29.7016 45.8122L49.093 64.29H37.5384ZM62.1639 64.29L51.0861 52.4922H73.9872L77.8595 61.6248C78.115 62.2269 78.0541 62.8855 77.6926 63.4309C77.3312 63.9766 76.7489 64.2898 76.0947 64.2898L62.1639 64.29ZM46.3201 36.7697H65.9978C66.9006 36.8405 67.4083 37.3195 67.6683 37.6955C67.9517 38.1578 67.4112 37.0689 69.0787 40.9153H42.6464C43.9071 39.5659 45.1321 38.1836 46.3201 36.7697ZM40.4044 6.18297C47.7926 6.18297 53.8031 12.1939 53.8031 19.5817C53.8031 26.0637 43.2162 37.5669 40.4114 40.4994C37.6055 37.5677 27.013 26.0675 27.013 19.5817C27.0131 12.1939 33.0203 6.18297 40.4044 6.18297ZM39.7278 42.5308C39.816 42.6224 39.9218 42.6953 40.0388 42.7452C40.1558 42.795 40.2817 42.8208 40.4089 42.8209H69.8866L73.1794 50.5869H50.6309C50.2975 50.5867 49.9713 50.6842 49.6926 50.8673C49.414 51.0503 49.195 51.311 49.0626 51.617C48.9302 51.9228 48.8902 52.2607 48.9475 52.589C49.0048 52.9173 49.157 53.2216 49.3853 53.4644L59.5502 64.2902H51.8556L31.0161 44.4323C30.4798 43.9217 29.7289 43.7156 29.0087 43.8875C28.6549 43.9699 28.3272 44.1395 28.0557 44.3809C27.7842 44.6223 27.5774 44.9279 27.4542 45.2697L20.5569 64.2902H13.9428L17.9116 55.375C18.0691 55.0212 18.1381 54.6345 18.1128 54.248C18.0874 53.8616 17.9684 53.4872 17.7661 53.157C17.5637 52.8267 17.2839 52.5507 16.9508 52.3528C16.6178 52.1549 16.2416 52.0411 15.8547 52.0212L8.06827 51.6184L9.96655 46.46L19.1586 46.9295C19.2095 46.9325 19.2601 46.9341 19.3108 46.9341C20.5836 46.9341 21.7412 46.1169 22.1595 44.9036L24.9639 36.77H34.5005C37.1836 39.9623 39.4609 42.2631 39.7278 42.5308Z" fill="#EF5000"/>
<path d="M49.9848 18.911C49.9848 13.6281 45.6906 9.33057 40.4122 9.33057C35.1295 9.33057 30.832 13.6281 30.832 18.911C30.832 24.1896 35.1295 28.4834 40.4122 28.4834C45.6908 28.4834 49.9848 24.1896 49.9848 18.911ZM32.7373 18.911C32.7373 14.679 36.18 11.2359 40.4122 11.2359C44.6402 11.2359 48.0795 14.679 48.0795 18.911C48.0795 23.1387 44.6402 26.5781 40.4122 26.5781C36.1802 26.5781 32.7373 23.1387 32.7373 18.911Z" fill="#EF5000"/>
</g>
<defs>
<clipPath id="clip0_209_669">
<rect width="80" height="80" fill="white" transform="translate(0.945312 0.856934)"/>
</clipPath>
</defs>
</svg>
