<svg width="83" height="84" viewBox="0 0 83 84" fill="none" xmlns="http://www.w3.org/2000/svg">
<g clip-path="url(#clip0_131_252)">
<path d="M2.96312 80.3292H4.46313C29.7431 80.3292 55.0131 80.3292 80.2931 80.3292C81.9531 80.3292 82.6131 80.7292 82.6031 81.7192C82.5931 82.6992 81.9231 83.0992 80.2731 83.0992C54.3431 83.0992 28.4231 83.0992 2.49312 83.0992C0.473125 83.0992 0.203125 82.8192 0.203125 80.7492C0.203125 54.6692 0.203125 28.5892 0.203125 2.50923C0.203125 2.27923 0.203125 2.04924 0.203125 1.81924C0.203125 0.869235 0.633125 0.229235 1.62312 0.249235C2.55312 0.269235 2.95312 0.899235 2.96312 1.78924C2.96312 2.16924 2.96312 2.55924 2.96312 2.93923C2.96312 28.1392 2.96312 53.3392 2.96312 78.5392C2.96312 79.0692 2.96312 79.6092 2.96312 80.3292Z" fill="#EF5000"/>
<path d="M9.43344 73.9993C10.0434 73.9993 10.5734 73.9993 11.0934 73.9993C34.1434 73.9993 57.2034 73.9993 80.2534 73.9993C80.6734 73.9993 81.1934 73.8893 81.4934 74.0893C81.9434 74.3893 82.5234 74.9193 82.5334 75.3493C82.5334 75.7893 81.9734 76.3193 81.5434 76.6593C81.2934 76.8493 80.8034 76.7593 80.4234 76.7593C56.6034 76.7593 32.7834 76.7593 8.96344 76.7593C6.98344 76.7593 6.67344 76.4693 6.67344 74.5093C6.67344 50.4193 6.67344 26.3293 6.67344 2.23928C6.67344 1.92928 6.57344 1.52928 6.73344 1.33928C7.09344 0.909276 7.59344 0.269276 8.00344 0.289276C8.49344 0.319276 9.02344 0.899276 9.37344 1.35928C9.56344 1.59928 9.43344 2.09928 9.43344 2.47928C9.43344 25.7193 9.43344 48.9693 9.43344 72.2093C9.43344 72.7393 9.43344 73.2693 9.43344 73.9693V73.9993Z" fill="#EF5000"/>
<path d="M22.7027 12.0093C21.7827 12.0093 20.9127 12.0193 20.0327 12.0093C18.7827 11.9893 18.3327 11.5893 18.3227 10.3793C18.2927 7.50927 18.3227 4.62927 18.3227 1.75927C18.3227 0.779271 18.8427 0.249271 19.8127 0.239271C22.7127 0.209271 25.6327 0.209271 28.5427 0.229271C29.5627 0.229271 30.0927 0.779271 30.0927 1.80927C30.0927 4.64927 30.1027 7.47927 30.0927 10.3193C30.0927 11.5593 29.6427 11.9793 28.4227 11.9993C27.5427 12.0193 26.6627 11.9993 25.6727 11.9993V20.9393C26.3427 20.9393 27.0427 20.9393 27.7527 20.9393C29.2127 20.9393 30.6627 20.9393 32.1227 20.9393C33.1527 20.9393 33.7127 21.4393 33.7527 22.4593C33.7927 23.4893 33.8027 24.5293 33.7527 25.5593C33.7127 26.4393 33.2427 27.0193 32.2927 26.9793C31.4127 26.9393 31.0227 26.3593 30.9927 25.5193C30.9727 24.9593 30.9927 24.3893 30.9927 23.7593H17.4327C17.4327 24.3893 17.4627 24.9493 17.4327 25.5093C17.3727 26.3793 16.9627 26.9893 16.0027 26.9593C15.0427 26.9293 14.6827 26.3193 14.6827 25.4193C14.6827 24.4593 14.6627 23.4993 14.6827 22.5493C14.7127 21.4093 15.1527 20.9493 16.3027 20.9393C18.4027 20.9193 20.5127 20.9393 22.7127 20.9393V12.0093H22.7027ZM27.2727 3.06927H21.1827V9.15927H27.2727V3.06927Z" fill="#EF5000"/>
<path d="M50.0729 20.9393C52.1629 20.9393 54.1829 20.9393 56.2029 20.9393C57.7729 20.9393 58.1829 21.3493 58.1929 22.8993C58.1929 23.7793 58.2229 24.6593 58.1929 25.5393C58.1529 26.4293 57.6929 27.0093 56.7529 26.9693C55.8829 26.9393 55.4629 26.3793 55.4429 25.5293C55.4329 24.9693 55.4429 24.3993 55.4429 23.7693H41.8729C41.8729 24.3693 41.8929 24.9293 41.8729 25.4893C41.8329 26.3693 41.4329 26.9893 40.4829 26.9793C39.5429 26.9693 39.1329 26.3693 39.1229 25.4693C39.1129 24.5093 39.1029 23.5493 39.1229 22.5993C39.1529 21.3993 39.6129 20.9593 40.8329 20.9493C42.9329 20.9293 45.0229 20.9493 47.1829 20.9493V11.9993C46.2029 11.9993 45.2929 12.0193 44.3829 11.9993C43.2229 11.9693 42.7829 11.5493 42.7729 10.3793C42.7529 7.53935 42.7529 4.70935 42.7729 1.86935C42.7729 0.679346 43.2629 0.229346 44.4829 0.219346C47.2829 0.199346 50.0829 0.199346 52.8729 0.219346C54.0629 0.219346 54.5429 0.699346 54.5429 1.90935C54.5629 4.70935 54.5629 7.50935 54.5429 10.2993C54.5429 11.5593 54.0829 11.9793 52.7729 11.9993C51.9029 12.0093 51.0329 11.9993 50.0929 11.9993V20.9393H50.0729ZM45.6029 3.02935V9.16935H51.6929V3.02935H45.6029Z" fill="#EF5000"/>
<path d="M74.4727 26.2491C74.4727 28.5391 74.4727 30.6491 74.4727 32.7491C74.4727 35.4291 74.4827 38.1191 74.4727 40.7991C74.4727 41.8891 73.9027 42.5591 73.0727 42.5491C72.2127 42.5491 71.7227 41.9291 71.7227 40.7791C71.7127 36.4491 71.7227 32.1091 71.7227 27.7791C71.7227 27.3291 71.7227 26.8691 71.7227 26.2391C70.7127 26.2391 69.8127 26.2491 68.9027 26.2391C67.6827 26.2091 67.2027 25.7791 67.1927 24.5891C67.1727 21.7491 67.1727 18.9091 67.1927 16.0791C67.1927 14.9291 67.6627 14.4791 68.8227 14.4791C71.6627 14.4591 74.5027 14.4591 77.3327 14.4791C78.4927 14.4791 78.9527 14.9391 78.9627 16.0791C78.9827 18.9591 78.9627 21.8291 78.9627 24.7091C78.9627 25.7391 78.4227 26.2591 77.3927 26.2591C76.4827 26.2591 75.5627 26.2591 74.4827 26.2591L74.4727 26.2491ZM76.1627 17.3091H70.0327V23.3891H76.1627V17.3091Z" fill="#EF5000"/>
<path d="M55.4329 58.1592H41.8529C41.8529 58.7992 41.8829 59.3692 41.8529 59.9292C41.8029 60.8192 41.3529 61.4192 40.4229 61.3792C39.5729 61.3492 39.1229 60.7892 39.1029 59.9292C39.0829 58.9692 39.0829 58.0092 39.1029 57.0492C39.1229 55.7692 39.5429 55.3292 40.8429 55.3192C44.5229 55.2992 48.2029 55.3192 51.8829 55.3192C53.4129 55.3192 54.9529 55.3092 56.4829 55.3192C57.6929 55.3392 58.1529 55.7992 58.1829 56.9892C58.2129 57.9492 58.2029 58.9092 58.1829 59.8692C58.1729 60.7692 57.6929 61.3792 56.7929 61.3692C55.8929 61.3692 55.4229 60.7792 55.4229 59.8592C55.4229 59.3292 55.4229 58.7892 55.4229 58.1392L55.4329 58.1592Z" fill="#EF5000"/>
<path d="M55.4327 32.3292H41.8527C41.8527 32.9692 41.8727 33.5592 41.8527 34.1492C41.8127 34.9892 41.3927 35.5692 40.5327 35.5792C39.6127 35.5992 39.1327 35.0392 39.1127 34.1292C39.0927 33.1692 39.0927 32.2192 39.1127 31.2592C39.1327 29.9992 39.5727 29.5392 40.8527 29.5192C42.6927 29.4892 44.5327 29.5192 46.3627 29.5192C49.6127 29.5192 52.8727 29.5192 56.1227 29.5192C57.8227 29.5192 58.1927 29.9092 58.2027 31.6292C58.2027 32.4692 58.2227 33.3192 58.1927 34.1592C58.1527 35.0692 57.6427 35.6392 56.7427 35.5992C55.9127 35.5692 55.4427 35.0092 55.4427 34.1392C55.4427 33.5692 55.4427 33.0092 55.4427 32.3292H55.4327Z" fill="#EF5000"/>
<path d="M30.983 58.1693H17.413C17.413 58.8093 17.453 59.4193 17.413 60.0193C17.353 60.8593 16.883 61.4093 16.023 61.3893C15.173 61.3693 14.693 60.8493 14.683 59.9793C14.663 58.9093 14.663 57.8293 14.683 56.7593C14.703 55.8193 15.233 55.3493 16.143 55.3393C21.503 55.3293 26.873 55.3293 32.233 55.3393C33.203 55.3393 33.723 55.8893 33.753 56.8493C33.783 57.8793 33.793 58.9193 33.753 59.9493C33.713 60.8293 33.243 61.4293 32.313 61.3893C31.453 61.3493 31.023 60.7893 31.003 59.9393C30.993 59.3793 31.003 58.8093 31.003 58.1693H30.983Z" fill="#EF5000"/>
<path d="M79.8537 58.1692H66.2737C66.2737 58.7892 66.2837 59.3792 66.2737 59.9792C66.2537 60.8492 65.7737 61.3692 64.9237 61.3892C64.0637 61.4092 63.5737 60.8692 63.5337 60.0292C63.4937 59.0692 63.5137 58.1092 63.5237 57.1492C63.5437 55.8092 63.9737 55.3492 65.3237 55.3492C69.8137 55.3392 74.2937 55.3492 78.7837 55.3492C79.5537 55.3492 80.3137 55.3292 81.0837 55.3492C82.0937 55.3892 82.6337 55.9092 82.6237 56.9492C82.6237 57.9492 82.6237 58.9392 82.6237 59.9392C82.6237 60.8092 82.1537 61.3592 81.3137 61.3992C80.4137 61.4392 79.9137 60.8692 79.8637 59.9592C79.8337 59.3892 79.8637 58.8192 79.8637 58.1692H79.8537Z" fill="#EF5000"/>
<path d="M17.4238 32.2793C17.4238 33.0093 17.4438 33.5393 17.4238 34.0793C17.3838 34.9593 16.9638 35.5793 16.0338 35.5893C15.1038 35.5893 14.6738 34.9893 14.6738 34.0893C14.6738 33.2093 14.6738 32.3293 14.6738 31.4393C14.6738 29.9493 15.0938 29.5193 16.5838 29.5193C21.3338 29.5193 26.0938 29.5193 30.8438 29.5193C31.2638 29.5193 31.6838 29.5193 32.1138 29.5193C33.1838 29.5393 33.7538 30.0793 33.7738 31.1493C33.7938 32.1493 33.8038 33.1393 33.7738 34.1393C33.7438 35.0293 33.2638 35.6193 32.3338 35.5893C31.4738 35.5593 31.0738 34.9993 31.0038 34.1493C30.8538 32.2893 30.8438 32.2893 28.9638 32.2893C25.5538 32.2893 22.1438 32.2893 18.7238 32.2893C18.3438 32.2893 17.9738 32.2893 17.4438 32.2893L17.4238 32.2793Z" fill="#EF5000"/>
<path d="M30.9838 49.5391H17.4238C17.4238 50.1491 17.4538 50.7091 17.4238 51.2691C17.3738 52.1391 16.9838 52.7691 16.0338 52.7591C15.0938 52.7591 14.6738 52.1791 14.6738 51.2691C14.6738 50.2691 14.6738 49.2791 14.6738 48.2791C14.6738 47.2991 15.1738 46.7391 16.1338 46.7391C21.4938 46.7191 26.8638 46.7191 32.2238 46.7391C33.1838 46.7391 33.7138 47.2891 33.7438 48.2491C33.7738 49.2791 33.7938 50.3191 33.7438 51.3491C33.7038 52.2191 33.2338 52.8191 32.2938 52.7791C31.4138 52.7391 31.0138 52.1791 30.9838 51.3291C30.9638 50.7691 30.9838 50.1991 30.9838 49.5491V49.5391Z" fill="#EF5000"/>
<path d="M66.2639 49.5893C66.2639 50.2993 66.4239 50.9793 66.2139 51.4993C66.0139 52.0093 65.4839 52.5793 64.9839 52.7193C64.2339 52.9293 63.6139 52.3893 63.5639 51.5893C63.4839 50.3693 63.4839 49.1293 63.5639 47.9093C63.6239 47.1193 64.2239 46.7193 65.0139 46.7193C70.3839 46.7193 75.7539 46.7093 81.1239 46.7193C82.0939 46.7193 82.6039 47.2793 82.6139 48.2393C82.6239 49.2793 82.6339 50.3093 82.6139 51.3493C82.5939 52.2093 82.1439 52.7293 81.2639 52.7493C80.3839 52.7693 79.9239 52.2393 79.8739 51.3993C79.8339 50.8293 79.8739 50.2493 79.8739 49.5793H66.2839L66.2639 49.5893Z" fill="#EF5000"/>
<path d="M55.434 66.7593H41.854C41.854 67.3493 41.854 67.8693 41.854 68.3993C41.844 69.3393 41.434 69.9893 40.424 69.9593C39.494 69.9393 39.084 69.3393 39.084 68.4293C39.084 67.5093 39.084 66.5893 39.084 65.6693C39.104 64.3793 39.514 63.9393 40.814 63.9293C43.954 63.9093 47.104 63.9293 50.244 63.9293C52.234 63.9293 54.234 63.9293 56.224 63.9293C57.784 63.9293 58.164 64.3293 58.174 65.9293C58.174 66.7693 58.184 67.6193 58.174 68.4593C58.154 69.3493 57.724 69.9593 56.794 69.9593C55.864 69.9593 55.414 69.4093 55.424 68.4793C55.424 67.9493 55.424 67.4193 55.424 66.7493L55.434 66.7593Z" fill="#EF5000"/>
<path d="M79.853 66.7692H66.273C66.273 67.4092 66.293 68.0092 66.273 68.6092C66.243 69.4792 65.753 69.9592 64.893 69.9792C64.073 69.9892 63.593 69.4892 63.543 68.6992C63.483 67.5492 63.483 66.3992 63.543 65.2492C63.583 64.3792 64.153 63.9492 65.003 63.9492C70.373 63.9492 75.733 63.9492 81.103 63.9492C82.083 63.9492 82.593 64.4792 82.603 65.4492C82.613 66.4792 82.603 67.5192 82.603 68.5592C82.603 69.4292 82.143 69.9492 81.283 69.9792C80.353 69.9992 79.893 69.4392 79.853 68.5292C79.833 67.9992 79.853 67.4592 79.853 66.7692Z" fill="#EF5000"/>
<path d="M55.4229 49.5493H41.8529C41.8529 50.1393 41.8529 50.6593 41.8529 51.1893C41.8329 52.1193 41.4429 52.7893 40.4329 52.7693C39.5029 52.7493 39.0929 52.1493 39.0929 51.2493C39.0929 50.2493 39.0729 49.2593 39.0929 48.2593C39.1129 47.2893 39.6229 46.7493 40.5929 46.7493C45.9629 46.7393 51.3229 46.7293 56.6929 46.7493C57.5929 46.7493 58.1429 47.2593 58.1729 48.1693C58.2129 49.2393 58.2129 50.3193 58.1729 51.3893C58.1429 52.2393 57.6829 52.7793 56.8029 52.7793C55.8629 52.7793 55.4329 52.1993 55.4229 51.2993C55.4229 50.7693 55.4229 50.2293 55.4229 49.5693V49.5493Z" fill="#EF5000"/>
<path d="M30.9838 66.7491H17.4138C17.4138 67.3891 17.4538 67.9891 17.4138 68.5791C17.3438 69.3991 16.9338 69.9791 16.0438 69.9691C15.1138 69.9591 14.6738 69.3991 14.6738 68.4791C14.6738 67.4791 14.6738 66.4891 14.6738 65.4891C14.6738 64.5191 15.1438 63.9491 16.1238 63.9391C21.5238 63.9291 26.9238 63.9291 32.3238 63.9391C33.2538 63.9391 33.7238 64.5191 33.7638 65.3991C33.8038 66.4291 33.8038 67.4691 33.7638 68.4991C33.7238 69.3691 33.2938 69.9891 32.3438 69.9591C31.4038 69.9291 31.0138 69.3191 31.0038 68.4191C31.0038 67.8891 31.0038 67.3591 31.0038 66.7291L30.9838 66.7491Z" fill="#EF5000"/>
<path d="M17.4032 41.0092C17.4032 41.6892 17.4632 42.2992 17.3932 42.8992C17.2932 43.7292 16.8032 44.2492 15.9232 44.1792C15.1232 44.1092 14.6832 43.6092 14.6732 42.7992C14.6532 41.7292 14.6432 40.6492 14.6732 39.5792C14.6932 38.6592 15.2132 38.1692 16.1332 38.1592C21.5032 38.1592 26.8732 38.1592 32.2432 38.1592C33.2332 38.1592 33.7232 38.7292 33.7532 39.6692C33.7932 40.6692 33.7932 41.6692 33.7532 42.6592C33.7232 43.5292 33.3232 44.1792 32.3832 44.1792C31.3832 44.1792 30.9932 43.5192 30.9832 42.5792C30.9832 42.0892 30.9832 41.5992 30.9832 41.0092H17.4032Z" fill="#EF5000"/>
<path d="M55.4324 40.9792H41.8524C41.8524 41.6192 41.8824 42.2192 41.8524 42.8192C41.7924 43.6592 41.3324 44.1992 40.4624 44.1792C39.6024 44.1592 39.1424 43.6392 39.1124 42.7792C39.0924 41.9792 39.1124 41.1692 39.1124 40.3692C39.1124 38.4392 39.3924 38.1492 41.2824 38.1492C44.2724 38.1492 47.2624 38.1492 50.2524 38.1492C52.3224 38.1492 54.3924 38.1392 56.4624 38.1492C57.7424 38.1492 58.1824 38.5992 58.2124 39.8792C58.2324 40.8392 58.2424 41.7992 58.2124 42.7492C58.1824 43.6592 57.6724 44.2092 56.7624 44.1792C55.8924 44.1492 55.4824 43.5892 55.4724 42.7292C55.4724 42.1992 55.4724 41.6592 55.4724 40.9792H55.4324Z" fill="#EF5000"/>
</g>
<defs>
<clipPath id="clip0_131_252">
<rect width="82.42" height="82.89" fill="white" transform="translate(0.203125 0.209229)"/>
</clipPath>
</defs>
</svg>
