<svg width="83" height="82" viewBox="0 0 83 82" fill="none" xmlns="http://www.w3.org/2000/svg">
<g clip-path="url(#clip0_69_2030)">
<path d="M41.5644 82.0308L40.3549 81.4943C39.0088 80.9033 7.57544 66.707 7.57544 41V18.7097C7.57664 16.5646 8.25462 14.4746 9.51283 12.7373C10.771 10.9999 12.5453 9.70388 14.583 9.03368L41.7421 0.0307617L68.9012 9.03368C70.9389 9.70388 72.7132 10.9999 73.9714 12.7373C75.2296 14.4746 75.9076 16.5646 75.9088 18.7097V41C75.9088 70.3048 44.1748 81.1629 42.8218 81.6139L41.5644 82.0308ZM41.7421 7.19551L16.7458 15.4843C16.0657 15.7065 15.4733 16.1381 15.0535 16.7175C14.6337 17.2969 14.408 17.9942 14.4088 18.7097V41C14.4088 59.7712 36.4121 71.9482 41.9027 74.6918C47.383 72.488 69.0754 62.3986 69.0754 41V18.7097C69.0762 17.9942 68.8505 17.2969 68.4307 16.7175C68.0109 16.1381 67.4185 15.7065 66.7384 15.4843L41.7421 7.19551Z" fill="#EF5000"/>
<path d="M38.7047 49.6852H38.5919C37.7271 49.6719 36.874 49.4834 36.0842 49.1311C35.2943 48.7787 34.5841 48.2698 33.9965 47.6352L26.1177 39.4352L31.0411 34.7133L38.7081 42.7083L56.4098 25.0066L61.241 29.8378L43.2659 47.8128C42.6672 48.411 41.9558 48.8845 41.1729 49.2059C40.3899 49.5273 39.551 49.6902 38.7047 49.6852Z" fill="#EF5000"/>
</g>
<defs>
<clipPath id="clip0_69_2030">
<rect width="82" height="82" fill="white" transform="translate(0.742188)"/>
</clipPath>
</defs>
</svg>
