<svg width="86" height="79" viewBox="0 0 86 79" fill="none" xmlns="http://www.w3.org/2000/svg">
<g clip-path="url(#clip0_141_1444)">
<path d="M53.8485 68.3864C53.5002 68.3864 53.1621 68.2505 52.9113 68.0022L39.7183 54.9437C39.2007 54.4313 39.2007 53.601 39.7183 53.0886L45.1389 47.723C45.3875 47.4771 45.7245 47.3389 46.076 47.3389C46.4276 47.3389 46.7645 47.4771 47.0132 47.723L51.2189 51.8859C54.092 46.9316 57.515 42.5047 61.4108 38.7079C66.7575 33.4974 73.1662 29.2913 80.4589 26.2062C80.7819 26.0695 81.147 26.0655 81.473 26.1951C81.7992 26.3246 82.0601 26.5771 82.1983 26.897L85.2112 33.8744C85.4987 34.5406 85.1865 35.3114 84.5134 35.5961C71.9413 40.9146 63.047 49.729 57.322 62.5427L55.0604 67.6051C54.8838 68.0007 54.5212 68.2847 54.0915 68.3641C54.0108 68.3792 53.9291 68.3864 53.8485 68.3864ZM42.5296 54.0163L53.4182 64.7938L54.8981 61.4818C60.7215 48.4474 69.6799 39.3511 82.2586 33.7121L80.2872 29.1465C73.802 32.0468 68.0824 35.8881 63.2704 40.5773C59.1653 44.5779 55.6051 49.3178 52.6892 54.6648C52.4902 55.0296 52.1289 55.2797 51.7148 55.3397C51.2999 55.3997 50.882 55.2622 50.5858 54.9693L46.076 50.5056L42.5296 54.0163Z" fill="#EF5000"/>
<path d="M36.7996 21.7197H36.7979C36.066 21.7197 35.4727 21.1324 35.4727 20.4079C35.4727 19.6835 36.066 19.0962 36.7979 19.0962C37.5298 19.0962 38.124 19.6835 38.124 20.4079C38.124 21.1324 37.5316 21.7197 36.7996 21.7197Z" fill="#EF5000"/>
<path d="M78.7905 24.811C78.1204 24.811 77.5451 24.3098 77.474 23.6355C77.2656 21.6605 76.9872 20.0712 76.7644 18.989C71.2457 21.7446 66.0911 22.4407 61.4214 21.0566C56.594 19.6258 53.518 16.3237 51.979 14.2329C50.5608 16.1584 47.8382 19.1118 43.643 20.6859C42.9588 20.9423 42.1935 20.6018 41.9341 19.9242C41.6746 19.2469 42.019 18.4895 42.7036 18.2327C48.1803 16.1777 50.7738 11.2516 50.7993 11.2021C51.0258 10.7633 51.4815 10.4872 51.9795 10.4872C52.4773 10.4872 52.9332 10.7633 53.1597 11.2021C53.1872 11.2549 56.1228 16.7626 62.2123 18.5522C66.591 19.8391 71.5694 18.9408 77.0097 15.8824C77.3635 15.6837 77.79 15.6568 78.1663 15.8091C78.5427 15.9616 78.8276 16.2769 78.939 16.6642C78.969 16.7687 79.6786 19.2685 80.1105 23.3628C80.1866 24.0835 79.6581 24.7285 78.93 24.8038C78.883 24.8086 78.8364 24.811 78.7905 24.811Z" fill="#EF5000"/>
<path d="M51.9805 78.4322C51.7313 78.4322 51.4823 78.3629 51.2641 78.224C38.9076 70.3664 30.5444 60.0884 26.4069 47.6748C26.1776 46.9868 26.5552 46.245 27.2503 46.0181C27.9449 45.791 28.6947 46.165 28.9241 46.8528C32.7863 58.4402 40.5417 68.0933 51.9806 75.5556C64.7162 67.2489 72.8552 56.2812 76.1752 42.9466C76.3503 42.243 77.0688 41.8136 77.7792 41.9867C78.4898 42.1602 78.924 42.8708 78.7489 43.5743C77.1548 49.9772 74.4464 55.9539 70.6994 61.3385C66.1951 67.8113 60.1382 73.4923 52.6971 78.224C52.4786 78.3629 52.2294 78.4322 51.9805 78.4322Z" fill="#EF5000"/>
<path d="M28.7803 48.5757H20.8669C20.135 48.5757 19.5416 47.9883 19.5416 47.2639V43.9737C17.8265 43.5197 16.1876 42.8472 14.6478 41.9657L12.2961 44.2934C11.7786 44.8055 10.9395 44.8055 10.422 44.2934L4.82637 38.7549C4.57788 38.509 4.43823 38.1753 4.43823 37.8273C4.43823 37.4794 4.57788 37.1457 4.82637 36.8998L7.17807 34.5721C6.28749 33.0481 5.60795 31.4258 5.14941 29.7283H1.82528C1.09339 29.7283 0.5 29.1409 0.5 28.4165V20.5839C0.5 19.8595 1.09339 19.2721 1.82528 19.2721H5.14957C5.60828 17.5747 6.28765 15.9524 7.17824 14.4285L4.82654 12.1008C4.30885 11.5885 4.30885 10.758 4.82654 10.2458L10.4222 4.70726C10.9397 4.19502 11.7788 4.19502 12.2963 4.70726L14.648 7.03496C16.1876 6.15363 17.8265 5.48103 19.5418 5.027V1.7368C19.5418 1.01239 20.1352 0.425049 20.867 0.425049H28.7804C29.5123 0.425049 30.1057 1.01239 30.1057 1.7368V5.02716C31.821 5.48119 33.4597 6.15363 34.9993 7.03496L37.351 4.70726C37.8685 4.19502 38.7076 4.19502 39.2251 4.70726L44.8209 10.2458C45.0694 10.4918 45.2091 10.8254 45.2091 11.1734C45.2091 11.5213 45.0694 11.855 44.8209 12.1009L42.4691 14.4286C43.3595 15.9526 44.039 17.5749 44.4977 19.2723H47.8219C48.5537 19.2723 49.1471 19.8596 49.1471 20.584V28.4167C49.1471 29.1411 48.5537 29.7284 47.8219 29.7284H44.4977C44.039 31.4258 43.3596 33.0483 42.4691 34.5722L44.8209 36.8999C45.0694 37.1459 45.2091 37.4796 45.2091 37.8275C45.2091 38.1754 45.0694 38.5091 44.8209 38.7551L39.2251 44.2936C38.7076 44.8059 37.8685 44.8057 37.351 44.2936L34.9993 41.9659C33.4597 42.8474 31.8208 43.52 30.1057 43.9739V47.2641C30.1055 47.9883 29.5123 48.5757 28.7803 48.5757ZM22.1921 45.9522H27.455V42.9391C27.455 42.3193 27.8933 41.7839 28.5063 41.6557C30.6362 41.21 32.6441 40.3862 34.4742 39.2071C34.9988 38.869 35.6914 38.9405 36.1342 39.379L38.288 41.5107L42.0094 37.8273L39.8556 35.6956C39.4128 35.2573 39.3404 34.5719 39.682 34.0524C40.8733 32.2411 41.7055 30.2536 42.1558 28.1455C42.2853 27.5389 42.8261 27.1049 43.4524 27.1049H46.4966V21.8958H43.4524C42.8261 21.8958 42.2853 21.4618 42.1558 20.8552C41.7057 18.7471 40.8734 16.7596 39.682 14.9483C39.3402 14.4288 39.4128 13.7434 39.8556 13.3051L42.0094 11.1734L38.288 7.48998L36.1342 9.62174C35.6914 10.0602 34.999 10.1318 34.4742 9.79357C32.6443 8.61464 30.6363 7.7907 28.5063 7.34503C27.8935 7.2168 27.455 6.68161 27.455 6.06164V3.04855H22.1921V6.06164C22.1921 6.68161 21.7538 7.2168 21.1409 7.34503C19.0108 7.7907 17.0029 8.61447 15.173 9.79357C14.6483 10.1317 13.9559 10.0602 13.5129 9.62174L11.3592 7.48981L7.63778 11.1732L9.79152 13.305C10.2343 13.7433 10.3067 14.4286 9.96513 14.9481C8.77388 16.7595 7.9416 18.7469 7.4915 20.8551C7.36196 21.4616 6.82124 21.8956 6.19488 21.8956H3.15056V27.1048H6.19472C6.82108 27.1048 7.36179 27.5388 7.49134 28.1453C7.94143 30.2534 8.77371 32.2409 9.96497 34.0523C10.3067 34.5717 10.2342 35.2571 9.79136 35.6954L7.63761 37.8272L11.359 41.5106L13.5127 39.3788C13.9555 38.9405 14.6482 38.8689 15.1728 39.207C17.0029 40.3861 19.0108 41.2098 21.1407 41.6555C21.7535 41.7837 22.192 42.3191 22.192 42.9389V45.9522H22.1921Z" fill="#EF5000"/>
<path d="M24.823 38.3486C17.1084 38.3486 10.832 32.1363 10.832 24.5003C10.832 16.8642 17.1082 10.6521 24.823 10.6521C32.5378 10.6521 38.8141 16.8644 38.8141 24.5004C38.8141 32.1365 32.5376 38.3486 24.823 38.3486ZM24.823 13.2756C18.5698 13.2756 13.4826 18.3109 13.4826 24.5004C13.4826 30.6899 18.5698 35.7252 24.823 35.7252C31.0761 35.7252 36.1636 30.6899 36.1636 24.5004C36.1636 18.3109 31.0761 13.2756 24.823 13.2756Z" fill="#EF5000"/>
</g>
<defs>
<clipPath id="clip0_141_1444">
<rect width="85" height="78" fill="white" transform="translate(0.5 0.42041)"/>
</clipPath>
</defs>
</svg>
