<svg width="71" height="73" viewBox="0 0 71 73" fill="none" xmlns="http://www.w3.org/2000/svg">
<path d="M11.105 33.0025H19.0682C19.3896 33.0021 19.6977 32.8725 19.925 32.6421C20.1523 32.4117 20.2802 32.0993 20.2806 31.7734V29.0433C20.2806 28.8195 20.193 28.6049 20.0369 28.4467C19.8809 28.2884 19.6693 28.1996 19.4486 28.1996C19.2279 28.1996 19.0163 28.2884 18.8603 28.4467C18.7042 28.6049 18.6166 28.8195 18.6166 29.0433V31.315H11.5566V24.167H15.0865C15.3072 24.167 15.5188 24.0781 15.6749 23.9199C15.8309 23.7616 15.9186 23.547 15.9186 23.3232C15.9186 23.0995 15.8309 22.8849 15.6749 22.7266C15.5188 22.5684 15.3072 22.4795 15.0865 22.4795H11.105C10.7836 22.4798 10.4755 22.6094 10.2482 22.8398C10.0209 23.0702 9.89298 23.3826 9.89258 23.7086V31.7734C9.89302 32.0993 10.0209 32.4117 10.2482 32.6421C10.4755 32.8725 10.7836 33.0021 11.105 33.0025Z" fill="#EF5000"/>
<path d="M20.968 22.006C20.884 21.9351 20.7871 21.8817 20.6828 21.8488C20.5784 21.8159 20.4687 21.8042 20.3599 21.8143C20.2511 21.8244 20.1453 21.8562 20.0486 21.9077C19.9519 21.9593 19.8661 22.0297 19.7962 22.1148L15.8272 26.9514L14.5536 25.9064C14.4688 25.8351 14.3709 25.7817 14.2656 25.7491C14.1603 25.7165 14.0497 25.7055 13.9401 25.7165C13.8306 25.7276 13.7243 25.7607 13.6274 25.8137C13.5306 25.8668 13.445 25.9388 13.3758 26.0256C13.3066 26.1125 13.255 26.2124 13.2242 26.3195C13.1933 26.4267 13.1837 26.539 13.196 26.65C13.2082 26.7609 13.242 26.8683 13.2955 26.9659C13.349 27.0635 13.421 27.1494 13.5075 27.2185L15.0384 28.4746C15.29 28.6844 15.6092 28.7925 15.9346 28.7779C16.26 28.7633 16.5686 28.6271 16.8009 28.3956L16.8344 28.3631L21.0755 23.1946C21.1454 23.1094 21.1981 23.011 21.2306 22.9052C21.263 22.7994 21.2746 22.6881 21.2646 22.5777C21.2546 22.4673 21.2233 22.36 21.1724 22.2619C21.1215 22.1638 21.0521 22.0769 20.968 22.006ZM61.3077 23.0676H28.8411C28.6205 23.0676 28.4088 23.1565 28.2528 23.3147C28.0967 23.4729 28.0091 23.6875 28.0091 23.9113C28.0091 24.1351 28.0967 24.3497 28.2528 24.5079C28.4088 24.6662 28.6205 24.7551 28.8411 24.7551H61.3077C61.5283 24.7551 61.74 24.6662 61.896 24.5079C62.052 24.3497 62.1397 24.1351 62.1397 23.9113C62.1397 23.6875 62.052 23.4729 61.896 23.3147C61.74 23.1565 61.5283 23.0676 61.3077 23.0676ZM61.3077 30.0582H28.8411C28.6205 30.0582 28.4088 30.1471 28.2528 30.3053C28.0967 30.4635 28.0091 30.6782 28.0091 30.9019C28.0091 31.1257 28.0967 31.3403 28.2528 31.4986C28.4088 31.6568 28.6205 31.7457 28.8411 31.7457H61.3077C61.5283 31.7457 61.74 31.6568 61.896 31.4986C62.052 31.3403 62.1397 31.1257 62.1397 30.9019C62.1397 30.6782 62.052 30.4635 61.896 30.3053C61.74 30.1471 61.5283 30.0582 61.3077 30.0582ZM19.4486 46.0825C19.2279 46.0825 19.0163 46.1714 18.8603 46.3297C18.7042 46.4879 18.6166 46.7025 18.6166 46.9263V49.1982H11.5566V42.05H15.0865C15.3072 42.05 15.5188 41.9611 15.6749 41.8028C15.8309 41.6446 15.9186 41.43 15.9186 41.2062C15.9186 40.9824 15.8309 40.7678 15.6749 40.6096C15.5188 40.4514 15.3072 40.3625 15.0865 40.3625H11.105C10.7836 40.3628 10.4755 40.4924 10.2482 40.7228C10.0209 40.9532 9.89302 41.2656 9.89258 41.5915V49.6564C9.89298 49.9823 10.0209 50.2948 10.2481 50.5252C10.4754 50.7556 10.7836 50.8853 11.105 50.8856H19.0682C19.3896 50.8853 19.6978 50.7556 19.9251 50.5252C20.1523 50.2948 20.2802 49.9823 20.2806 49.6564V46.9263C20.2806 46.7025 20.193 46.4879 20.0369 46.3297C19.8809 46.1714 19.6693 46.0825 19.4486 46.0825Z" fill="#EF5000"/>
<path d="M20.9676 39.8887C20.8836 39.8179 20.7867 39.7645 20.6823 39.7316C20.578 39.6987 20.4683 39.687 20.3595 39.6971C20.2507 39.7073 20.1449 39.739 20.0482 39.7906C19.9515 39.8422 19.8657 39.9125 19.7958 39.9977L15.8272 44.8341L14.5536 43.7893C14.4688 43.7182 14.371 43.6648 14.2658 43.6324C14.1605 43.5999 14.05 43.5889 13.9405 43.6C13.8311 43.6111 13.7249 43.6441 13.6281 43.6971C13.5313 43.7501 13.4458 43.8221 13.3766 43.9088C13.3074 43.9955 13.2559 44.0953 13.225 44.2023C13.194 44.3094 13.1844 44.4216 13.1965 44.5325C13.2086 44.6433 13.2423 44.7507 13.2956 44.8483C13.3488 44.9459 13.4207 45.0318 13.5069 45.101L15.0379 46.3571C15.2894 46.5669 15.6086 46.6749 15.934 46.6604C16.2595 46.6458 16.568 46.5097 16.8004 46.2782L16.8338 46.2456L21.0749 41.077C21.1448 40.9919 21.1975 40.8936 21.2299 40.7878C21.2624 40.6819 21.2739 40.5707 21.264 40.4603C21.254 40.35 21.2227 40.2427 21.1719 40.1447C21.121 40.0466 21.0516 39.9596 20.9676 39.8887ZM61.3073 40.9505H54.5473C54.3266 40.9505 54.115 41.0394 53.959 41.1976C53.8029 41.3558 53.7153 41.5704 53.7153 41.7942C53.7153 42.018 53.8029 42.2326 53.959 42.3908C54.115 42.5491 54.3266 42.638 54.5473 42.638H61.3073C61.5279 42.638 61.7396 42.5491 61.8956 42.3908C62.0516 42.2326 62.1393 42.018 62.1393 41.7942C62.1393 41.5704 62.0516 41.3558 61.8956 41.1976C61.7396 41.0394 61.5279 40.9505 61.3073 40.9505ZM39.3852 40.9505H28.8407C28.62 40.9505 28.4084 41.0394 28.2524 41.1976C28.0963 41.3558 28.0087 41.5704 28.0087 41.7942C28.0087 42.018 28.0963 42.2326 28.2524 42.3908C28.4084 42.5491 28.62 42.638 28.8407 42.638H39.3852C39.6059 42.638 39.8175 42.5491 39.9735 42.3908C40.1296 42.2326 40.2172 42.018 40.2172 41.7942C40.2172 41.5704 40.1296 41.3558 39.9735 41.1976C39.8175 41.0394 39.6059 40.9505 39.3852 40.9505ZM31.6825 47.9412H28.8407C28.62 47.9412 28.4084 48.0301 28.2524 48.1883C28.0963 48.3466 28.0087 48.5612 28.0087 48.785C28.0087 49.0087 28.0963 49.2234 28.2524 49.3816C28.4084 49.5398 28.62 49.6287 28.8407 49.6287H31.6825C31.9032 49.6287 32.1148 49.5398 32.2709 49.3816C32.4269 49.2234 32.5145 49.0087 32.5145 48.785C32.5145 48.5612 32.4269 48.3466 32.2709 48.1883C32.1148 48.0301 31.9032 47.9412 31.6825 47.9412Z" fill="#EF5000"/>
<path d="M65.5036 1.62476H5.4964C4.48042 1.62584 3.50635 2.03555 2.7879 2.76402C2.06944 3.49249 1.66527 4.48022 1.66406 5.51051V55.9386C1.66498 56.968 2.06826 57.955 2.78552 58.6833C3.50279 59.4116 4.47553 59.8219 5.49057 59.8242L37.2238 60.0519L38.8313 66.4577C38.8341 66.4691 38.8373 66.4804 38.8406 66.4918C39.2041 67.7435 39.9587 68.8415 40.9907 69.6207C42.0227 70.3998 43.2764 70.818 44.563 70.8123H56.1642C57.7485 70.8101 59.2672 70.1708 60.3873 69.0345C61.5074 67.8983 62.1373 66.3579 62.1389 64.7513V60.0123L65.5279 59.8248C66.5396 59.8172 67.5075 59.4046 68.2207 58.6768C68.9339 57.9491 69.3347 56.9651 69.3359 55.939V5.51051C69.3347 4.48022 68.9306 3.49249 68.2121 2.76402C67.4936 2.03555 66.5196 1.62584 65.5036 1.62476ZM5.4964 3.31226H65.5036C66.0784 3.31281 66.6295 3.54458 67.036 3.95669C67.4425 4.36881 67.6712 4.92761 67.6719 5.51051V14.0533H3.32812V5.51051C3.32882 4.92761 3.55751 4.36881 3.964 3.95669C4.3705 3.54458 4.9216 3.31281 5.4964 3.31226ZM60.4748 64.7513C60.4737 65.9105 60.0193 67.0219 59.2112 67.8418C58.4031 68.6617 57.3073 69.1231 56.1642 69.1248H44.563C43.6376 69.1289 42.7358 68.8291 41.9925 68.2701C41.2491 67.7111 40.7043 66.923 40.4395 66.0238L38.6784 59.0051C38.2632 57.3524 37.7093 55.7387 37.0229 54.1817L36.8867 53.854C37.7733 53.854 38.6467 54.0723 39.4318 54.4902C40.2168 54.9081 40.89 55.513 41.3936 56.2531L42.8244 58.3553V61.4888C42.8244 61.7126 42.912 61.9272 43.0681 62.0854C43.2241 62.2437 43.4357 62.3326 43.6564 62.3326C43.8771 62.3326 44.0887 62.2437 44.2447 62.0854C44.4008 61.9272 44.4884 61.7126 44.4884 61.4888V38.557C44.4884 38.136 44.6533 37.7324 44.9468 37.4347C45.2403 37.1371 45.6384 36.9699 46.0535 36.9699C46.4686 36.9699 46.8666 37.1371 47.1601 37.4347C47.4536 37.7324 47.6185 38.136 47.6185 38.557V53.5345C47.6186 53.6169 47.6305 53.6989 47.654 53.7778V57.2173C47.654 57.4411 47.7417 57.6557 47.8977 57.814C48.0538 57.9722 48.2654 58.0611 48.4861 58.0611C48.7067 58.0611 48.9184 57.9722 49.0744 57.814C49.2304 57.6557 49.3181 57.4411 49.3181 57.2173V52.5048C49.3181 52.1711 49.4489 51.8509 49.6816 51.6149C49.9144 51.3789 50.23 51.2463 50.5592 51.2463C50.8884 51.2463 51.2041 51.3789 51.4368 51.6149C51.6696 51.8509 51.8003 52.1711 51.8003 52.5048V53.4611C51.7788 53.6084 51.768 53.757 51.7679 53.9059V57.2179C51.7679 57.4417 51.8555 57.6563 52.0116 57.8145C52.1676 57.9728 52.3792 58.0616 52.5999 58.0616H52.6324C52.853 58.0616 53.0647 57.9728 53.2207 57.8145C53.3767 57.6563 53.4644 57.4417 53.4644 57.2179V53.612C53.5352 53.2858 53.7223 52.9977 53.9898 52.803C54.2574 52.6083 54.5864 52.5207 54.9138 52.5571C55.2411 52.5935 55.5437 52.7513 55.7633 53.0001C55.9829 53.249 56.104 53.5714 56.1035 53.9053V58.0924C56.1035 58.3162 56.1911 58.5308 56.3471 58.6891C56.5032 58.8473 56.7148 58.9362 56.9355 58.9362C57.1562 58.9362 57.3678 58.8473 57.5238 58.6891C57.6799 58.5308 57.7675 58.3162 57.7675 58.0924V55.2278C57.7657 55.0464 57.7994 54.8664 57.8666 54.6982C57.9338 54.5301 58.0332 54.3771 58.1591 54.2482C58.2849 54.1193 58.4347 54.0169 58.5999 53.9471C58.765 53.8772 58.9421 53.8412 59.121 53.8412C59.2999 53.8412 59.4771 53.8772 59.6422 53.9471C59.8073 54.0169 59.9571 54.1193 60.083 54.2482C60.2088 54.3771 60.3083 54.5301 60.3755 54.6982C60.4427 54.8664 60.4763 55.0464 60.4745 55.2278L60.4748 64.7513ZM65.5039 58.1379C65.4888 58.1379 65.4736 58.1379 65.4585 58.1393L62.1389 58.3221V55.2283C62.1396 54.6795 61.9946 54.1406 61.7191 53.6682C61.4436 53.1957 61.0478 52.8072 60.5732 52.5434C60.0986 52.2796 59.5627 52.1502 59.0218 52.1688C58.4809 52.1874 57.9549 52.3533 57.499 52.6491C57.3242 52.2571 57.0692 51.9071 56.751 51.6225C56.4328 51.3379 56.0586 51.125 55.6532 50.998C55.2478 50.871 54.8204 50.8328 54.3993 50.8858C53.9782 50.9389 53.5731 51.082 53.2106 51.3057C53.0529 50.9437 52.8245 50.6177 52.5392 50.3475C52.2539 50.0774 51.9176 49.8685 51.5507 49.7336C51.1837 49.5987 50.7936 49.5406 50.4038 49.5626C50.0141 49.5847 49.6328 49.6865 49.2829 49.8619V38.557C49.2829 37.6885 48.9427 36.8556 48.3371 36.2415C47.7315 35.6274 46.9102 35.2824 46.0538 35.2824C45.1973 35.2824 44.376 35.6274 43.7704 36.2415C43.1649 36.8556 42.8246 37.6885 42.8246 38.557V55.3846L42.7634 55.2946C42.1068 54.3296 41.229 53.5407 40.2053 52.9958C39.1817 52.4509 38.0428 52.1663 36.8867 52.1665C36.6081 52.1666 36.334 52.2373 36.0892 52.3722C35.8445 52.5072 35.6369 52.7021 35.4854 52.9392C35.334 53.1763 35.2434 53.4481 35.2219 53.7298C35.2005 54.0114 35.2489 54.2941 35.3627 54.5519L35.5029 54.87C36.0025 56.0042 36.4278 57.1706 36.7759 58.3616L5.49584 58.1366C4.92126 58.1359 4.3704 57.9042 3.96405 57.4922C3.55769 57.0803 3.32901 56.5217 3.32812 55.939V15.7408H67.6719V55.939C67.6711 56.5219 67.4424 57.0807 67.0359 57.4928C66.6295 57.9049 66.0784 58.1366 65.5036 58.1372L65.5039 58.1379Z" fill="#EF5000"/>
<path d="M8.625 11.8103C9.25581 11.8103 9.87246 11.6206 10.397 11.2652C10.9215 10.9098 11.3303 10.4047 11.5717 9.81367C11.8131 9.22267 11.8762 8.57234 11.7532 7.94493C11.6301 7.31753 11.3263 6.74122 10.8803 6.28888C10.4342 5.83655 9.86592 5.5285 9.24723 5.4037C8.62854 5.2789 7.98725 5.34295 7.40445 5.58776C6.82165 5.83256 6.32353 6.24712 5.97307 6.77901C5.6226 7.3109 5.43555 7.93623 5.43555 8.57593C5.43643 9.43346 5.77274 10.2556 6.37069 10.862C6.96864 11.4684 7.77937 11.8094 8.625 11.8103ZM8.625 7.03018C8.92669 7.03018 9.22161 7.1209 9.47246 7.29087C9.72331 7.46085 9.91882 7.70244 10.0343 7.98509C10.1497 8.26775 10.1799 8.57877 10.1211 8.87883C10.0622 9.1789 9.91694 9.45453 9.70361 9.67086C9.49028 9.88719 9.21849 10.0345 8.92259 10.0942C8.62669 10.1539 8.31999 10.1233 8.04126 10.0062C7.76253 9.8891 7.5243 9.69083 7.35668 9.43645C7.18907 9.18207 7.09961 8.883 7.09961 8.57705C7.09998 8.16691 7.2608 7.77367 7.54679 7.48366C7.83278 7.19364 8.22055 7.03055 8.625 7.03018ZM17.0331 11.8103C17.6639 11.8103 18.2806 11.6206 18.8051 11.2652C19.3296 10.9098 19.7384 10.4047 19.9798 9.81367C20.2212 9.22267 20.2843 8.57234 20.1613 7.94493C20.0382 7.31753 19.7344 6.74122 19.2884 6.28888C18.8423 5.83655 18.274 5.5285 17.6553 5.4037C17.0366 5.2789 16.3953 5.34295 15.8125 5.58776C15.2297 5.83256 14.7316 6.24712 14.3812 6.77901C14.0307 7.3109 13.8436 7.93623 13.8436 8.57593C13.8445 9.43346 14.1808 10.2556 14.7788 10.862C15.3767 11.4684 16.1875 11.8094 17.0331 11.8103ZM17.0331 7.03018C17.3348 7.03018 17.6297 7.1209 17.8806 7.29087C18.1314 7.46085 18.3269 7.70244 18.4424 7.98509C18.5578 8.26775 18.588 8.57877 18.5292 8.87883C18.4703 9.1789 18.325 9.45453 18.1117 9.67086C17.8984 9.88719 17.6266 10.0345 17.3307 10.0942C17.0348 10.1539 16.7281 10.1233 16.4493 10.0062C16.1706 9.8891 15.9324 9.69083 15.7648 9.43645C15.5972 9.18207 15.5077 8.883 15.5077 8.57705C15.5081 8.16691 15.6689 7.77367 15.9549 7.48366C16.2409 7.19364 16.6286 7.03055 17.0331 7.03018ZM25.4413 11.8103C26.0721 11.8103 26.6888 11.6206 27.2133 11.2652C27.7378 10.9098 28.1466 10.4047 28.388 9.81367C28.6294 9.22267 28.6926 8.57234 28.5695 7.94493C28.4464 7.31753 28.1427 6.74122 27.6966 6.28888C27.2506 5.83655 26.6822 5.5285 26.0636 5.4037C25.4449 5.2789 24.8036 5.34295 24.2208 5.58776C23.638 5.83256 23.1399 6.24712 22.7894 6.77901C22.4389 7.3109 22.2519 7.93623 22.2519 8.57593C22.2528 9.43346 22.5891 10.2556 23.187 10.862C23.785 11.4684 24.5957 11.8094 25.4413 11.8103ZM25.4413 7.03018C25.743 7.03018 26.0379 7.1209 26.2888 7.29087C26.5396 7.46085 26.7351 7.70244 26.8506 7.98509C26.9661 8.26775 26.9963 8.57877 26.9374 8.87883C26.8785 9.1789 26.7333 9.45453 26.5199 9.67086C26.3066 9.88719 26.0348 10.0345 25.7389 10.0942C25.443 10.1539 25.1363 10.1233 24.8576 10.0062C24.5789 9.8891 24.3406 9.69083 24.173 9.43645C24.0054 9.18207 23.9159 8.883 23.9159 8.57705C23.9163 8.16691 24.0771 7.77367 24.3631 7.48366C24.6491 7.19364 25.0369 7.03055 25.4413 7.03018ZM37.857 9.26063H64.8888C65.1094 9.26063 65.3211 9.17174 65.4771 9.0135C65.6331 8.85527 65.7208 8.64066 65.7208 8.41688C65.7208 8.19311 65.6331 7.97849 65.4771 7.82026C65.3211 7.66203 65.1094 7.57313 64.8888 7.57313H37.857C37.6364 7.57313 37.4247 7.66203 37.2687 7.82026C37.1127 7.97849 37.025 8.19311 37.025 8.41688C37.025 8.64066 37.1127 8.85527 37.2687 9.0135C37.4247 9.17174 37.6364 9.26063 37.857 9.26063Z" fill="#EF5000"/>
</svg>
