<svg width="60" height="60" viewBox="0 0 60 60" fill="none" xmlns="http://www.w3.org/2000/svg">
<g clip-path="url(#clip0_156_605)">
<path d="M1.17188 53.8547V58.8281H44.0566V43.527L42.3141 46.2375L35.1 51.3844L36.7875 42.6844L44.0566 31.377V1.17188H1.17188V43.5422" stroke="#EF5000" stroke-width="3" stroke-linecap="round" stroke-linejoin="round"/>
<path d="M57.3453 22.8551L42.3148 46.2363L36.7871 42.6832L51.8176 19.302L57.3453 22.8551Z" stroke="#EF5000" stroke-width="3" stroke-linecap="round" stroke-linejoin="round"/>
<path d="M36.7871 42.6844L35.0996 51.3844L42.3137 46.2375L36.7859 42.6844H36.7871Z" stroke="#EF5000" stroke-width="3" stroke-linecap="round" stroke-linejoin="round"/>
<path d="M58.307 21.3598L57.3461 22.8551L51.8184 19.3019L52.7793 17.8066C53.7602 16.2809 55.7934 15.8391 57.3191 16.8199C58.8449 17.8008 59.2879 19.834 58.3059 21.3598H58.307Z" stroke="#EF5000" stroke-width="3" stroke-linecap="round" stroke-linejoin="round"/>
<path d="M20.3672 51.3844C21.6105 49.1496 23.3461 47.168 25.4801 45.7453C26.3133 45.1898 27.6668 44.4059 28.6406 45.0738C29.2582 45.498 29.5371 46.241 29.6156 46.9605C29.768 48.3609 29.8254 49.418 29.6355 51.3844C30.3211 49.9512 31.7824 48.4406 33.402 48.1371C34.2117 47.9859 35.0027 48.3293 35.1703 49.1988C35.2746 49.7379 35.1059 51.3844 35.1059 51.3844" stroke="#EF5000" stroke-width="3" stroke-linecap="round" stroke-linejoin="round"/>
<path d="M22.0004 21.4746H8.96094V6.67148H22.0004V21.4746Z" stroke="#EF5000" stroke-width="3" stroke-linecap="round" stroke-linejoin="round"/>
<path d="M28.6973 9.00233H37.2965" stroke="#EF5000" stroke-width="3" stroke-linecap="round" stroke-linejoin="round"/>
<path d="M28.6973 14.1527H37.2965" stroke="#EF5000" stroke-width="3" stroke-linecap="round" stroke-linejoin="round"/>
<path d="M28.6973 19.3031H37.2965" stroke="#EF5000" stroke-width="3" stroke-linecap="round" stroke-linejoin="round"/>
<path d="M37.2937 32.7539H9.18164V26.9871H37.2937V32.7539Z" stroke="#EF5000" stroke-width="3" stroke-linecap="round" stroke-linejoin="round"/>
<path d="M9.5957 38.5324H25.7594" stroke="#EF5000" stroke-width="3" stroke-linecap="round" stroke-linejoin="round"/>
<path d="M9.5957 43.4449H17.2059" stroke="#EF5000" stroke-width="3" stroke-linecap="round" stroke-linejoin="round"/>
<path d="M18.2625 12.9398C18.2625 14.4762 17.0168 15.7219 15.4793 15.7219C13.9418 15.7219 12.6973 14.4762 12.6973 12.9398C12.6973 11.4035 13.943 10.1578 15.4793 10.1578C17.0156 10.1578 18.2613 11.4035 18.2613 12.9398H18.2625Z" stroke="#EF5000" stroke-width="3" stroke-linecap="round" stroke-linejoin="round"/>
<path d="M15.4812 15.723C15.4812 15.723 8.96094 15.4816 8.96094 21.4746H22.0004C22.0004 15.4887 15.4801 15.723 15.4801 15.723H15.4812Z" stroke="#EF5000" stroke-width="3" stroke-linecap="round" stroke-linejoin="round"/>
</g>
<defs>
<clipPath id="clip0_156_605">
<rect width="60" height="60" fill="white"/>
</clipPath>
</defs>
</svg>
