<svg width="74" height="74" viewBox="0 0 74 74" fill="none" xmlns="http://www.w3.org/2000/svg">
<g clip-path="url(#clip0_141_2976)">
<path d="M29.98 0.150543C30.0743 0.147048 30.1686 0.143552 30.2658 0.13995C31.7012 0.131613 32.9373 1.03579 34.1461 1.72062C34.3043 1.80978 34.4626 1.89894 34.6256 1.99079C35.5853 2.53299 36.5399 3.08285 37.4878 3.64524C38.3945 4.18303 39.3076 4.70952 40.2212 5.23546C41.4336 5.93364 42.6442 6.63481 43.8521 7.3408C45.6558 8.39478 47.4656 9.43827 49.276 10.481C50.2071 11.0172 51.1381 11.5538 52.0682 12.0917C52.6914 12.452 53.316 12.8096 53.9416 13.1656C54.2479 13.3412 54.5542 13.5168 54.8605 13.6925C54.9999 13.7712 55.1394 13.8498 55.2831 13.9309C56.6332 14.7087 57.7684 15.4969 58.208 17.0534C58.5491 18.6326 57.6755 20.0613 56.8509 21.3438C56.1651 22.3027 55.4297 22.7983 54.2717 23.0416C53.1877 23.162 52.8246 22.9195 51.7024 22.4707C51.6553 25.0613 51.6082 27.6519 51.5597 30.3211C52.9413 30.3111 52.9413 30.3111 54.3508 30.301C54.9363 30.2981 55.5217 30.2953 56.1071 30.2932C57.0353 30.2898 57.9634 30.2858 58.8914 30.278C59.6402 30.2718 60.3888 30.2684 61.1376 30.2669C61.4224 30.2658 61.7073 30.2638 61.9922 30.2607C64.165 30.238 65.7319 30.4139 67.3586 31.9803C68.3932 33.0977 68.6973 34.3575 68.733 35.8459C68.7375 36.0012 68.7375 36.0012 68.742 36.1596C68.7513 36.4883 68.7597 36.8169 68.7681 37.1455C68.7743 37.3692 68.7805 37.5929 68.7868 37.8166C68.8021 38.3631 68.8165 38.9095 68.8306 39.4561C68.9476 39.5116 69.0646 39.5671 69.1852 39.6243C69.4159 39.7361 69.4159 39.7361 69.6513 39.8503C69.8037 39.9234 69.956 39.9966 70.113 40.072C71.1605 40.6572 71.7404 41.6217 72.1135 42.739C72.2209 43.2085 72.2751 43.6456 72.2792 44.1268C72.2806 44.2565 72.282 44.3861 72.2834 44.5197C72.2843 44.7276 72.2843 44.7276 72.2852 44.9396C72.286 45.0841 72.2868 45.2287 72.2877 45.3775C72.289 45.6831 72.29 45.9887 72.2905 46.2943C72.2919 46.7582 72.2963 47.222 72.3008 47.6859C72.3018 47.9837 72.3025 48.2815 72.3031 48.5794C72.3048 48.7165 72.3066 48.8536 72.3084 48.9949C72.3036 50.4678 71.9336 51.7396 70.9716 52.8731C69.9001 53.8892 68.7607 54.2226 67.3162 54.2149C67.184 54.2159 67.0518 54.2169 66.9156 54.2179C66.4817 54.2208 66.0479 54.2207 65.614 54.2207C65.3109 54.2224 65.0077 54.2243 64.7045 54.2264C63.9082 54.2316 63.112 54.2345 62.3157 54.2366C61.0409 54.2402 59.766 54.2459 58.4912 54.254C58.0469 54.2564 57.6027 54.2569 57.1584 54.2573C56.8851 54.2587 56.6118 54.2602 56.3385 54.2617C56.2158 54.2614 56.093 54.261 55.9665 54.2606C55.0652 54.2683 54.3052 54.3236 53.5848 54.916C53.0219 55.6075 52.9379 56.2566 52.8979 57.1284C52.8923 57.2273 52.8868 57.3262 52.8811 57.4281C52.8678 57.6701 52.8559 57.9122 52.8443 58.1543C52.9428 58.1477 53.0412 58.141 53.1426 58.1342C54.2649 58.0911 55.1232 58.2189 55.9856 58.9772C57.1596 60.2249 57.1928 61.4877 57.1882 63.131C57.1889 63.3372 57.1897 63.5434 57.1905 63.7495C57.1918 64.1802 57.1915 64.6109 57.19 65.0416C57.1884 65.59 57.1913 66.1382 57.1954 66.6866C57.1981 67.112 57.198 67.5374 57.1972 67.9628C57.1972 68.1648 57.198 68.3668 57.1998 68.5688C57.2102 69.9353 57.1397 71.1461 56.2437 72.2359C56.1376 72.3228 56.0314 72.4096 55.922 72.4991C55.8162 72.5889 55.7104 72.6787 55.6014 72.7712C54.8502 73.2881 54.1947 73.3296 53.3099 73.3321C53.19 73.3331 53.0702 73.334 52.9467 73.335C52.6937 73.3364 52.4407 73.3371 52.1877 73.3371C51.8033 73.3377 51.4191 73.3429 51.0348 73.3483C50.7881 73.3491 50.5413 73.3497 50.2946 73.3499C50.181 73.352 50.0674 73.354 49.9503 73.3562C48.9424 73.348 48.2168 73.0312 47.4561 72.3742C46.7161 71.5109 46.4052 70.9005 46.396 69.7673C46.3951 69.6716 46.3941 69.5759 46.3932 69.4773C46.3904 69.1608 46.3887 68.8442 46.3873 68.5276C46.3867 68.4192 46.3861 68.3108 46.3855 68.1991C46.3825 67.6249 46.3805 67.0507 46.3791 66.4766C46.3776 65.8854 46.3727 65.2944 46.367 64.7033C46.3632 64.2471 46.3621 63.791 46.3615 63.3348C46.3609 63.1171 46.3592 62.8993 46.3565 62.6815C46.3405 61.2827 46.3817 60.2885 47.3312 59.1891C48.1369 58.4985 48.7365 58.1328 49.8023 58.1454C49.9442 58.1467 50.086 58.1479 50.2322 58.1493C50.3405 58.1509 50.4489 58.1526 50.5606 58.1543C50.5556 58.006 50.5506 57.8577 50.5455 57.7049C50.5045 55.9796 50.6493 54.5095 51.8452 53.1586C52.9035 52.2869 53.8103 51.974 55.1619 51.978C55.3595 51.9769 55.3595 51.9769 55.561 51.9757C55.8464 51.9743 56.1319 51.9734 56.4173 51.9732C56.8698 51.9726 57.3223 51.9703 57.7748 51.9674C59.0611 51.9595 60.3475 51.9551 61.6339 51.9516C62.4214 51.9493 63.2089 51.945 63.9964 51.9395C64.2957 51.9378 64.595 51.937 64.8943 51.937C65.3141 51.9369 65.7338 51.9343 66.1536 51.9312C66.3372 51.9321 66.3372 51.9321 66.5245 51.9331C67.5358 51.9211 68.4427 51.7511 69.2499 51.1157C69.8756 50.3004 69.8737 49.4701 69.8727 48.4846C69.8733 48.3519 69.8739 48.2193 69.8745 48.0826C69.8753 47.803 69.8754 47.5233 69.8748 47.2437C69.8743 46.8177 69.8777 46.3918 69.8813 45.9658C69.8816 45.6933 69.8817 45.4207 69.8816 45.1482C69.8836 44.9585 69.8836 44.9585 69.8856 44.7651C69.8785 43.8116 69.7471 43.124 69.0893 42.391C69.0039 42.3174 68.9185 42.2438 68.8306 42.168C68.8285 42.2859 68.8264 42.4039 68.8243 42.5253C68.8155 42.9697 68.8049 43.4139 68.7931 43.8581C68.7861 44.1422 68.7812 44.4263 68.7762 44.7105C68.7218 46.669 68.3264 48.1679 66.8858 49.5545C65.5935 50.5874 64.2408 50.8444 62.6216 50.8035C62.4571 50.8038 62.2927 50.8042 62.1232 50.8046C60.7675 50.7888 60.7675 50.7888 60.2665 50.3039C60.1004 49.7945 60.0797 49.5497 60.2933 49.055C60.6287 48.6386 60.9107 48.4724 61.4448 48.4119C61.5601 48.411 61.6754 48.4102 61.7942 48.4093C61.9866 48.4049 61.9866 48.4049 62.1828 48.4004C62.4493 48.3967 62.7159 48.3941 62.9824 48.3926C63.9491 48.3678 64.7445 48.2021 65.4797 47.5383C66.1807 46.7606 66.3042 45.943 66.3006 44.9316C66.3013 44.8259 66.302 44.7201 66.3028 44.6112C66.3048 44.2639 66.3046 43.9165 66.3043 43.5692C66.3049 43.3264 66.3055 43.0836 66.3062 42.8408C66.3072 42.3327 66.3072 41.8246 66.3064 41.3165C66.3056 40.6669 66.308 40.0175 66.3113 39.368C66.3134 38.8668 66.3136 38.3656 66.3131 37.8644C66.3132 37.625 66.3139 37.3856 66.3154 37.1462C66.3171 36.8107 66.3162 36.4754 66.3145 36.14C66.3156 36.0422 66.3167 35.9444 66.3178 35.8436C66.306 34.7468 65.8842 33.9582 65.1195 33.1757C64.2322 32.6164 63.3013 32.5872 62.2746 32.5857C62.1802 32.5854 62.0859 32.5851 61.9886 32.5847C61.6752 32.5838 61.3617 32.584 61.0483 32.5841C60.8224 32.5836 60.5965 32.5832 60.3707 32.5826C59.759 32.5814 59.1474 32.581 58.5357 32.5809C58.1531 32.5808 57.7706 32.5805 57.388 32.5801C56.052 32.5788 54.7159 32.5782 53.3799 32.5784C52.1366 32.5784 50.8933 32.5769 49.6499 32.5747C48.5806 32.5728 47.5113 32.572 46.442 32.5721C45.8042 32.5722 45.1664 32.5718 44.5285 32.5703C43.9284 32.5689 43.3284 32.5689 42.7283 32.5699C42.5088 32.5701 42.2893 32.5697 42.0698 32.5689C39.897 32.5226 39.897 32.5226 37.9999 33.4612C36.9589 34.7046 37.1008 36.3121 37.1056 37.8419C37.1054 38.0582 37.1051 38.2744 37.1048 38.4907C37.1044 38.9419 37.105 39.393 37.1063 39.8442C37.1079 40.42 37.107 40.9956 37.1053 41.5714C37.1043 42.0172 37.1046 42.4631 37.1053 42.9089C37.1055 43.1211 37.1053 43.3333 37.1046 43.5455C37.0805 45.6273 37.0805 45.6273 37.9999 47.4492C38.6704 48.0681 39.2729 48.3408 40.1856 48.3425C40.3357 48.3434 40.4858 48.3444 40.6404 48.3454C40.8036 48.3451 40.9667 48.3447 41.1348 48.3443C41.3078 48.3451 41.4808 48.3458 41.659 48.3466C42.0344 48.348 42.4097 48.349 42.7852 48.3491C43.379 48.3494 43.9728 48.352 44.5666 48.3549C46.0414 48.362 47.5161 48.3664 48.9909 48.3694C50.1376 48.3718 51.2843 48.375 52.4309 48.3813C53.021 48.3844 53.6111 48.3855 54.2012 48.3852C54.6546 48.3855 55.1081 48.3885 55.5616 48.3912C55.7247 48.3905 55.8879 48.3899 56.056 48.3892C56.206 48.3906 56.3561 48.3919 56.5107 48.3933C56.6407 48.3936 56.7707 48.3939 56.9046 48.3942C57.3903 48.4663 57.7762 48.67 58.1255 49.0193C58.2105 50.0558 58.2105 50.0558 57.8839 50.4609C57.4844 50.7898 57.3034 50.8038 56.792 50.8046C56.5601 50.807 56.5601 50.807 56.3234 50.8095C56.0699 50.8077 56.0699 50.8077 55.8113 50.806C55.5435 50.8075 55.5435 50.8075 55.2703 50.809C54.7806 50.8111 54.2911 50.8106 53.8015 50.8088C53.2879 50.8073 52.7743 50.8087 52.2607 50.8096C51.3971 50.8106 50.5336 50.8092 49.67 50.8065C48.6748 50.8034 47.6797 50.8044 46.6846 50.8076C45.8282 50.8102 44.9719 50.8105 44.1156 50.809C43.6051 50.8081 43.0946 50.808 42.584 50.8099C42.0132 50.8119 41.4424 50.8091 40.8716 50.806C40.7046 50.8071 40.5377 50.8083 40.3656 50.8095C39.187 50.7974 37.9852 50.7087 37.1057 49.8428C36.9981 49.7273 36.8906 49.6117 36.7798 49.4927C35.8081 48.5642 34.6594 48.7034 33.4008 48.7244C33.1387 48.7241 32.8767 48.7231 32.6147 48.7217C31.9066 48.7193 31.1987 48.7248 30.4907 48.7316C29.7486 48.7372 29.0066 48.7352 28.2646 48.7339C26.8601 48.7325 25.4558 48.7373 24.0513 48.7447C21.5343 48.7576 19.0173 48.7601 16.5002 48.7603C15.6171 48.7606 14.734 48.7636 13.8509 48.7688C13.3022 48.7718 12.7536 48.773 12.2049 48.7739C11.9504 48.7747 11.6959 48.7763 11.4414 48.7786C11.0942 48.7817 10.7471 48.7822 10.3998 48.7821C10.2486 48.7844 10.2486 48.7844 10.0944 48.7868C9.41896 48.7828 8.93916 48.6481 8.45389 48.1629C8.43819 47.8307 8.43177 47.5027 8.4313 47.1703C8.43025 47.0128 8.43024 47.0128 8.42917 46.852C8.42696 46.4974 8.42578 46.1428 8.42458 45.7882C8.42321 45.5351 8.42178 45.2819 8.4203 45.0288C8.41643 44.3393 8.41343 43.6499 8.41059 42.9604C8.40748 42.2407 8.40356 41.521 8.39974 40.8013C8.3926 39.4374 8.38619 38.0736 8.38004 36.7097C8.373 35.1574 8.36515 33.6052 8.35724 32.0529C8.34098 28.8588 8.32574 25.6647 8.31115 22.4707C8.21484 22.5111 8.11853 22.5516 8.01931 22.5934C7.89206 22.6458 7.76482 22.6982 7.63372 22.7522C7.4451 22.8306 7.4451 22.8306 7.25266 22.9106C6.40706 23.2109 5.60035 23.0817 4.77345 22.765C3.29241 22.0546 2.54206 20.4876 1.8881 19.045C1.59071 18.0074 1.7153 17.1261 2.09384 16.1268C2.74964 15.0519 3.71982 14.48 4.80523 13.8977C5.10012 13.7353 5.39488 13.5726 5.68952 13.4098C5.84026 13.3269 5.99099 13.2441 6.1463 13.1587C6.86551 12.7589 7.57488 12.3428 8.28439 11.9261C9.47454 11.2293 10.6668 10.5363 11.8617 9.84757C12.0156 9.75883 12.1696 9.67009 12.3282 9.57865C12.9537 9.21819 13.5792 8.85789 14.2048 8.49759C15.9999 7.4635 17.7931 6.42625 19.5817 5.38095C20.782 4.67998 21.9856 3.98486 23.1905 3.29199C23.979 2.83818 24.7654 2.38132 25.5486 1.91856C25.7041 1.82693 25.8595 1.7353 26.0197 1.64089C26.3149 1.46669 26.6097 1.29184 26.904 1.11623C27.9408 0.505076 28.7592 0.152884 29.98 0.150543ZM27.9907 3.14797C27.8084 3.25319 27.8084 3.25319 27.6225 3.36054C27.2261 3.59021 26.8323 3.82403 26.4384 4.0579C26.1665 4.2162 25.8944 4.37417 25.6222 4.53182C25.0499 4.86368 24.4787 5.19722 23.9082 5.53208C22.9939 6.06824 22.0759 6.5979 21.1573 7.12669C19.9657 7.813 18.7761 8.50252 17.5889 9.19634C15.9407 10.1594 14.2876 11.1138 12.6335 12.0666C12.1676 12.335 11.7018 12.6036 11.2361 12.8723C11.0829 12.9607 10.9297 13.049 10.7719 13.1401C10.4654 13.317 10.1589 13.494 9.85252 13.6712C9.12875 14.0894 8.40437 14.5063 7.67753 14.9192C7.33463 15.1141 6.99212 15.3096 6.64963 15.5052C6.40802 15.6428 6.16586 15.7794 5.92369 15.916C5.77723 15.9997 5.63077 16.0835 5.47988 16.1697C5.35101 16.2428 5.22215 16.3159 5.08938 16.3912C4.57545 16.7283 4.22989 17.0069 4.04138 17.5998C4.01481 18.566 4.67881 19.5244 5.24236 20.285C5.67173 20.6822 5.8782 20.7223 6.4556 20.7578C6.86855 20.625 6.86855 20.625 7.26629 20.396C7.49033 20.2762 7.49033 20.2762 7.71889 20.1539C7.9414 20.0289 7.9414 20.0289 8.16842 19.9014C8.3002 19.8275 8.43199 19.7535 8.56777 19.6774C8.96615 19.4493 9.3615 19.2167 9.75634 18.9826C10.0553 18.8067 10.3544 18.6309 10.6534 18.4551C10.8839 18.3195 10.8839 18.3196 11.1191 18.1812C12.0768 17.6205 13.04 17.0691 14.0026 16.5168C14.668 16.1339 15.3314 15.7497 15.9848 15.3468C16.083 15.2863 16.1813 15.2258 16.2825 15.1635C16.5307 15.0094 16.7778 14.8534 17.0246 14.6972C17.4668 14.4668 17.807 14.3723 18.3026 14.3348C18.704 14.4775 18.704 14.4775 19.0162 14.763C19.1768 15.2447 19.1768 15.2447 19.159 15.7621C18.7056 16.2917 18.2273 16.6368 17.6218 16.9748C17.4611 17.0654 17.3005 17.156 17.135 17.2494C16.9622 17.3454 16.7893 17.4414 16.6165 17.5374C16.3484 17.688 16.0806 17.8391 15.8127 17.9901C15.6303 18.0931 15.4477 18.1958 15.2651 18.2985C14.3386 18.8195 13.4209 19.3549 12.504 19.8925C12.2226 20.0574 11.9413 20.2223 11.6598 20.3871C11.5433 20.4555 11.4267 20.5239 11.3066 20.5944C11.12 20.702 10.9303 20.8043 10.7376 20.9006C10.7376 29.3319 10.7376 37.7632 10.7376 46.4501C18.6979 46.4501 26.6582 46.4501 34.8598 46.4501C34.8127 44.3775 34.7656 42.305 34.717 40.1697C33.4591 40.1617 33.4591 40.1617 32.1757 40.1536C31.6423 40.1492 31.1089 40.1448 30.5755 40.1399C29.7301 40.1322 28.8847 40.1249 28.0393 40.1203C27.3572 40.1166 26.6752 40.1108 25.9931 40.1036C25.7337 40.1013 25.4744 40.0996 25.215 40.0987C21.665 40.0852 21.665 40.0852 20.3009 38.7424C19.3832 37.6356 19.258 36.3531 19.2648 34.9588C19.2643 34.8298 19.2638 34.7008 19.2633 34.5679C19.262 34.1455 19.2628 33.7231 19.2638 33.3006C19.2636 33.0047 19.2633 32.7088 19.263 32.4129C19.2625 31.7943 19.2632 31.1758 19.2645 30.5572C19.2661 29.7667 19.2652 28.9763 19.2635 28.1859C19.2624 27.5754 19.2628 26.9648 19.2635 26.3543C19.2637 26.0629 19.2635 25.7715 19.2628 25.4802C19.2621 25.0721 19.2632 24.664 19.2648 24.256C19.2642 24.1371 19.2636 24.0183 19.263 23.8959C19.2728 22.5229 19.5196 21.38 20.4436 20.3296C21.6194 19.2953 22.9049 19.1438 24.4223 19.1508C24.5569 19.1503 24.6914 19.1498 24.8301 19.1493C25.271 19.1481 25.712 19.1489 26.153 19.1498C26.4617 19.1497 26.7704 19.1494 27.0791 19.149C27.7245 19.1486 28.37 19.1492 29.0155 19.1505C29.8405 19.1522 30.6654 19.1512 31.4904 19.1495C32.1274 19.1485 32.7644 19.1488 33.4014 19.1496C33.7055 19.1498 34.0096 19.1495 34.3137 19.1489C34.7396 19.1481 35.1654 19.1492 35.5913 19.1508C35.7155 19.1502 35.8396 19.1497 35.9675 19.1491C37.4846 19.1595 38.6837 19.4676 39.7942 20.5476C40.7415 21.7077 40.7764 23.373 40.7849 24.8012C40.7873 24.9426 40.7897 25.084 40.7921 25.2297C40.8003 25.7492 40.805 26.2688 40.81 26.7884C40.8247 27.9542 40.8395 29.1199 40.8546 30.3211C43.6337 30.3211 46.4127 30.3211 49.276 30.3211C49.276 27.2123 49.276 24.1035 49.276 20.9006C48.4281 20.4296 47.5803 19.9585 46.7067 19.4732C46.1582 19.1571 45.6108 18.8399 45.0653 18.5187C44.7721 18.3469 44.4788 18.1752 44.1855 18.0035C44.0369 17.9166 43.8884 17.8296 43.7354 17.7401C42.973 17.2951 42.2082 16.8541 41.4434 16.4134C41.2895 16.3247 41.1356 16.2359 40.9771 16.1445C40.5081 15.8743 40.0391 15.6041 39.57 15.3339C37.7274 14.2727 35.8855 13.2104 34.048 12.1402C33.9064 12.0581 33.7648 11.9759 33.619 11.8912C32.9967 11.5289 32.3779 11.1633 31.7687 10.7792C31.6207 10.6868 31.6207 10.6868 31.4697 10.5924C31.2925 10.4809 31.1164 10.3677 30.9417 10.2524C30.5893 10.0311 30.3723 9.90129 29.951 9.94723C29.5628 10.0572 29.2608 10.2017 28.9112 10.4023C28.7828 10.4754 28.6545 10.5485 28.5222 10.6238C28.3851 10.7032 28.2479 10.7827 28.1066 10.8646C27.8928 10.9869 27.8928 10.9869 27.6746 11.1117C26.4362 11.8221 25.2029 12.5417 23.9719 13.2649C23.7679 13.3847 23.7679 13.3847 23.5598 13.5068C23.4401 13.5772 23.3205 13.6476 23.1973 13.7202C22.5181 14.1071 22.106 14.2653 21.3 14.1921C21.0234 14.0404 21.0234 14.0404 20.8718 13.7638C20.8093 13.2732 20.8093 13.2732 20.8718 12.7647C21.2514 12.3135 21.6699 12.0341 22.1798 11.7449C22.3265 11.6611 22.4732 11.5772 22.6244 11.4908C22.782 11.4019 22.9396 11.313 23.102 11.2214C23.3506 11.0796 23.5991 10.9379 23.8476 10.796C24.107 10.6482 24.3666 10.5007 24.6262 10.3532C25.4854 9.86464 26.3408 9.36951 27.1967 8.87519C27.3531 8.78507 27.5096 8.69495 27.6707 8.60209C27.817 8.51779 27.9632 8.43349 28.1139 8.34663C28.3061 8.23589 28.3061 8.23589 28.5021 8.12291C28.7505 7.97835 28.9951 7.82735 29.2363 7.67108C29.6468 7.44616 29.9378 7.44558 30.3956 7.52576C31.0782 7.73693 31.6677 8.12818 32.2727 8.50051C32.5785 8.6839 32.8845 8.86714 33.1904 9.05026C33.3479 9.14525 33.5054 9.24024 33.6676 9.3381C34.4399 9.8004 35.2209 10.2473 36.0017 10.6951C37.1933 11.3812 38.3828 12.0709 39.57 12.7647C41.3738 13.8187 43.1836 14.8622 44.9939 15.9049C45.6185 16.2646 46.2429 16.6244 46.8673 16.9843C47.0194 17.0719 47.1714 17.1596 47.328 17.2499C48.5508 17.9554 49.7706 18.666 50.9886 19.3799C51.3687 19.6023 51.7495 19.8235 52.1307 20.0442C52.3119 20.1503 52.3119 20.1503 52.4968 20.2586C52.6105 20.324 52.7243 20.3894 52.8415 20.4568C52.9413 20.5146 53.0411 20.5724 53.1438 20.632C53.4356 20.7885 53.4356 20.7885 53.8792 20.7757C54.8682 20.3711 55.3758 19.3884 55.8418 18.4741C56.0038 17.9687 56.033 17.7564 55.8596 17.2608C55.0685 16.3302 53.8188 15.7768 52.764 15.1912C51.604 14.5414 50.4501 13.8827 49.3027 13.2108C48.1125 12.5141 46.9203 11.8209 45.7254 11.1322C45.4945 10.9991 45.4945 10.9991 45.2589 10.8633C44.79 10.593 44.321 10.3229 43.8521 10.0528C42.0417 9.01006 40.232 7.96653 38.4281 6.91259C36.9074 6.02419 35.3844 5.13964 33.8562 4.2642C33.3375 3.96664 32.8229 3.66422 32.3129 3.35203C32.2108 3.29091 32.1088 3.22979 32.0037 3.16682C31.8239 3.05892 31.6455 2.94876 31.469 2.83556C30.235 2.10552 29.1306 2.45794 27.9907 3.14797ZM21.8174 22.1763C21.4208 22.9237 21.4209 23.5907 21.4197 24.4256C21.419 24.5508 21.4183 24.676 21.4176 24.8049C21.4155 25.2187 21.4145 25.6325 21.4137 26.0463C21.4129 26.3343 21.4121 26.6223 21.4113 26.9103C21.4098 27.5142 21.4089 28.1181 21.4084 28.7219C21.4077 29.4947 21.4042 30.2674 21.4002 31.0401C21.3975 31.6351 21.3968 32.2301 21.3965 32.8251C21.3961 33.1099 21.395 33.3947 21.3931 33.6795C21.3906 34.0785 21.3909 34.4774 21.3919 34.8765C21.3905 34.9934 21.3892 35.1104 21.3879 35.2309C21.3933 35.9833 21.5168 36.5047 21.8709 37.1723C22.5908 37.8562 23.1805 37.9067 24.1358 37.9022C24.3072 37.9022 24.3072 37.9022 24.482 37.9023C24.8596 37.9022 25.2373 37.901 25.6149 37.8999C25.8767 37.8997 26.1385 37.8995 26.4003 37.8993C27.0895 37.8988 27.7787 37.8974 28.4678 37.8958C29.1711 37.8943 29.8743 37.8937 30.5775 37.893C31.9573 37.8914 33.3372 37.889 34.717 37.886C34.717 37.3208 34.717 36.7555 34.717 36.1732C34.5803 36.1723 34.4436 36.1715 34.3027 36.1706C33.0152 36.1625 31.7277 36.1521 30.4403 36.1395C29.7783 36.1331 29.1164 36.1275 28.4545 36.1237C27.8159 36.12 27.1773 36.1143 26.5387 36.1071C26.2949 36.1047 26.051 36.103 25.8072 36.1021C25.4661 36.1008 25.1251 36.0968 24.784 36.0921C24.6828 36.0924 24.5815 36.0926 24.4772 36.0928C24.0949 36.0854 23.7908 36.0645 23.4497 35.8839C23.2057 35.4301 23.2389 34.9623 23.2429 34.4598C23.2421 34.3435 23.2414 34.2272 23.2406 34.1073C23.2387 33.7224 23.24 33.3376 23.2414 32.9527C23.2411 32.6855 23.2407 32.4184 23.2402 32.1512C23.2395 31.5911 23.2405 31.031 23.2425 30.4709C23.2449 29.7523 23.2435 29.0339 23.2409 28.3153C23.2394 27.7636 23.2399 27.2118 23.241 26.6601C23.2413 26.3951 23.2409 26.1301 23.2399 25.8652C23.2388 25.4951 23.2405 25.1251 23.2429 24.755C23.2416 24.5901 23.2416 24.5901 23.2402 24.4219C23.245 24.0217 23.2584 23.6913 23.4412 23.3305C23.9125 23.089 24.4038 23.125 24.9213 23.1289C25.1042 23.1278 25.1042 23.1278 25.2907 23.1266C25.6941 23.1248 26.0975 23.126 26.5009 23.1275C26.7809 23.1272 27.0608 23.1268 27.3408 23.1262C27.9278 23.1256 28.5148 23.1265 29.1017 23.1285C29.8549 23.1309 30.6079 23.1295 31.361 23.127C31.9392 23.1254 32.5174 23.1259 33.0956 23.127C33.3733 23.1273 33.651 23.127 33.9288 23.126C34.3166 23.1249 34.7044 23.1265 35.0923 23.1289C35.2075 23.1281 35.3228 23.1272 35.4415 23.1263C36.2046 23.135 36.2046 23.135 36.572 23.3546C36.7671 23.7057 36.7724 23.9672 36.777 24.3687C36.7799 24.523 36.7827 24.6772 36.7856 24.8362C36.7865 25.0026 36.7874 25.169 36.7884 25.3404C36.7909 25.5109 36.7935 25.6813 36.7961 25.857C36.8039 26.4024 36.8087 26.9477 36.8135 27.4931C36.8182 27.8625 36.8231 28.2319 36.8282 28.6013C36.8404 29.5076 36.8499 30.4139 36.8581 31.3202C37.4233 31.0376 37.9885 30.755 38.5709 30.4638C38.5815 29.448 38.5892 28.4322 38.5944 27.4164C38.5965 27.0711 38.5995 26.7259 38.6032 26.3806C38.6084 25.8831 38.6108 25.3857 38.6127 24.8882C38.6149 24.7349 38.6171 24.5815 38.6194 24.4236C38.6196 23.5278 38.5392 22.8516 38.1427 22.0425C37.3036 21.3607 36.6127 21.3071 35.5675 21.3058C35.4353 21.3051 35.3032 21.3044 35.1671 21.3036C34.7294 21.3015 34.2917 21.3006 33.8539 21.2998C33.5497 21.299 33.2455 21.2981 32.9413 21.2973C32.303 21.2958 31.6646 21.295 31.0263 21.2945C30.2092 21.2937 29.3922 21.2903 28.5752 21.2862C27.9465 21.2836 27.3179 21.2828 26.6892 21.2826C26.388 21.2822 26.0869 21.281 25.7857 21.2791C25.3638 21.2767 24.942 21.277 24.52 21.2779C24.3342 21.2759 24.3342 21.2759 24.1447 21.2739C23.1909 21.2804 22.4477 21.3967 21.8174 22.1763ZM25.4393 25.3253C25.4393 26.3616 25.4393 27.3979 25.4393 28.4655C26.5698 28.4655 27.7002 28.4655 28.8649 28.4655C28.8649 27.4293 28.8649 26.393 28.8649 25.3253C27.7345 25.3253 26.604 25.3253 25.4393 25.3253ZM31.1487 25.3253C31.1487 26.3616 31.1487 27.3979 31.1487 28.4655C32.2791 28.4655 33.4096 28.4655 34.5743 28.4655C34.5743 27.4293 34.5743 26.393 34.5743 25.3253C33.4438 25.3253 32.3134 25.3253 31.1487 25.3253ZM25.4393 30.7493C25.4393 31.7855 25.4393 32.8218 25.4393 33.8894C26.5698 33.8894 27.7002 33.8894 28.8649 33.8894C28.8649 32.8532 28.8649 31.8169 28.8649 30.7493C27.7345 30.7493 26.604 30.7493 25.4393 30.7493ZM31.1487 30.7493C31.1487 31.7855 31.1487 32.8218 31.1487 33.8894C32.2791 33.8894 33.4096 33.8894 34.5743 33.8894C34.5743 32.8532 34.5743 31.8169 34.5743 30.7493C33.4438 30.7493 32.3134 30.7493 31.1487 30.7493ZM48.705 61.1517C48.5981 61.585 48.5981 61.585 48.6127 62.06C48.6104 62.2405 48.6082 62.421 48.6059 62.607C48.6071 62.8029 48.6086 62.9987 48.6102 63.1946C48.6098 63.3967 48.6091 63.5988 48.6082 63.8008C48.6071 64.2237 48.6086 64.6464 48.612 65.0692C48.616 65.6102 48.6137 66.1509 48.6094 66.6919C48.6068 67.109 48.6077 67.526 48.6095 67.9431C48.61 68.1425 48.6094 68.3419 48.6077 68.5413C48.6059 68.8204 48.6092 69.0994 48.6127 69.3785C48.6132 69.537 48.6138 69.6955 48.6144 69.8589C48.7336 70.4218 48.9832 70.6375 49.4187 71.0004C50.1067 71.279 50.945 71.1753 51.6757 71.1788C51.8281 71.1818 51.9806 71.1847 52.1376 71.1877C53.0031 71.192 53.6677 71.1735 54.4144 70.7149C54.8089 70.1827 54.8965 69.8021 54.898 69.1454C54.8994 68.9763 54.9007 68.8072 54.9021 68.633C54.9012 68.4516 54.9004 68.2702 54.8995 68.0833C54.9001 67.8022 54.9001 67.8022 54.9007 67.5154C54.9014 67.1195 54.9004 66.7236 54.8984 66.3277C54.896 65.8213 54.8974 65.315 54.9 64.8087C54.9019 64.3242 54.9005 63.8397 54.8995 63.3552C54.9003 63.1738 54.9012 62.9924 54.9021 62.8055C54.9008 62.6364 54.8994 62.4673 54.898 62.293C54.8975 62.0704 54.8975 62.0704 54.897 61.8433C54.8336 61.3701 54.6969 61.1057 54.4144 60.7235C53.709 60.2532 52.868 60.3794 52.0417 60.3773C51.7223 60.3756 51.4034 60.3686 51.0841 60.3614C50.8802 60.36 50.6764 60.359 50.4725 60.3583C50.2876 60.3564 50.1027 60.3545 49.9122 60.3525C49.2817 60.4618 49.1046 60.66 48.705 61.1517Z" fill="#EF5000"/>
</g>
<defs>
<clipPath id="clip0_141_2976">
<rect width="73.0801" height="73.0801" fill="white" transform="translate(0.460938 0.204102)"/>
</clipPath>
</defs>
</svg>
