<svg width="39" height="86" viewBox="0 0 39 86" fill="none" xmlns="http://www.w3.org/2000/svg">
<path d="M33.062 0.79541C33.8813 0.897818 34.5155 1.05235 35.2544 1.42181C35.6671 8.89036 35.9572 16.3583 36.1744 23.835C36.4024 31.6823 36.7235 39.5215 37.117 47.3622C37.3316 51.6709 37.5065 55.9777 37.6307 60.2897C37.7064 62.9069 37.818 65.5116 38.0006 68.1234C38.1723 70.8398 38.2062 73.5654 38.265 76.2861C38.2888 77.3464 38.3171 78.4065 38.3454 79.4667C38.3606 80.1412 38.3755 80.8157 38.3901 81.4903C38.3992 81.807 38.4083 82.1237 38.4176 82.4501C38.4256 82.8866 38.4256 82.8866 38.4337 83.332C38.4397 83.5881 38.4457 83.8442 38.4519 84.1081C38.3864 84.7323 38.3864 84.7323 37.76 85.3587C36.3332 85.1847 36.3332 85.1847 35.8808 84.7323C35.8136 84.108 35.7673 83.4813 35.729 82.8545C35.6916 82.2479 35.6916 82.2479 35.6534 81.629C35.6275 81.1794 35.6018 80.7299 35.5762 80.2803C35.5627 80.0509 35.5492 79.8215 35.5353 79.5852C35.2347 74.4579 35.0393 69.3275 34.8592 64.1949C34.7736 61.7541 34.6837 59.3134 34.594 56.8728C34.5734 56.3138 34.553 55.7548 34.5325 55.1959C34.3171 49.311 34.0814 43.427 33.8362 37.5433C33.8062 36.8206 33.7764 36.0979 33.7467 35.3753C33.4909 29.1353 33.4909 29.1353 33.1264 22.9009C32.9817 20.38 32.9454 17.8541 32.8891 15.33C32.8299 12.7327 32.7432 10.1561 32.504 7.56769C32.4019 6.34055 32.378 5.11907 32.3769 3.88824C32.3731 3.65649 32.3692 3.42475 32.3653 3.18599C32.3637 2.59746 32.3969 2.00906 32.4356 1.42181C32.6423 1.21509 32.8491 1.00838 33.062 0.79541Z" fill="#EF5000"/>
<path d="M4.71472 0.717041C5.49771 0.79534 5.49771 0.79534 6.12411 1.42174C6.17854 2.20992 6.19409 2.95998 6.17908 3.74755C6.17664 3.98518 6.1742 4.22281 6.17168 4.46765C6.13782 6.95164 6.03102 9.43255 5.91136 11.9137C5.8534 13.1166 5.79839 14.3198 5.74304 15.5229C5.71208 16.195 5.68098 16.867 5.64974 17.5391C5.43614 22.14 5.23692 26.7416 5.03648 31.3431C5.01614 31.8098 4.9958 32.2765 4.97547 32.7431C4.89272 34.6422 4.81002 36.5413 4.72751 38.4404C4.62239 40.8597 4.51691 43.2789 4.41062 45.6981C4.28547 48.5473 4.16121 51.3964 4.03816 54.2457C4.0283 54.4739 4.01844 54.7022 4.00828 54.9373C3.75869 60.7231 3.52138 66.5084 3.39559 72.2985C3.14361 83.7221 3.14361 83.7221 2.05254 85.3587C0.5257 85.0846 0.5257 85.0846 0.173353 84.7323C0.142903 84.3106 0.133784 83.8874 0.133821 83.4646C0.133488 83.1985 0.133155 82.9325 0.132812 82.6584C0.134483 82.3694 0.136153 82.0804 0.137873 81.7826C0.1389 81.484 0.139927 81.1855 0.140985 80.8779C0.157455 78.3151 0.253931 75.7613 0.3873 73.2023C0.74273 66.3388 0.988309 59.4711 1.23904 52.6032C1.75869 38.3793 1.75869 38.3793 2.10926 31.898C2.42198 26.0909 2.61206 20.2792 2.81029 14.4672C2.84615 13.424 2.88308 12.3809 2.9201 11.3378C2.97118 9.89292 3.01602 8.448 3.05804 7.00286C3.08126 6.28394 3.10456 5.56502 3.12793 4.84611C3.13649 4.51059 3.14504 4.17506 3.15386 3.82937C3.16445 3.52193 3.17505 3.21448 3.18597 2.89772C3.19394 2.62692 3.20191 2.35612 3.21012 2.07711C3.35812 1.05832 3.71101 0.817412 4.71472 0.717041Z" fill="#EF5000"/>
<path d="M19.5176 7.12878V14.3514" stroke="#EF5000" stroke-width="2" stroke-linecap="round"/>
<path d="M19.5176 22.8633V30.0859" stroke="#EF5000" stroke-width="2" stroke-linecap="round"/>
<path d="M19.5176 39.4266V46.6493" stroke="#EF5000" stroke-width="2" stroke-linecap="round"/>
<path d="M19.5176 55.9316V63.1543" stroke="#EF5000" stroke-width="2" stroke-linecap="round"/>
<path d="M19.5176 71.5682V78.7909" stroke="#EF5000" stroke-width="2" stroke-linecap="round"/>
</svg>
