<svg width="35" height="36" viewBox="0 0 35 36" fill="none" xmlns="http://www.w3.org/2000/svg">
<g clip-path="url(#clip0_69_1707)">
<path d="M24.5951 27.9774C24.5951 32.0024 21.4217 35.269 17.5117 35.269H7.59505C3.68505 35.269 0.511719 32.0024 0.511719 27.9774V17.769C0.511719 13.744 3.68505 10.4774 7.59505 10.4774H9.01172C9.79089 10.4774 10.4284 11.1336 10.4284 11.9357C10.4284 12.7378 9.79089 13.394 9.01172 13.394H7.59505C5.25755 13.394 3.34505 15.3628 3.34505 17.769V27.9774C3.34505 30.3836 5.25755 32.3524 7.59505 32.3524H17.5117C19.8492 32.3524 21.7617 30.3836 21.7617 27.9774C21.7617 27.1753 22.3992 26.519 23.1784 26.519C23.9576 26.519 24.5951 27.1753 24.5951 27.9774ZM33.2792 8.85862L25.6151 0.706536C25.0767 0.123203 24.1701 0.108619 23.6176 0.677369C23.0651 1.24612 23.0367 2.16487 23.5892 2.73362L30.8709 10.4628H18.9284C15.0184 10.4628 11.8451 13.7295 11.8451 17.7545V25.0461C11.8451 25.8482 12.4826 26.5045 13.2617 26.5045C14.0409 26.5045 14.6784 25.8482 14.6784 25.0461V17.7545C14.6784 15.3482 16.5909 13.3795 18.9284 13.3795H30.8567L23.5751 21.1086C23.0367 21.692 23.0367 22.6107 23.6034 23.1649C23.8726 23.442 24.2409 23.5732 24.5951 23.5732C24.9492 23.5732 25.3317 23.4274 25.6151 23.1357L33.2651 15.0128C34.9226 13.3065 34.9226 10.5357 33.2792 8.84404V8.85862Z" fill="#EF5000"/>
</g>
<defs>
<clipPath id="clip0_69_1707">
<rect width="34" height="35" fill="white" transform="translate(0.511719 0.268555)"/>
</clipPath>
</defs>
</svg>
