<svg width="29" height="25" viewBox="0 0 29 25" fill="none" xmlns="http://www.w3.org/2000/svg">
<path d="M16.0781 6.375H9.95312C5.08594 6.375 1.20312 10.3125 1.20312 15.125C1.20312 20.8672 5.25 23.3828 6.17969 23.875H6.23438C6.34375 23.875 6.45312 23.8203 6.45312 23.7109C6.45312 23.6016 6.39844 23.4375 6.17969 23.2734C5.52344 22.6719 4.70312 21.4688 4.70312 19.5C4.70312 16.1641 7.4375 13.375 10.8281 13.375H16.0781C16.5156 13.375 16.9531 13.8125 16.9531 14.25V17.75C16.9531 18.1328 17.1172 18.4062 17.4453 18.5703C17.7734 18.7344 18.1562 18.6797 18.375 18.4062L27.125 10.5312C27.3438 10.3672 27.4531 10.1484 27.4531 9.875C27.4531 9.65625 27.3438 9.4375 27.125 9.27344L18.375 1.39844C18.1562 1.125 17.7734 1.07031 17.4453 1.23438C17.1172 1.34375 16.9531 1.67188 16.9531 2V5.5C16.9531 5.99219 16.5156 6.375 16.0781 6.375ZM16.0781 15.125V14.25H15.2031H10.8281C7.92969 14.25 5.57812 16.6016 5.57812 19.5C5.57812 21.1953 6.23438 22.125 6.78125 22.6172C7.05469 22.8906 7.32812 23.2734 7.32812 23.7109C7.32812 24.3125 6.83594 24.75 6.23438 24.75C6.07031 24.75 5.90625 24.75 5.79688 24.6953C4.75781 24.0938 0.328125 21.3594 0.328125 15.125C0.328125 9.82031 4.59375 5.5 9.95312 5.5H15.2031H16.0781V4.625V2C16.0781 1.34375 16.4609 0.6875 17.1172 0.414062C17.7188 0.140625 18.4844 0.25 18.9766 0.742188L27.7266 8.61719C28.1094 8.94531 28.3281 9.38281 28.3281 9.875C28.3281 10.4219 28.1094 10.8594 27.7266 11.1875L18.9766 19.0625C18.4844 19.5547 17.7188 19.6641 17.1172 19.3906C16.4609 19.1172 16.0781 18.4609 16.0781 17.75V15.125Z" fill="#EF5000"/>
</svg>
