<svg width="10" height="13" viewBox="0 0 10 13" fill="none" xmlns="http://www.w3.org/2000/svg">
<path d="M4.33782 8.94116C4.74245 9.00315 5.03934 9.13551 5.34501 9.312C5.24604 9.5324 4.90439 10.0616 4.02294 9.84104C4.02294 9.84104 3.27621 9.65572 3.44737 9.17942C3.54633 8.89725 3.95096 8.8796 4.33782 8.94116Z" fill="#EF5000"/>
<path d="M9.67642 5.07525C9.31019 4.82903 9.06838 4.48961 8.88274 4.15213C8.93145 4.09315 8.98763 4.05506 8.98368 4.02493C8.9681 3.90978 8.96196 3.77849 8.89986 3.68723C8.76052 3.48276 8.59682 3.2925 8.43049 3.1074C8.24025 2.89518 8.22752 2.56975 8.45397 2.39413C8.5762 2.29986 8.6067 2.20128 8.61328 2.07214C8.62557 1.81602 8.6372 1.55946 8.64905 1.30312C8.63632 1.30291 8.62359 1.30205 8.61065 1.3014C8.59594 1.59562 8.58124 1.88963 8.56654 2.18385C8.56654 2.18449 8.56654 2.18514 8.56632 2.18578C8.56259 2.19073 8.55689 2.19482 8.5503 2.1987C8.54899 2.19934 8.54745 2.2002 8.54613 2.20085C8.52946 2.20924 8.50971 2.21376 8.50971 2.21376C8.48096 2.20408 8.38156 2.10529 8.33329 2.04481C8.09125 1.74155 7.71098 1.75661 7.51327 2.08764C7.45468 2.18664 7.39851 2.30093 7.39039 2.41156C7.38249 2.51767 7.34146 2.58116 7.2776 2.6184C7.2776 2.6184 7.27695 2.6184 7.27563 2.61926C7.27519 2.61926 7.27453 2.61969 7.27365 2.62012C7.26553 2.62356 7.24557 2.63174 7.21945 2.64013C7.21945 2.64013 7.21902 2.64013 7.21814 2.64035C7.20782 2.64272 7.13958 2.65951 7.11654 2.66295C7.11479 2.66295 7.11347 2.66338 7.11237 2.66338C6.86595 2.69717 6.6621 2.7908 6.53944 3.03056C6.53615 3.03745 6.52474 3.06758 6.5232 3.07124V3.07146C6.52232 3.07425 6.52166 3.0777 6.52035 3.08136C6.51925 3.08502 6.51793 3.0891 6.51684 3.09384C6.51596 3.09793 6.51464 3.10288 6.51354 3.10761C6.51179 3.11429 6.50981 3.12182 6.50806 3.13C6.50762 3.13194 6.50718 3.13387 6.50652 3.13602V3.13646C6.50652 3.13646 6.50652 3.13646 6.50652 3.13689C6.50652 3.13753 6.50608 3.13818 6.50608 3.13904C6.50543 3.14227 6.50455 3.14528 6.50367 3.14829C6.50345 3.15044 6.50279 3.15238 6.50235 3.15432C6.50213 3.15561 6.5017 3.15712 6.50148 3.15841C6.50082 3.16164 6.49994 3.16508 6.49928 3.16852C6.49292 3.1965 6.48656 3.22922 6.47975 3.26581C6.47931 3.26904 6.47887 3.27227 6.47822 3.27549C6.47778 3.27872 6.47712 3.28195 6.47646 3.28539C6.47624 3.28755 6.4758 3.2897 6.47558 3.29207C6.47471 3.29659 6.47383 3.30111 6.47317 3.30584C6.47251 3.31036 6.47163 3.3151 6.47097 3.31983C6.46593 3.35061 6.46154 3.38354 6.45781 3.41798C6.4464 3.51892 6.44004 3.63364 6.44596 3.75309C5.7146 3.06543 5.81685 1.63652 5.69441 1.00611C5.69441 1.00611 5.68585 0.61159 5.28517 0.612236C5.28517 0.612236 5.28341 0.612236 5.28012 0.611806C5.26696 0.610945 5.23119 0.609869 5.18533 0.622137C5.08746 0.64818 4.94264 0.733411 4.86825 1.00503C4.86825 1.00546 4.86825 1.00589 4.86781 1.00632C4.80308 1.22177 4.82283 1.52481 4.79211 1.83367C4.77631 1.99165 4.73703 2.17265 4.65299 2.3726C4.65299 2.37303 4.65299 2.37303 4.65299 2.37346C4.64904 2.39068 4.57312 2.70729 4.1935 3.08803C4.10178 3.17993 3.99206 3.27592 3.86128 3.37213L3.8536 3.37751L3.85294 3.37794C3.83012 3.39301 3.72238 3.46339 3.6063 3.54367C3.51546 3.60889 3.4132 3.68508 3.30349 3.77181C2.36959 4.50833 0.87351 6.00074 0.862538 8.01077C0.862538 8.01099 0.862538 8.01142 0.862538 8.01163C0.862538 8.01163 0.697307 10.4582 2.75513 11.688C3.0044 11.849 3.28615 11.9818 3.60499 12.0752C3.60499 12.0752 3.60521 12.0752 3.60543 12.0752C3.96902 12.1817 4.38068 12.2368 4.84653 12.2243L4.83907 12.222V12.2164L4.84214 12.2198L4.84653 12.2243C4.84653 12.2243 5.02602 12.225 5.02931 12.2243C5.85942 12.2243 6.80078 11.9512 7.80073 11.1753C7.80906 11.1684 7.81762 11.1613 7.82574 11.1542H7.8253C7.8253 11.1542 8.00348 10.9999 8.20645 10.7134C7.63615 10.5976 7.054 10.3708 6.2443 9.86842C5.83967 10.4861 5.04818 10.9446 3.61837 10.4861C3.61837 10.4861 2.26931 10.0275 2.68294 8.86287C2.90764 8.2542 3.62737 7.96299 4.58058 8.22772C4.94922 8.32458 5.19213 8.42165 5.44404 8.53636C5.35407 8.03359 4.94022 7.73356 4.58979 7.38058C3.79809 6.62189 4.18516 5.71341 4.18516 5.71341C4.65255 4.43429 6.15456 4.84 6.15456 4.84C7.35067 5.20159 6.89228 6.23383 6.89228 6.23383C6.89228 6.23383 6.80232 6.57777 6.38869 6.83346C6.06481 7.0276 5.63297 7.0276 5.53444 6.71875C5.40827 6.25127 5.93008 6.12794 5.93008 6.12794C6.03782 6.09264 6.09202 6.03087 6.11901 5.97792C6.11901 5.97792 6.20897 5.83673 6.17299 5.68672C6.146 5.56339 6.07402 5.52809 5.99305 5.5014C5.79513 5.44846 5.19257 5.51927 5.06684 6.10125C4.98565 6.50696 5.25555 6.76287 5.57021 7.04525C5.57021 7.04525 6.71235 7.90079 6.55063 9.07422C7.21616 9.40934 7.69299 9.67407 8.47548 9.76231C8.47548 9.76231 8.54613 9.77265 8.66638 9.76813C8.68021 9.72142 8.69271 9.67364 8.70434 9.625C8.72607 9.51975 8.74625 9.40891 8.76381 9.29225C8.88055 8.51333 8.8812 7.49465 8.46845 6.40451C8.2115 5.72417 7.97188 5.28854 7.68662 4.92954C7.68575 4.92803 7.68443 4.92631 7.68289 4.9248L7.82069 4.93513H7.82443L8.14106 4.8258C8.15533 4.78899 8.22554 4.74573 8.26482 4.75111C8.35347 4.7636 8.46143 4.78103 8.52002 4.83785C8.76118 5.07267 8.98807 5.3219 9.21803 5.56813C9.27969 5.6342 9.33192 5.70759 9.41618 5.81134C9.47477 5.67337 9.51646 5.5748 9.561 5.46955C9.62266 5.49409 9.6841 5.51862 9.74335 5.5423C9.90178 5.35462 9.89147 5.21902 9.67686 5.07482L9.67642 5.07525ZM6.45254 3.76902L6.44947 3.75761C6.45057 3.7589 6.45145 3.75955 6.45254 3.76041V3.76902ZM7.32698 4.46851C7.30832 4.46206 7.27958 4.46077 7.25303 4.46206C7.04501 4.26469 6.80934 4.06625 6.5311 3.82885C6.5311 3.82885 6.5311 3.82777 6.5311 3.82562C6.5311 3.82476 6.53088 3.82369 6.53088 3.82218C6.53088 3.82153 6.53088 3.82089 6.53088 3.82024C6.53088 3.8196 6.53088 3.81873 6.53088 3.81809C6.53044 3.81465 6.53 3.8112 6.52978 3.80776C6.52934 3.80518 6.52912 3.80259 6.5289 3.79979C6.52803 3.79355 6.52759 3.78731 6.52715 3.78128C6.52605 3.76902 6.52517 3.75675 6.52452 3.74405C6.52452 3.7419 6.5243 3.73975 6.5243 3.73781C6.52364 3.72748 6.5232 3.71693 6.52298 3.7066C6.52254 3.69347 6.52232 3.68013 6.52232 3.66678C6.52188 3.66635 6.52188 3.66528 6.52232 3.66485C6.52057 3.44832 6.55677 3.2219 6.57191 3.13775C6.57191 3.13775 6.57191 3.13646 6.57213 3.13581C6.57586 3.11687 6.61009 2.96255 6.76392 2.86096C6.85564 2.80586 6.9557 2.76475 7.05751 2.7258C7.22165 2.67586 7.28375 2.66984 7.28375 2.66984C7.28857 2.67823 7.29296 2.68684 7.29801 2.69523C7.22318 2.85192 7.15077 3.01012 7.07331 3.1653C6.87802 3.55637 6.95197 3.85597 7.31096 4.1192C7.43164 4.20766 7.55014 4.29934 7.67214 4.39103C7.61355 4.44764 7.54948 4.48014 7.48562 4.49004C7.4323 4.49843 7.3792 4.49111 7.32807 4.46895L7.32698 4.46851ZM7.92931 4.74358C7.92668 4.74552 7.92471 4.74681 7.92361 4.74681L7.92273 4.74638L7.56462 4.78383C7.52995 4.74444 7.4944 4.7057 7.4582 4.66739L7.71844 4.62735C7.72327 4.6237 7.72766 4.61961 7.73292 4.61552C7.75838 4.59464 7.78712 4.57182 7.83211 4.53524C7.88916 4.59163 7.93699 4.63704 7.97956 4.68719C7.98176 4.68956 7.94511 4.7326 7.92931 4.74379V4.74358Z" fill="#EF5000"/>
</svg>
