<svg width="70" height="70" viewBox="0 0 70 70" fill="none" xmlns="http://www.w3.org/2000/svg">
<g clip-path="url(#clip0_156_575)">
<path d="M64.1666 11.6666C67.3896 11.6666 70 9.05623 70 5.83337C70 2.6105 67.3896 0 64.1666 0C60.9436 0 58.3333 2.61036 58.3333 5.83337C58.3333 9.05638 60.9438 11.6666 64.1666 11.6666ZM64.1666 2.91661C65.7709 2.91661 67.0832 4.22915 67.0832 5.83322C67.0832 7.4373 65.7707 8.74984 64.1666 8.74984C62.5626 8.74984 61.25 7.4373 61.25 5.83322C61.25 4.22915 62.5626 2.91661 64.1666 2.91661ZM64.1666 70C67.3896 70 70 67.3895 70 64.1666C70 60.9438 67.3896 58.3333 64.1666 58.3333C60.9436 58.3333 58.3333 60.9436 58.3333 64.1666C58.3334 67.3895 60.9438 70 64.1666 70ZM64.1666 61.25C65.7709 61.25 67.0832 62.5625 67.0832 64.1666C67.0832 65.7709 65.7707 67.0832 64.1666 67.0832C62.5626 67.0832 61.25 65.7707 61.25 64.1666C61.25 62.5624 62.5626 61.25 64.1666 61.25ZM5.83337 48.125C9.05624 48.125 11.6667 45.5146 11.6667 42.2916C11.6667 39.0687 9.05638 36.4582 5.83337 36.4582C2.6105 36.4582 0 39.0686 0 42.2916C0 45.5146 2.6105 48.125 5.83337 48.125ZM5.83337 39.375C7.4376 39.375 8.74998 40.6875 8.74998 42.2916C8.74998 43.8958 7.43745 45.2082 5.83337 45.2082C4.22915 45.2082 2.91676 43.8957 2.91676 42.2916C2.91676 40.6875 4.22915 39.375 5.83337 39.375ZM27.7084 70C30.9313 70 33.5418 67.3896 33.5418 64.1666C33.5418 60.9438 30.9314 58.3333 27.7084 58.3333C24.4855 58.3333 21.875 60.9436 21.875 64.1666C21.875 67.3895 24.4854 70 27.7084 70ZM27.7084 61.25C29.3126 61.25 30.625 62.5625 30.625 64.1666C30.625 65.7709 29.3125 67.0832 27.7084 67.0832C26.1042 67.0832 24.7918 65.7707 24.7918 64.1666C24.7916 62.5624 26.1042 61.25 27.7084 61.25ZM5.83337 11.6666C9.05624 11.6666 11.6667 9.05623 11.6667 5.83322C11.6667 2.61021 9.05624 0 5.83337 0C2.6105 0 0 2.61036 0 5.83337C0 9.05638 2.6105 11.6666 5.83337 11.6666ZM5.83337 2.91661C7.4376 2.91661 8.74998 4.22915 8.74998 5.83322C8.74998 7.4373 7.43745 8.74984 5.83337 8.74984C4.22915 8.74984 2.91676 7.4373 2.91676 5.83322C2.91676 4.22915 4.22915 2.91661 5.83337 2.91661Z" fill="#EF5000"/>
<path d="M59.7918 4.37506H10.2085V7.29167H59.7918V4.37506ZM65.625 10.2083H62.7084V59.7916H65.625V10.2083ZM59.7918 62.7083H32.0835V65.6249H59.7918V62.7083ZM7.29174 10.2083H4.37513V37.9165H7.29174V10.2083ZM26.2502 59.7916H29.1668V49.5833C29.1668 44.7562 25.2439 40.8333 20.4168 40.8333H10.2085V43.7499H20.4168C23.6397 43.7499 26.2502 46.3603 26.2502 49.5833V59.7916ZM36.4584 41.4312L42.7584 35.1313L49.0584 41.4312L56.0147 34.4749L49.7147 28.175L56.0147 21.875L49.0584 14.9187L42.7584 21.2187L36.4584 14.9187L29.5021 21.875L35.8021 28.175L29.5021 34.4749L36.4584 41.4312ZM42.7584 31.0041L36.4584 37.3186L33.6294 34.4895L39.9293 28.1895L33.6294 21.875L36.4584 19.0458L42.7584 25.3457L49.0584 19.0458L51.9022 21.875L45.6022 28.175L51.9022 34.4749L49.0729 37.304L42.7584 31.0041Z" fill="#EF5000"/>
</g>
<defs>
<clipPath id="clip0_156_575">
<rect width="70" height="70" fill="white" transform="matrix(-1 0 0 1 70 0)"/>
</clipPath>
</defs>
</svg>
