<svg width="80" height="80" viewBox="0 0 80 80" fill="none" xmlns="http://www.w3.org/2000/svg">
<g clip-path="url(#clip0_131_535)">
<path d="M40.1392 0.604345C40.9919 0.841265 41.4297 1.57614 41.9326 2.25919C42.0495 2.41432 42.0495 2.41432 42.1687 2.57259C42.7239 3.30972 43.2686 4.05416 43.8101 4.80139C44.2577 5.41799 44.7095 6.03145 45.1616 6.64479C45.2945 6.82533 45.2945 6.82533 45.4301 7.00951C46.1802 8.02717 46.9388 9.0384 47.6985 10.0489C48.453 11.0532 49.1992 12.0634 49.943 13.0756C50.5813 13.9436 51.226 14.8065 51.8739 15.6673C52.5654 16.5875 53.2474 17.5145 53.9292 18.4419C54.5014 19.2196 55.0776 19.994 55.6581 20.7655C56.4254 21.7851 57.1831 22.8115 57.9389 23.8396C58.5852 24.718 59.2376 25.5916 59.8935 26.4629C60.3964 27.1319 60.894 27.8045 61.3892 28.4793C61.8421 29.0962 62.2971 29.7117 62.7522 30.327C62.8416 30.4484 62.9311 30.5698 63.0232 30.6949C63.2848 31.0489 63.5484 31.4014 63.8125 31.7536C63.8894 31.8582 63.9663 31.9629 64.0456 32.0707C64.8134 33.0867 65.6872 33.9728 66.8776 34.4717C67.0167 34.5317 67.1559 34.5917 67.2993 34.6536C69.0445 35.3094 71.0217 35.1138 72.6987 34.3813C73.107 34.1802 73.107 34.1802 73.5475 33.8741C74.1636 33.7655 74.8106 33.7061 75.362 34.0379C75.8404 34.5438 75.9494 35.0415 75.9632 35.7054C75.7352 36.4352 75.2156 36.9255 74.5572 37.2741C74.3631 37.3641 74.1679 37.4516 73.9716 37.5368C73.8764 37.5815 73.7812 37.6262 73.6831 37.6723C72.3175 38.2889 71.0141 38.3901 69.5282 38.3657C69.3653 38.3643 69.2024 38.3629 69.0345 38.3615C68.6368 38.3579 68.2391 38.3528 67.8414 38.3464C67.8428 38.4471 67.8442 38.5478 67.8456 38.6515C67.8592 39.6997 67.8685 40.7479 67.8753 41.7962C67.8784 42.1874 67.8826 42.5785 67.888 42.9697C67.8954 43.5321 67.8989 44.0943 67.9017 44.6567C67.9049 44.8315 67.908 45.0064 67.9113 45.1865C67.9117 46.402 67.9117 46.402 67.5485 47.0124C67.0382 47.4515 66.6723 47.4967 65.9968 47.4905C65.5079 47.4203 65.2476 47.175 64.9113 46.8284C64.7164 46.4387 64.7385 46.1709 64.7395 45.7347C64.7396 45.5711 64.7396 45.4074 64.7396 45.2389C64.7404 45.0617 64.7412 44.8845 64.742 44.7019C64.7423 44.4304 64.7423 44.4304 64.7426 44.1535C64.7435 43.5736 64.7454 42.9938 64.7474 42.4139C64.7482 42.0216 64.7489 41.6292 64.7495 41.2368C64.7512 40.2733 64.7539 39.3099 64.757 38.3464C63.7392 38.3464 62.7214 38.3464 61.6727 38.3464C61.6727 46.8454 61.6727 55.3444 61.6727 64.101C62.6905 64.101 63.7084 64.101 64.757 64.101C64.7538 63.8574 64.7506 63.6138 64.7473 63.3629C64.7361 62.459 64.729 61.5551 64.7232 60.6512C64.7201 60.26 64.7159 59.8688 64.7105 59.4777C64.703 58.9153 64.6995 58.353 64.6968 57.7906C64.6936 57.6158 64.6904 57.441 64.6872 57.2609C64.6868 56.0454 64.6868 56.0454 65.05 55.435C65.5603 54.9959 65.9262 54.9507 66.6017 54.9569C67.0906 55.0271 67.3509 55.2724 67.6872 55.6189C67.8821 56.0087 67.86 56.2765 67.8589 56.7127C67.8589 56.8763 67.8589 57.0399 67.8589 57.2085C67.8577 57.4743 67.8577 57.4743 67.8565 57.7455C67.8562 58.0169 67.8562 58.0169 67.8558 58.2939C67.855 58.8738 67.853 59.4536 67.8511 60.0334C67.8503 60.4258 67.8496 60.8182 67.849 61.2106C67.8473 62.174 67.8447 63.1375 67.8414 64.101C67.9566 64.0986 68.0718 64.0963 68.1905 64.0939C68.4182 64.0911 68.4182 64.0911 68.6505 64.0883C68.8007 64.086 68.9508 64.0836 69.1056 64.0812C69.7187 64.1092 70.0867 64.2587 70.6174 64.5636C71.0019 65.1404 70.9651 65.5854 70.9559 66.2522C70.9553 66.4309 70.9553 66.4309 70.9546 66.6133C70.9529 66.9936 70.949 67.3738 70.9451 67.754C70.9435 68.012 70.9421 68.2699 70.9409 68.5278C70.9375 69.1599 70.9321 69.7919 70.9258 70.4239C71.0245 70.4199 71.1233 70.4159 71.225 70.4117C71.6746 70.3956 72.1242 70.3856 72.574 70.3757C72.7294 70.3693 72.8847 70.3628 73.0448 70.3562C73.1954 70.3537 73.346 70.3512 73.5011 70.3486C73.6392 70.3446 73.7773 70.3406 73.9196 70.3364C74.5334 70.4711 74.7304 70.6793 75.0897 71.195C75.203 71.7736 75.1978 72.342 75.1921 72.93C75.1929 73.0982 75.1936 73.2665 75.1944 73.4398C75.1949 73.795 75.1935 74.1502 75.1902 74.5053C75.1861 75.0487 75.1902 75.5915 75.1951 76.1349C75.1946 76.4802 75.1936 76.8256 75.1921 77.171C75.1937 77.3333 75.1953 77.4956 75.1969 77.6627C75.1944 77.8146 75.192 77.9664 75.1895 78.1228C75.1889 78.2558 75.1883 78.3887 75.1876 78.5257C75.0422 79.0906 74.7678 79.3121 74.3186 79.6771C73.8958 79.7531 73.5686 79.7811 73.1469 79.7741C73.0296 79.7752 72.9123 79.7764 72.7914 79.7775C72.3969 79.7803 72.0026 79.7776 71.6082 79.775C71.3231 79.7759 71.038 79.7771 70.7529 79.7786C69.9683 79.7819 69.1839 79.7803 68.3993 79.7779C67.5537 79.7761 66.7081 79.7788 65.8624 79.781C64.2054 79.7844 62.5484 79.7836 60.8913 79.7814C59.545 79.7797 58.1986 79.7794 56.8522 79.7803C56.6608 79.7804 56.4694 79.7805 56.2721 79.7806C55.8833 79.7809 55.4945 79.7811 55.1056 79.7814C51.5612 79.7835 48.0168 79.7813 44.4723 79.7773C41.2358 79.7736 37.9993 79.7739 34.7628 79.7776C31.1276 79.7817 27.4924 79.7834 23.8572 79.781C23.4698 79.7807 23.0824 79.7805 22.695 79.7803C22.5043 79.7801 22.3137 79.78 22.1173 79.7799C20.7721 79.7792 19.4269 79.7804 18.0817 79.7822C16.443 79.7843 14.8043 79.7838 13.1656 79.7796C12.329 79.7776 11.4925 79.7768 10.656 79.7794C9.89074 79.7817 9.12562 79.7804 8.36041 79.7763C8.08301 79.7754 7.80561 79.7759 7.52822 79.7778C7.15213 79.7801 6.77635 79.7777 6.40027 79.7741C6.23738 79.7768 6.23738 79.7768 6.07119 79.7796C5.4795 79.7682 5.24152 79.6876 4.77588 79.3092C4.42423 78.8639 4.36025 78.6806 4.35767 78.1228C4.35524 77.971 4.35281 77.8192 4.35031 77.6627C4.35187 77.5005 4.35343 77.3382 4.35504 77.171C4.3543 77.0028 4.35356 76.8346 4.3528 76.6612C4.35228 76.306 4.35369 75.9509 4.35692 75.5957C4.36105 75.0524 4.35696 74.5095 4.35202 73.9662C4.35253 73.6208 4.35352 73.2754 4.35504 72.93C4.35269 72.6866 4.35269 72.6866 4.35031 72.4383C4.36198 71.7091 4.37359 71.3154 4.7983 70.7058C5.27025 70.3966 5.48891 70.3324 6.04602 70.3486C6.19661 70.3511 6.3472 70.3536 6.50235 70.3562C6.65771 70.3626 6.81307 70.3691 6.97314 70.3757C7.13149 70.3792 7.28983 70.3827 7.45297 70.3863C7.84266 70.3954 8.23189 70.408 8.62136 70.4239C8.61732 70.2645 8.61328 70.105 8.60912 69.9407C8.59513 69.3472 8.5863 68.7538 8.579 68.1602C8.57513 67.9036 8.56987 67.6471 8.56319 67.3906C8.5538 67.0211 8.54945 66.6519 8.54606 66.2823C8.54208 66.1682 8.5381 66.0541 8.534 65.9366C8.53367 65.331 8.59826 65.0561 8.97306 64.5719C9.85724 63.9042 10.532 64.101 11.7057 64.101C11.7057 55.602 11.7057 47.103 11.7057 38.3464C10.5352 38.3464 9.36469 38.3464 8.1587 38.3464C6.22224 37.8183 6.22224 37.8183 5.31529 37.3633C5.0484 37.2327 5.0484 37.2327 4.77613 37.0994C4.28001 36.7897 4.00217 36.5228 3.68635 36.0331C3.57498 35.2535 3.60268 34.9556 3.97551 34.2596C4.3427 33.8852 4.64161 33.7952 5.16107 33.7584C6.02502 33.8063 6.69385 34.1658 7.43941 34.5819C8.65745 35.2266 10.4286 35.1217 11.7539 34.8482C14.4435 33.9275 15.8405 31.6794 17.4368 29.483C18.6822 27.7706 19.9424 26.0692 21.2191 24.38C21.3246 24.2394 21.43 24.0989 21.5386 23.9541C21.6374 23.8241 21.7361 23.694 21.8378 23.5601C21.925 23.4447 22.0122 23.3292 22.1021 23.2103C22.4041 22.8577 22.6649 22.6394 23.1312 22.5643C23.7243 22.5542 24.118 22.578 24.6601 22.8378C25.0306 23.3124 25.149 23.6306 25.1812 24.2288C24.9839 25.5529 23.7418 26.7285 22.9414 27.7523C22.4355 28.4024 21.9477 29.0655 21.4601 29.7294C21.3697 29.8523 21.2794 29.9752 21.1863 30.1018C20.8061 30.6193 20.4265 31.137 20.047 31.655C19.8511 31.9223 19.6551 32.1896 19.459 32.4568C19.2753 32.7071 19.0918 32.9575 18.9087 33.2082C18.8249 33.3223 18.741 33.4365 18.6546 33.5542C18.582 33.6534 18.5093 33.7527 18.4344 33.855C18.1061 34.2825 17.7569 34.6937 17.4118 35.1078C20.3127 35.1587 23.2136 35.2096 26.2023 35.262C26.3041 35.0585 26.4059 34.8549 26.5108 34.6452C26.6557 34.4336 26.8055 34.2253 26.959 34.0198C27.0484 33.8994 27.1379 33.7789 27.23 33.6548C27.3235 33.5299 27.4169 33.4051 27.5132 33.2765C29.0306 31.2418 30.4853 29.1738 31.8891 27.0595C31.9634 26.9478 32.0377 26.8361 32.1142 26.721C33.9199 24.0034 35.6358 21.2557 37.2525 18.4214C37.5624 17.8822 37.8723 17.3432 38.1934 16.8106C38.2498 16.7168 38.3062 16.623 38.3643 16.5264C38.6381 16.1626 38.9119 15.9992 39.3579 15.9274C39.4887 15.9241 39.6195 15.9207 39.7543 15.9172C39.8843 15.911 40.0143 15.9049 40.1483 15.8985C40.8468 16.0503 41.2185 16.6063 41.5956 17.1859C41.7239 17.4188 41.7239 17.4188 41.8549 17.6564C41.9526 17.8312 42.0503 18.006 42.1509 18.1861C42.2016 18.2781 42.2524 18.3701 42.3047 18.4649C42.5761 18.956 42.8528 19.4442 43.1297 19.9323C43.2132 20.0796 43.2132 20.0796 43.2984 20.2298C44.1232 21.6781 45.0261 23.075 45.9423 24.4667C46.0008 24.5555 46.0592 24.6444 46.1194 24.7359C48.1777 27.8625 50.2592 30.9549 52.5619 33.9087C52.6636 34.0402 52.7653 34.1717 52.8701 34.3072C52.9617 34.4246 53.0533 34.542 53.1477 34.6629C53.3448 34.9536 53.3448 34.9536 53.3448 35.262C57.6961 35.1857 57.6961 35.1857 62.1353 35.1078C61.5246 34.3444 60.9139 33.581 60.2847 32.7945C59.5246 31.7344 59.5246 31.7344 59.1787 31.2415C58.6409 30.4855 58.0734 29.7522 57.5088 29.0162C56.7644 28.0452 56.0322 27.0698 55.3292 26.0685C54.7402 25.2358 54.1196 24.4279 53.4991 23.6185C52.7547 22.6475 52.0226 21.6721 51.3195 20.6709C50.7305 19.8381 50.1099 19.0303 49.4894 18.2208C48.745 17.2499 48.0129 16.2744 47.3098 15.2732C46.7208 14.4405 46.1002 13.6326 45.4797 12.8232C44.7973 11.933 44.1194 11.0424 43.4748 10.1244C42.6994 9.02367 41.8817 7.95654 41.0622 6.88846C40.9598 6.75497 40.8574 6.62148 40.7519 6.48394C40.66 6.36443 40.568 6.24491 40.4733 6.12177C40.283 5.8685 40.1035 5.60714 39.9278 5.34356C39.4069 5.5172 39.3336 5.61964 39.0236 6.0508C38.8964 6.22566 38.8964 6.22566 38.7667 6.40405C38.6759 6.5312 38.5852 6.65836 38.4916 6.78937C38.2959 7.05926 38.1001 7.32915 37.9043 7.59902C37.7546 7.80656 37.7546 7.80656 37.6019 8.0183C37.1534 8.63935 36.7001 9.25685 36.2458 9.87374C36.1588 9.99203 36.0718 10.1103 35.9822 10.2322C34.9788 11.5923 33.9569 12.9386 32.9251 14.2773C32.7243 14.5384 32.5262 14.8016 32.3289 15.0654C31.9525 15.4929 31.6468 15.5167 31.0891 15.5798C30.3469 15.5044 30.0839 15.3096 29.5951 14.7509C29.359 14.0987 29.3213 13.7842 29.6042 13.1527C29.8859 12.6897 30.1951 12.2536 30.5204 11.8208C30.591 11.7267 30.6615 11.6326 30.7342 11.5357C31.1463 10.9896 31.5631 10.4473 31.9819 9.90627C32.5301 9.19616 33.0642 8.4763 33.5952 7.75323C33.6843 7.63194 33.7734 7.51065 33.8653 7.38568C34.1385 7.01355 34.4114 6.64123 34.6844 6.26888C38.8874 0.536924 38.8874 0.536924 40.1392 0.604345ZM39.6194 20.9197C39.3848 21.251 39.3848 21.251 39.1471 21.6841C39.051 21.8506 38.955 22.0171 38.856 22.1887C38.8046 22.2786 38.7532 22.3685 38.7003 22.4611C37.3632 24.7958 35.8896 27.0248 34.3759 29.2475C34.1923 29.5191 34.0088 29.7908 33.8253 30.0626C32.9043 31.4223 31.9593 32.7627 30.9904 34.0889C30.9109 34.1979 30.8313 34.3069 30.7494 34.4193C30.6789 34.5153 30.6085 34.6113 30.536 34.7103C30.3555 34.9565 30.3555 34.9565 30.212 35.262C36.5226 35.262 42.8333 35.262 49.3352 35.262C48.8219 34.4921 48.3199 33.7415 47.7724 33.0003C45.3595 29.7305 43.0648 26.2969 41.0266 22.7811C40.9552 22.658 40.8837 22.5348 40.8101 22.4078C40.6751 22.1734 40.5412 21.9382 40.4088 21.7023C40.2567 21.4365 40.0934 21.1773 39.9278 20.9197C39.826 20.9197 39.7242 20.9197 39.6194 20.9197ZM14.7901 38.3464C14.7901 46.8454 14.7901 55.3444 14.7901 64.101C15.808 64.101 16.8258 64.101 17.8745 64.101C17.8745 55.602 17.8745 47.103 17.8745 38.3464C16.8566 38.3464 15.8388 38.3464 14.7901 38.3464ZM20.9589 38.3464C20.9589 46.8454 20.9589 55.3444 20.9589 64.101C24.4195 64.101 27.8802 64.101 31.4458 64.101C31.4497 63.2447 31.4537 62.3885 31.4578 61.5064C31.4617 60.9603 31.4658 60.4142 31.4705 59.8681C31.4779 59.0034 31.4847 58.1388 31.4876 57.2742C31.4899 56.5762 31.4952 55.8783 31.5026 55.1803C31.5048 54.9155 31.5061 54.6507 31.5062 54.3859C31.5087 51.9059 31.8826 49.7219 33.6494 47.8405C34.2945 47.2343 34.9597 46.7385 35.7157 46.279C36.8575 45.5797 37.6669 44.7311 38.0772 43.4356C38.1246 43.1211 38.1693 42.8062 38.2121 42.491C38.3054 41.8909 38.3749 41.6014 38.7133 41.0838C39.2089 40.7821 39.5046 40.7277 40.0724 40.7266C40.5597 40.8604 40.8102 41.0683 41.1616 41.4308C41.3218 41.9645 41.3218 41.9645 41.4122 42.5682C41.6278 43.9657 42.1212 44.9534 43.1664 45.9031C43.5202 46.1431 43.8728 46.3732 44.2363 46.5971C45.5962 47.4432 46.4837 48.281 47.2339 49.7104C47.3113 49.8545 47.3113 49.8545 47.3902 50.0014C48.235 51.7284 48.1511 53.7419 48.1653 55.6219C48.1682 55.868 48.1712 56.1141 48.1743 56.3602C48.1821 57.0008 48.1883 57.6415 48.1941 58.2822C48.2014 59.0546 48.2109 59.8271 48.22 60.5995C48.2335 61.7666 48.2443 62.9338 48.2556 64.101C51.6654 64.101 55.0752 64.101 58.5883 64.101C58.5883 55.602 58.5883 47.103 58.5883 38.3464C46.1706 38.3464 33.7529 38.3464 20.9589 38.3464ZM39.6194 47.1369C39.4826 47.2832 39.3458 47.4295 39.2049 47.5803C38.6554 48.1529 38.0477 48.5544 37.3832 48.9779C36.043 49.8442 35.1483 50.6464 34.6844 52.2261C34.6451 52.6494 34.6253 53.0349 34.6318 53.4562C34.6318 53.5723 34.6317 53.6883 34.6316 53.8078C34.6319 54.1866 34.6355 54.5654 34.6392 54.9442C34.64 55.2087 34.6407 55.4732 34.6412 55.7376C34.6429 56.4303 34.6475 57.1229 34.6526 57.8156C34.6582 58.6485 34.6603 59.4814 34.663 60.3143C34.6674 61.5765 34.6763 62.8387 34.6844 64.101C38.0941 64.101 41.5039 64.101 45.017 64.101C45.026 62.1576 45.026 62.1576 45.0321 60.2142C45.0339 59.4209 45.0361 58.6276 45.0403 57.8343C45.0437 57.1944 45.0455 56.5544 45.0463 55.9144C45.0469 55.671 45.048 55.4275 45.0496 55.184C45.0519 54.8415 45.0522 54.4991 45.052 54.1566C45.0527 53.962 45.0534 53.7675 45.0541 53.5671C44.9557 52.0549 44.4429 50.7597 43.3381 49.714C42.8389 49.3099 42.2949 48.9878 41.7465 48.655C41.1777 48.2795 40.6943 47.8381 40.2019 47.3688C39.9484 47.1037 39.9484 47.1037 39.6194 47.1369ZM11.7057 67.3396C11.7057 68.3065 11.7057 69.2735 11.7057 70.2697C30.2305 70.2697 48.7553 70.2697 67.8414 70.2697C67.8414 69.3028 67.8414 68.3358 67.8414 67.3396C49.3166 67.3396 30.7919 67.3396 11.7057 67.3396ZM7.54183 73.5083C7.54183 74.5262 7.54183 75.544 7.54183 76.5927C28.8148 76.5927 50.0877 76.5927 72.0053 76.5927C72.0053 75.5749 72.0053 74.557 72.0053 73.5083C50.7324 73.5083 29.4594 73.5083 7.54183 73.5083Z" fill="#EF5000"/>
<path d="M28.0517 17.6811C28.4769 17.9427 28.6219 18.1373 28.7608 18.6148C28.8738 19.2668 28.8603 19.6068 28.5722 20.2161C28.1825 20.6365 27.9924 20.803 27.4349 20.9197C26.7246 20.9197 26.4418 20.8409 25.9023 20.3703C25.5596 19.8956 25.4709 19.4903 25.5077 18.9094C25.6477 18.3552 25.9445 18.0728 26.3553 17.6811C26.9503 17.4827 27.4534 17.5303 28.0517 17.6811Z" fill="#EF5000"/>
<path d="M67.069 49.7587C67.551 50.0478 67.551 50.0478 67.8401 50.5298C67.9926 51.3049 67.9599 51.8723 67.551 52.5539C66.8693 52.9629 66.302 52.9955 65.5268 52.8431C65.0449 52.5539 65.0449 52.5539 64.7557 52.072C64.6033 51.2968 64.6359 50.7295 65.0449 50.0478C65.7265 49.6389 66.2939 49.6062 67.069 49.7587Z" fill="#EF5000"/>
</g>
<defs>
<clipPath id="clip0_131_535">
<rect width="78.9601" height="78.9601" fill="white" transform="translate(0.292969 0.717041)"/>
</clipPath>
</defs>
</svg>
