<svg width="86" height="86" viewBox="0 0 86 86" fill="none" xmlns="http://www.w3.org/2000/svg">
<g clip-path="url(#clip0_141_2847)">
<path d="M85.0358 49.9378L81.7861 49.4244C82.1096 47.3811 82.2738 45.2848 82.2738 43.1954C82.2738 38.4243 81.4336 33.7628 79.7754 29.3426L82.8574 28.1858C84.6542 32.9791 85.5646 38.0273 85.5646 43.1954C85.5646 45.4559 85.3866 47.7251 85.0358 49.9378Z" fill="#EF5000"/>
<path d="M83.4409 56.545L80.3145 55.52C80.5865 54.6917 80.8313 53.8515 81.0486 53.0027L84.2367 53.8155C84.0005 54.7396 83.7353 55.6466 83.4409 56.545Z" fill="#EF5000"/>
<path d="M42.7818 85.9772C19.1919 85.9772 0 66.7853 0 43.1954C0 41.0375 0.162571 38.871 0.482579 36.7576L3.73571 37.2487C3.44137 39.1996 3.29249 41.2 3.29249 43.1937C3.29249 64.9679 21.0093 82.6847 42.7835 82.6847C58.2705 82.6847 72.4039 73.5619 78.787 59.4439L81.7851 60.8009C74.8699 76.0929 59.5608 85.9755 42.7835 85.9755L42.7818 85.9772Z" fill="#EF5000"/>
<path d="M4.50793 33.4342L1.31641 32.6282C1.55256 31.6956 1.82123 30.7732 2.11899 29.8662L5.24549 30.8947C4.96997 31.7281 4.72526 32.5769 4.50793 33.4359V33.4342Z" fill="#EF5000"/>
<path d="M42.7833 77.7493C41.7257 77.7493 40.6647 77.7014 39.6328 77.6073L39.9323 74.3285C40.8666 74.4141 41.825 74.4568 42.785 74.4568V77.7476L42.7833 77.7493Z" fill="#EF5000"/>
<path d="M46.4455 77.5577L46.1016 74.2857C61.4243 72.6686 73.1585 60.3251 74.0004 44.9323L77.2844 45.1119C76.3534 62.1254 63.3854 75.7711 46.4455 77.5559V77.5577Z" fill="#EF5000"/>
<path d="M73.9906 41.2924C73.9392 40.4367 73.852 39.5777 73.7305 38.7357L76.9887 38.2703C77.1222 39.2012 77.218 40.151 77.2745 41.0939L73.9906 41.2924Z" fill="#EF5000"/>
<path d="M72.9752 35.048C72.7391 34.1649 72.4618 33.2905 72.1504 32.4468L75.2392 31.3123C75.5832 32.2466 75.8895 33.2186 76.1531 34.194L72.9752 35.0497V35.048Z" fill="#EF5000"/>
<path d="M53.9955 56.7332L41.1387 43.8764V16.8691H44.4294V42.5143L56.3211 54.4076L53.9955 56.7332Z" fill="#EF5000"/>
<path d="M35.6315 77.0101C19.7543 73.668 8.22892 59.4473 8.22892 43.1971C8.22892 24.1438 23.7313 8.64308 42.7829 8.64308C50.28 8.64308 57.2295 10.9482 63.4363 15.4984L64.8207 16.5132L59.2488 23.4798L74.0684 21.7771L72.3691 6.9917L67.8958 12.6663L66.6209 11.7199C59.6715 6.55362 51.2024 3.70948 42.7795 3.70948C27.2394 3.70948 13.0872 12.8733 6.72813 27.0581L3.72656 25.7113C10.6179 10.3407 25.9474 0.413574 42.7829 0.413574C51.3923 0.413574 60.0343 3.1499 67.2952 8.14852L69.8569 4.94673C70.5021 4.1527 71.4279 3.70435 72.4016 3.70435C74.0479 3.70435 75.4391 4.95016 75.6411 6.60153L77.3181 21.4366C77.3232 21.4964 77.3369 21.7104 77.3369 21.8045C77.3369 23.4302 76.1065 24.8214 74.4723 25.0388L59.6047 26.721C59.55 26.7261 59.3412 26.7398 59.2368 26.7398C57.4228 26.7398 55.946 25.263 55.946 23.449C55.946 22.7286 56.1959 22.0321 56.6699 21.4297L60.0822 17.1669C54.7738 13.6468 49.0992 11.9321 42.7829 11.9321C25.5436 11.9321 11.5197 25.9577 11.5197 43.1954C11.5197 57.8986 21.9448 70.764 36.3092 73.7895L35.6315 77.0101Z" fill="#EF5000"/>
</g>
<defs>
<clipPath id="clip0_141_2847">
<rect width="85.5636" height="85.5636" fill="white" transform="translate(0.0078125 0.42041)"/>
</clipPath>
</defs>
</svg>
