<svg width="22" height="23" viewBox="0 0 22 23" fill="none" xmlns="http://www.w3.org/2000/svg">
<path d="M11.2011 0.982422C9.11742 0.982422 7.08058 1.60029 5.3481 2.75789C3.61562 3.9155 2.26532 5.56085 1.46795 7.48587C0.67058 9.4109 0.461952 11.5291 0.868448 13.5727C1.27494 15.6163 2.27831 17.4935 3.75166 18.9668C5.22501 20.4402 7.10217 21.4436 9.14577 21.8501C11.1894 22.2566 13.3076 22.0479 15.2326 21.2506C17.1577 20.4532 18.803 19.1029 19.9606 17.3704C21.1182 15.6379 21.7361 13.6011 21.7361 11.5175C21.7331 8.7243 20.6222 6.04638 18.6472 4.07132C16.6721 2.09626 13.9942 0.985372 11.2011 0.982422ZM11.2011 20.4317C9.43798 20.4317 7.7145 19.9089 6.24856 18.9294C4.78261 17.9499 3.64005 16.5577 2.96535 14.9288C2.29065 13.2999 2.11412 11.5076 2.45808 9.77837C2.80204 8.04917 3.65104 6.4608 4.89772 5.21412C6.1444 3.96744 7.73277 3.11844 9.46197 2.77448C11.1912 2.43052 12.9835 2.60705 14.6124 3.28175C16.2413 3.95645 17.6335 5.09902 18.613 6.56496C19.5925 8.0309 20.1153 9.75438 20.1153 11.5175C20.1126 13.8808 19.1726 16.1467 17.5014 17.8178C15.8303 19.489 13.5644 20.429 11.2011 20.4317ZM17.6841 11.5175C17.6841 11.7324 17.5988 11.9385 17.4468 12.0905C17.2948 12.2425 17.0887 12.3278 16.8738 12.3278H11.2011C10.9861 12.3278 10.78 12.2425 10.628 12.0905C10.476 11.9385 10.3907 11.7324 10.3907 11.5175V5.84474C10.3907 5.62982 10.476 5.42369 10.628 5.27171C10.78 5.11974 10.9861 5.03436 11.2011 5.03436C11.416 5.03436 11.6221 5.11974 11.7741 5.27171C11.9261 5.42369 12.0114 5.62982 12.0114 5.84474V10.7071H16.8738C17.0887 10.7071 17.2948 10.7924 17.4468 10.9444C17.5988 11.0964 17.6841 11.3025 17.6841 11.5175Z" fill="#EF5000"/>
</svg>
