<svg width="19" height="20" viewBox="0 0 19 20" fill="none" xmlns="http://www.w3.org/2000/svg">
<path d="M9.62891 0.308105C7.77471 0.308105 5.96215 0.85794 4.42044 1.88808C2.87873 2.91822 1.67711 4.38239 0.96754 6.09545C0.257968 7.80851 0.0723121 9.69351 0.434049 11.5121C0.795785 13.3306 1.68867 15.0011 2.99978 16.3122C4.3109 17.6233 5.98137 18.5162 7.79994 18.878C9.61851 19.2397 11.5035 19.054 13.2166 18.3445C14.9296 17.6349 16.3938 16.4333 17.4239 14.8916C18.4541 13.3499 19.0039 11.5373 19.0039 9.68311C19.0012 7.19754 18.0126 4.81456 16.255 3.05699C14.4975 1.29943 12.1145 0.310835 9.62891 0.308105ZM9.62891 18.3081C7.92305 18.3081 6.25549 17.8023 4.83712 16.8545C3.41874 15.9068 2.31326 14.5598 1.66045 12.9838C1.00764 11.4077 0.83684 9.67354 1.16964 8.00045C1.50243 6.32736 2.32389 4.79054 3.53011 3.58431C4.73634 2.37808 6.27317 1.55663 7.94626 1.22383C9.61934 0.891035 11.3535 1.06184 12.9296 1.71464C14.5056 2.36745 15.8526 3.47294 16.8003 4.89131C17.7481 6.30969 18.2539 7.97724 18.2539 9.68311C18.2514 11.9698 17.3419 14.1622 15.725 15.7792C14.108 17.3961 11.9156 18.3056 9.62891 18.3081ZM15.2539 9.68311C15.2539 9.78256 15.2144 9.87794 15.1441 9.94827C15.0737 10.0186 14.9784 10.0581 14.8789 10.0581H10.5345L13.6442 13.1678C13.7146 13.2382 13.7541 13.3336 13.7541 13.4331C13.7541 13.5326 13.7146 13.6281 13.6442 13.6984C13.5739 13.7688 13.4784 13.8083 13.3789 13.8083C13.2794 13.8083 13.184 13.7688 13.1136 13.6984L9.3636 9.94842C9.31109 9.89597 9.27533 9.82913 9.26084 9.75634C9.24634 9.68356 9.25377 9.60812 9.28218 9.53956C9.31059 9.471 9.35869 9.41241 9.42042 9.37121C9.48214 9.33001 9.5547 9.30805 9.62891 9.30811H14.8789C14.9784 9.30811 15.0737 9.34761 15.1441 9.41794C15.2144 9.48827 15.2539 9.58365 15.2539 9.68311Z" fill="#EF5000"/>
</svg>
