<svg width="69" height="72" viewBox="0 0 69 72" fill="none" xmlns="http://www.w3.org/2000/svg">
<g clip-path="url(#clip0_69_2025)">
<path d="M28.75 53.75C28.75 56.7734 29.3221 59.6519 30.3255 62.3114L7.66762 44.875H0V38.9583H9.58237L28.7529 53.7086C28.7529 53.7086 28.7529 53.7352 28.7529 53.75H28.75ZM61.0535 6.41667L52.5751 2.05312C47.3139 -0.650792 40.6324 0.363917 36.363 4.50558L34.5863 6.22733L32.5737 4.33992C29.9345 1.86379 26.5104 0.5 22.8275 0.5C20.6195 0.5 18.4058 1.03842 16.4249 2.05312L7.9465 6.41667H0V12.3333H9.3035L18.9923 7.34558C21.9478 5.825 26.059 6.23917 28.6983 8.71233L30.383 10.2921L22.7729 17.6642C19.6909 20.8356 19.1964 25.844 21.6286 29.3171C23.1236 31.453 25.4322 32.7991 27.9565 33.0121C28.1922 33.0298 28.4251 33.0417 28.658 33.0417C30.9379 33.0417 33.1257 32.1187 34.707 30.4886L37.5964 27.6427L43.0474 31.8495C45.3445 30.8821 47.8343 30.3052 50.4333 30.1543L41.8083 23.4981L46.6612 18.7174L42.6851 14.4426L30.6849 26.2612C30.0898 26.8765 29.2589 27.199 28.4194 27.1191C27.5655 27.0481 26.8094 26.6043 26.2948 25.8677C25.507 24.7406 25.7485 22.9804 26.7778 21.9183L40.3046 8.81588C42.8576 6.34271 46.8596 5.73329 50.0049 7.3515L59.6965 12.3392H69V6.42258H61.0535V6.41667ZM69 53.75C69 63.5391 61.2634 71.5 51.75 71.5C42.2366 71.5 34.5 63.5391 34.5 53.75C34.5 43.9609 42.2366 36 51.75 36C61.2634 36 69 43.9609 69 53.75ZM63.25 53.75C63.25 47.2239 58.0923 41.9167 51.75 41.9167C45.4077 41.9167 40.25 47.2239 40.25 53.75C40.25 60.2761 45.4077 65.5833 51.75 65.5833C58.0923 65.5833 63.25 60.2761 63.25 53.75ZM50.1343 54.7055L46.5635 51.1467L42.5615 55.3948L46.9746 59.7909C47.817 60.6666 48.9411 61.1458 50.1371 61.1458C51.3331 61.1458 52.4573 60.6666 53.2824 59.8175L60.9328 52.0904L56.9049 47.8659L50.1343 54.7055Z" fill="#EF5000"/>
</g>
<defs>
<clipPath id="clip0_69_2025">
<rect width="69" height="71" fill="white" transform="translate(0 0.5)"/>
</clipPath>
</defs>
</svg>
