<svg width="84" height="84" viewBox="0 0 84 84" fill="none" xmlns="http://www.w3.org/2000/svg">
<path d="M27.9416 7.15253C28.9093 7.90025 29.2167 8.6995 29.3703 9.88957C29.3806 10.0033 29.3908 10.117 29.4014 10.2342C29.598 10.2932 29.598 10.2932 29.7986 10.3533C31.8132 10.9852 31.8132 10.9852 32.3361 11.8125C32.6769 12.6661 32.6574 13.8223 32.3374 14.6794C32.1587 14.9886 32.1587 14.9886 31.8343 15.4245C31.9112 15.4947 31.9882 15.565 32.0675 15.6373C32.5396 16.1473 32.5137 16.6873 32.5236 17.3505C32.5299 17.6008 32.5299 17.6008 32.5363 17.8561C32.4761 18.4081 32.2935 18.6937 31.9965 19.1549C31.9526 19.6469 31.9526 19.6469 32.2354 20.0128C32.6811 20.8039 32.5859 21.679 32.4831 22.561C32.313 23.0137 32.1257 23.3048 31.8343 23.6964C31.9112 23.7666 31.9882 23.8369 32.0675 23.9093C32.641 24.5287 32.5281 25.3447 32.5148 26.1382C32.473 26.7676 32.4035 27.0982 31.9965 27.5891C31.1261 28.16 30.2764 28.4946 29.2392 28.5622C29.2392 29.0975 29.2392 29.6327 29.2392 30.1842C32.4506 30.1842 35.6621 30.1842 38.9709 30.1842C38.9709 29.6489 38.9709 29.1137 38.9709 28.5622C38.8136 28.5489 38.6564 28.5355 38.4944 28.5217C37.5223 28.3774 36.6835 28.0364 35.9601 27.366C35.5932 26.4408 35.5995 25.4894 35.727 24.5074C35.8816 24.2326 36.0423 23.9611 36.2136 23.6964C36.1081 23.3368 36.1081 23.3368 35.8892 23.0476C35.6457 22.5606 35.6905 22.0608 35.6864 21.527C35.6814 21.3633 35.6814 21.3633 35.6763 21.1963C35.6708 20.501 35.767 20.1657 36.2136 19.6415C36.1064 19.2113 36.1064 19.2113 35.8892 18.8306C35.652 18.3562 35.6931 17.9293 35.6864 17.4012C35.6802 17.1036 35.6802 17.1036 35.6738 16.7999C35.7304 16.1993 35.8881 15.9197 36.2136 15.4245C36.1081 15.0648 36.1081 15.0648 35.8892 14.7757C35.4902 13.9777 35.6364 12.889 35.727 12.0184C35.9377 11.466 36.1978 11.1896 36.7001 10.883C38.2009 10.2342 38.2009 10.2342 38.9709 10.2342C38.9633 10.142 38.9558 10.0498 38.9481 9.95482C38.902 8.97005 39.027 8.43448 39.6197 7.63911C40.7497 6.72542 41.9477 6.73191 43.3501 6.82814C44.1489 6.96946 44.7549 7.18107 45.2965 7.80131C45.704 8.41255 45.8036 8.81704 45.7932 9.53477C45.7917 9.66586 45.7903 9.79695 45.7888 9.93202C45.7859 10.0816 45.7859 10.0816 45.7831 10.2342C45.9024 10.2637 46.0218 10.2932 46.1448 10.3236C47.3886 10.6439 48.2906 10.9048 49.0269 12.0184C49.1074 12.607 49.1074 12.607 49.0979 13.245C49.0976 13.5614 49.0976 13.5614 49.0973 13.8842C49.0242 14.4738 48.9099 14.6596 48.5404 15.1001C48.6476 15.5303 48.6476 15.5303 48.8648 15.911C49.1019 16.3854 49.0609 16.8123 49.0675 17.3404C49.0738 17.638 49.0738 17.638 49.0802 17.9416C49.0235 18.5423 48.8658 18.8219 48.5404 19.3171C48.6458 19.6768 48.6458 19.6768 48.8648 19.9659C49.1083 20.453 49.0635 20.9527 49.0675 21.4865C49.0725 21.6502 49.0725 21.6502 49.0776 21.8172C49.0831 22.5126 48.9869 22.8478 48.5404 23.372C48.6476 23.8022 48.6476 23.8022 48.8648 24.183C49.2425 24.9385 49.0906 25.9558 49.0269 26.7781C48.7306 27.5254 48.3781 27.7862 47.6787 28.1263C47.0448 28.3793 46.4615 28.5045 45.7831 28.5622C45.7831 29.0975 45.7831 29.6327 45.7831 30.1842C48.9945 30.1842 52.206 30.1842 55.5147 30.1842C55.5147 29.6489 55.5147 29.1137 55.5147 28.5622C55.1936 28.502 55.1936 28.502 54.866 28.4406C53.9084 28.2231 53.0617 27.9694 52.433 27.1836C52.1955 26.352 52.1531 25.5271 52.2708 24.6696C52.4265 24.3954 52.588 24.1244 52.7574 23.8586C52.8013 23.3666 52.8013 23.3666 52.5186 23.0007C52.0728 22.2096 52.168 21.3345 52.2708 20.4525C52.4409 19.9998 52.6282 19.7087 52.9196 19.3171C52.8042 19.2118 52.8042 19.2118 52.6865 19.1043C52.2143 18.5943 52.2402 18.0543 52.2303 17.3911C52.2261 17.2242 52.2219 17.0574 52.2176 16.8855C52.2778 16.3335 52.4604 16.0479 52.7574 15.5867C52.8014 15.0947 52.8014 15.0947 52.5186 14.7294C52.0718 13.9353 52.1739 13.0654 52.2708 12.1806C52.6161 11.3605 53.0924 11.0431 53.8757 10.6904C54.3622 10.5027 54.8466 10.3607 55.3525 10.2342C55.3628 10.1205 55.373 10.0068 55.3836 9.88957C55.5372 8.6995 55.8447 7.90025 56.8123 7.15253C57.9352 6.58636 59.5064 6.67927 60.6847 7.01061C61.5021 7.31676 61.937 7.83249 62.3269 8.61228C62.3383 8.88915 62.3406 9.16645 62.3371 9.44353C62.3349 9.66495 62.3349 9.66495 62.3326 9.89083C62.3298 10.0608 62.3298 10.0608 62.3269 10.2342C62.5207 10.2756 62.5207 10.2756 62.7185 10.3179C64.8303 10.8009 64.8303 10.8009 65.5505 11.7852C65.8977 12.8459 65.9125 13.8775 65.4086 14.8872C65.3016 15.0645 65.1945 15.2418 65.0842 15.4245C65.1996 15.57 65.1996 15.57 65.3174 15.7184C65.8532 16.4685 65.8159 17.2944 65.733 18.1818C65.4897 18.7393 65.4897 18.7393 65.2464 19.1549C65.2047 19.6508 65.2047 19.6508 65.4897 20.047C65.8284 20.8374 65.8315 21.55 65.733 22.3988C65.4897 22.9665 65.4897 22.9665 65.2464 23.372C65.2055 23.8689 65.2055 23.8689 65.4897 24.2742C65.8905 25.1927 65.8716 26.0599 65.5404 27.0011C64.8907 27.942 64.0614 28.3059 62.9757 28.5622C62.7616 28.5622 62.5475 28.5622 62.3269 28.5622C62.3269 29.0975 62.3269 29.6327 62.3269 30.1842C62.5192 30.1808 62.7115 30.1774 62.9096 30.1739C63.6245 30.1621 64.3393 30.1547 65.0542 30.1485C65.3634 30.1453 65.6725 30.1409 65.9816 30.1352C66.4266 30.1273 66.8713 30.1237 67.3163 30.1208C67.454 30.1175 67.5918 30.1141 67.7337 30.1107C68.3973 30.1104 68.7291 30.1302 69.3037 30.4923C69.9274 31.1523 69.8344 31.79 69.8487 32.6577C69.8548 32.795 69.8608 32.9324 69.8671 33.0739C69.8767 33.7597 69.8552 34.2564 69.4324 34.8156C68.9457 35.2394 68.7479 35.3373 68.1152 35.3541C67.972 35.3604 67.8288 35.3667 67.6812 35.3731C67.5736 35.3736 67.4659 35.374 67.355 35.3744C67.355 35.5885 67.355 35.8026 67.355 36.0232C67.5472 36.0198 67.7395 36.0164 67.9376 36.0129C68.6525 36.0011 69.3674 35.9937 70.0823 35.9876C70.3914 35.9843 70.7006 35.9799 71.0097 35.9742C71.4546 35.9664 71.8994 35.9627 72.3443 35.9598C72.4821 35.9565 72.6198 35.9531 72.7617 35.9497C73.4254 35.9494 73.7571 35.9692 74.3317 36.3313C74.8958 36.9282 74.84 37.4354 74.8398 38.2183C74.8407 38.4096 74.8407 38.4096 74.8416 38.6048C74.8434 39.0345 74.844 39.4642 74.8446 39.8939C74.8456 40.201 74.8467 40.5082 74.8478 40.8153C74.8507 41.6514 74.8524 42.4875 74.8537 43.3237C74.8546 43.8457 74.8555 44.3677 74.8566 44.8898C74.8596 46.5221 74.862 48.1545 74.8633 49.7868C74.8649 51.6729 74.8692 53.559 74.8757 55.4452C74.8806 56.9018 74.883 58.3585 74.8836 59.8151C74.8839 60.6857 74.8854 61.5563 74.8895 62.4268C74.8932 63.2457 74.8939 64.0645 74.8923 64.8834C74.8922 65.1841 74.8932 65.4848 74.8954 65.7855C74.8983 66.1958 74.8972 66.6059 74.895 67.0162C74.8977 67.195 74.8977 67.195 74.9004 67.3775C74.8905 68.1613 74.7243 68.5609 74.1671 69.1109C73.6183 69.3853 72.9953 69.2926 72.3919 69.289C72.2483 69.2887 72.1048 69.2885 71.9569 69.2883C71.4974 69.2873 71.038 69.2853 70.5786 69.2832C70.2675 69.2824 69.9564 69.2817 69.6453 69.281C68.8819 69.2792 68.1184 69.2764 67.355 69.2731C67.3593 69.3719 67.3637 69.4707 67.3681 69.5725C67.3715 69.7028 67.3749 69.8332 67.3784 69.9675C67.3827 70.0964 67.3871 70.2253 67.3916 70.3581C67.3284 71.0051 67.0113 71.2713 66.544 71.706C66.0954 71.8556 65.8331 71.8873 65.3712 71.8841C65.2411 71.8835 65.1109 71.883 64.9768 71.8825C64.8417 71.8811 64.7065 71.8798 64.5672 71.8784C64.4302 71.8776 64.2931 71.8769 64.1519 71.8761C63.8139 71.8742 63.4759 71.8713 63.1379 71.8682C63.1421 71.9868 63.1464 72.1054 63.1508 72.2276C63.1677 72.7667 63.1782 73.3057 63.1886 73.845C63.1954 74.0316 63.2022 74.2182 63.2092 74.4104C63.2291 75.7892 63.2291 75.7892 62.7799 76.4483C62.0974 76.8788 61.4621 76.9163 60.6677 76.9224C60.5025 76.924 60.3374 76.9255 60.1673 76.9271C59.9022 76.9282 59.9022 76.9282 59.6317 76.9292C59.4483 76.9301 59.265 76.9311 59.076 76.932C58.6886 76.9335 58.3011 76.9346 57.9137 76.9352C57.3224 76.9368 56.7313 76.9418 56.1401 76.947C55.7631 76.948 55.3861 76.9489 55.0091 76.9495C54.745 76.9525 54.745 76.9525 54.4756 76.9556C53.5083 76.9527 52.7887 76.9043 51.9465 76.4097C51.4599 75.7609 51.4599 75.7609 51.4599 71.8682C45.4652 71.8682 39.4704 71.8682 33.2941 71.8682C33.2941 73.1528 33.2941 74.4374 33.2941 75.7609C32.5234 76.7242 32.5234 76.7242 31.6721 76.8963C31.0364 76.9403 30.4033 76.9417 29.7663 76.9393C29.5828 76.9397 29.3993 76.94 29.2102 76.9403C28.823 76.9405 28.4359 76.9399 28.0487 76.9386C27.4571 76.9368 26.8656 76.9385 26.2741 76.9406C25.8973 76.9404 25.5205 76.94 25.1438 76.9393C24.9674 76.94 24.791 76.9407 24.6092 76.9413C23.5785 76.935 22.7379 76.9258 21.8836 76.2866C21.5392 75.8187 21.5409 75.5496 21.5527 74.9727C21.5548 74.7919 21.5569 74.611 21.559 74.4247C21.5645 74.2367 21.5699 74.0488 21.5755 73.8551C21.5784 73.6646 21.5813 73.4742 21.5844 73.2779C21.592 72.8079 21.6027 72.3381 21.616 71.8682C21.4147 71.8739 21.2134 71.8795 21.0059 71.8853C20.7396 71.8899 20.4733 71.8943 20.207 71.8986C20.0083 71.9048 20.0083 71.9048 19.8056 71.911C18.8503 71.9226 18.3171 71.7685 17.5916 71.1181C17.3761 70.6871 17.3788 70.4547 17.3869 69.9789C17.3887 69.8469 17.3904 69.7149 17.3922 69.5789C17.3944 69.478 17.3967 69.3771 17.399 69.2731C17.2067 69.2765 17.0144 69.2799 16.8163 69.2834C16.1014 69.2952 15.3866 69.3026 14.6716 69.3088C14.3625 69.312 14.0534 69.3164 13.7442 69.3221C13.2993 69.3299 12.8546 69.3336 12.4096 69.3365C12.2719 69.3398 12.1341 69.3432 11.9922 69.3466C11.3286 69.3469 10.9968 69.3271 10.4222 68.965C9.85811 68.3681 9.91395 67.8609 9.91415 67.078C9.91355 66.9505 9.91295 66.8229 9.91234 66.6915C9.91055 66.2618 9.90993 65.8321 9.90931 65.4024C9.90829 65.0953 9.90721 64.7881 9.90608 64.481C9.90325 63.6449 9.90154 62.8088 9.90021 61.9727C9.89937 61.4506 9.89839 60.9286 9.89737 60.4065C9.89428 58.7742 9.89197 57.1418 9.89062 55.5095C9.88903 53.6234 9.88476 51.7373 9.87821 49.8512C9.87332 48.3945 9.87092 46.9378 9.87038 45.4812C9.87 44.6106 9.86854 43.7401 9.86446 42.8695C9.8607 42.0506 9.86 41.2318 9.86167 40.4129C9.86175 40.1122 9.86072 39.8115 9.8585 39.5108C9.85564 39.1005 9.85677 38.6904 9.85891 38.2801C9.85624 38.1013 9.85624 38.1013 9.85352 37.9188C9.86339 37.135 10.0296 36.7354 10.5868 36.1854C11.1357 35.911 11.7586 36.0038 12.3621 36.0074C12.5774 36.0077 12.5774 36.0077 12.7971 36.008C13.2565 36.009 13.7159 36.011 14.1754 36.0131C14.4864 36.0139 14.7975 36.0146 15.1086 36.0153C15.8721 36.0171 16.6355 36.0199 17.399 36.0232C17.399 35.8091 17.399 35.595 17.399 35.3744C17.2913 35.374 17.1836 35.3736 17.0727 35.3731C16.8579 35.3637 16.8579 35.3637 16.6387 35.3541C16.4976 35.3504 16.3564 35.3466 16.211 35.3427C15.7071 35.1912 15.4394 34.9675 15.1227 34.5478C14.8201 33.9515 14.8561 33.3431 14.8748 32.6881C14.873 32.5523 14.8713 32.4165 14.8694 32.2766C14.8774 31.606 14.911 31.2445 15.2759 30.6663C15.9215 30.0569 16.5464 30.1633 17.3901 30.1683C17.5336 30.1686 17.6772 30.1688 17.8251 30.169C18.2845 30.1699 18.744 30.172 19.2034 30.174C19.5145 30.1749 19.8256 30.1756 20.1366 30.1763C20.9001 30.1781 21.6636 30.1809 22.427 30.1842C22.427 29.6489 22.427 29.1137 22.427 28.5622C22.2698 28.5489 22.1126 28.5355 21.9506 28.5217C20.9794 28.3796 20.1072 28.0403 19.4264 27.3255C18.9127 26.5122 18.9405 25.7802 19.0209 24.8318C19.2642 24.2641 19.2642 24.2641 19.5075 23.8586C19.5492 23.3627 19.5492 23.3627 19.2642 22.9665C18.8811 22.0726 18.8323 21.1347 19.1673 20.2111C19.3199 19.9053 19.493 19.6098 19.6697 19.3171C19.5928 19.2201 19.5158 19.1231 19.4365 19.0232C18.8782 18.2414 18.9158 17.322 19.0209 16.3976C19.1888 16.0682 19.1888 16.0682 19.3859 15.7894C19.4795 15.6154 19.5732 15.4415 19.6697 15.2623C19.4159 14.7668 19.4159 14.7668 19.1901 14.4545C18.8498 13.7955 18.933 13.061 19.0209 12.3428C19.3007 11.4878 19.6837 11.1263 20.4807 10.7208C21.1237 10.5295 21.7711 10.3743 22.427 10.2342C22.4195 10.1284 22.412 10.0226 22.4042 9.91364C22.3646 8.95496 22.4038 8.38188 23.0758 7.63911C24.3286 6.65284 26.4776 6.41434 27.9416 7.15253ZM24.2112 9.09887C24.2112 9.47354 24.2112 9.84821 24.2112 10.2342C25.2281 10.2342 26.2451 10.2342 27.2929 10.2342C27.2929 9.85956 27.2929 9.48489 27.2929 9.09887C26.8886 8.69466 26.6435 8.73228 26.091 8.73013C25.9791 8.73138 25.8673 8.73264 25.752 8.73393C25.5842 8.73205 25.5842 8.73205 25.413 8.73013C24.7379 8.71347 24.7379 8.71347 24.2112 9.09887ZM40.9273 8.96075C40.6743 9.34403 40.6743 9.34403 40.755 10.2342C41.8255 10.2342 42.896 10.2342 43.9989 10.2342C44.0796 9.34403 44.0796 9.34403 43.8266 8.96075C43.3464 8.67613 42.9296 8.7102 42.377 8.71365C42.1762 8.7124 41.9755 8.71115 41.7687 8.70985C41.2573 8.73675 41.2573 8.73675 40.9273 8.96075ZM57.4611 9.09887C57.4611 9.47354 57.4611 9.84821 57.4611 10.2342C58.478 10.2342 59.495 10.2342 60.5428 10.2342C60.5428 9.85956 60.5428 9.48489 60.5428 9.09887C60.1386 8.69466 59.8934 8.73228 59.3409 8.73013C59.229 8.73138 59.1172 8.73264 59.0019 8.73393C58.8341 8.73205 58.8341 8.73205 58.663 8.73013C57.9879 8.71347 57.9879 8.71347 57.4611 9.09887ZM20.8051 12.8293C20.7104 13.2279 20.7104 13.2279 20.8051 13.6403C21.734 14.4241 23.0526 14.5016 24.2194 14.5001C24.3993 14.5011 24.3993 14.5011 24.5828 14.5022C24.8348 14.5031 25.0869 14.5032 25.3389 14.5025C25.719 14.502 26.0989 14.5058 26.479 14.5099C27.8201 14.5156 29.1167 14.4988 30.3746 13.9647C30.7557 13.6569 30.7557 13.6569 30.7192 13.1335C30.7125 12.9796 30.7058 12.8257 30.6989 12.6672C30.525 12.5902 30.351 12.5133 30.1718 12.434C30.074 12.3907 29.9761 12.3474 29.8753 12.3028C29.0977 11.9978 28.3462 11.9898 27.519 11.9854C27.383 11.9845 27.247 11.9836 27.1068 11.9826C26.8191 11.9811 26.5313 11.98 26.2435 11.9794C25.807 11.9778 25.3708 11.9728 24.9344 11.9677C24.6538 11.9666 24.3732 11.9658 24.0927 11.9652C23.9639 11.9631 23.8351 11.9611 23.7024 11.9591C22.6852 11.9631 21.5526 12.0818 20.8051 12.8293ZM37.5111 12.6672C37.5111 13.0418 37.5111 13.4165 37.5111 13.8025C39.0165 14.4504 40.3817 14.5532 41.9921 14.5359C42.3765 14.5324 42.7604 14.5359 43.1449 14.54C44.6213 14.5423 45.8654 14.3953 47.2428 13.8025C47.2428 13.4278 47.2428 13.0532 47.2428 12.6672C45.8427 11.8584 44.3812 11.919 42.8157 11.9338C42.3779 11.9373 41.9405 11.9338 41.5026 11.9297C40.0697 11.9277 38.7898 11.9286 37.5111 12.6672ZM54.055 12.6672C53.9738 13.14 53.9738 13.14 54.055 13.6403C54.9609 14.433 56.3165 14.5016 57.4693 14.5001C57.6492 14.5011 57.6492 14.5011 57.8327 14.5022C58.0848 14.5031 58.3368 14.5032 58.5888 14.5025C58.9689 14.502 59.3488 14.5058 59.729 14.5099C61.0701 14.5156 62.3666 14.4988 63.6245 13.9647C63.9844 13.6687 63.9844 13.6687 64.0097 13.245C63.9874 12.8192 63.9874 12.8192 63.6954 12.5556C62.7297 12.0356 61.801 11.9683 60.7271 11.9696C60.5922 11.9689 60.4572 11.9682 60.3182 11.9675C60.034 11.9666 59.7498 11.9665 59.4656 11.9672C59.0353 11.9677 58.6051 11.9639 58.1748 11.9598C55.9771 11.8422 55.9771 11.8422 54.055 12.6672ZM20.8051 16.8842C20.8586 17.2589 20.9121 17.6336 20.9673 18.0196C22.0001 18.4268 22.9018 18.5803 24.0084 18.5765C24.1541 18.5773 24.2998 18.5782 24.4499 18.5791C24.7557 18.5801 25.0616 18.5799 25.3674 18.5785C25.832 18.5771 26.2962 18.5818 26.7607 18.5869C27.0597 18.5872 27.3587 18.5871 27.6578 18.5866C27.7947 18.5884 27.9316 18.5903 28.0726 18.5921C29.0725 18.5806 29.8172 18.3224 30.6989 17.8574C30.6989 17.5362 30.6989 17.2151 30.6989 16.8842C29.6526 16.3305 28.8002 16.1383 27.6223 16.1493C27.473 16.1486 27.3238 16.148 27.17 16.1474C26.8565 16.1469 26.543 16.1481 26.2295 16.1509C25.7532 16.1543 25.2773 16.1509 24.801 16.1467C24.4946 16.1472 24.1881 16.148 23.8817 16.1493C23.671 16.1473 23.671 16.1473 23.4561 16.1453C22.4471 16.1606 21.6947 16.4134 20.8051 16.8842ZM37.5111 16.8842C37.5111 17.2054 37.5111 17.5265 37.5111 17.8574C38.5462 18.4025 39.3876 18.6035 40.5523 18.5923C40.698 18.5929 40.8436 18.5936 40.9937 18.5942C41.2996 18.5946 41.6054 18.5935 41.9113 18.5907C42.3758 18.5873 42.84 18.5907 43.3045 18.5949C43.6036 18.5944 43.9026 18.5936 44.2017 18.5923C44.407 18.5943 44.407 18.5943 44.6165 18.5963C45.6152 18.5808 46.3618 18.3214 47.2428 17.8574C47.2428 17.5362 47.2428 17.2151 47.2428 16.8842C46.2078 16.3391 45.3664 16.1381 44.2017 16.1493C44.056 16.1486 43.9103 16.148 43.7602 16.1474C43.4544 16.1469 43.1485 16.1481 42.8426 16.1509C42.3781 16.1543 41.9139 16.1509 41.4494 16.1467C41.1504 16.1472 40.8513 16.148 40.5523 16.1493C40.3469 16.1473 40.3469 16.1473 40.1374 16.1453C39.1387 16.1608 38.3921 16.4202 37.5111 16.8842ZM54.055 16.8842C54.055 17.2054 54.055 17.5265 54.055 17.8574C55.0912 18.4039 55.93 18.6021 57.0961 18.5866C57.2418 18.5869 57.3875 18.5871 57.5376 18.5873C57.8434 18.5871 58.1493 18.5852 58.4552 18.5818C58.9197 18.5771 59.3839 18.5785 59.8484 18.5806C60.1474 18.5796 60.4465 18.5782 60.7455 18.5765C60.8824 18.577 61.0193 18.5774 61.1604 18.5779C62.1113 18.5631 62.9029 18.368 63.7867 18.0196C63.8402 17.6449 63.8937 17.2702 63.9489 16.8842C62.9025 16.3305 62.0501 16.1383 60.8722 16.1493C60.723 16.1486 60.5737 16.148 60.4199 16.1474C60.1064 16.1469 59.7929 16.1481 59.4794 16.1509C59.0031 16.1543 58.5272 16.1509 58.0509 16.1467C57.7445 16.1472 57.4381 16.148 57.1316 16.1493C56.921 16.1473 56.921 16.1473 56.706 16.1453C55.697 16.1606 54.9447 16.4134 54.055 16.8842ZM20.8051 21.1013C20.7104 21.4998 20.7104 21.4998 20.8051 21.9123C21.7637 22.6735 22.8411 22.7734 24.0166 22.772C24.22 22.7731 24.22 22.7731 24.4274 22.7741C24.7133 22.775 24.9992 22.7751 25.285 22.7744C25.7186 22.7739 26.1519 22.7777 26.5855 22.7818C26.8646 22.7822 27.1436 22.7823 27.4227 22.7821C27.5505 22.7836 27.6783 22.7851 27.8099 22.7867C28.8232 22.7784 29.9548 22.6564 30.6989 21.9123C30.7936 21.5137 30.7936 21.5137 30.6989 21.1013C29.7538 20.3279 28.5582 20.2401 27.386 20.2415C27.2582 20.2408 27.1305 20.2401 26.9989 20.2394C26.7299 20.2385 26.461 20.2384 26.1921 20.2391C25.7852 20.2396 25.3786 20.2358 24.9718 20.2317C22.7256 20.1442 22.7256 20.1442 20.8051 21.1013ZM37.5111 20.9391C37.5045 21.3175 37.5042 21.6961 37.5111 22.0744C37.6851 22.1514 37.859 22.2283 38.0383 22.3076C38.1361 22.3509 38.234 22.3942 38.3348 22.4387C39.0996 22.7388 39.836 22.7517 40.6498 22.7562C40.7819 22.7571 40.9139 22.758 41.05 22.759C41.3294 22.7605 41.6089 22.7616 41.8884 22.7622C42.3113 22.7638 42.734 22.7688 43.1569 22.7739C45.167 22.8015 45.167 22.8015 47.0806 22.2366C47.3102 22.0446 47.3102 22.0446 47.2529 21.4966C47.2496 21.3126 47.2463 21.1286 47.2428 20.9391C47.0689 20.8621 46.8949 20.7852 46.7157 20.7059C46.6178 20.6626 46.52 20.6194 46.4192 20.5748C45.6543 20.2747 44.9179 20.2618 44.1041 20.2574C43.972 20.2564 43.84 20.2555 43.704 20.2546C43.4245 20.253 43.145 20.252 42.8655 20.2513C42.4426 20.2498 42.0199 20.2447 41.597 20.2396C39.4172 20.1185 39.4172 20.1185 37.5111 20.9391ZM54.055 21.1013C53.9739 21.4999 53.9739 21.4999 54.055 21.9123C54.6768 22.5838 55.6438 22.7339 56.5229 22.7703C56.7742 22.7746 57.0254 22.777 57.2767 22.7777C57.4791 22.7793 57.4791 22.7793 57.6856 22.781C57.9698 22.7826 58.2541 22.7834 58.5383 22.7833C58.9686 22.784 59.3987 22.7899 59.8291 22.7961C61.8881 22.8168 61.8881 22.8168 63.7867 22.0744C63.9889 21.9041 63.9889 21.9041 64.0097 21.527C63.9942 21.0754 63.9942 21.0754 63.6143 20.8276C62.6156 20.3813 61.7134 20.2402 60.6359 20.2415C60.5082 20.2408 60.3804 20.2401 60.2488 20.2394C59.9799 20.2385 59.7109 20.2384 59.442 20.2391C59.0351 20.2396 58.6285 20.2358 58.2217 20.2317C55.9755 20.1442 55.9755 20.1442 54.055 21.1013ZM20.9673 24.9939C20.9137 25.3686 20.8602 25.7433 20.8051 26.1293C21.8514 26.683 22.7038 26.8753 23.8817 26.8643C24.031 26.8649 24.1802 26.8655 24.334 26.8661C24.6475 26.8666 24.961 26.8654 25.2745 26.8627C25.7508 26.8592 26.2267 26.8626 26.703 26.8668C27.0094 26.8664 27.3159 26.8655 27.6223 26.8643C27.833 26.8662 27.833 26.8662 28.0479 26.8682C29.0569 26.8529 29.8093 26.6001 30.6989 26.1293C30.6989 25.8082 30.6989 25.487 30.6989 25.1561C29.2853 24.3264 27.7775 24.4136 26.1936 24.4317C25.7423 24.4364 25.2913 24.435 24.84 24.4329C24.5491 24.4339 24.2581 24.4353 23.9672 24.437C23.8344 24.4366 23.7016 24.4361 23.5647 24.4356C22.6249 24.4507 21.8409 24.6514 20.9673 24.9939ZM37.5111 25.1561C37.5111 25.5308 37.5111 25.9055 37.5111 26.2915C38.5254 26.7359 39.3496 26.8502 40.4509 26.8427C40.6811 26.8434 40.6811 26.8434 40.916 26.8441C41.2388 26.8445 41.5616 26.8436 41.8844 26.8415C42.3756 26.8389 42.8665 26.8415 43.3577 26.8446C43.6728 26.8443 43.9879 26.8437 44.303 26.8427C44.521 26.8442 44.521 26.8442 44.7434 26.8457C45.6832 26.8353 46.3809 26.6691 47.2428 26.2915C47.2428 25.9168 47.2428 25.5422 47.2428 25.1561C46.2078 24.611 45.3664 24.41 44.2017 24.4212C44.056 24.4206 43.9103 24.42 43.7602 24.4193C43.4544 24.4189 43.1485 24.4201 42.8426 24.4228C42.3781 24.4263 41.9139 24.4228 41.4494 24.4187C41.1504 24.4191 40.8513 24.4199 40.5523 24.4212C40.3469 24.4192 40.3469 24.4192 40.1374 24.4172C39.1387 24.4327 38.3921 24.6922 37.5111 25.1561ZM54.055 25.1561C54.055 25.4773 54.055 25.7984 54.055 26.1293C55.1013 26.683 55.9537 26.8753 57.1316 26.8643C57.2809 26.8649 57.4302 26.8655 57.584 26.8661C57.8975 26.8666 58.211 26.8654 58.5244 26.8627C59.0007 26.8592 59.4766 26.8626 59.9529 26.8668C60.2594 26.8664 60.5658 26.8655 60.8722 26.8643C61.0829 26.8662 61.0829 26.8662 61.2978 26.8682C62.3068 26.8529 63.0592 26.6001 63.9489 26.1293C63.8686 25.5673 63.8686 25.5673 63.7867 24.9939C62.7673 24.5943 61.8785 24.4331 60.7867 24.437C60.645 24.4362 60.5033 24.4353 60.3573 24.4345C60.0598 24.4334 59.7622 24.4336 59.4647 24.435C59.0137 24.4364 58.563 24.4317 58.1121 24.4266C56.0041 24.4097 56.0041 24.4097 54.055 25.1561ZM24.2112 28.7244C24.2112 29.2061 24.2112 29.6879 24.2112 30.1842C25.2281 30.1842 26.2451 30.1842 27.2929 30.1842C27.2929 29.7025 27.2929 29.2207 27.2929 28.7244C26.2759 28.7244 25.2589 28.7244 24.2112 28.7244ZM40.755 28.7244C40.755 29.2061 40.755 29.6879 40.755 30.1842C41.8255 30.1842 42.896 30.1842 43.9989 30.1842C43.9989 29.7025 43.9989 29.2207 43.9989 28.7244C42.9284 28.7244 41.8579 28.7244 40.755 28.7244ZM57.4611 28.7244C57.4611 29.2061 57.4611 29.6879 57.4611 30.1842C58.478 30.1842 59.495 30.1842 60.5428 30.1842C60.5428 29.7025 60.5428 29.2207 60.5428 28.7244C59.5258 28.7244 58.5089 28.7244 57.4611 28.7244ZM16.7502 31.9683C16.7502 32.45 16.7502 32.9318 16.7502 33.4281C33.6639 33.4281 50.5775 33.4281 68.0037 33.4281C68.0037 32.9464 68.0037 32.4646 68.0037 31.9683C51.0901 31.9683 34.1764 31.9683 16.7502 31.9683ZM19.1831 35.3744C19.1831 46.8286 19.1831 58.2828 19.1831 70.0841C34.4911 70.0841 49.799 70.0841 65.5708 70.0841C65.5708 58.6299 65.5708 47.1757 65.5708 35.3744C50.2629 35.3744 34.9549 35.3744 19.1831 35.3744ZM11.7222 37.8073C11.7222 47.6023 11.7222 57.3972 11.7222 67.489C13.5955 67.489 15.4689 67.489 17.399 67.489C17.399 57.694 17.399 47.8991 17.399 37.8073C15.5256 37.8073 13.6523 37.8073 11.7222 37.8073ZM67.355 37.8073C67.355 47.6023 67.355 57.3972 67.355 67.489C69.2283 67.489 71.1017 67.489 73.0318 67.489C73.0318 57.694 73.0318 47.8991 73.0318 37.8073C71.1584 37.8073 69.2851 37.8073 67.355 37.8073ZM23.4002 71.8682C23.4002 72.8852 23.4002 73.9022 23.4002 74.9499C26.0764 74.9499 28.7526 74.9499 31.5099 74.9499C31.5099 73.933 31.5099 72.916 31.5099 71.8682C28.8337 71.8682 26.1575 71.8682 23.4002 71.8682ZM53.244 71.8682C53.244 72.8852 53.244 73.9022 53.244 74.9499C55.9202 74.9499 58.5964 74.9499 61.3537 74.9499C61.3537 73.933 61.3537 72.916 61.3537 71.8682C58.6775 71.8682 56.0013 71.8682 53.244 71.8682Z" fill="#EF5000"/>
<path d="M23.5795 38.4153C23.7157 38.4144 23.852 38.4136 23.9924 38.4127C24.217 38.4138 24.217 38.4138 24.4461 38.4149C24.6051 38.4144 24.7641 38.4139 24.928 38.4133C25.4633 38.4121 25.9986 38.4131 26.5339 38.4141C26.9167 38.4137 27.2995 38.4131 27.6823 38.4124C28.7238 38.4109 29.7653 38.4115 30.8068 38.4125C31.4568 38.4131 32.1068 38.413 32.7569 38.4127C32.8647 38.4126 32.9725 38.4126 33.0836 38.4125C33.3026 38.4124 33.5217 38.4123 33.7407 38.4122C35.7958 38.4113 37.8508 38.4123 39.9058 38.4141C41.67 38.4155 43.4343 38.4153 45.1985 38.4138C47.246 38.412 49.2936 38.4114 51.3412 38.4124C51.5594 38.4125 51.7777 38.4126 51.9959 38.4127C52.157 38.4127 52.157 38.4127 52.3213 38.4128C53.0789 38.4131 53.8365 38.4126 54.5941 38.4119C55.6133 38.4109 56.6325 38.4116 57.6517 38.4135C58.0266 38.4139 58.4015 38.4138 58.7763 38.413C59.2865 38.4122 59.7966 38.4133 60.3067 38.4149C60.4564 38.4142 60.6061 38.4134 60.7604 38.4127C60.9648 38.414 60.9648 38.414 61.1733 38.4153C61.2911 38.4153 61.4089 38.4154 61.5303 38.4154C61.8397 38.4561 61.8397 38.4561 62.3263 38.7805C62.3871 39.2526 62.3871 39.2526 62.387 39.8702C62.3877 39.9835 62.3883 40.0968 62.389 40.2136C62.3905 40.5951 62.3886 40.9766 62.3867 41.3582C62.3871 41.6309 62.3877 41.9037 62.3885 42.1765C62.39 42.9187 62.3885 43.661 62.3863 44.4032C62.3845 45.1787 62.3852 45.9542 62.3855 46.7296C62.3856 48.0321 62.3838 49.3345 62.3809 50.6369C62.3774 52.1444 62.3769 53.6519 62.3779 55.1593C62.3788 56.6073 62.3779 58.0553 62.3761 59.5033C62.3753 60.1205 62.3752 60.7377 62.3755 61.3549C62.3758 62.0813 62.3745 62.8076 62.3719 63.5339C62.3712 63.8011 62.3711 64.0683 62.3715 64.3354C62.3721 64.699 62.3706 65.0625 62.3686 65.426C62.3681 65.7317 62.3681 65.7317 62.3676 66.0436C62.3263 66.5158 62.3263 66.5158 62.0019 66.8402C61.7103 66.8808 61.7103 66.8808 61.3499 66.881C61.2128 66.8818 61.0756 66.8827 60.9343 66.8835C60.7827 66.8828 60.6311 66.8821 60.475 66.8813C60.2345 66.8821 60.2345 66.8821 59.9891 66.8829C59.4485 66.8842 58.9078 66.8831 58.3671 66.8821C57.9809 66.8826 57.5947 66.8831 57.2085 66.8839C56.2662 66.8852 55.3241 66.885 54.3819 66.884C53.6164 66.8833 52.8509 66.8832 52.0854 66.8836C51.9766 66.8836 51.8678 66.8837 51.7557 66.8837C51.5347 66.8838 51.3137 66.8839 51.0927 66.884C49.0186 66.885 46.9446 66.8839 44.8705 66.8821C43.0895 66.8807 41.3084 66.8809 39.5274 66.8824C37.4609 66.8842 35.3944 66.8849 33.328 66.8839C33.1078 66.8838 32.8876 66.8837 32.6674 66.8836C32.559 66.8835 32.4507 66.8835 32.339 66.8834C31.5741 66.8831 30.8092 66.8836 30.0443 66.8844C29.0155 66.8853 27.9868 66.8847 26.9579 66.8828C26.5794 66.8823 26.2008 66.8825 25.8222 66.8832C25.3074 66.8841 24.7926 66.883 24.2778 66.8813C24.0504 66.8824 24.0504 66.8824 23.8185 66.8835C23.6127 66.8823 23.6127 66.8823 23.4028 66.881C23.2244 66.8809 23.2244 66.8809 23.0424 66.8808C22.7508 66.8402 22.7508 66.8402 22.4264 66.5158C22.3852 66.0436 22.3852 66.0436 22.3841 65.426C22.3835 65.3127 22.3829 65.1994 22.3823 65.0826C22.3806 64.7011 22.3812 64.3196 22.3819 63.9381C22.3812 63.6653 22.3803 63.3925 22.3794 63.1198C22.3772 62.3775 22.3771 61.6353 22.3775 60.893C22.3777 60.2742 22.3769 59.6555 22.3761 59.0367C22.3743 57.5776 22.3742 56.1185 22.3752 54.6593C22.3762 53.1518 22.3742 51.6444 22.3708 50.1369C22.3679 48.8444 22.3669 47.552 22.3675 46.2595C22.3677 45.4868 22.3673 44.714 22.3651 43.9413C22.363 43.215 22.3633 42.4886 22.3655 41.7623C22.3658 41.4951 22.3654 41.228 22.3641 40.9608C22.3624 40.5972 22.3637 40.2338 22.3657 39.8702C22.3657 39.6664 22.3657 39.4626 22.3656 39.2526C22.3857 39.0968 22.4058 38.941 22.4264 38.7805C22.9235 38.4491 23.0204 38.4155 23.5795 38.4153ZM24.2106 40.2402C24.2106 48.4294 24.2106 56.6186 24.2106 65.056C36.2 65.056 48.1894 65.056 60.5422 65.056C60.5422 56.8668 60.5422 48.6776 60.5422 40.2402C48.5528 40.2402 36.5633 40.2402 24.2106 40.2402Z" fill="#EF5000"/>
<path d="M43.2697 41.8115C43.5507 41.8366 43.5507 41.8366 43.8374 41.8622C44.3915 42.6933 44.0988 43.6588 43.9996 44.6195C43.9727 44.8819 43.9727 44.8819 43.9453 45.1495C43.8837 45.7434 43.8204 46.3371 43.7563 46.9308C43.7352 47.1279 43.714 47.3249 43.6922 47.5279C43.6715 47.7131 43.6509 47.8982 43.6296 48.089C43.6111 48.2563 43.5926 48.4236 43.5735 48.596C43.513 48.9988 43.513 48.9988 43.3508 49.3232C43.5113 49.3215 43.6717 49.3198 43.837 49.318C44.4313 49.3122 45.0255 49.3084 45.6198 49.3053C45.8772 49.3037 46.1346 49.3015 46.392 49.2987C46.7616 49.2948 47.1311 49.2929 47.5007 49.2915C47.6161 49.2898 47.7315 49.2881 47.8504 49.2864C48.135 49.2863 48.4194 49.3034 48.7032 49.3232C49.0276 49.6476 49.0276 49.6476 49.0751 50.1779C49.0252 50.8144 48.9006 51.1521 48.5924 51.7048C48.4489 51.9667 48.4489 51.9667 48.3026 52.234C48.1962 52.4227 48.0899 52.6115 47.9835 52.8002C47.8739 52.9987 47.7646 53.1974 47.6556 53.3963C47.4832 53.7104 47.3105 54.0245 47.1371 54.3381C46.5208 55.4526 45.9268 56.5786 45.3328 57.705C44.5556 59.1764 43.7778 60.6481 42.9757 62.1061C42.8953 62.2558 42.8953 62.2558 42.8133 62.4085C42.5235 62.9275 42.2588 63.3109 41.7289 63.5963C41.2017 63.4645 41.2017 63.4645 40.7557 63.2719C40.593 62.3923 40.6105 61.6333 40.7196 60.7484C40.7342 60.6204 40.7489 60.4924 40.7639 60.3605C40.8105 59.9555 40.8591 59.5508 40.9078 59.1461C40.9399 58.87 40.9719 58.5938 41.0037 58.3177C41.0818 57.6441 41.1615 56.9708 41.2423 56.2975C41.104 56.2952 40.9658 56.2928 40.8234 56.2904C40.3079 56.2804 39.7926 56.2684 39.2772 56.255C39.0546 56.2496 38.832 56.245 38.6094 56.2414C38.2885 56.2359 37.9676 56.2271 37.6468 56.2183C37.454 56.2141 37.2611 56.2098 37.0625 56.2055C36.4932 56.1293 36.1778 56.0022 35.7277 55.6488C35.5019 54.5695 36.0547 53.7906 36.5792 52.8915C36.7595 52.5723 36.9394 52.253 37.119 51.9335C37.2115 51.77 37.304 51.6065 37.3994 51.438C37.8324 50.6608 38.2396 49.8707 38.6472 49.0799C39.5243 47.3868 40.4288 45.7095 41.3499 44.04C41.4981 43.7709 41.6453 43.5013 41.7917 43.2312C41.8989 43.0346 41.8989 43.0346 42.0083 42.8341C42.0716 42.7172 42.135 42.6003 42.2003 42.4799C42.5211 41.9493 42.633 41.8684 43.2697 41.8115ZM41.5667 47.539C41.2378 48.1732 40.9092 48.8074 40.5807 49.4417C40.4694 49.6566 40.358 49.8714 40.2466 50.0862C39.5402 51.4485 38.8422 52.8142 38.1606 54.189C38.2965 54.1931 38.4323 54.1971 38.5723 54.2013C39.0759 54.2167 39.5795 54.2328 40.0831 54.2494C40.4084 54.2599 40.7338 54.2696 41.0592 54.2793C41.365 54.2895 41.365 54.2895 41.6769 54.2999C41.8655 54.3058 42.054 54.3118 42.2483 54.3179C42.702 54.3512 42.702 54.3512 43.0264 54.5134C43.212 55.2533 43.1818 55.9271 43.1177 56.6828C43.1011 56.8847 43.0846 57.0867 43.0676 57.2948C43.054 57.4474 43.0404 57.6 43.0264 57.7573C43.39 57.2958 43.6761 56.8303 43.9464 56.3089C44.0269 56.1541 44.1075 55.9993 44.1905 55.8398C44.2747 55.6764 44.3589 55.513 44.4456 55.3446C44.5319 55.1782 44.6182 55.0118 44.7071 54.8403C45.3479 53.6016 45.9772 52.3577 46.5947 51.1073C46.4597 51.1049 46.3247 51.1026 46.1855 51.1001C45.684 51.0902 45.1826 51.0782 44.6811 51.0647C44.3576 51.0567 44.034 51.0511 43.7104 51.0455C43.507 51.0398 43.3037 51.034 43.0942 51.0281C42.9065 51.0239 42.7188 51.0196 42.5254 51.0152C42.0533 50.9451 42.0533 50.9451 41.7457 50.7395C41.5186 50.3831 41.522 50.1914 41.5546 49.7724C41.5635 49.6422 41.5724 49.5121 41.5816 49.378C41.5934 49.2428 41.6052 49.1076 41.6174 48.9684C41.6323 48.7628 41.6323 48.7628 41.6475 48.5531C41.6723 48.2149 41.7003 47.8769 41.7289 47.539C41.6753 47.539 41.6218 47.539 41.5667 47.539Z" fill="#EF5000"/>
</svg>
