<svg width="18" height="19" viewBox="0 0 18 19" fill="none" xmlns="http://www.w3.org/2000/svg">
<g clip-path="url(#clip0_69_1530)">
<path d="M1.14768 18.0276C3.32313 15.4941 5.4313 13.0395 7.55666 10.5636C5.3229 7.35087 3.09736 4.15102 0.835938 0.898868C0.999657 0.890529 1.10432 0.879916 1.20898 0.879916C2.7288 0.879158 4.24788 0.885223 5.7677 0.873093C6.00917 0.870819 6.14598 0.951933 6.28279 1.14903C7.58656 3.04044 8.90155 4.92502 10.2143 6.81112C10.292 6.92256 10.3765 7.02945 10.4759 7.16363C11.0822 6.45937 11.6706 5.7771 12.2582 5.09332C13.4035 3.76137 14.545 2.4264 15.7 1.10279C15.7987 0.989837 15.9833 0.908723 16.1344 0.897352C16.5119 0.868545 16.8939 0.887497 17.3462 0.887497C15.247 3.33306 13.1994 5.71873 11.1331 8.12639C13.4177 11.4119 15.6948 14.686 17.9996 17.9996C17.8717 18.0125 17.782 18.0284 17.6916 18.0292C16.1471 18.0307 14.6026 18.0254 13.0588 18.036C12.8323 18.0375 12.7022 17.9609 12.5736 17.7744C11.2175 15.8118 9.85097 13.8567 8.48739 11.8993C8.4089 11.7864 8.32816 11.6757 8.17565 11.4619C8.10164 11.5885 8.05753 11.6969 7.98651 11.7803C6.2641 13.7907 4.54168 15.8012 2.80805 17.8017C2.70413 17.9215 2.50677 18.0041 2.34604 18.0178C1.97973 18.0496 1.60818 18.0276 1.15067 18.0276H1.14768ZM15.8525 16.9049C15.7411 16.7298 15.6731 16.6146 15.5969 16.5054C12.4765 12.0206 9.33141 7.55404 6.25886 3.03665C5.71089 2.23081 5.15619 1.84874 4.21349 1.99353C3.83372 2.0519 3.43825 2.00339 2.97849 2.00339C3.1153 2.20807 3.19604 2.33239 3.27977 2.45369C4.38394 4.0411 5.48886 5.62776 6.59378 7.21518C8.77446 10.3491 10.9536 13.4837 13.1388 16.6146C13.2188 16.7291 13.3451 16.889 13.4543 16.892C14.2318 16.9163 15.0108 16.9049 15.8533 16.9049H15.8525Z" fill="white"/>
</g>
<defs>
<clipPath id="clip0_69_1530">
<rect width="17.1621" height="17.1621" fill="white" transform="translate(0.835938 0.873047)"/>
</clipPath>
</defs>
</svg>
