<svg width="81" height="82" viewBox="0 0 81 82" fill="none" xmlns="http://www.w3.org/2000/svg">
<g clip-path="url(#clip0_141_2880)">
<path d="M63.2316 37.4105C62.8379 36.4587 61.909 35.8373 60.8781 35.8373C58.3159 35.8417 56.1516 33.937 55.8283 31.3956C55.5049 28.8542 57.1236 26.4685 59.6049 25.83V24.3758C59.6049 23.6727 60.1751 23.102 60.8781 23.102C61.5818 23.102 62.152 23.6727 62.152 24.3758V25.83C64.3947 26.4097 65.964 28.4283 65.9723 30.7438C65.9723 31.4475 65.4021 32.017 64.699 32.017C63.996 32.017 63.4252 31.4475 63.4252 30.7438C63.4252 29.3364 62.2849 28.1967 60.8781 28.1967C59.472 28.1967 58.3317 29.3364 58.3317 30.7438C58.3317 32.1505 59.472 33.2915 60.8781 33.2915C63.4398 33.2871 65.6052 35.1912 65.9286 37.7326C66.2513 40.2746 64.6332 42.6603 62.152 43.2988V44.753C62.152 45.4561 61.5818 46.0268 60.8781 46.0268C60.1751 46.0268 59.6049 45.4561 59.6049 44.753V43.2988C57.3622 42.7191 55.7928 40.7005 55.784 38.385C55.784 37.6813 56.3541 37.1118 57.0572 37.1118C57.7609 37.1118 58.3317 37.6813 58.3317 38.385C58.3317 39.4159 58.9518 40.3436 59.903 40.7384C60.8553 41.1327 61.9507 40.9144 62.6791 40.186C63.4081 39.4576 63.6258 38.3622 63.2316 37.4105ZM60.8781 51.121C71.4347 51.121 76.1612 45.363 76.1612 39.6589C76.1612 31.0729 68.3808 20.3296 66.6196 18.0078H55.1366C53.3742 20.3334 45.5957 31.0849 45.5957 39.6589C45.5957 45.363 50.3215 51.121 60.8781 51.121Z" fill="#EF5000"/>
<path d="M43.8346 43.9627C43.4884 43.0286 43.2537 42.0573 43.1359 41.0682C37.159 47.6197 27.4618 49.1992 19.7149 44.884C11.968 40.5695 8.20597 31.4931 10.6296 22.9628C13.0527 14.4331 21.0242 8.68905 29.8823 9.09152C38.7411 9.49399 46.1602 15.936 47.8004 24.6511C48.4092 23.5386 49.0236 22.4996 49.6185 21.5453C47.1163 13.7927 40.4718 8.0999 32.4262 6.81593C24.3807 5.53195 16.2958 8.8732 11.5029 15.4627C6.7119 22.0534 6.02529 30.7748 9.72661 38.0326C13.4279 45.2909 20.8913 49.8567 29.0382 49.8478C34.5373 49.8257 39.8238 47.7235 43.8346 43.9627Z" fill="#EF5000"/>
<path d="M74.682 62.2263L56.021 77.229C54.4516 78.4649 52.5127 79.1376 50.5149 79.1401C49.5954 79.1432 48.6829 78.985 47.8178 78.6724L31.9849 72.9936C31.5742 72.8474 31.1401 72.7721 30.7034 72.7721H24.86C24.4095 73.5561 23.5748 74.0421 22.6692 74.0453H4.83975C3.43301 74.0453 2.29268 72.905 2.29268 71.4989V58.7629C2.29268 57.3561 3.43301 56.2158 4.83975 56.2158H22.6692C23.5792 56.2202 24.4164 56.7107 24.8638 57.5017H29.8865C30.7123 57.5004 31.5166 57.2321 32.1785 56.7379C33.3239 55.8785 33.9333 55.4216 34.3003 55.1799L34.2851 55.1597C35.9058 53.9352 37.9637 53.4403 39.964 53.7953L60.2286 57.1068C61.8511 57.3536 63.1794 58.5249 63.6274 60.1038L69.5682 55.7728C70.8408 54.8578 72.5216 54.7363 73.9119 55.4596C75.2851 56.1418 76.1546 57.5403 76.1602 59.0723C76.1615 60.2911 75.6198 61.4479 74.682 62.2263ZM7.70576 39.6298C3.49376 31.7665 3.95065 22.2224 8.89608 14.7989C13.8421 7.37471 22.4718 3.27536 31.3514 4.13345C40.2311 4.99154 47.9166 10.6666 51.3502 18.9001C52.083 17.8364 52.6854 17.0245 53.0677 16.5157L50.9813 10.9381C50.5389 9.99266 50.6035 8.8884 51.154 8.00246C51.7052 7.11589 52.6658 6.56788 53.7093 6.5451C53.4803 5.62562 53.6878 4.65109 54.2719 3.905C54.856 3.15829 55.752 2.72291 56.6994 2.72481H65.0544C66.003 2.72291 66.899 3.15829 67.4831 3.905C68.0672 4.65109 68.2748 5.62562 68.0451 6.5451C69.0879 6.56788 70.0498 7.11589 70.5997 8.00246C71.1509 8.8884 71.2155 9.99266 70.7731 10.9381L68.6867 16.5157C70.6763 19.1273 78.7073 30.2433 78.7073 39.6589C78.7073 46.4085 73.1278 53.6681 60.8772 53.6681C52.7475 53.6681 47.5736 50.4648 45.0006 46.3427C40.5854 50.2225 34.9148 52.3721 29.0372 52.3949C20.1177 52.3987 11.9184 47.4931 7.70576 39.6298ZM74.9706 53.4257C74.4599 53.16 73.9125 52.9727 73.3499 52.8518C78.5485 49.6846 81 44.5556 81 39.6589C81 30.5439 74.3093 20.3195 71.2718 16.1493L72.893 11.8145C73.6195 10.1825 73.4929 8.31318 72.5463 6.79189C72.002 5.91545 71.2332 5.23138 70.339 4.79474C70.1808 3.96702 69.8271 3.17917 69.2885 2.4932C68.2646 1.18391 66.7231 0.432129 65.0544 0.432129H56.6949C55.0325 0.432129 53.4904 1.18391 52.4684 2.4913C51.9292 3.17854 51.5742 3.96702 51.4173 4.79474C50.5219 5.23138 49.7536 5.91545 49.2069 6.79253C48.5684 7.82085 48.3045 9.00927 48.4234 10.1768C44.088 5.50729 38.1364 2.48687 31.5729 1.85153C30.7275 1.76989 29.8681 1.72813 29.0208 1.72813C20.1462 1.72813 11.9102 6.1401 6.98815 13.5288C1.56305 21.6712 1.06439 32.0867 5.68519 40.7119C9.30171 47.4634 15.5767 52.1975 22.8331 53.939C22.7781 53.9371 22.7249 53.9231 22.6692 53.9225H4.84038C2.17181 53.9225 0 56.0943 0 58.7629V71.4982C0 74.1668 2.17181 76.3367 4.84038 76.3367H22.6768C23.8937 76.3323 25.0505 75.8653 25.9257 75.0635H30.7034C30.8768 75.0635 31.0496 75.0932 31.2116 75.1515L47.0401 80.8291C48.1507 81.229 49.3119 81.4321 50.4889 81.4321C50.4908 81.4321 50.5174 81.4321 50.5174 81.4321C53.0189 81.429 55.4768 80.5753 57.4562 79.0161L76.1482 63.9893C77.6151 62.7699 78.4555 60.9765 78.4523 59.066C78.4447 56.6493 77.0956 54.4825 74.9706 53.4257Z" fill="#EF5000"/>
<path d="M56.7282 65.1309H50.3438L53.2977 67.6305L56.7282 65.1309Z" fill="#EF5000"/>
<path d="M72.76 57.7295C72.2202 57.4447 71.5659 57.4846 71.0666 57.8339L54.6736 69.7788C53.7959 70.411 52.6011 70.3686 51.7715 69.6757L46.4008 65.1308H41.7731C41.0706 65.1308 40.4999 64.56 40.4999 63.8563C40.4999 63.1533 41.0706 62.5831 41.7731 62.5831H59.7177C60.1069 62.5882 60.4815 62.4338 60.753 62.1566C61.058 61.8687 61.2232 61.4637 61.2074 61.0454C61.134 60.3037 60.5575 59.7102 59.8171 59.6152L39.5177 56.293C38.2122 56.0683 36.8719 56.3911 35.812 57.1846L35.8031 57.1935C35.6905 57.2751 33.7066 58.7628 33.7066 58.7628C32.6036 59.5868 31.2646 60.0329 29.887 60.0361H25.2168V70.2243H30.7033C31.4323 70.225 32.155 70.3503 32.8416 70.5952L48.6865 76.2785C50.6521 76.9094 52.8024 76.5234 54.4249 75.2476L73.0694 60.2575C73.4169 59.962 73.6156 59.5285 73.6124 59.0723C73.608 58.4983 73.277 57.9769 72.76 57.7295Z" fill="#EF5000"/>
</g>
<defs>
<clipPath id="clip0_141_2880">
<rect width="81" height="81" fill="white" transform="translate(0 0.432129)"/>
</clipPath>
</defs>
</svg>
