<svg width="32" height="32" viewBox="0 0 32 32" fill="none" xmlns="http://www.w3.org/2000/svg">
<path d="M0.208539 31.3507C0.31809 30.9507 0.419424 30.5806 0.521063 30.2105C1.11811 28.0383 1.71577 25.8664 2.30826 23.693C2.32804 23.6209 2.31465 23.5202 2.27752 23.455C1.39655 21.904 0.785201 20.2532 0.458984 18.5004C0.191194 17.0614 0.131549 15.612 0.289789 14.1544C0.630613 11.0183 1.81467 8.23682 3.8301 5.81657C5.57835 3.71711 7.73954 2.18284 10.2912 1.20189C11.4165 0.769096 12.5777 0.476304 13.7724 0.322299C14.948 0.171033 16.1293 0.139684 17.3082 0.261123C20.6619 0.606265 23.6229 1.86935 26.1258 4.14047C28.4976 6.29289 30.1195 8.91493 30.918 12.0279C31.3532 13.7244 31.4685 15.4468 31.2798 17.1874C30.9278 20.4376 29.6804 23.3022 27.5393 25.7706C25.7064 27.8831 23.4646 29.4031 20.8214 30.3216C19.7609 30.6902 18.6715 30.9349 17.5541 31.06C16.7254 31.1528 15.8962 31.1912 15.0645 31.1446C13.6647 31.0661 12.3011 30.7864 10.9868 30.3061C10.1466 29.999 9.33289 29.6189 8.50487 29.2777C8.42849 29.2463 8.32715 29.2354 8.24803 29.2561C5.62734 29.9375 3.00786 30.6242 0.38808 31.3099C0.34 31.3224 0.291006 31.3321 0.208235 31.3504L0.208539 31.3507ZM3.90892 28.0411C3.97069 28.0268 4.00842 28.0198 4.04555 28.0094C5.47366 27.6098 6.90574 27.2224 8.32746 26.8005C8.67224 26.6983 8.94003 26.743 9.23703 26.9177C11.0474 27.9823 13.0193 28.5034 15.1056 28.6139C16.5964 28.6927 18.0638 28.5287 19.4919 28.0916C22.3271 27.2242 24.617 25.5852 26.333 23.1644C27.5667 21.424 28.3211 19.4883 28.5572 17.3663C28.7538 15.5995 28.6101 13.8525 28.1153 12.1414C27.4927 9.98749 26.3753 8.12482 24.7117 6.62251C22.5158 4.63962 19.9505 3.44258 16.9823 3.16987C15.5258 3.03626 14.0865 3.14096 12.6696 3.50984C10.0185 4.19982 7.80314 5.59682 6.02507 7.67224C4.29204 9.695 3.27596 12.0419 2.99904 14.6944C2.81737 16.4338 2.98443 18.1467 3.49962 19.8204C3.87209 21.0302 4.43141 22.1508 5.14806 23.1939C5.20861 23.2821 5.27769 23.357 5.23722 23.494C4.84923 24.7994 4.47067 26.1072 4.08967 27.4147C4.03094 27.6168 3.97312 27.8189 3.90892 28.0411Z" fill="#EF5000"/>
<path d="M10.8948 8.95733C11.047 8.95733 11.1991 8.95763 11.3513 8.95733C11.6483 8.95642 11.8832 9.07968 11.9985 9.35239C12.4045 10.3129 12.8004 11.2774 13.1914 12.2444C13.259 12.4115 13.2973 12.5941 13.3223 12.7731C13.3341 12.8574 13.2995 12.9596 13.2572 13.0385C12.993 13.5321 12.5925 13.9129 12.1991 14.3003C11.9708 14.5253 11.9435 14.7179 12.092 15.0028C12.637 16.048 13.3469 16.9644 14.2416 17.7356C14.9704 18.3641 15.7479 18.9193 16.6176 19.3375C16.841 19.4449 17.0677 19.5465 17.2959 19.6436C17.5902 19.7687 18.0098 19.6193 18.1958 19.3624C18.4273 19.0425 18.6878 18.7437 18.927 18.4293C19.0676 18.2445 19.1994 18.0515 19.3217 17.854C19.4769 17.6029 19.6348 17.5478 19.909 17.6501C20.1832 17.7521 20.4729 17.8175 20.7392 17.9362C21.4421 18.2494 22.1359 18.5823 22.8334 18.9077C22.8471 18.9141 22.8602 18.9226 22.8745 18.9269C23.3879 19.0812 23.6085 19.461 23.7634 19.9507C23.8495 20.2231 23.924 20.4751 23.8687 20.7494C23.8096 21.0412 23.7253 21.3283 23.6486 21.6165C23.4521 22.3555 22.8787 22.7566 22.2814 23.1349C21.7461 23.4737 21.153 23.5702 20.5295 23.6064C19.7602 23.6511 19.0259 23.5151 18.3014 23.2926C17.1909 22.9517 16.1049 22.5472 15.0924 21.9683C13.8396 21.2519 12.7614 20.3187 11.7761 19.2729C11.0409 18.4926 10.3745 17.6544 9.77253 16.7696C9.17883 15.8967 8.64355 14.9854 8.37607 13.95C7.98807 12.4477 8.17675 11.0443 9.1484 9.79279C9.28138 9.62144 9.43597 9.465 9.59117 9.31251C9.84161 9.06659 10.1474 8.95033 10.4995 8.95733C10.6313 8.95976 10.7634 8.95763 10.8951 8.95763L10.8948 8.95733Z" fill="#EF5000"/>
</svg>
