<svg width="69" height="71" viewBox="0 0 69 71" fill="none" xmlns="http://www.w3.org/2000/svg">
<path d="M25.8584 45.6516H56.105C56.3736 45.6516 56.6312 45.5433 56.8211 45.3506C57.011 45.158 57.1177 44.8966 57.1177 44.6242V20.5146C57.1177 20.359 57.0829 20.2054 57.0158 20.0655C56.9488 19.9256 56.8513 19.8029 56.7307 19.7068L41.6074 7.65196C41.429 7.50972 41.2086 7.43239 40.9817 7.43239C40.7548 7.43239 40.5344 7.50972 40.356 7.65196L25.2327 19.7068C25.1121 19.8029 25.0146 19.9255 24.9476 20.0655C24.8805 20.2054 24.8457 20.359 24.8457 20.5146V44.6242C24.8457 44.8966 24.9524 45.158 25.1423 45.3506C25.3322 45.5433 25.5898 45.6516 25.8584 45.6516ZM36.5933 43.5968V28.1173H45.3702V43.5968H36.5933ZM26.8711 21.014L40.9817 9.76648L55.0923 21.014V43.5968H47.3956V27.0899C47.3956 26.8174 47.2889 26.5561 47.099 26.3634C46.9091 26.1708 46.6515 26.0625 46.3829 26.0625H35.5805C35.3119 26.0625 35.0544 26.1708 34.8644 26.3634C34.6745 26.5561 34.5678 26.8174 34.5678 27.0899V43.5968H26.8711V21.014ZM62.5864 43.5968C62.027 43.5968 61.5737 44.0568 61.5737 44.6242C61.5737 45.1916 62.027 45.6516 62.5864 45.6516H66.9073C67.4668 45.6516 67.9201 45.1916 67.9201 44.6242C67.9201 44.0568 67.4668 43.5968 66.9073 43.5968H65.7596V9.48717H66.9073C67.4668 9.48717 67.9201 9.02717 67.9201 8.45977C67.9201 7.89237 67.4668 7.43237 66.9073 7.43237H62.5864C62.027 7.43237 61.5737 7.89237 61.5737 8.45977C61.5737 9.02717 62.027 9.48717 62.5864 9.48717H63.7342V43.5968H62.5864Z" fill="#EF5000"/>
<path d="M67.9873 53.4597H56.1047C55.5453 53.4597 55.092 53.9197 55.092 54.4871C55.092 55.0545 55.5453 55.5145 56.1047 55.5145H66.9746V68.8021H61.4384V65.446C61.4384 64.8786 60.9851 64.4186 60.4256 64.4186C59.8662 64.4186 59.4129 64.8786 59.4129 65.446V68.8021H52.7965V64.3501C52.7965 63.7827 52.3432 63.3227 51.7838 63.3227C51.2243 63.3227 50.771 63.7827 50.771 64.3501V68.8021H44.1546V65.446C44.1546 64.8786 43.7013 64.4186 43.1419 64.4186C42.5825 64.4186 42.1292 64.8786 42.1292 65.446V68.8021H35.5127V64.3501C35.5127 63.7827 35.0594 63.3227 34.5 63.3227C33.9406 63.3227 33.4873 63.7827 33.4873 64.3501V68.8021H26.8708V65.446C26.8708 64.8786 26.4175 64.4186 25.8581 64.4186C25.2987 64.4186 24.8454 64.8786 24.8454 65.446V68.8021H18.229V64.3501C18.229 63.7827 17.7757 63.3227 17.2162 63.3227C16.6568 63.3227 16.2035 63.7827 16.2035 64.3501V68.8021H9.58708V65.446C9.58708 64.8786 9.13379 64.4186 8.57436 64.4186C8.01494 64.4186 7.56164 64.8786 7.56164 65.446V68.8021H2.02544V63.1823C2.04786 63.1838 2.07014 63.1857 2.09296 63.1857H5.33366C5.89309 63.1857 6.34638 62.7257 6.34638 62.1583C6.34638 61.5909 5.89309 61.1309 5.33366 61.1309H2.09296C2.07014 61.1309 2.04786 61.1328 2.02544 61.1343V54.4152C2.04786 54.4167 2.07014 54.4186 2.09296 54.4186H7.49413C8.05356 54.4186 8.50685 53.9586 8.50685 53.3912C8.50685 52.8238 8.05356 52.3638 7.49413 52.3638H2.09296C2.07014 52.3638 2.04786 52.3657 2.02544 52.3672V45.648C2.04786 45.6495 2.07014 45.6515 2.09296 45.6515H5.33366C5.89309 45.6515 6.34638 45.1915 6.34638 44.6241C6.34638 44.0567 5.89309 43.5967 5.33366 43.5967H2.09296C2.07014 43.5967 2.04786 43.5986 2.02544 43.6001V36.8809C2.04786 36.8824 2.07014 36.8843 2.09296 36.8843H7.49413C8.05356 36.8843 8.50685 36.4243 8.50685 35.8569C8.50685 35.2895 8.05356 34.8295 7.49413 34.8295H2.09296C2.07014 34.8295 2.04786 34.8315 2.02544 34.833V28.1138C2.04786 28.1153 2.07014 28.1172 2.09296 28.1172H5.33366C5.89309 28.1172 6.34638 27.6572 6.34638 27.0898C6.34638 26.5224 5.89309 26.0624 5.33366 26.0624H2.09296C2.07014 26.0624 2.04786 26.0643 2.02544 26.0658V19.3467C2.04786 19.3482 2.07014 19.3501 2.09296 19.3501H7.49413C8.05356 19.3501 8.50685 18.8901 8.50685 18.3227C8.50685 17.7553 8.05356 17.2953 7.49413 17.2953H2.09296C2.07014 17.2953 2.04786 17.2972 2.02544 17.2987V10.5795C2.04786 10.581 2.07014 10.583 2.09296 10.583H5.33366C5.89309 10.583 6.34638 10.123 6.34638 9.55556C6.34638 8.98817 5.89309 8.52817 5.33366 8.52817H2.09296C2.07014 8.52817 2.04786 8.53008 2.02544 8.53159V2.91173H15.1233V54.4871C15.1233 54.7596 15.23 55.0209 15.4199 55.2136C15.6098 55.4062 15.8674 55.5145 16.136 55.5145H51.1674C51.7268 55.5145 52.1801 55.0545 52.1801 54.4871C52.1801 53.9197 51.7268 53.4597 51.1674 53.4597H17.1487V1.88433C17.1487 1.61185 17.042 1.35053 16.8521 1.15785C16.6622 0.965177 16.4046 0.856934 16.136 0.856934L1.01272 0.856934C0.74413 0.856934 0.486541 0.965177 0.296619 1.15785C0.106697 1.35053 0 1.61185 0 1.88433L0 69.8295C0 70.102 0.106697 70.3633 0.296619 70.556C0.486541 70.7487 0.74413 70.8569 1.01272 70.8569H67.9873C68.2559 70.8569 68.5135 70.7487 68.7034 70.556C68.8933 70.3633 69 70.102 69 69.8295V54.4871C69 54.2146 68.8933 53.9533 68.7034 53.7606C68.5135 53.5679 68.2559 53.4597 67.9873 53.4597Z" fill="#EF5000"/>
</svg>
