<svg xmlns="http://www.w3.org/2000/svg" xmlns:xlink="http://www.w3.org/1999/xlink" viewBox="0 0 656.52 626.07"><defs><style>.cls-1{font-size:222.01px;font-family:AraHamahAlThawra-Regular, Ara Hamah AlThawra;}.cls-1,.cls-11{fill:#fff;}.cls-2{fill:url(#linear-gradient);}.cls-3{fill:url(#linear-gradient-2);}.cls-4{fill:url(#linear-gradient-4);}.cls-5{fill:url(#linear-gradient-5);}.cls-6{fill:url(#linear-gradient-7);}.cls-7{fill:url(#linear-gradient-8);}.cls-8{fill:url(#linear-gradient-9);}.cls-9{fill:url(#linear-gradient-10);}.cls-10{fill:url(#linear-gradient-11);}</style><linearGradient id="linear-gradient" x1="363.61" y1="103.32" x2="363.48" y2="103.58" gradientUnits="userSpaceOnUse"><stop offset="0" stop-color="#fff"/><stop offset="0.31" stop-color="#f1f2f2"/><stop offset="1" stop-color="#fff"/></linearGradient><linearGradient id="linear-gradient-2" x1="365.98" y1="83.23" x2="363.58" y2="88.13" xlink:href="#linear-gradient"/><linearGradient id="linear-gradient-4" x1="364.44" y1="87.82" x2="364.15" y2="88.41" xlink:href="#linear-gradient"/><linearGradient id="linear-gradient-5" x1="405.77" y1="141.03" x2="405.01" y2="142.58" xlink:href="#linear-gradient"/><linearGradient id="linear-gradient-7" x1="366.91" y1="100.81" x2="365" y2="104.71" xlink:href="#linear-gradient"/><linearGradient id="linear-gradient-8" x1="366.14" y1="104.95" x2="366.01" y2="105.2" xlink:href="#linear-gradient"/><linearGradient id="linear-gradient-9" x1="183.61" y1="242.88" x2="183.6" y2="242.9" xlink:href="#linear-gradient"/><linearGradient id="linear-gradient-10" x1="302.59" y1="272.76" x2="286.97" y2="304.62" xlink:href="#linear-gradient"/><linearGradient id="linear-gradient-11" x1="425.72" y1="18.48" x2="253.92" y2="369.1" xlink:href="#linear-gradient"/></defs><g id="Layer_2" data-name="Layer 2"><g id="Layer_1-2" data-name="Layer 1"><text class="cls-1" transform="translate(0 532.48)">Saansud</text><text/><path class="cls-2" d="M363.5,103.26l.1.37v-.28A.43.43,0,0,1,363.5,103.26Z"/><path class="cls-3" d="M364.31,88c0,.15-.05.3-.07.45,0-.15.05-.3.07-.45Zm1-5h0c0,.09,0,.19-.07.29,0-.1.06-.2.08-.29h0a.14.14,0,0,1,0-.07Z"/><path class="cls-2" d="M363.6,103.35v.28l-.1-.37A.43.43,0,0,0,363.6,103.35Z"/><path class="cls-4" d="M364.35,87.78a2.07,2.07,0,0,1,0,.22c0,.15-.05.3-.07.45,0-.15,0-.3.07-.45A1.43,1.43,0,0,1,364.35,87.78Z"/><path class="cls-5" d="M407.63,141.94l-4.32-.19a.83.83,0,0,0-.12-.16Z"/><path class="cls-2" d="M363.6,103.35v.28l-.1-.37A.43.43,0,0,0,363.6,103.35Z"/><path class="cls-6" d="M366.1,105.24a1.86,1.86,0,0,1,0-.33l0-.26L366,104c0-.41-.06-.81-.08-1.22a1.48,1.48,0,0,1,0-.21c0-.34,0-.69-.05-1s0-.87,0-1.31c.12,2.31.23,4.11.28,4.9A.15.15,0,0,0,366.1,105.24Z"/><path class="cls-7" d="M366.09,105.17a1.15,1.15,0,0,1,0-.26,1.86,1.86,0,0,0,0,.33A.15.15,0,0,1,366.09,105.17Z"/><path class="cls-8" d="M183.61,242.88v0Z"/><path class="cls-9" d="M295.5,273.45c13,2,22.59,6.38,32.43,12.17-3.18,7.24-14.19,24.61-42.57,17.37,0,0-24-6.08-18.53-21.71C270,272,283.05,271.43,295.5,273.45Z"/><path class="cls-10" d="M467.4,146.51c-11.8-8.08-19.58-19.22-25.56-30.29,1.57-1.94,3.38-3.19,3.25-4.18-.5-3.78-.7-8.09-2.7-11.09a182.28,182.28,0,0,0-15.11-19c-6.12-7-6.53-17.65.76-23.41,3.93-3.1,4.91-6.34,5.13-10.57q.58-12.61,1.15-25.25l-1.24-.06q-.7,14.49-1.42,29a.2.2,0,0,1,0,.07h0a1.87,1.87,0,0,1-.52.42l-.13.07a6.26,6.26,0,0,1-1.17.42c-.93-.31-4.13-3.56-5.68-5.54-7.8-10-20-9.46-26.41,1.4-1.89,3.25-3.69,7-3.95,10.64s-1.58,5.57-3.63,6.79a.12.12,0,0,0-.06,0l-.07,0c-.26.11-.9.38-1.74.66h0c-.33.08-2.53.63-3.28.74h0l-.13,0c-7.94,1.11-14.5,4.18-18.45,12.05h0c-.11.22-.48,1.21-.53,1.33h0l-.08.33c0,.11-.08.25-.12.41s-.07.29-.1.45-.13.47-.18.74c0,.06,0,.12-.05.19v0h0a.14.14,0,0,0,0,.07h0c0,.09-.05.19-.08.29h0a1.29,1.29,0,0,1,0,.19l0,.14c0,.1,0,.22-.07.33-.2.92-.41,2-.63,3.19a3.06,3.06,0,0,1-.05.32c0,.11,0,.22,0,.33l0,.22c0,.15-.06.3-.08.45s-.05.31-.07.46c-.16,1-.3,2.1-.42,3.22a69.58,69.58,0,0,0-.38,11C339.82,80.56,343.11,33.65,339.17,13,339.17,13,338.89,0,326,0h-.17a9.35,9.35,0,0,0-3.05.33C319.62,1.21,315,4,312.56,12.92l0,0c-2.08,7.07-1.45,17-2.44,27.16a61.72,61.72,0,0,1-4.47,17.69,0,0,0,0,1,0,0c-.12.56-2.57,11-14.79,23.46a92.65,92.65,0,0,1-10.69,9.32l-.25.17,0,0h0c-.74.49-4.2,2.81-7.94,5.44-2.93,2.15-6.22,4.65-9.75,7.49-30,24.16-78.21,73.16-78.56,139.14v0s-5.32,80.31,60.93,120.69a103.45,103.45,0,0,0,27.37,12.71h0a126.62,126.62,0,0,0,40,4.9l-.24-.08v-.19l.1.12.14.15s5.78,0,5.88,0c26.73,0,57-9,89.24-34.44l.8-.69h0a87.38,87.38,0,0,0,12.27-14.47c-18.36-3.8-37.1-11.24-63.18-27.73-13,20.27-38.5,35.32-84.55,20.27,0,0-43.43-15.06-30.11-53.29,7.23-20,30.4-29.53,61.1-20.84a157.68,157.68,0,0,1,27.8,10.13c-2.9-16.5-16.22-26.35-27.51-37.94-25.49-24.9-13-54.72-13-54.72,15.05-42,63.41-28.67,63.41-28.67,38.52,11.87,23.75,45.76,23.75,45.76s-2.9,11.28-16.22,19.68c-10.42,6.37-24.33,6.37-27.5-3.76-4.06-15.35,12.73-19.4,12.73-19.4a10,10,0,0,0,6.09-4.92s2.89-4.64,1.73-9.56c-.87-4.05-3.18-5.21-5.79-6.09-6.37-1.73-25.77.59-29.82,19.7-2.61,13.32,6.08,21.71,16.21,31,0,0,36.77,28.09,31.56,66.6,21.43,11,36.78,19.7,62,22.59a36.35,36.35,0,0,0,6.14.19c.45-1.53.85-3.1,1.23-4.7q1.05-5.17,1.91-10.92a191.2,191.2,0,0,0-9.5-94.79c-8.28-22.34-16-36.64-25.18-48.42l-.11-.16,4.43.35h.12l10.2-3.59a4.84,4.84,0,0,1,4-2.45c2.85.41,6.34,1,8.22,2.84,7.76,7.71,15.07,15.89,22.47,24,2,2.17,3.67,4.58,6.38,8,1.89-4.52,3.23-7.76,4.67-11.21l5.87,2.38C474.63,155.7,474.31,151.25,467.4,146.51ZM363.6,103.63l-.1-.37a.43.43,0,0,0,.1.09Zm28.15,23a7,7,0,0,0-2.38-.21c-6.7-6.48-14.29-13-23.25-20.79v-.11s0-.06,0-.11a.2.2,0,0,0,0-.07v-.07a1.86,1.86,0,0,1,0-.33l0-.27c0-.2,0-.4-.06-.6,0-.41-.06-.81-.08-1.22a1.48,1.48,0,0,1,0-.21c0-.34,0-.69,0-1s0-.87,0-1.31a.06.06,0,0,1,0-.06,104,104,0,0,1,1.6-17.31h0a.11.11,0,0,1,0-.06,14.9,14.9,0,0,1,6.17-9A59.13,59.13,0,0,1,383,69.38a44.56,44.56,0,0,1,7.28-1.84c.16.28.3.56.46.84-2.4,5.14-4.74,10.33-7.23,15.43-6.3,12.84-3.91,22.67,7.65,31.31,3.88,2.9,7.7,5.91,11.63,8.92a11.07,11.07,0,0,1-6,3.25A8.83,8.83,0,0,1,391.75,126.6Zm19.39,9a.47.47,0,0,1-.18.1h0L399.4,137q-1.68-1.94-3.43-3.83l8.38-1.31.47-.39,3.19-2.63c1.83,1.85,3.37,3.34,4.75,5A8,8,0,0,1,411.14,135.63Z"/><path class="cls-11" d="M185.94,566.57V603h-6.12V566.57Z"/><path class="cls-11" d="M227.61,603V566.57h6.53l15.7,28.07-.6.65V566.57h5.82V603h-6.57l-15.66-27.65.6-.65V603Z"/><path class="cls-11" d="M297,603V566.57h6V603Zm2.51-30.73v-5.74h20.94v5.74Zm0,15.81V582.4h18.18v5.72Z"/><path class="cls-11" d="M359.61,603v-36.5h6V603Zm2.48-15v-5.74h12.57a3.85,3.85,0,0,0,3.09-1.37,5.55,5.55,0,0,0,1.18-3.63,5.34,5.34,0,0,0-1.17-3.6,3.87,3.87,0,0,0-3.1-1.36H362.09v-5.75h12.75a10.71,10.71,0,0,1,5.43,1.33,9.22,9.22,0,0,1,3.61,3.74,13,13,0,0,1,0,11.29,9.51,9.51,0,0,1-3.61,3.75,10.65,10.65,0,0,1-5.42,1.34Zm17.41,15-8.6-16.18,6.22-1.15L386.71,603Z"/><path class="cls-11" d="M421.73,603l13.7-36.47h4.37L453.49,603h-6.44l-9.44-27.17L428.18,603Zm6.45-6.92v-5.75h19.19v5.75Z"/></g></g></svg>